%TF.GenerationSoftware,KiCad,Pcbnew,7.0.1-3b83917a11~172~ubuntu22.04.1*%
%TF.CreationDate,2023-04-07T18:55:38-03:00*%
%TF.ProjectId,button-debouncer,62757474-6f6e-42d6-9465-626f756e6365,rev?*%
%TF.SameCoordinates,Original*%
%TF.FileFunction,Soldermask,Bot*%
%TF.FilePolarity,Negative*%
%FSLAX46Y46*%
G04 Gerber Fmt 4.6, Leading zero omitted, Abs format (unit mm)*
G04 Created by KiCad (PCBNEW 7.0.1-3b83917a11~172~ubuntu22.04.1) date 2023-04-07 18:55:38*
%MOMM*%
%LPD*%
G01*
G04 APERTURE LIST*
%ADD10O,3.500000X2.200000*%
%ADD11R,2.500000X1.500000*%
%ADD12O,2.500000X1.500000*%
%ADD13R,1.700000X1.700000*%
%ADD14O,1.700000X1.700000*%
%ADD15C,2.000000*%
%ADD16C,5.000000*%
G04 APERTURE END LIST*
D10*
%TO.C,SW6*%
X135200000Y-72464000D03*
X135200000Y-80664000D03*
D11*
X135200000Y-74564000D03*
D12*
X135200000Y-76564000D03*
X135200000Y-78564000D03*
%TD*%
D10*
%TO.C,SW5*%
X125000000Y-72400000D03*
X125000000Y-80600000D03*
D11*
X125000000Y-74500000D03*
D12*
X125000000Y-76500000D03*
X125000000Y-78500000D03*
%TD*%
D13*
%TO.C,J3*%
X113660000Y-51800000D03*
D14*
X116200000Y-51800000D03*
X118740000Y-51800000D03*
X121280000Y-51800000D03*
X123820000Y-51800000D03*
X126360000Y-51800000D03*
%TD*%
D15*
%TO.C,SW4*%
X131750000Y-89550000D03*
X138250000Y-89550000D03*
X131750000Y-85050000D03*
X138250000Y-85050000D03*
%TD*%
%TO.C,SW3*%
X121750000Y-89550000D03*
X128250000Y-89550000D03*
X121750000Y-85050000D03*
X128250000Y-85050000D03*
%TD*%
%TO.C,SW2*%
X111750000Y-89550000D03*
X118250000Y-89550000D03*
X111750000Y-85050000D03*
X118250000Y-85050000D03*
%TD*%
%TO.C,SW1*%
X101750000Y-89550000D03*
X108250000Y-89550000D03*
X101750000Y-85050000D03*
X108250000Y-85050000D03*
%TD*%
D14*
%TO.C,J2*%
X137000000Y-63540000D03*
D13*
X137000000Y-61000000D03*
%TD*%
D14*
%TO.C,J1*%
X103000000Y-63540000D03*
D13*
X103000000Y-61000000D03*
%TD*%
D16*
%TO.C,H4*%
X135000000Y-95000000D03*
%TD*%
%TO.C,H3*%
X105000000Y-95000000D03*
%TD*%
%TO.C,H2*%
X135000000Y-55000000D03*
%TD*%
%TO.C,H1*%
X105000000Y-55000000D03*
%TD*%
M02*
