%TF.GenerationSoftware,KiCad,Pcbnew,7.0.1-3b83917a11~172~ubuntu22.04.1*%
%TF.CreationDate,2023-04-07T18:55:38-03:00*%
%TF.ProjectId,button-debouncer,62757474-6f6e-42d6-9465-626f756e6365,rev?*%
%TF.SameCoordinates,Original*%
%TF.FileFunction,Soldermask,Top*%
%TF.FilePolarity,Negative*%
%FSLAX46Y46*%
G04 Gerber Fmt 4.6, Leading zero omitted, Abs format (unit mm)*
G04 Created by KiCad (PCBNEW 7.0.1-3b83917a11~172~ubuntu22.04.1) date 2023-04-07 18:55:38*
%MOMM*%
%LPD*%
G01*
G04 APERTURE LIST*
G04 Aperture macros list*
%AMRoundRect*
0 Rectangle with rounded corners*
0 $1 Rounding radius*
0 $2 $3 $4 $5 $6 $7 $8 $9 X,Y pos of 4 corners*
0 Add a 4 corners polygon primitive as box body*
4,1,4,$2,$3,$4,$5,$6,$7,$8,$9,$2,$3,0*
0 Add four circle primitives for the rounded corners*
1,1,$1+$1,$2,$3*
1,1,$1+$1,$4,$5*
1,1,$1+$1,$6,$7*
1,1,$1+$1,$8,$9*
0 Add four rect primitives between the rounded corners*
20,1,$1+$1,$2,$3,$4,$5,0*
20,1,$1+$1,$4,$5,$6,$7,0*
20,1,$1+$1,$6,$7,$8,$9,0*
20,1,$1+$1,$8,$9,$2,$3,0*%
G04 Aperture macros list end*
%ADD10RoundRect,0.150000X-0.825000X-0.150000X0.825000X-0.150000X0.825000X0.150000X-0.825000X0.150000X0*%
%ADD11RoundRect,0.250000X-0.250000X-0.475000X0.250000X-0.475000X0.250000X0.475000X-0.250000X0.475000X0*%
%ADD12RoundRect,0.250000X0.250000X0.475000X-0.250000X0.475000X-0.250000X-0.475000X0.250000X-0.475000X0*%
%ADD13RoundRect,0.250000X0.550000X-1.050000X0.550000X1.050000X-0.550000X1.050000X-0.550000X-1.050000X0*%
%ADD14RoundRect,0.140000X-0.140000X-0.170000X0.140000X-0.170000X0.140000X0.170000X-0.140000X0.170000X0*%
%ADD15RoundRect,0.135000X0.185000X-0.135000X0.185000X0.135000X-0.185000X0.135000X-0.185000X-0.135000X0*%
%ADD16RoundRect,0.135000X-0.135000X-0.185000X0.135000X-0.185000X0.135000X0.185000X-0.135000X0.185000X0*%
%ADD17RoundRect,0.135000X0.135000X0.185000X-0.135000X0.185000X-0.135000X-0.185000X0.135000X-0.185000X0*%
%ADD18RoundRect,0.147500X-0.172500X0.147500X-0.172500X-0.147500X0.172500X-0.147500X0.172500X0.147500X0*%
%ADD19RoundRect,0.150000X0.150000X-0.825000X0.150000X0.825000X-0.150000X0.825000X-0.150000X-0.825000X0*%
%ADD20O,3.500000X2.200000*%
%ADD21R,2.500000X1.500000*%
%ADD22O,2.500000X1.500000*%
%ADD23R,1.700000X1.700000*%
%ADD24O,1.700000X1.700000*%
%ADD25C,2.000000*%
%ADD26C,5.000000*%
G04 APERTURE END LIST*
D10*
%TO.C,U1*%
X117400000Y-66800000D03*
X117400000Y-68070000D03*
X117400000Y-69340000D03*
X117400000Y-70610000D03*
X117400000Y-71880000D03*
X117400000Y-73150000D03*
X117400000Y-74420000D03*
X112450000Y-74420000D03*
X112450000Y-73150000D03*
X112450000Y-71880000D03*
X112450000Y-70610000D03*
X112450000Y-69340000D03*
X112450000Y-68070000D03*
X112450000Y-66800000D03*
%TD*%
D11*
%TO.C,C4*%
X128950000Y-59800000D03*
X127050000Y-59800000D03*
%TD*%
D12*
%TO.C,C3*%
X115650000Y-64800000D03*
X117550000Y-64800000D03*
%TD*%
D13*
%TO.C,C1*%
X110700000Y-60800000D03*
X110700000Y-57200000D03*
%TD*%
D14*
%TO.C,C8*%
X107000000Y-69800000D03*
X106040000Y-69800000D03*
%TD*%
%TO.C,C7*%
X107000000Y-74000000D03*
X106040000Y-74000000D03*
%TD*%
%TO.C,C6*%
X106040000Y-78200000D03*
X107000000Y-78200000D03*
%TD*%
%TO.C,C5*%
X106040000Y-82430000D03*
X107000000Y-82430000D03*
%TD*%
D15*
%TO.C,R12*%
X123820000Y-59585000D03*
X123820000Y-58565000D03*
%TD*%
%TO.C,R11*%
X121280000Y-59585000D03*
X121280000Y-58565000D03*
%TD*%
%TO.C,R10*%
X118740000Y-59585000D03*
X118740000Y-58565000D03*
%TD*%
%TO.C,R9*%
X116200000Y-58565000D03*
X116200000Y-59585000D03*
%TD*%
D16*
%TO.C,R8*%
X103100000Y-67400000D03*
X104120000Y-67400000D03*
%TD*%
D17*
%TO.C,R7*%
X107060000Y-67400000D03*
X106040000Y-67400000D03*
%TD*%
D16*
%TO.C,R6*%
X104120000Y-71566668D03*
X103100000Y-71566668D03*
%TD*%
D17*
%TO.C,R5*%
X106040000Y-71566668D03*
X107060000Y-71566668D03*
%TD*%
D16*
%TO.C,R4*%
X103100000Y-75733334D03*
X104120000Y-75733334D03*
%TD*%
D17*
%TO.C,R3*%
X107060000Y-75733334D03*
X106040000Y-75733334D03*
%TD*%
D16*
%TO.C,R2*%
X103100000Y-80030000D03*
X104120000Y-80030000D03*
%TD*%
D17*
%TO.C,R1*%
X107060000Y-80030000D03*
X106040000Y-80030000D03*
%TD*%
D18*
%TO.C,D4*%
X123820000Y-56000000D03*
X123820000Y-56970000D03*
%TD*%
%TO.C,D3*%
X121280000Y-56000000D03*
X121280000Y-56970000D03*
%TD*%
%TO.C,D2*%
X118740000Y-56000000D03*
X118740000Y-56970000D03*
%TD*%
%TO.C,D1*%
X116200000Y-57000000D03*
X116200000Y-56030000D03*
%TD*%
D19*
%TO.C,U2*%
X126065000Y-62535000D03*
X127335000Y-62535000D03*
X128605000Y-62535000D03*
X129875000Y-62535000D03*
X131145000Y-62535000D03*
X132415000Y-62535000D03*
X133685000Y-62535000D03*
X133685000Y-67485000D03*
X132415000Y-67485000D03*
X131145000Y-67485000D03*
X129875000Y-67485000D03*
X128605000Y-67485000D03*
X127335000Y-67485000D03*
X126065000Y-67485000D03*
%TD*%
D20*
%TO.C,SW6*%
X135200000Y-72464000D03*
X135200000Y-80664000D03*
D21*
X135200000Y-74564000D03*
D22*
X135200000Y-76564000D03*
X135200000Y-78564000D03*
%TD*%
D20*
%TO.C,SW5*%
X125000000Y-72400000D03*
X125000000Y-80600000D03*
D21*
X125000000Y-74500000D03*
D22*
X125000000Y-76500000D03*
X125000000Y-78500000D03*
%TD*%
D23*
%TO.C,J3*%
X113660000Y-51800000D03*
D24*
X116200000Y-51800000D03*
X118740000Y-51800000D03*
X121280000Y-51800000D03*
X123820000Y-51800000D03*
X126360000Y-51800000D03*
%TD*%
D25*
%TO.C,SW4*%
X131750000Y-89550000D03*
X138250000Y-89550000D03*
X131750000Y-85050000D03*
X138250000Y-85050000D03*
%TD*%
%TO.C,SW3*%
X121750000Y-89550000D03*
X128250000Y-89550000D03*
X121750000Y-85050000D03*
X128250000Y-85050000D03*
%TD*%
%TO.C,SW2*%
X111750000Y-89550000D03*
X118250000Y-89550000D03*
X111750000Y-85050000D03*
X118250000Y-85050000D03*
%TD*%
%TO.C,SW1*%
X101750000Y-89550000D03*
X108250000Y-89550000D03*
X101750000Y-85050000D03*
X108250000Y-85050000D03*
%TD*%
D24*
%TO.C,J2*%
X137000000Y-63540000D03*
D23*
X137000000Y-61000000D03*
%TD*%
D24*
%TO.C,J1*%
X103000000Y-63540000D03*
D23*
X103000000Y-61000000D03*
%TD*%
D26*
%TO.C,H4*%
X135000000Y-95000000D03*
%TD*%
%TO.C,H3*%
X105000000Y-95000000D03*
%TD*%
%TO.C,H2*%
X135000000Y-55000000D03*
%TD*%
%TO.C,H1*%
X105000000Y-55000000D03*
%TD*%
M02*
