%TF.GenerationSoftware,KiCad,Pcbnew,7.0.1-3b83917a11~172~ubuntu22.04.1*%
%TF.CreationDate,2023-04-07T18:55:38-03:00*%
%TF.ProjectId,button-debouncer,62757474-6f6e-42d6-9465-626f756e6365,rev?*%
%TF.SameCoordinates,Original*%
%TF.FileFunction,Copper,L2,Bot*%
%TF.FilePolarity,Positive*%
%FSLAX46Y46*%
G04 Gerber Fmt 4.6, Leading zero omitted, Abs format (unit mm)*
G04 Created by KiCad (PCBNEW 7.0.1-3b83917a11~172~ubuntu22.04.1) date 2023-04-07 18:55:38*
%MOMM*%
%LPD*%
G01*
G04 APERTURE LIST*
%TA.AperFunction,ComponentPad*%
%ADD10O,3.500000X2.200000*%
%TD*%
%TA.AperFunction,ComponentPad*%
%ADD11R,2.500000X1.500000*%
%TD*%
%TA.AperFunction,ComponentPad*%
%ADD12O,2.500000X1.500000*%
%TD*%
%TA.AperFunction,ComponentPad*%
%ADD13R,1.700000X1.700000*%
%TD*%
%TA.AperFunction,ComponentPad*%
%ADD14O,1.700000X1.700000*%
%TD*%
%TA.AperFunction,ComponentPad*%
%ADD15C,2.000000*%
%TD*%
%TA.AperFunction,ComponentPad*%
%ADD16C,5.000000*%
%TD*%
%TA.AperFunction,ViaPad*%
%ADD17C,0.500000*%
%TD*%
%TA.AperFunction,ViaPad*%
%ADD18C,1.200000*%
%TD*%
%TA.AperFunction,Conductor*%
%ADD19C,0.127000*%
%TD*%
%TA.AperFunction,Conductor*%
%ADD20C,1.000000*%
%TD*%
G04 APERTURE END LIST*
D10*
%TO.P,SW6,*%
%TO.N,*%
X135200000Y-72464000D03*
X135200000Y-80664000D03*
D11*
%TO.P,SW6,1,A*%
%TO.N,Net-(SW6-A)*%
X135200000Y-74564000D03*
D12*
%TO.P,SW6,2,B*%
%TO.N,Q4*%
X135200000Y-76564000D03*
%TO.P,SW6,3,C*%
%TO.N,Net-(SW6-C)*%
X135200000Y-78564000D03*
%TD*%
D10*
%TO.P,SW5,*%
%TO.N,*%
X125000000Y-72400000D03*
X125000000Y-80600000D03*
D11*
%TO.P,SW5,1,A*%
%TO.N,Net-(SW5-A)*%
X125000000Y-74500000D03*
D12*
%TO.P,SW5,2,B*%
%TO.N,Q3*%
X125000000Y-76500000D03*
%TO.P,SW5,3,C*%
%TO.N,Net-(SW5-C)*%
X125000000Y-78500000D03*
%TD*%
D13*
%TO.P,J3,1,Pin_1*%
%TO.N,+5V*%
X113660000Y-51800000D03*
D14*
%TO.P,J3,2,Pin_2*%
%TO.N,Q1*%
X116200000Y-51800000D03*
%TO.P,J3,3,Pin_3*%
%TO.N,Q2*%
X118740000Y-51800000D03*
%TO.P,J3,4,Pin_4*%
%TO.N,Q3*%
X121280000Y-51800000D03*
%TO.P,J3,5,Pin_5*%
%TO.N,Q4*%
X123820000Y-51800000D03*
%TO.P,J3,6,Pin_6*%
%TO.N,GND*%
X126360000Y-51800000D03*
%TD*%
D15*
%TO.P,SW4,1,1*%
%TO.N,GND*%
X131750000Y-89550000D03*
X138250000Y-89550000D03*
%TO.P,SW4,2,2*%
%TO.N,Net-(R7-Pad1)*%
X131750000Y-85050000D03*
X138250000Y-85050000D03*
%TD*%
%TO.P,SW3,1,1*%
%TO.N,GND*%
X121750000Y-89550000D03*
X128250000Y-89550000D03*
%TO.P,SW3,2,2*%
%TO.N,Net-(R5-Pad1)*%
X121750000Y-85050000D03*
X128250000Y-85050000D03*
%TD*%
%TO.P,SW2,1,1*%
%TO.N,GND*%
X111750000Y-89550000D03*
X118250000Y-89550000D03*
%TO.P,SW2,2,2*%
%TO.N,Net-(R3-Pad1)*%
X111750000Y-85050000D03*
X118250000Y-85050000D03*
%TD*%
%TO.P,SW1,1,1*%
%TO.N,GND*%
X101750000Y-89550000D03*
X108250000Y-89550000D03*
%TO.P,SW1,2,2*%
%TO.N,Net-(R1-Pad1)*%
X101750000Y-85050000D03*
X108250000Y-85050000D03*
%TD*%
D14*
%TO.P,J2,2,Pin_2*%
%TO.N,GND*%
X137000000Y-63540000D03*
D13*
%TO.P,J2,1,Pin_1*%
X137000000Y-61000000D03*
%TD*%
D14*
%TO.P,J1,2,Pin_2*%
%TO.N,+5V*%
X103000000Y-63540000D03*
D13*
%TO.P,J1,1,Pin_1*%
X103000000Y-61000000D03*
%TD*%
D16*
%TO.P,H4,1,1*%
%TO.N,GND*%
X135000000Y-95000000D03*
%TD*%
%TO.P,H3,1,1*%
%TO.N,GND*%
X105000000Y-95000000D03*
%TD*%
%TO.P,H2,1,1*%
%TO.N,GND*%
X135000000Y-55000000D03*
%TD*%
%TO.P,H1,1,1*%
%TO.N,GND*%
X105000000Y-55000000D03*
%TD*%
D17*
%TO.N,GND*%
X130800000Y-64250000D03*
X131950000Y-70300000D03*
%TO.N,Q2*%
X115050000Y-72050000D03*
%TO.N,Q1*%
X129050000Y-69400000D03*
%TO.N,Q2*%
X130350000Y-69400000D03*
%TO.N,Q4*%
X132037746Y-58812254D03*
%TO.N,Q3*%
X131150000Y-60700000D03*
%TO.N,Net-(SW6-A)*%
X119850000Y-68070000D03*
%TO.N,Net-(SW6-C)*%
X119850000Y-69340000D03*
%TO.N,Net-(SW5-A)*%
X119850000Y-70600000D03*
%TO.N,Net-(SW5-C)*%
X119850000Y-71880000D03*
%TO.N,GND*%
X104200000Y-69800000D03*
X104200000Y-74000000D03*
X104200000Y-78200000D03*
%TO.N,Net-(R1-Pad1)*%
X108000000Y-80030000D03*
%TO.N,Net-(R3-Pad1)*%
X108000000Y-75733334D03*
%TO.N,Net-(R5-Pad1)*%
X108000000Y-71600000D03*
%TO.N,Net-(R7-Pad1)*%
X108000000Y-67400000D03*
D18*
%TO.N,+5V*%
X113600000Y-57800000D03*
X127050000Y-56800000D03*
%TD*%
D19*
%TO.N,Q1*%
X116200000Y-51800000D02*
X119550000Y-55150000D01*
X119550000Y-55150000D02*
X127400000Y-55150000D01*
X127400000Y-55150000D02*
X129050000Y-56800000D01*
X129050000Y-56800000D02*
X129050000Y-69400000D01*
%TO.N,Q4*%
X132037746Y-58812254D02*
X132037746Y-57987746D01*
X132037746Y-57987746D02*
X128173000Y-54123000D01*
X126143000Y-54123000D02*
X123820000Y-51800000D01*
X128173000Y-54123000D02*
X126143000Y-54123000D01*
%TO.N,Q2*%
X130350000Y-69400000D02*
X129500000Y-68550000D01*
X129500000Y-68550000D02*
X129500000Y-56650000D01*
X129500000Y-56650000D02*
X127650000Y-54800000D01*
X127650000Y-54800000D02*
X121740000Y-54800000D01*
X121740000Y-54800000D02*
X118740000Y-51800000D01*
%TO.N,Q3*%
X131150000Y-60700000D02*
X131150000Y-57700000D01*
X131150000Y-57700000D02*
X127900000Y-54450000D01*
X127900000Y-54450000D02*
X123850000Y-54450000D01*
X123850000Y-54450000D02*
X121280000Y-51880000D01*
X121280000Y-51880000D02*
X121280000Y-51800000D01*
%TO.N,Q4*%
X132037746Y-58812254D02*
X132050000Y-58824508D01*
X136986000Y-76564000D02*
X135200000Y-76564000D01*
X132050000Y-58824508D02*
X132050000Y-64050000D01*
X132050000Y-64050000D02*
X138050000Y-70050000D01*
X138050000Y-70050000D02*
X138050000Y-75500000D01*
X138050000Y-75500000D02*
X136986000Y-76564000D01*
%TO.N,Q2*%
X115450000Y-69750000D02*
X115050000Y-70150000D01*
X115050000Y-70150000D02*
X115050000Y-72050000D01*
X125900000Y-67250000D02*
X119400000Y-67250000D01*
X128563500Y-69913500D02*
X125900000Y-67250000D01*
X129836500Y-69913500D02*
X128563500Y-69913500D01*
X130350000Y-69400000D02*
X129836500Y-69913500D01*
X119400000Y-67250000D02*
X117950000Y-67250000D01*
X117950000Y-67250000D02*
X115450000Y-69750000D01*
%TO.N,Net-(SW6-A)*%
X119850000Y-68070000D02*
X126170000Y-68070000D01*
X126170000Y-68070000D02*
X132664000Y-74564000D01*
X132664000Y-74564000D02*
X135200000Y-74564000D01*
%TO.N,Net-(SW6-C)*%
X135200000Y-78564000D02*
X125976000Y-69340000D01*
X125976000Y-69340000D02*
X119850000Y-69340000D01*
%TO.N,Net-(SW5-A)*%
X119850000Y-70600000D02*
X123750000Y-74500000D01*
X123750000Y-74500000D02*
X125000000Y-74500000D01*
%TO.N,Net-(SW5-C)*%
X119850000Y-71880000D02*
X119850000Y-74400000D01*
X119850000Y-74400000D02*
X123950000Y-78500000D01*
X123950000Y-78500000D02*
X125000000Y-78500000D01*
%TO.N,Net-(R5-Pad1)*%
X108000000Y-71600000D02*
X108300000Y-71600000D01*
X108300000Y-71600000D02*
X121750000Y-85050000D01*
%TO.N,Net-(R7-Pad1)*%
X129900000Y-83200000D02*
X123800000Y-83200000D01*
X131750000Y-85050000D02*
X129900000Y-83200000D01*
X123800000Y-83200000D02*
X108000000Y-67400000D01*
%TO.N,Net-(R3-Pad1)*%
X108000000Y-75733334D02*
X111750000Y-79483334D01*
X111750000Y-79483334D02*
X111750000Y-85050000D01*
%TO.N,Net-(R1-Pad1)*%
X108000000Y-80030000D02*
X108250000Y-80280000D01*
X108250000Y-80280000D02*
X108250000Y-85050000D01*
D20*
%TO.N,+5V*%
X114600000Y-56800000D02*
X113600000Y-57800000D01*
X127050000Y-56800000D02*
X114600000Y-56800000D01*
%TD*%
%TA.AperFunction,Conductor*%
%TO.N,GND*%
G36*
X129870694Y-56794046D02*
G01*
X130867694Y-57791046D01*
X130886000Y-57835240D01*
X130886000Y-60300023D01*
X130878355Y-60329976D01*
X130857291Y-60352601D01*
X130851950Y-60356033D01*
X130767118Y-60453936D01*
X130713303Y-60571774D01*
X130694866Y-60700000D01*
X130713303Y-60828225D01*
X130767118Y-60946063D01*
X130851951Y-61043967D01*
X130960931Y-61114004D01*
X131085227Y-61150500D01*
X131085228Y-61150500D01*
X131214772Y-61150500D01*
X131214773Y-61150500D01*
X131276920Y-61132252D01*
X131339069Y-61114004D01*
X131448049Y-61043967D01*
X131532882Y-60946063D01*
X131586697Y-60828226D01*
X131605133Y-60700000D01*
X131586697Y-60571774D01*
X131532882Y-60453937D01*
X131448049Y-60356033D01*
X131442709Y-60352601D01*
X131421645Y-60329976D01*
X131414000Y-60300023D01*
X131414000Y-57888240D01*
X131432306Y-57844046D01*
X131476500Y-57825740D01*
X131520694Y-57844046D01*
X131755440Y-58078792D01*
X131773746Y-58122986D01*
X131773746Y-58412277D01*
X131766101Y-58442230D01*
X131745037Y-58464855D01*
X131739696Y-58468287D01*
X131654864Y-58566190D01*
X131601049Y-58684028D01*
X131582612Y-58812253D01*
X131601049Y-58940479D01*
X131654864Y-59058317D01*
X131739697Y-59156222D01*
X131757290Y-59167528D01*
X131778355Y-59190153D01*
X131786000Y-59220106D01*
X131786000Y-64017843D01*
X131784799Y-64030035D01*
X131780827Y-64049999D01*
X131786000Y-64076002D01*
X131801317Y-64153008D01*
X131859666Y-64240332D01*
X131859667Y-64240333D01*
X131876591Y-64251641D01*
X131886062Y-64259414D01*
X137767694Y-70141046D01*
X137786000Y-70185240D01*
X137786000Y-75364760D01*
X137767694Y-75408954D01*
X136894954Y-76281694D01*
X136850760Y-76300000D01*
X136659321Y-76300000D01*
X136623617Y-76288798D01*
X136600712Y-76259207D01*
X136557764Y-76143246D01*
X136455636Y-75979397D01*
X136455509Y-75979193D01*
X136322323Y-75839081D01*
X136163658Y-75728647D01*
X136074371Y-75690331D01*
X135986013Y-75652413D01*
X135961167Y-75647307D01*
X135916949Y-75638220D01*
X135879154Y-75613992D01*
X135867352Y-75570677D01*
X135887632Y-75530624D01*
X135929531Y-75514500D01*
X136469749Y-75514500D01*
X136528231Y-75502867D01*
X136594552Y-75458552D01*
X136638867Y-75392231D01*
X136650500Y-75333749D01*
X136650500Y-73794251D01*
X136638867Y-73735768D01*
X136594553Y-73669449D01*
X136594552Y-73669448D01*
X136568812Y-73652248D01*
X136544501Y-73620802D01*
X136544068Y-73581055D01*
X136567688Y-73549086D01*
X136689139Y-73464047D01*
X136850047Y-73303139D01*
X136980568Y-73116734D01*
X137076739Y-72910496D01*
X137135635Y-72690692D01*
X137155468Y-72464000D01*
X137135635Y-72237308D01*
X137132060Y-72223967D01*
X137076739Y-72017505D01*
X137075106Y-72014004D01*
X136980568Y-71811266D01*
X136980567Y-71811264D01*
X136850047Y-71624860D01*
X136689139Y-71463952D01*
X136502735Y-71333432D01*
X136296494Y-71237260D01*
X136076692Y-71178364D01*
X135906786Y-71163500D01*
X135906784Y-71163500D01*
X134493216Y-71163500D01*
X134493214Y-71163500D01*
X134323307Y-71178364D01*
X134103505Y-71237260D01*
X133897264Y-71333432D01*
X133710860Y-71463952D01*
X133549952Y-71624860D01*
X133419432Y-71811264D01*
X133323260Y-72017505D01*
X133264364Y-72237307D01*
X133244531Y-72464000D01*
X133264364Y-72690692D01*
X133323260Y-72910494D01*
X133419432Y-73116735D01*
X133549952Y-73303139D01*
X133710860Y-73464047D01*
X133832310Y-73549086D01*
X133855931Y-73581055D01*
X133855498Y-73620802D01*
X133831186Y-73652249D01*
X133805447Y-73669447D01*
X133761132Y-73735768D01*
X133749500Y-73794251D01*
X133749500Y-74237500D01*
X133731194Y-74281694D01*
X133687000Y-74300000D01*
X132799240Y-74300000D01*
X132755046Y-74281694D01*
X128757546Y-70284194D01*
X128739240Y-70240000D01*
X128757546Y-70195806D01*
X128801740Y-70177500D01*
X129804343Y-70177500D01*
X129816535Y-70178701D01*
X129820423Y-70179474D01*
X129836500Y-70182672D01*
X129939508Y-70162183D01*
X130004790Y-70118562D01*
X130017806Y-70109865D01*
X130017807Y-70109863D01*
X130026833Y-70103833D01*
X130038146Y-70086899D01*
X130045910Y-70077440D01*
X130254545Y-69868806D01*
X130298740Y-69850500D01*
X130414773Y-69850500D01*
X130476920Y-69832251D01*
X130539069Y-69814004D01*
X130648049Y-69743967D01*
X130732882Y-69646063D01*
X130786697Y-69528226D01*
X130805133Y-69400000D01*
X130786697Y-69271774D01*
X130732882Y-69153937D01*
X130648049Y-69056033D01*
X130648048Y-69056032D01*
X130539068Y-68985995D01*
X130414773Y-68949500D01*
X130414772Y-68949500D01*
X130298741Y-68949500D01*
X130254547Y-68931194D01*
X129782306Y-68458954D01*
X129768758Y-68438678D01*
X129764000Y-68414760D01*
X129764000Y-56838240D01*
X129782306Y-56794046D01*
X129826500Y-56775740D01*
X129870694Y-56794046D01*
G37*
%TD.AperFunction*%
%TA.AperFunction,Conductor*%
G36*
X135001351Y-50200559D02*
G01*
X135415593Y-50218645D01*
X135421011Y-50219120D01*
X135830728Y-50273060D01*
X135836063Y-50274000D01*
X136239566Y-50363454D01*
X136244791Y-50364855D01*
X136638928Y-50489126D01*
X136644042Y-50490987D01*
X137025840Y-50649134D01*
X137030770Y-50651432D01*
X137397338Y-50842255D01*
X137402038Y-50844968D01*
X137689636Y-51028189D01*
X137750571Y-51067009D01*
X137755038Y-51070136D01*
X138082900Y-51321713D01*
X138087076Y-51325218D01*
X138391746Y-51604397D01*
X138395602Y-51608253D01*
X138674781Y-51912923D01*
X138678286Y-51917099D01*
X138929863Y-52244961D01*
X138932990Y-52249428D01*
X139155024Y-52597950D01*
X139157748Y-52602668D01*
X139196799Y-52677685D01*
X139348564Y-52969224D01*
X139350868Y-52974165D01*
X139509010Y-53355952D01*
X139510875Y-53361076D01*
X139635141Y-53755198D01*
X139636548Y-53760449D01*
X139725994Y-54163908D01*
X139726940Y-54169277D01*
X139780878Y-54578981D01*
X139781354Y-54584413D01*
X139799441Y-54998649D01*
X139799500Y-55001375D01*
X139799500Y-89036021D01*
X139785313Y-89075671D01*
X139749193Y-89097320D01*
X139707538Y-89091141D01*
X139679258Y-89059939D01*
X139597793Y-88863266D01*
X139473768Y-88660876D01*
X139417333Y-88594799D01*
X139417332Y-88594798D01*
X138462131Y-89549999D01*
X139417332Y-90505200D01*
X139473770Y-90439120D01*
X139597793Y-90236733D01*
X139679258Y-90040061D01*
X139707538Y-90008859D01*
X139749193Y-90002680D01*
X139785313Y-90024329D01*
X139799500Y-90063979D01*
X139799500Y-94998625D01*
X139799441Y-95001351D01*
X139781354Y-95415586D01*
X139780878Y-95421018D01*
X139726940Y-95830722D01*
X139725995Y-95836085D01*
X139636550Y-96239545D01*
X139635141Y-96244801D01*
X139510875Y-96638923D01*
X139509010Y-96644047D01*
X139350868Y-97025834D01*
X139348564Y-97030775D01*
X139157750Y-97397327D01*
X139155024Y-97402049D01*
X138932990Y-97750571D01*
X138929863Y-97755038D01*
X138678286Y-98082900D01*
X138674781Y-98087076D01*
X138395602Y-98391746D01*
X138391746Y-98395602D01*
X138087076Y-98674781D01*
X138082900Y-98678286D01*
X137755038Y-98929863D01*
X137750571Y-98932990D01*
X137402049Y-99155024D01*
X137397327Y-99157750D01*
X137030775Y-99348564D01*
X137025834Y-99350868D01*
X136644047Y-99509010D01*
X136638923Y-99510875D01*
X136244801Y-99635141D01*
X136239545Y-99636550D01*
X135836085Y-99725995D01*
X135830722Y-99726940D01*
X135421018Y-99780878D01*
X135415586Y-99781354D01*
X135001351Y-99799441D01*
X134998625Y-99799500D01*
X105001375Y-99799500D01*
X104998649Y-99799441D01*
X104584413Y-99781354D01*
X104578981Y-99780878D01*
X104169277Y-99726940D01*
X104163918Y-99725995D01*
X103760449Y-99636548D01*
X103755198Y-99635141D01*
X103361076Y-99510875D01*
X103355952Y-99509010D01*
X102974165Y-99350868D01*
X102969224Y-99348564D01*
X102768024Y-99243826D01*
X102602668Y-99157748D01*
X102597950Y-99155024D01*
X102249428Y-98932990D01*
X102244961Y-98929863D01*
X101917099Y-98678286D01*
X101912923Y-98674781D01*
X101608253Y-98395602D01*
X101604397Y-98391746D01*
X101325218Y-98087076D01*
X101321713Y-98082900D01*
X101276880Y-98024473D01*
X101070136Y-97755038D01*
X101067009Y-97750571D01*
X100854422Y-97416877D01*
X100844968Y-97402038D01*
X100842255Y-97397338D01*
X100756127Y-97231888D01*
X102980243Y-97231888D01*
X103200703Y-97416877D01*
X103493449Y-97609418D01*
X103806572Y-97766674D01*
X104135837Y-97886517D01*
X104476780Y-97967322D01*
X104824801Y-98008000D01*
X105175199Y-98008000D01*
X105523219Y-97967322D01*
X105864162Y-97886517D01*
X106193427Y-97766674D01*
X106506550Y-97609418D01*
X106799296Y-97416877D01*
X107019755Y-97231888D01*
X132980243Y-97231888D01*
X133200703Y-97416877D01*
X133493449Y-97609418D01*
X133806572Y-97766674D01*
X134135837Y-97886517D01*
X134476780Y-97967322D01*
X134824801Y-98008000D01*
X135175199Y-98008000D01*
X135523219Y-97967322D01*
X135864162Y-97886517D01*
X136193427Y-97766674D01*
X136506550Y-97609418D01*
X136799296Y-97416877D01*
X137019755Y-97231888D01*
X137019755Y-97231887D01*
X135000000Y-95212132D01*
X132980243Y-97231887D01*
X132980243Y-97231888D01*
X107019755Y-97231888D01*
X107019755Y-97231887D01*
X105000000Y-95212132D01*
X102980243Y-97231887D01*
X102980243Y-97231888D01*
X100756127Y-97231888D01*
X100651432Y-97030770D01*
X100649131Y-97025834D01*
X100646186Y-97018725D01*
X100490987Y-96644042D01*
X100489124Y-96638923D01*
X100364858Y-96244801D01*
X100363454Y-96239566D01*
X100274000Y-95836063D01*
X100273059Y-95830722D01*
X100255174Y-95694867D01*
X100219120Y-95421011D01*
X100218645Y-95415586D01*
X100200559Y-95001351D01*
X100200530Y-95000000D01*
X101986901Y-95000000D01*
X102007274Y-95349800D01*
X102068119Y-95694867D01*
X102168611Y-96030532D01*
X102307397Y-96352276D01*
X102482595Y-96655726D01*
X102691832Y-96936781D01*
X102769142Y-97018725D01*
X104787868Y-95000000D01*
X104787867Y-94999999D01*
X105212131Y-94999999D01*
X107230856Y-97018725D01*
X107308167Y-96936781D01*
X107517404Y-96655726D01*
X107692602Y-96352276D01*
X107831388Y-96030532D01*
X107931880Y-95694867D01*
X107992725Y-95349800D01*
X108013098Y-95000000D01*
X131986901Y-95000000D01*
X132007274Y-95349800D01*
X132068119Y-95694867D01*
X132168611Y-96030532D01*
X132307397Y-96352276D01*
X132482595Y-96655726D01*
X132691832Y-96936781D01*
X132769142Y-97018725D01*
X134787868Y-95000000D01*
X135212132Y-95000000D01*
X137230856Y-97018725D01*
X137308167Y-96936781D01*
X137517404Y-96655726D01*
X137692602Y-96352276D01*
X137831388Y-96030532D01*
X137931880Y-95694867D01*
X137992725Y-95349800D01*
X138013098Y-94999999D01*
X137992725Y-94650199D01*
X137931880Y-94305132D01*
X137831388Y-93969467D01*
X137692602Y-93647723D01*
X137517404Y-93344273D01*
X137308167Y-93063218D01*
X137230856Y-92981273D01*
X135212132Y-95000000D01*
X134787868Y-95000000D01*
X132769142Y-92981273D01*
X132691832Y-93063218D01*
X132482595Y-93344273D01*
X132307397Y-93647723D01*
X132168611Y-93969467D01*
X132068119Y-94305132D01*
X132007274Y-94650199D01*
X131986901Y-95000000D01*
X108013098Y-95000000D01*
X107992725Y-94650199D01*
X107931880Y-94305132D01*
X107831388Y-93969467D01*
X107692602Y-93647723D01*
X107517404Y-93344273D01*
X107308167Y-93063218D01*
X107230856Y-92981273D01*
X105212131Y-94999999D01*
X104787867Y-94999999D01*
X102769142Y-92981273D01*
X102691832Y-93063218D01*
X102482595Y-93344273D01*
X102307397Y-93647723D01*
X102168611Y-93969467D01*
X102068119Y-94305132D01*
X102007274Y-94650199D01*
X101986901Y-95000000D01*
X100200530Y-95000000D01*
X100200500Y-94998625D01*
X100200500Y-92768111D01*
X102980243Y-92768111D01*
X104999999Y-94787867D01*
X107019755Y-92768111D01*
X132980243Y-92768111D01*
X134999999Y-94787867D01*
X137019755Y-92768111D01*
X137019755Y-92768110D01*
X136799296Y-92583122D01*
X136506550Y-92390581D01*
X136193427Y-92233325D01*
X135864162Y-92113482D01*
X135523219Y-92032677D01*
X135175199Y-91992000D01*
X134824801Y-91992000D01*
X134476780Y-92032677D01*
X134135837Y-92113482D01*
X133806572Y-92233325D01*
X133493449Y-92390581D01*
X133200703Y-92583122D01*
X132980243Y-92768110D01*
X132980243Y-92768111D01*
X107019755Y-92768111D01*
X107019755Y-92768110D01*
X106799296Y-92583122D01*
X106506550Y-92390581D01*
X106193427Y-92233325D01*
X105864162Y-92113482D01*
X105523219Y-92032677D01*
X105175199Y-91992000D01*
X104824801Y-91992000D01*
X104476780Y-92032677D01*
X104135837Y-92113482D01*
X103806572Y-92233325D01*
X103493449Y-92390581D01*
X103200703Y-92583122D01*
X102980243Y-92768110D01*
X102980243Y-92768111D01*
X100200500Y-92768111D01*
X100200500Y-90717332D01*
X100794798Y-90717332D01*
X100794799Y-90717333D01*
X100860876Y-90773768D01*
X101063266Y-90897793D01*
X101282560Y-90988628D01*
X101513368Y-91044039D01*
X101750000Y-91062663D01*
X101986631Y-91044039D01*
X102217439Y-90988628D01*
X102436733Y-90897793D01*
X102639120Y-90773770D01*
X102705200Y-90717332D01*
X107294798Y-90717332D01*
X107294799Y-90717333D01*
X107360876Y-90773768D01*
X107563266Y-90897793D01*
X107782560Y-90988628D01*
X108013368Y-91044039D01*
X108250000Y-91062663D01*
X108486631Y-91044039D01*
X108717439Y-90988628D01*
X108936733Y-90897793D01*
X109139120Y-90773770D01*
X109205200Y-90717332D01*
X110794798Y-90717332D01*
X110794799Y-90717333D01*
X110860876Y-90773768D01*
X111063266Y-90897793D01*
X111282560Y-90988628D01*
X111513368Y-91044039D01*
X111750000Y-91062663D01*
X111986631Y-91044039D01*
X112217439Y-90988628D01*
X112436733Y-90897793D01*
X112639120Y-90773770D01*
X112705200Y-90717332D01*
X117294798Y-90717332D01*
X117294799Y-90717333D01*
X117360876Y-90773768D01*
X117563266Y-90897793D01*
X117782560Y-90988628D01*
X118013368Y-91044039D01*
X118250000Y-91062663D01*
X118486631Y-91044039D01*
X118717439Y-90988628D01*
X118936733Y-90897793D01*
X119139120Y-90773770D01*
X119205200Y-90717332D01*
X120794798Y-90717332D01*
X120794799Y-90717333D01*
X120860876Y-90773768D01*
X121063266Y-90897793D01*
X121282560Y-90988628D01*
X121513368Y-91044039D01*
X121750000Y-91062663D01*
X121986631Y-91044039D01*
X122217439Y-90988628D01*
X122436733Y-90897793D01*
X122639120Y-90773770D01*
X122705200Y-90717332D01*
X127294798Y-90717332D01*
X127294799Y-90717333D01*
X127360876Y-90773768D01*
X127563266Y-90897793D01*
X127782560Y-90988628D01*
X128013368Y-91044039D01*
X128250000Y-91062663D01*
X128486631Y-91044039D01*
X128717439Y-90988628D01*
X128936733Y-90897793D01*
X129139120Y-90773770D01*
X129205200Y-90717332D01*
X130794798Y-90717332D01*
X130794799Y-90717333D01*
X130860876Y-90773768D01*
X131063266Y-90897793D01*
X131282560Y-90988628D01*
X131513368Y-91044039D01*
X131750000Y-91062663D01*
X131986631Y-91044039D01*
X132217439Y-90988628D01*
X132436733Y-90897793D01*
X132639120Y-90773770D01*
X132705200Y-90717332D01*
X137294798Y-90717332D01*
X137294799Y-90717333D01*
X137360876Y-90773768D01*
X137563266Y-90897793D01*
X137782560Y-90988628D01*
X138013368Y-91044039D01*
X138250000Y-91062663D01*
X138486631Y-91044039D01*
X138717439Y-90988628D01*
X138936733Y-90897793D01*
X139139120Y-90773770D01*
X139205200Y-90717332D01*
X138250000Y-89762132D01*
X137294798Y-90717332D01*
X132705200Y-90717332D01*
X131750000Y-89762132D01*
X130794798Y-90717332D01*
X129205200Y-90717332D01*
X128250000Y-89762132D01*
X127294798Y-90717332D01*
X122705200Y-90717332D01*
X121750000Y-89762132D01*
X120794798Y-90717332D01*
X119205200Y-90717332D01*
X118250000Y-89762132D01*
X117294798Y-90717332D01*
X112705200Y-90717332D01*
X111750000Y-89762132D01*
X110794798Y-90717332D01*
X109205200Y-90717332D01*
X108250000Y-89762132D01*
X107294798Y-90717332D01*
X102705200Y-90717332D01*
X101750000Y-89762132D01*
X100794798Y-90717332D01*
X100200500Y-90717332D01*
X100200500Y-90063979D01*
X100214687Y-90024329D01*
X100250807Y-90002680D01*
X100292462Y-90008859D01*
X100320742Y-90040061D01*
X100402206Y-90236733D01*
X100526229Y-90439119D01*
X100582666Y-90505200D01*
X101537866Y-89550000D01*
X101962132Y-89550000D01*
X102917332Y-90505200D01*
X102973770Y-90439120D01*
X103097793Y-90236733D01*
X103188628Y-90017439D01*
X103244039Y-89786631D01*
X103262663Y-89550000D01*
X106737336Y-89550000D01*
X106755960Y-89786631D01*
X106811371Y-90017439D01*
X106902206Y-90236733D01*
X107026229Y-90439119D01*
X107082666Y-90505200D01*
X108037866Y-89550000D01*
X108462132Y-89550000D01*
X109417332Y-90505200D01*
X109473770Y-90439120D01*
X109597793Y-90236733D01*
X109688628Y-90017439D01*
X109744039Y-89786631D01*
X109762663Y-89550000D01*
X110237336Y-89550000D01*
X110255960Y-89786631D01*
X110311371Y-90017439D01*
X110402206Y-90236733D01*
X110526229Y-90439119D01*
X110582666Y-90505200D01*
X111537866Y-89550000D01*
X111962132Y-89550000D01*
X112917332Y-90505200D01*
X112973770Y-90439120D01*
X113097793Y-90236733D01*
X113188628Y-90017439D01*
X113244039Y-89786631D01*
X113262663Y-89550000D01*
X116737336Y-89550000D01*
X116755960Y-89786631D01*
X116811371Y-90017439D01*
X116902206Y-90236733D01*
X117026229Y-90439119D01*
X117082666Y-90505200D01*
X118037866Y-89550000D01*
X118462132Y-89550000D01*
X119417332Y-90505200D01*
X119473770Y-90439120D01*
X119597793Y-90236733D01*
X119688628Y-90017439D01*
X119744039Y-89786631D01*
X119762663Y-89550000D01*
X120237336Y-89550000D01*
X120255960Y-89786631D01*
X120311371Y-90017439D01*
X120402206Y-90236733D01*
X120526229Y-90439119D01*
X120582666Y-90505200D01*
X121537867Y-89549999D01*
X121962131Y-89549999D01*
X122917332Y-90505200D01*
X122973770Y-90439120D01*
X123097793Y-90236733D01*
X123188628Y-90017439D01*
X123244039Y-89786631D01*
X123262663Y-89550000D01*
X126737336Y-89550000D01*
X126755960Y-89786631D01*
X126811371Y-90017439D01*
X126902206Y-90236733D01*
X127026229Y-90439119D01*
X127082666Y-90505200D01*
X128037868Y-89550000D01*
X128037867Y-89549999D01*
X128462131Y-89549999D01*
X129417332Y-90505200D01*
X129473770Y-90439120D01*
X129597793Y-90236733D01*
X129688628Y-90017439D01*
X129744039Y-89786631D01*
X129762663Y-89550000D01*
X129762663Y-89549999D01*
X130237336Y-89549999D01*
X130255960Y-89786631D01*
X130311371Y-90017439D01*
X130402206Y-90236733D01*
X130526229Y-90439119D01*
X130582666Y-90505200D01*
X131537866Y-89550000D01*
X131962132Y-89550000D01*
X132917332Y-90505200D01*
X132973770Y-90439120D01*
X133097793Y-90236733D01*
X133188628Y-90017439D01*
X133244039Y-89786631D01*
X133262663Y-89550000D01*
X133262663Y-89549999D01*
X136737336Y-89549999D01*
X136755960Y-89786631D01*
X136811371Y-90017439D01*
X136902206Y-90236733D01*
X137026229Y-90439119D01*
X137082666Y-90505200D01*
X138037867Y-89549999D01*
X137082667Y-88594799D01*
X137026229Y-88660880D01*
X136902206Y-88863266D01*
X136811371Y-89082560D01*
X136755960Y-89313368D01*
X136737336Y-89549999D01*
X133262663Y-89549999D01*
X133244039Y-89313368D01*
X133188628Y-89082560D01*
X133097793Y-88863266D01*
X132973768Y-88660876D01*
X132917333Y-88594799D01*
X132917332Y-88594798D01*
X131962132Y-89550000D01*
X131537866Y-89550000D01*
X131537867Y-89549999D01*
X130582667Y-88594799D01*
X130526229Y-88660880D01*
X130402206Y-88863266D01*
X130311371Y-89082560D01*
X130255960Y-89313368D01*
X130237336Y-89549999D01*
X129762663Y-89549999D01*
X129744039Y-89313368D01*
X129688628Y-89082560D01*
X129597793Y-88863266D01*
X129473768Y-88660876D01*
X129417333Y-88594799D01*
X129417332Y-88594798D01*
X128462131Y-89549999D01*
X128037867Y-89549999D01*
X127082667Y-88594799D01*
X127026229Y-88660880D01*
X126902206Y-88863266D01*
X126811371Y-89082560D01*
X126755960Y-89313368D01*
X126737336Y-89550000D01*
X123262663Y-89550000D01*
X123244039Y-89313368D01*
X123188628Y-89082560D01*
X123097793Y-88863266D01*
X122973768Y-88660876D01*
X122917333Y-88594799D01*
X122917332Y-88594798D01*
X121962131Y-89549999D01*
X121537867Y-89549999D01*
X120582667Y-88594799D01*
X120526229Y-88660880D01*
X120402206Y-88863266D01*
X120311371Y-89082560D01*
X120255960Y-89313368D01*
X120237336Y-89550000D01*
X119762663Y-89550000D01*
X119744039Y-89313368D01*
X119688628Y-89082560D01*
X119597793Y-88863266D01*
X119473768Y-88660876D01*
X119417333Y-88594799D01*
X119417332Y-88594798D01*
X118462132Y-89550000D01*
X118037866Y-89550000D01*
X118037867Y-89549999D01*
X117082667Y-88594799D01*
X117026229Y-88660880D01*
X116902206Y-88863266D01*
X116811371Y-89082560D01*
X116755960Y-89313368D01*
X116737336Y-89550000D01*
X113262663Y-89550000D01*
X113244039Y-89313368D01*
X113188628Y-89082560D01*
X113097793Y-88863266D01*
X112973768Y-88660876D01*
X112917333Y-88594799D01*
X112917332Y-88594798D01*
X111962132Y-89550000D01*
X111537866Y-89550000D01*
X111537867Y-89549999D01*
X110582667Y-88594799D01*
X110526229Y-88660880D01*
X110402206Y-88863266D01*
X110311371Y-89082560D01*
X110255960Y-89313368D01*
X110237336Y-89550000D01*
X109762663Y-89550000D01*
X109744039Y-89313368D01*
X109688628Y-89082560D01*
X109597793Y-88863266D01*
X109473768Y-88660876D01*
X109417333Y-88594799D01*
X109417332Y-88594798D01*
X108462132Y-89550000D01*
X108037866Y-89550000D01*
X108037867Y-89549999D01*
X107082667Y-88594799D01*
X107026229Y-88660880D01*
X106902206Y-88863266D01*
X106811371Y-89082560D01*
X106755960Y-89313368D01*
X106737336Y-89550000D01*
X103262663Y-89550000D01*
X103244039Y-89313368D01*
X103188628Y-89082560D01*
X103097793Y-88863266D01*
X102973768Y-88660876D01*
X102917333Y-88594799D01*
X102917332Y-88594798D01*
X101962132Y-89550000D01*
X101537866Y-89550000D01*
X101537867Y-89549999D01*
X100582667Y-88594799D01*
X100526229Y-88660880D01*
X100402206Y-88863266D01*
X100320742Y-89059939D01*
X100292462Y-89091141D01*
X100250807Y-89097320D01*
X100214687Y-89075671D01*
X100200500Y-89036021D01*
X100200500Y-88382667D01*
X100794799Y-88382667D01*
X101749999Y-89337867D01*
X102705199Y-88382667D01*
X107294799Y-88382667D01*
X108249999Y-89337867D01*
X109205199Y-88382667D01*
X110794799Y-88382667D01*
X111749999Y-89337867D01*
X112705199Y-88382667D01*
X117294799Y-88382667D01*
X118249999Y-89337867D01*
X119205199Y-88382667D01*
X120794799Y-88382667D01*
X121749999Y-89337867D01*
X122705199Y-88382667D01*
X127294799Y-88382667D01*
X128249999Y-89337867D01*
X129205199Y-88382667D01*
X130794799Y-88382667D01*
X131749999Y-89337867D01*
X132705199Y-88382667D01*
X137294799Y-88382667D01*
X138249999Y-89337867D01*
X139205200Y-88382666D01*
X139139119Y-88326229D01*
X138936733Y-88202206D01*
X138717439Y-88111371D01*
X138486631Y-88055960D01*
X138250000Y-88037336D01*
X138013368Y-88055960D01*
X137782560Y-88111371D01*
X137563266Y-88202206D01*
X137360880Y-88326229D01*
X137294799Y-88382667D01*
X132705199Y-88382667D01*
X132705200Y-88382666D01*
X132639119Y-88326229D01*
X132436733Y-88202206D01*
X132217439Y-88111371D01*
X131986631Y-88055960D01*
X131750000Y-88037336D01*
X131513368Y-88055960D01*
X131282560Y-88111371D01*
X131063266Y-88202206D01*
X130860880Y-88326229D01*
X130794799Y-88382667D01*
X129205199Y-88382667D01*
X129205200Y-88382666D01*
X129139119Y-88326229D01*
X128936733Y-88202206D01*
X128717439Y-88111371D01*
X128486631Y-88055960D01*
X128250000Y-88037336D01*
X128013368Y-88055960D01*
X127782560Y-88111371D01*
X127563266Y-88202206D01*
X127360880Y-88326229D01*
X127294799Y-88382667D01*
X122705199Y-88382667D01*
X122705200Y-88382666D01*
X122639119Y-88326229D01*
X122436733Y-88202206D01*
X122217439Y-88111371D01*
X121986631Y-88055960D01*
X121750000Y-88037336D01*
X121513368Y-88055960D01*
X121282560Y-88111371D01*
X121063266Y-88202206D01*
X120860880Y-88326229D01*
X120794799Y-88382667D01*
X119205199Y-88382667D01*
X119205200Y-88382666D01*
X119139119Y-88326229D01*
X118936733Y-88202206D01*
X118717439Y-88111371D01*
X118486631Y-88055960D01*
X118250000Y-88037336D01*
X118013368Y-88055960D01*
X117782560Y-88111371D01*
X117563266Y-88202206D01*
X117360880Y-88326229D01*
X117294799Y-88382667D01*
X112705199Y-88382667D01*
X112705200Y-88382666D01*
X112639119Y-88326229D01*
X112436733Y-88202206D01*
X112217439Y-88111371D01*
X111986631Y-88055960D01*
X111750000Y-88037336D01*
X111513368Y-88055960D01*
X111282560Y-88111371D01*
X111063266Y-88202206D01*
X110860880Y-88326229D01*
X110794799Y-88382667D01*
X109205199Y-88382667D01*
X109205200Y-88382666D01*
X109139119Y-88326229D01*
X108936733Y-88202206D01*
X108717439Y-88111371D01*
X108486631Y-88055960D01*
X108250000Y-88037336D01*
X108013368Y-88055960D01*
X107782560Y-88111371D01*
X107563266Y-88202206D01*
X107360880Y-88326229D01*
X107294799Y-88382667D01*
X102705199Y-88382667D01*
X102705200Y-88382666D01*
X102639119Y-88326229D01*
X102436733Y-88202206D01*
X102217439Y-88111371D01*
X101986631Y-88055960D01*
X101750000Y-88037336D01*
X101513368Y-88055960D01*
X101282560Y-88111371D01*
X101063266Y-88202206D01*
X100860880Y-88326229D01*
X100794799Y-88382667D01*
X100200500Y-88382667D01*
X100200500Y-85050000D01*
X100544356Y-85050000D01*
X100564884Y-85271534D01*
X100564885Y-85271536D01*
X100625771Y-85485528D01*
X100724942Y-85684689D01*
X100859019Y-85862236D01*
X101023438Y-86012124D01*
X101212599Y-86129247D01*
X101420060Y-86209618D01*
X101638757Y-86250500D01*
X101861243Y-86250500D01*
X102079940Y-86209618D01*
X102287401Y-86129247D01*
X102476562Y-86012124D01*
X102640981Y-85862236D01*
X102775058Y-85684689D01*
X102874229Y-85485528D01*
X102935115Y-85271536D01*
X102955643Y-85050000D01*
X107044356Y-85050000D01*
X107064884Y-85271534D01*
X107064885Y-85271536D01*
X107125771Y-85485528D01*
X107224942Y-85684689D01*
X107359019Y-85862236D01*
X107523438Y-86012124D01*
X107712599Y-86129247D01*
X107920060Y-86209618D01*
X108138757Y-86250500D01*
X108361243Y-86250500D01*
X108579940Y-86209618D01*
X108787401Y-86129247D01*
X108976562Y-86012124D01*
X109140981Y-85862236D01*
X109275058Y-85684689D01*
X109374229Y-85485528D01*
X109435115Y-85271536D01*
X109455643Y-85050000D01*
X109435115Y-84828464D01*
X109374229Y-84614472D01*
X109275058Y-84415311D01*
X109140981Y-84237764D01*
X108976562Y-84087876D01*
X108787401Y-83970753D01*
X108787398Y-83970752D01*
X108787397Y-83970751D01*
X108579942Y-83890382D01*
X108565016Y-83887592D01*
X108528417Y-83866084D01*
X108514000Y-83826156D01*
X108514000Y-80312152D01*
X108515201Y-80299960D01*
X108519171Y-80280000D01*
X108515201Y-80260040D01*
X108515201Y-80260035D01*
X108498683Y-80176992D01*
X108458758Y-80117242D01*
X108448860Y-80073623D01*
X108455133Y-80030000D01*
X108436697Y-79901774D01*
X108382882Y-79783937D01*
X108298049Y-79686033D01*
X108298048Y-79686032D01*
X108189068Y-79615995D01*
X108064773Y-79579500D01*
X108064772Y-79579500D01*
X107935228Y-79579500D01*
X107935227Y-79579500D01*
X107810931Y-79615995D01*
X107701951Y-79686032D01*
X107617118Y-79783936D01*
X107563303Y-79901774D01*
X107544866Y-80030000D01*
X107554547Y-80097328D01*
X107563303Y-80158226D01*
X107617117Y-80276062D01*
X107617118Y-80276063D01*
X107701951Y-80373967D01*
X107810931Y-80444004D01*
X107941108Y-80482227D01*
X107973534Y-80504740D01*
X107986000Y-80542195D01*
X107986000Y-83826156D01*
X107971583Y-83866084D01*
X107934984Y-83887592D01*
X107920057Y-83890382D01*
X107712602Y-83970751D01*
X107523436Y-84087877D01*
X107359019Y-84237763D01*
X107224943Y-84415309D01*
X107125770Y-84614475D01*
X107064884Y-84828465D01*
X107044356Y-85050000D01*
X102955643Y-85050000D01*
X102935115Y-84828464D01*
X102874229Y-84614472D01*
X102775058Y-84415311D01*
X102640981Y-84237764D01*
X102476562Y-84087876D01*
X102287401Y-83970753D01*
X102287398Y-83970752D01*
X102287397Y-83970751D01*
X102079942Y-83890382D01*
X101861243Y-83849500D01*
X101638757Y-83849500D01*
X101420057Y-83890382D01*
X101212602Y-83970751D01*
X101023436Y-84087877D01*
X100859019Y-84237763D01*
X100724943Y-84415309D01*
X100625770Y-84614475D01*
X100564884Y-84828465D01*
X100544356Y-85050000D01*
X100200500Y-85050000D01*
X100200500Y-75733333D01*
X107544866Y-75733333D01*
X107563303Y-75861559D01*
X107617118Y-75979397D01*
X107701951Y-76077301D01*
X107810931Y-76147338D01*
X107935227Y-76183834D01*
X108051260Y-76183834D01*
X108095454Y-76202140D01*
X111467694Y-79574380D01*
X111486000Y-79618574D01*
X111486000Y-83826156D01*
X111471583Y-83866084D01*
X111434984Y-83887592D01*
X111420057Y-83890382D01*
X111212602Y-83970751D01*
X111023436Y-84087877D01*
X110859019Y-84237763D01*
X110724943Y-84415309D01*
X110625770Y-84614475D01*
X110564884Y-84828465D01*
X110544356Y-85050000D01*
X110564884Y-85271534D01*
X110564885Y-85271536D01*
X110625771Y-85485528D01*
X110724942Y-85684689D01*
X110859019Y-85862236D01*
X111023438Y-86012124D01*
X111212599Y-86129247D01*
X111420060Y-86209618D01*
X111638757Y-86250500D01*
X111861243Y-86250500D01*
X112079940Y-86209618D01*
X112287401Y-86129247D01*
X112476562Y-86012124D01*
X112640981Y-85862236D01*
X112775058Y-85684689D01*
X112874229Y-85485528D01*
X112935115Y-85271536D01*
X112955643Y-85050000D01*
X117044356Y-85050000D01*
X117064884Y-85271534D01*
X117064885Y-85271536D01*
X117125771Y-85485528D01*
X117224942Y-85684689D01*
X117359019Y-85862236D01*
X117523438Y-86012124D01*
X117712599Y-86129247D01*
X117920060Y-86209618D01*
X118138757Y-86250500D01*
X118361243Y-86250500D01*
X118579940Y-86209618D01*
X118787401Y-86129247D01*
X118976562Y-86012124D01*
X119140981Y-85862236D01*
X119275058Y-85684689D01*
X119374229Y-85485528D01*
X119435115Y-85271536D01*
X119455643Y-85050000D01*
X119435115Y-84828464D01*
X119374229Y-84614472D01*
X119275058Y-84415311D01*
X119140981Y-84237764D01*
X118976562Y-84087876D01*
X118787401Y-83970753D01*
X118787398Y-83970752D01*
X118787397Y-83970751D01*
X118579942Y-83890382D01*
X118361243Y-83849500D01*
X118138757Y-83849500D01*
X117920057Y-83890382D01*
X117712602Y-83970751D01*
X117523436Y-84087877D01*
X117359019Y-84237763D01*
X117224943Y-84415309D01*
X117125770Y-84614475D01*
X117064884Y-84828465D01*
X117044356Y-85050000D01*
X112955643Y-85050000D01*
X112935115Y-84828464D01*
X112874229Y-84614472D01*
X112775058Y-84415311D01*
X112640981Y-84237764D01*
X112476562Y-84087876D01*
X112287401Y-83970753D01*
X112287398Y-83970752D01*
X112287397Y-83970751D01*
X112079942Y-83890382D01*
X112065016Y-83887592D01*
X112028417Y-83866084D01*
X112014000Y-83826156D01*
X112014000Y-79515491D01*
X112015201Y-79503299D01*
X112015845Y-79500058D01*
X112019172Y-79483334D01*
X111998683Y-79380326D01*
X111977189Y-79348159D01*
X111951644Y-79309928D01*
X111951639Y-79309922D01*
X111947280Y-79303398D01*
X111940333Y-79293001D01*
X111934222Y-79288918D01*
X111923408Y-79281692D01*
X111913937Y-79273919D01*
X108466974Y-75826956D01*
X108451866Y-75802499D01*
X108449304Y-75773869D01*
X108455133Y-75733334D01*
X108436697Y-75605108D01*
X108382882Y-75487271D01*
X108298049Y-75389367D01*
X108298048Y-75389366D01*
X108189068Y-75319329D01*
X108064773Y-75282834D01*
X108064772Y-75282834D01*
X107935228Y-75282834D01*
X107935227Y-75282834D01*
X107810931Y-75319329D01*
X107701951Y-75389366D01*
X107617118Y-75487270D01*
X107563303Y-75605108D01*
X107544866Y-75733333D01*
X100200500Y-75733333D01*
X100200500Y-71600000D01*
X107544866Y-71600000D01*
X107556966Y-71684151D01*
X107563303Y-71728226D01*
X107601226Y-71811264D01*
X107617118Y-71846063D01*
X107701951Y-71943967D01*
X107810931Y-72014004D01*
X107935227Y-72050500D01*
X107935228Y-72050500D01*
X108064772Y-72050500D01*
X108064773Y-72050500D01*
X108189066Y-72014005D01*
X108189066Y-72014004D01*
X108189069Y-72014004D01*
X108238980Y-71981927D01*
X108279447Y-71972365D01*
X108316961Y-71990313D01*
X120698800Y-84372152D01*
X120716291Y-84406284D01*
X120710554Y-84444204D01*
X120625771Y-84614472D01*
X120564884Y-84828465D01*
X120544356Y-85050000D01*
X120564884Y-85271534D01*
X120564885Y-85271536D01*
X120625771Y-85485528D01*
X120724942Y-85684689D01*
X120859019Y-85862236D01*
X121023438Y-86012124D01*
X121212599Y-86129247D01*
X121420060Y-86209618D01*
X121638757Y-86250500D01*
X121861243Y-86250500D01*
X122079940Y-86209618D01*
X122287401Y-86129247D01*
X122476562Y-86012124D01*
X122640981Y-85862236D01*
X122775058Y-85684689D01*
X122874229Y-85485528D01*
X122935115Y-85271536D01*
X122955643Y-85050000D01*
X127044356Y-85050000D01*
X127064884Y-85271534D01*
X127064885Y-85271536D01*
X127125771Y-85485528D01*
X127224942Y-85684689D01*
X127359019Y-85862236D01*
X127523438Y-86012124D01*
X127712599Y-86129247D01*
X127920060Y-86209618D01*
X128138757Y-86250500D01*
X128361243Y-86250500D01*
X128579940Y-86209618D01*
X128787401Y-86129247D01*
X128976562Y-86012124D01*
X129140981Y-85862236D01*
X129275058Y-85684689D01*
X129374229Y-85485528D01*
X129435115Y-85271536D01*
X129455643Y-85050000D01*
X129435115Y-84828464D01*
X129374229Y-84614472D01*
X129275058Y-84415311D01*
X129140981Y-84237764D01*
X128976562Y-84087876D01*
X128787401Y-83970753D01*
X128787398Y-83970752D01*
X128787397Y-83970751D01*
X128579942Y-83890382D01*
X128361243Y-83849500D01*
X128138757Y-83849500D01*
X127920057Y-83890382D01*
X127712602Y-83970751D01*
X127523436Y-84087877D01*
X127359019Y-84237763D01*
X127224943Y-84415309D01*
X127125770Y-84614475D01*
X127064884Y-84828465D01*
X127044356Y-85050000D01*
X122955643Y-85050000D01*
X122935115Y-84828464D01*
X122874229Y-84614472D01*
X122775058Y-84415311D01*
X122640981Y-84237764D01*
X122476562Y-84087876D01*
X122287401Y-83970753D01*
X122287398Y-83970752D01*
X122287397Y-83970751D01*
X122079942Y-83890382D01*
X121861243Y-83849500D01*
X121638757Y-83849500D01*
X121420057Y-83890382D01*
X121212599Y-83970752D01*
X121150626Y-84009124D01*
X121110522Y-84018069D01*
X121073531Y-84000179D01*
X108509414Y-71436062D01*
X108501641Y-71426591D01*
X108490332Y-71409666D01*
X108468649Y-71395178D01*
X108403008Y-71351317D01*
X108403005Y-71351316D01*
X108396955Y-71350112D01*
X108361917Y-71329742D01*
X108298048Y-71256032D01*
X108189068Y-71185995D01*
X108064773Y-71149500D01*
X108064772Y-71149500D01*
X107935228Y-71149500D01*
X107935227Y-71149500D01*
X107810931Y-71185995D01*
X107701951Y-71256032D01*
X107617118Y-71353936D01*
X107563303Y-71471774D01*
X107544866Y-71600000D01*
X100200500Y-71600000D01*
X100200500Y-67400000D01*
X107544866Y-67400000D01*
X107554811Y-67469165D01*
X107563303Y-67528226D01*
X107600781Y-67610290D01*
X107617118Y-67646063D01*
X107701951Y-67743967D01*
X107810931Y-67814004D01*
X107935227Y-67850500D01*
X108051260Y-67850500D01*
X108095454Y-67868806D01*
X123590585Y-83363937D01*
X123598357Y-83373406D01*
X123609667Y-83390333D01*
X123696992Y-83448683D01*
X123752667Y-83459757D01*
X123780030Y-83465200D01*
X123780040Y-83465201D01*
X123800000Y-83469171D01*
X123819960Y-83465201D01*
X123832152Y-83464000D01*
X129764760Y-83464000D01*
X129808954Y-83482306D01*
X130698800Y-84372152D01*
X130716291Y-84406284D01*
X130710554Y-84444204D01*
X130625771Y-84614472D01*
X130564884Y-84828465D01*
X130544356Y-85050000D01*
X130564884Y-85271534D01*
X130564885Y-85271536D01*
X130625771Y-85485528D01*
X130724942Y-85684689D01*
X130859019Y-85862236D01*
X131023438Y-86012124D01*
X131212599Y-86129247D01*
X131420060Y-86209618D01*
X131638757Y-86250500D01*
X131861243Y-86250500D01*
X132079940Y-86209618D01*
X132287401Y-86129247D01*
X132476562Y-86012124D01*
X132640981Y-85862236D01*
X132775058Y-85684689D01*
X132874229Y-85485528D01*
X132935115Y-85271536D01*
X132955643Y-85050000D01*
X137044356Y-85050000D01*
X137064884Y-85271534D01*
X137064885Y-85271536D01*
X137125771Y-85485528D01*
X137224942Y-85684689D01*
X137359019Y-85862236D01*
X137523438Y-86012124D01*
X137712599Y-86129247D01*
X137920060Y-86209618D01*
X138138757Y-86250500D01*
X138361243Y-86250500D01*
X138579940Y-86209618D01*
X138787401Y-86129247D01*
X138976562Y-86012124D01*
X139140981Y-85862236D01*
X139275058Y-85684689D01*
X139374229Y-85485528D01*
X139435115Y-85271536D01*
X139455643Y-85050000D01*
X139435115Y-84828464D01*
X139374229Y-84614472D01*
X139275058Y-84415311D01*
X139140981Y-84237764D01*
X138976562Y-84087876D01*
X138787401Y-83970753D01*
X138787398Y-83970752D01*
X138787397Y-83970751D01*
X138579942Y-83890382D01*
X138361243Y-83849500D01*
X138138757Y-83849500D01*
X137920057Y-83890382D01*
X137712602Y-83970751D01*
X137523436Y-84087877D01*
X137359019Y-84237763D01*
X137224943Y-84415309D01*
X137125770Y-84614475D01*
X137064884Y-84828465D01*
X137044356Y-85050000D01*
X132955643Y-85050000D01*
X132935115Y-84828464D01*
X132874229Y-84614472D01*
X132775058Y-84415311D01*
X132640981Y-84237764D01*
X132476562Y-84087876D01*
X132287401Y-83970753D01*
X132287398Y-83970752D01*
X132287397Y-83970751D01*
X132079942Y-83890382D01*
X131861243Y-83849500D01*
X131638757Y-83849500D01*
X131420057Y-83890382D01*
X131212599Y-83970752D01*
X131150626Y-84009124D01*
X131110522Y-84018069D01*
X131073531Y-84000179D01*
X130109414Y-83036062D01*
X130101641Y-83026591D01*
X130090333Y-83009667D01*
X130090332Y-83009666D01*
X130003008Y-82951317D01*
X130003005Y-82951316D01*
X129926002Y-82936000D01*
X129926003Y-82936000D01*
X129899999Y-82930827D01*
X129880035Y-82934799D01*
X129867843Y-82936000D01*
X123935240Y-82936000D01*
X123891046Y-82917694D01*
X113023352Y-72050000D01*
X114594866Y-72050000D01*
X114605803Y-72126063D01*
X114613303Y-72178226D01*
X114659772Y-72279977D01*
X114667118Y-72296063D01*
X114751951Y-72393967D01*
X114860931Y-72464004D01*
X114985227Y-72500500D01*
X114985228Y-72500500D01*
X115114772Y-72500500D01*
X115114773Y-72500500D01*
X115176920Y-72482251D01*
X115239069Y-72464004D01*
X115348049Y-72393967D01*
X115432882Y-72296063D01*
X115486697Y-72178226D01*
X115505133Y-72050000D01*
X115486697Y-71921774D01*
X115467619Y-71880000D01*
X119394866Y-71880000D01*
X119410985Y-71992106D01*
X119413303Y-72008226D01*
X119417541Y-72017505D01*
X119467118Y-72126063D01*
X119508054Y-72173307D01*
X119551951Y-72223967D01*
X119555471Y-72226229D01*
X119557291Y-72227399D01*
X119578355Y-72250024D01*
X119586000Y-72279977D01*
X119586000Y-74367843D01*
X119584799Y-74380035D01*
X119580827Y-74399999D01*
X119586000Y-74426002D01*
X119601317Y-74503008D01*
X119659667Y-74590333D01*
X119676591Y-74601641D01*
X119686062Y-74609414D01*
X123530014Y-78453367D01*
X123544150Y-78475113D01*
X123548240Y-78500725D01*
X123545823Y-78548391D01*
X123575096Y-78739474D01*
X123642235Y-78920753D01*
X123694981Y-79005375D01*
X123744491Y-79084807D01*
X123814294Y-79158240D01*
X123877676Y-79224918D01*
X123928328Y-79260173D01*
X123953809Y-79298716D01*
X123945851Y-79344230D01*
X123908804Y-79371840D01*
X123903507Y-79373259D01*
X123697264Y-79469432D01*
X123510860Y-79599952D01*
X123349952Y-79760860D01*
X123219432Y-79947264D01*
X123123260Y-80153505D01*
X123064364Y-80373307D01*
X123044531Y-80600000D01*
X123064364Y-80826692D01*
X123123260Y-81046494D01*
X123219432Y-81252735D01*
X123349952Y-81439139D01*
X123510860Y-81600047D01*
X123697264Y-81730567D01*
X123697265Y-81730567D01*
X123697266Y-81730568D01*
X123903504Y-81826739D01*
X124013406Y-81856187D01*
X124123307Y-81885635D01*
X124293214Y-81900500D01*
X124293216Y-81900500D01*
X125706784Y-81900500D01*
X125706786Y-81900500D01*
X125876692Y-81885635D01*
X125876691Y-81885635D01*
X126096496Y-81826739D01*
X126302734Y-81730568D01*
X126489139Y-81600047D01*
X126650047Y-81439139D01*
X126780568Y-81252734D01*
X126876739Y-81046496D01*
X126935635Y-80826692D01*
X126955468Y-80600000D01*
X126935635Y-80373308D01*
X126919248Y-80312152D01*
X126893888Y-80217504D01*
X126876739Y-80153504D01*
X126780568Y-79947266D01*
X126780567Y-79947264D01*
X126650047Y-79760860D01*
X126489139Y-79599952D01*
X126302735Y-79469432D01*
X126096496Y-79373261D01*
X126093141Y-79372362D01*
X126057230Y-79346531D01*
X126047413Y-79303398D01*
X126068606Y-79264572D01*
X126192468Y-79158240D01*
X126310796Y-79005373D01*
X126395930Y-78831816D01*
X126444385Y-78644674D01*
X126454176Y-78451610D01*
X126449230Y-78419326D01*
X126424903Y-78260525D01*
X126357764Y-78079246D01*
X126259775Y-77922038D01*
X126255509Y-77915193D01*
X126122323Y-77775081D01*
X125963658Y-77664647D01*
X125873835Y-77626101D01*
X125786013Y-77588413D01*
X125657974Y-77562101D01*
X125621131Y-77539136D01*
X125608135Y-77497714D01*
X125625256Y-77457819D01*
X125664232Y-77438701D01*
X125692321Y-77435845D01*
X125876768Y-77377974D01*
X126045791Y-77284159D01*
X126192468Y-77158240D01*
X126310796Y-77005373D01*
X126395930Y-76831816D01*
X126444385Y-76644674D01*
X126454176Y-76451610D01*
X126449230Y-76419326D01*
X126424903Y-76260525D01*
X126357764Y-76079246D01*
X126295400Y-75979193D01*
X126255509Y-75915193D01*
X126122323Y-75775081D01*
X125963658Y-75664647D01*
X125874834Y-75626529D01*
X125786013Y-75588413D01*
X125761167Y-75583307D01*
X125716949Y-75574220D01*
X125679154Y-75549992D01*
X125667352Y-75506677D01*
X125687632Y-75466624D01*
X125729531Y-75450500D01*
X126269749Y-75450500D01*
X126328231Y-75438867D01*
X126394552Y-75394552D01*
X126438867Y-75328231D01*
X126450500Y-75269749D01*
X126450500Y-73730251D01*
X126438867Y-73671768D01*
X126394553Y-73605449D01*
X126394552Y-73605448D01*
X126368812Y-73588248D01*
X126344501Y-73556802D01*
X126344068Y-73517055D01*
X126367688Y-73485086D01*
X126489139Y-73400047D01*
X126650047Y-73239139D01*
X126780568Y-73052734D01*
X126876739Y-72846496D01*
X126935635Y-72626692D01*
X126955468Y-72400000D01*
X126935635Y-72173308D01*
X126876739Y-71953504D01*
X126780568Y-71747266D01*
X126780567Y-71747264D01*
X126650047Y-71560860D01*
X126489139Y-71399952D01*
X126302735Y-71269432D01*
X126096494Y-71173260D01*
X125876692Y-71114364D01*
X125706786Y-71099500D01*
X125706784Y-71099500D01*
X124293216Y-71099500D01*
X124293214Y-71099500D01*
X124123307Y-71114364D01*
X123903505Y-71173260D01*
X123697264Y-71269432D01*
X123510860Y-71399952D01*
X123349952Y-71560860D01*
X123219432Y-71747264D01*
X123123260Y-71953505D01*
X123064364Y-72173307D01*
X123044531Y-72400000D01*
X123064364Y-72626692D01*
X123123260Y-72846494D01*
X123219432Y-73052735D01*
X123349952Y-73239139D01*
X123510860Y-73400047D01*
X123632310Y-73485086D01*
X123655931Y-73517055D01*
X123655498Y-73556802D01*
X123631186Y-73588249D01*
X123605447Y-73605447D01*
X123561132Y-73671768D01*
X123549500Y-73730251D01*
X123549500Y-73775260D01*
X123531194Y-73819454D01*
X123487000Y-73837760D01*
X123442806Y-73819454D01*
X120316974Y-70693622D01*
X120301866Y-70669165D01*
X120299304Y-70640535D01*
X120305133Y-70600000D01*
X120286697Y-70471774D01*
X120232882Y-70353937D01*
X120148049Y-70256033D01*
X120148048Y-70256032D01*
X120039068Y-70185995D01*
X119914773Y-70149500D01*
X119914772Y-70149500D01*
X119785228Y-70149500D01*
X119785227Y-70149500D01*
X119660931Y-70185995D01*
X119551951Y-70256032D01*
X119467118Y-70353936D01*
X119413303Y-70471774D01*
X119394866Y-70600000D01*
X119413303Y-70728225D01*
X119467118Y-70846063D01*
X119551951Y-70943967D01*
X119660931Y-71014004D01*
X119785227Y-71050500D01*
X119901260Y-71050500D01*
X119945454Y-71068806D01*
X123531194Y-74654546D01*
X123549500Y-74698740D01*
X123549500Y-75269749D01*
X123561132Y-75328231D01*
X123605447Y-75394552D01*
X123671768Y-75438867D01*
X123730251Y-75450500D01*
X124261946Y-75450500D01*
X124302657Y-75465578D01*
X124323725Y-75503536D01*
X124314986Y-75546060D01*
X124280656Y-75572633D01*
X124230364Y-75588413D01*
X124123231Y-75622026D01*
X123954208Y-75715841D01*
X123807532Y-75841760D01*
X123689205Y-75994624D01*
X123604069Y-76168184D01*
X123555615Y-76355326D01*
X123545823Y-76548392D01*
X123575096Y-76739474D01*
X123642235Y-76920753D01*
X123694981Y-77005375D01*
X123744491Y-77084807D01*
X123877677Y-77224919D01*
X124036342Y-77335353D01*
X124213988Y-77411587D01*
X124342026Y-77437899D01*
X124378867Y-77460862D01*
X124391864Y-77502284D01*
X124374744Y-77542179D01*
X124335768Y-77561298D01*
X124307681Y-77564154D01*
X124123231Y-77622026D01*
X124046443Y-77664647D01*
X123954209Y-77715841D01*
X123954207Y-77715842D01*
X123954208Y-77715842D01*
X123807530Y-77841760D01*
X123788827Y-77865922D01*
X123760615Y-77886455D01*
X123725791Y-77888663D01*
X123695211Y-77871858D01*
X120132306Y-74308954D01*
X120118758Y-74288678D01*
X120114000Y-74264760D01*
X120114000Y-72279977D01*
X120121645Y-72250024D01*
X120142709Y-72227399D01*
X120143541Y-72226863D01*
X120148049Y-72223967D01*
X120232882Y-72126063D01*
X120286697Y-72008226D01*
X120305133Y-71880000D01*
X120286697Y-71751774D01*
X120232882Y-71633937D01*
X120148049Y-71536033D01*
X120148048Y-71536032D01*
X120039068Y-71465995D01*
X119914773Y-71429500D01*
X119914772Y-71429500D01*
X119785228Y-71429500D01*
X119785227Y-71429500D01*
X119660931Y-71465995D01*
X119551951Y-71536032D01*
X119467118Y-71633936D01*
X119413303Y-71751774D01*
X119394866Y-71880000D01*
X115467619Y-71880000D01*
X115432882Y-71803937D01*
X115348049Y-71706033D01*
X115342709Y-71702601D01*
X115321645Y-71679976D01*
X115314000Y-71650023D01*
X115314000Y-70285240D01*
X115318758Y-70261322D01*
X115332306Y-70241046D01*
X115684587Y-69888765D01*
X115684588Y-69888762D01*
X118041045Y-67532306D01*
X118085240Y-67514000D01*
X119373998Y-67514000D01*
X119426002Y-67514000D01*
X119709829Y-67514000D01*
X119750758Y-67529266D01*
X119771693Y-67567606D01*
X119762407Y-67610290D01*
X119727437Y-67636468D01*
X119660931Y-67655995D01*
X119551951Y-67726032D01*
X119467118Y-67823936D01*
X119413303Y-67941774D01*
X119394866Y-68069999D01*
X119413303Y-68198225D01*
X119467118Y-68316063D01*
X119551951Y-68413967D01*
X119660931Y-68484004D01*
X119785227Y-68520500D01*
X119785228Y-68520500D01*
X119914772Y-68520500D01*
X119914773Y-68520500D01*
X119976920Y-68502252D01*
X120039069Y-68484004D01*
X120148049Y-68413967D01*
X120148049Y-68413966D01*
X120198650Y-68355571D01*
X120219921Y-68339648D01*
X120245884Y-68334000D01*
X126034760Y-68334000D01*
X126078954Y-68352306D01*
X132454585Y-74727937D01*
X132462358Y-74737408D01*
X132473666Y-74754332D01*
X132490588Y-74765639D01*
X132490594Y-74765644D01*
X132560991Y-74812682D01*
X132560992Y-74812683D01*
X132664000Y-74833172D01*
X132680724Y-74829845D01*
X132683965Y-74829201D01*
X132696157Y-74828000D01*
X133687000Y-74828000D01*
X133731194Y-74846306D01*
X133749500Y-74890500D01*
X133749500Y-75333749D01*
X133761132Y-75392231D01*
X133805447Y-75458552D01*
X133871768Y-75502867D01*
X133930251Y-75514500D01*
X134461946Y-75514500D01*
X134502657Y-75529578D01*
X134523725Y-75567536D01*
X134514986Y-75610060D01*
X134480656Y-75636633D01*
X134430364Y-75652413D01*
X134323231Y-75686026D01*
X134154208Y-75779841D01*
X134007532Y-75905760D01*
X133889205Y-76058624D01*
X133804069Y-76232184D01*
X133755615Y-76419326D01*
X133746961Y-76589967D01*
X133727217Y-76632463D01*
X133683485Y-76649292D01*
X133640347Y-76630995D01*
X126185414Y-69176062D01*
X126177641Y-69166591D01*
X126166333Y-69149667D01*
X126166332Y-69149666D01*
X126079008Y-69091317D01*
X126079005Y-69091316D01*
X126002002Y-69076000D01*
X126002003Y-69076000D01*
X125975999Y-69070827D01*
X125956035Y-69074799D01*
X125943843Y-69076000D01*
X120245884Y-69076000D01*
X120219921Y-69070352D01*
X120198650Y-69054429D01*
X120148049Y-68996032D01*
X120039068Y-68925995D01*
X119914773Y-68889500D01*
X119914772Y-68889500D01*
X119785228Y-68889500D01*
X119785227Y-68889500D01*
X119660931Y-68925995D01*
X119551951Y-68996032D01*
X119467118Y-69093936D01*
X119413303Y-69211774D01*
X119394866Y-69340000D01*
X119410985Y-69452106D01*
X119413303Y-69468226D01*
X119440705Y-69528227D01*
X119467118Y-69586063D01*
X119551951Y-69683967D01*
X119660931Y-69754004D01*
X119785227Y-69790500D01*
X119785228Y-69790500D01*
X119914772Y-69790500D01*
X119914773Y-69790500D01*
X119976920Y-69772251D01*
X120039069Y-69754004D01*
X120148049Y-69683967D01*
X120148048Y-69683967D01*
X120198650Y-69625571D01*
X120219921Y-69609648D01*
X120245884Y-69604000D01*
X125840760Y-69604000D01*
X125884954Y-69622306D01*
X134046407Y-77783759D01*
X134062974Y-77813311D01*
X134061687Y-77847165D01*
X134042925Y-77875374D01*
X134007532Y-77905759D01*
X133889205Y-78058624D01*
X133804069Y-78232184D01*
X133755615Y-78419326D01*
X133745823Y-78612392D01*
X133775096Y-78803474D01*
X133842235Y-78984753D01*
X133894981Y-79069375D01*
X133944491Y-79148807D01*
X134077677Y-79288919D01*
X134115212Y-79315044D01*
X134128328Y-79324173D01*
X134153809Y-79362716D01*
X134145851Y-79408230D01*
X134108804Y-79435840D01*
X134103507Y-79437259D01*
X133897264Y-79533432D01*
X133710860Y-79663952D01*
X133549952Y-79824860D01*
X133419432Y-80011264D01*
X133323260Y-80217505D01*
X133264364Y-80437307D01*
X133244531Y-80664000D01*
X133264364Y-80890692D01*
X133323260Y-81110494D01*
X133419432Y-81316735D01*
X133549952Y-81503139D01*
X133710860Y-81664047D01*
X133897264Y-81794567D01*
X133897265Y-81794567D01*
X133897266Y-81794568D01*
X134103504Y-81890739D01*
X134139933Y-81900500D01*
X134323307Y-81949635D01*
X134493214Y-81964500D01*
X134493216Y-81964500D01*
X135906784Y-81964500D01*
X135906786Y-81964500D01*
X136076692Y-81949635D01*
X136076691Y-81949635D01*
X136296496Y-81890739D01*
X136502734Y-81794568D01*
X136689139Y-81664047D01*
X136850047Y-81503139D01*
X136980568Y-81316734D01*
X137076739Y-81110496D01*
X137135635Y-80890692D01*
X137155468Y-80664000D01*
X137135635Y-80437308D01*
X137076739Y-80217504D01*
X136980568Y-80011266D01*
X136980567Y-80011264D01*
X136850047Y-79824860D01*
X136689139Y-79663952D01*
X136502735Y-79533432D01*
X136296496Y-79437261D01*
X136293141Y-79436362D01*
X136257230Y-79410531D01*
X136247413Y-79367398D01*
X136268606Y-79328572D01*
X136392468Y-79222240D01*
X136510796Y-79069373D01*
X136595930Y-78895816D01*
X136644385Y-78708674D01*
X136654176Y-78515610D01*
X136647648Y-78473000D01*
X136624903Y-78324525D01*
X136557764Y-78143246D01*
X136505018Y-78058624D01*
X136455509Y-77979193D01*
X136322323Y-77839081D01*
X136163658Y-77728647D01*
X136014521Y-77664647D01*
X135986013Y-77652413D01*
X135857974Y-77626101D01*
X135821131Y-77603136D01*
X135808135Y-77561714D01*
X135825256Y-77521819D01*
X135864232Y-77502701D01*
X135892321Y-77499845D01*
X136076768Y-77441974D01*
X136245791Y-77348159D01*
X136392468Y-77222240D01*
X136510796Y-77069373D01*
X136595930Y-76895816D01*
X136601362Y-76874834D01*
X136623612Y-76841076D01*
X136661868Y-76828000D01*
X136953843Y-76828000D01*
X136966035Y-76829201D01*
X136969923Y-76829974D01*
X136986000Y-76833172D01*
X137089008Y-76812683D01*
X137154290Y-76769062D01*
X137167306Y-76760365D01*
X137167307Y-76760363D01*
X137176333Y-76754333D01*
X137187646Y-76737399D01*
X137195410Y-76727940D01*
X138213939Y-75709411D01*
X138223401Y-75701646D01*
X138240333Y-75690333D01*
X138298683Y-75603008D01*
X138314000Y-75526002D01*
X138315201Y-75519965D01*
X138315201Y-75519960D01*
X138319171Y-75500000D01*
X138315201Y-75480040D01*
X138314000Y-75467848D01*
X138314000Y-70082152D01*
X138315201Y-70069960D01*
X138319171Y-70049999D01*
X138315201Y-70030040D01*
X138315201Y-70030035D01*
X138307122Y-69989419D01*
X138298683Y-69946992D01*
X138298682Y-69946991D01*
X138298682Y-69946990D01*
X138297226Y-69944265D01*
X138295261Y-69941871D01*
X138251644Y-69876594D01*
X138251639Y-69876588D01*
X138240332Y-69859666D01*
X138223408Y-69848358D01*
X138213937Y-69840585D01*
X132332306Y-63958954D01*
X132314000Y-63914760D01*
X132314000Y-63690000D01*
X135649774Y-63690000D01*
X135655929Y-63764279D01*
X135711179Y-63982454D01*
X135801583Y-64188553D01*
X135924674Y-64376958D01*
X136077102Y-64542538D01*
X136254697Y-64680766D01*
X136452625Y-64787880D01*
X136665489Y-64860956D01*
X136850000Y-64891746D01*
X136850000Y-63690000D01*
X137150000Y-63690000D01*
X137150000Y-64891746D01*
X137334510Y-64860956D01*
X137547374Y-64787880D01*
X137745302Y-64680766D01*
X137922897Y-64542538D01*
X138075325Y-64376958D01*
X138198416Y-64188553D01*
X138288820Y-63982454D01*
X138344070Y-63764279D01*
X138350225Y-63690000D01*
X137150000Y-63690000D01*
X136850000Y-63690000D01*
X135649774Y-63690000D01*
X132314000Y-63690000D01*
X132314000Y-61150000D01*
X135642000Y-61150000D01*
X135642000Y-61898589D01*
X135648504Y-61959094D01*
X135699553Y-62095960D01*
X135787095Y-62212904D01*
X135904039Y-62300446D01*
X136040905Y-62351495D01*
X136101411Y-62358000D01*
X136125618Y-62358000D01*
X136161935Y-62369634D01*
X136184732Y-62400206D01*
X136185520Y-62438333D01*
X136164006Y-62469821D01*
X136077102Y-62537461D01*
X135924674Y-62703041D01*
X135801583Y-62891446D01*
X135711179Y-63097545D01*
X135655929Y-63315720D01*
X135649774Y-63389999D01*
X135649775Y-63390000D01*
X136850000Y-63390000D01*
X136850000Y-61150000D01*
X137150000Y-61150000D01*
X137150000Y-63390000D01*
X138350225Y-63390000D01*
X138350225Y-63389999D01*
X138344070Y-63315720D01*
X138288820Y-63097545D01*
X138198416Y-62891446D01*
X138075325Y-62703041D01*
X137922897Y-62537461D01*
X137835994Y-62469821D01*
X137814480Y-62438333D01*
X137815268Y-62400206D01*
X137838065Y-62369634D01*
X137874382Y-62358000D01*
X137898589Y-62358000D01*
X137959094Y-62351495D01*
X138095960Y-62300446D01*
X138212904Y-62212904D01*
X138300446Y-62095960D01*
X138351495Y-61959094D01*
X138358000Y-61898589D01*
X138358000Y-61150000D01*
X137150000Y-61150000D01*
X136850000Y-61150000D01*
X135642000Y-61150000D01*
X132314000Y-61150000D01*
X132314000Y-60850000D01*
X135642000Y-60850000D01*
X136850000Y-60850000D01*
X136850000Y-59642000D01*
X137150000Y-59642000D01*
X137150000Y-60850000D01*
X138358000Y-60850000D01*
X138358000Y-60101411D01*
X138351495Y-60040905D01*
X138300446Y-59904039D01*
X138212904Y-59787095D01*
X138095960Y-59699553D01*
X137959094Y-59648504D01*
X137898589Y-59642000D01*
X137150000Y-59642000D01*
X136850000Y-59642000D01*
X136101411Y-59642000D01*
X136040905Y-59648504D01*
X135904039Y-59699553D01*
X135787095Y-59787095D01*
X135699553Y-59904039D01*
X135648504Y-60040905D01*
X135642000Y-60101411D01*
X135642000Y-60850000D01*
X132314000Y-60850000D01*
X132314000Y-59204356D01*
X132321637Y-59174417D01*
X132331203Y-59164133D01*
X132329910Y-59163013D01*
X132345740Y-59144743D01*
X132420628Y-59058317D01*
X132474443Y-58940480D01*
X132492879Y-58812254D01*
X132474443Y-58684028D01*
X132420628Y-58566191D01*
X132335795Y-58468287D01*
X132330455Y-58464855D01*
X132309391Y-58442230D01*
X132301746Y-58412277D01*
X132301746Y-58019898D01*
X132302947Y-58007706D01*
X132306917Y-57987746D01*
X132302947Y-57967786D01*
X132302947Y-57967781D01*
X132297402Y-57939908D01*
X132286429Y-57884738D01*
X132228079Y-57797413D01*
X132211152Y-57786103D01*
X132201683Y-57778331D01*
X131655240Y-57231888D01*
X132980243Y-57231888D01*
X133200703Y-57416877D01*
X133493449Y-57609418D01*
X133806572Y-57766674D01*
X134135837Y-57886517D01*
X134476780Y-57967322D01*
X134824801Y-58008000D01*
X135175199Y-58008000D01*
X135523219Y-57967322D01*
X135864162Y-57886517D01*
X136193427Y-57766674D01*
X136506550Y-57609418D01*
X136799296Y-57416877D01*
X137019755Y-57231888D01*
X137019755Y-57231887D01*
X135000000Y-55212132D01*
X132980243Y-57231887D01*
X132980243Y-57231888D01*
X131655240Y-57231888D01*
X129423352Y-55000000D01*
X131986901Y-55000000D01*
X132007274Y-55349800D01*
X132068119Y-55694867D01*
X132168611Y-56030532D01*
X132307397Y-56352276D01*
X132482595Y-56655726D01*
X132691832Y-56936781D01*
X132769142Y-57018725D01*
X134787868Y-55000000D01*
X135212132Y-55000000D01*
X137230856Y-57018725D01*
X137308167Y-56936781D01*
X137517404Y-56655726D01*
X137692602Y-56352276D01*
X137831388Y-56030532D01*
X137931880Y-55694867D01*
X137992725Y-55349800D01*
X138013098Y-55000000D01*
X137992725Y-54650199D01*
X137931880Y-54305132D01*
X137831388Y-53969467D01*
X137692602Y-53647723D01*
X137517404Y-53344273D01*
X137308167Y-53063218D01*
X137230856Y-52981273D01*
X135212132Y-55000000D01*
X134787868Y-55000000D01*
X132769142Y-52981273D01*
X132691832Y-53063218D01*
X132482595Y-53344273D01*
X132307397Y-53647723D01*
X132168611Y-53969467D01*
X132068119Y-54305132D01*
X132007274Y-54650199D01*
X131986901Y-55000000D01*
X129423352Y-55000000D01*
X128382414Y-53959062D01*
X128374641Y-53949591D01*
X128363333Y-53932667D01*
X128362133Y-53931865D01*
X128276008Y-53874317D01*
X128276005Y-53874316D01*
X128199002Y-53859000D01*
X128199003Y-53859000D01*
X128172999Y-53853827D01*
X128153035Y-53857799D01*
X128140843Y-53859000D01*
X126278240Y-53859000D01*
X126234046Y-53840694D01*
X124759065Y-52365713D01*
X124741435Y-52330689D01*
X124748139Y-52292056D01*
X124795232Y-52203954D01*
X124855300Y-52005934D01*
X124860809Y-51950000D01*
X125009774Y-51950000D01*
X125015929Y-52024279D01*
X125071179Y-52242454D01*
X125161583Y-52448553D01*
X125284674Y-52636958D01*
X125437102Y-52802538D01*
X125614697Y-52940766D01*
X125812625Y-53047880D01*
X126025489Y-53120956D01*
X126210000Y-53151746D01*
X126210000Y-51950000D01*
X126510000Y-51950000D01*
X126510000Y-53151746D01*
X126694510Y-53120956D01*
X126907374Y-53047880D01*
X127105302Y-52940766D01*
X127282897Y-52802538D01*
X127314589Y-52768111D01*
X132980243Y-52768111D01*
X134999999Y-54787867D01*
X137019755Y-52768111D01*
X137019755Y-52768110D01*
X136799296Y-52583122D01*
X136506550Y-52390581D01*
X136193427Y-52233325D01*
X135864162Y-52113482D01*
X135523219Y-52032677D01*
X135175199Y-51992000D01*
X134824801Y-51992000D01*
X134476780Y-52032677D01*
X134135837Y-52113482D01*
X133806572Y-52233325D01*
X133493449Y-52390581D01*
X133200703Y-52583122D01*
X132980243Y-52768110D01*
X132980243Y-52768111D01*
X127314589Y-52768111D01*
X127435325Y-52636958D01*
X127558416Y-52448553D01*
X127648820Y-52242454D01*
X127704070Y-52024279D01*
X127710225Y-51950000D01*
X126510000Y-51950000D01*
X126210000Y-51950000D01*
X125009774Y-51950000D01*
X124860809Y-51950000D01*
X124875583Y-51800000D01*
X124860809Y-51649999D01*
X125009774Y-51649999D01*
X125009775Y-51650000D01*
X126210000Y-51650000D01*
X126210000Y-50448253D01*
X126510000Y-50448253D01*
X126510000Y-51650000D01*
X127710225Y-51650000D01*
X127710225Y-51649999D01*
X127704070Y-51575720D01*
X127648820Y-51357545D01*
X127558416Y-51151446D01*
X127435325Y-50963041D01*
X127282897Y-50797461D01*
X127105302Y-50659233D01*
X126907374Y-50552119D01*
X126694510Y-50479043D01*
X126510000Y-50448253D01*
X126210000Y-50448253D01*
X126025489Y-50479043D01*
X125812625Y-50552119D01*
X125614697Y-50659233D01*
X125437102Y-50797461D01*
X125284674Y-50963041D01*
X125161583Y-51151446D01*
X125071179Y-51357545D01*
X125015929Y-51575720D01*
X125009774Y-51649999D01*
X124860809Y-51649999D01*
X124855300Y-51594066D01*
X124795232Y-51396046D01*
X124697685Y-51213550D01*
X124646718Y-51151446D01*
X124566410Y-51053589D01*
X124406453Y-50922317D01*
X124406451Y-50922316D01*
X124406450Y-50922315D01*
X124223954Y-50824768D01*
X124133934Y-50797461D01*
X124025932Y-50764699D01*
X123820000Y-50744417D01*
X123614067Y-50764699D01*
X123416046Y-50824768D01*
X123233546Y-50922317D01*
X123073589Y-51053589D01*
X122942317Y-51213546D01*
X122844768Y-51396046D01*
X122784699Y-51594067D01*
X122764417Y-51800000D01*
X122784699Y-52005932D01*
X122784700Y-52005934D01*
X122844768Y-52203954D01*
X122942315Y-52386450D01*
X122942317Y-52386453D01*
X123073589Y-52546410D01*
X123223880Y-52669749D01*
X123233550Y-52677685D01*
X123416046Y-52775232D01*
X123614066Y-52835300D01*
X123820000Y-52855583D01*
X124025934Y-52835300D01*
X124223954Y-52775232D01*
X124312056Y-52728138D01*
X124350689Y-52721435D01*
X124385713Y-52739065D01*
X125725954Y-54079306D01*
X125744260Y-54123500D01*
X125725954Y-54167694D01*
X125681760Y-54186000D01*
X123985240Y-54186000D01*
X123941046Y-54167694D01*
X122191199Y-52417847D01*
X122173569Y-52382823D01*
X122180273Y-52344190D01*
X122184829Y-52335666D01*
X122255232Y-52203954D01*
X122315300Y-52005934D01*
X122335583Y-51800000D01*
X122315300Y-51594066D01*
X122255232Y-51396046D01*
X122157685Y-51213550D01*
X122106718Y-51151446D01*
X122026410Y-51053589D01*
X121866453Y-50922317D01*
X121866451Y-50922316D01*
X121866450Y-50922315D01*
X121683954Y-50824768D01*
X121593934Y-50797461D01*
X121485932Y-50764699D01*
X121280000Y-50744417D01*
X121074067Y-50764699D01*
X120876046Y-50824768D01*
X120693546Y-50922317D01*
X120533589Y-51053589D01*
X120402317Y-51213546D01*
X120304768Y-51396046D01*
X120244699Y-51594067D01*
X120224417Y-51800000D01*
X120244699Y-52005932D01*
X120244700Y-52005934D01*
X120304768Y-52203954D01*
X120402315Y-52386450D01*
X120402317Y-52386453D01*
X120533589Y-52546410D01*
X120683880Y-52669749D01*
X120693550Y-52677685D01*
X120876046Y-52775232D01*
X121074066Y-52835300D01*
X121280000Y-52855583D01*
X121485934Y-52835300D01*
X121683954Y-52775232D01*
X121719921Y-52756005D01*
X121758555Y-52749301D01*
X121793579Y-52766931D01*
X123455954Y-54429306D01*
X123474260Y-54473500D01*
X123455954Y-54517694D01*
X123411760Y-54536000D01*
X121875241Y-54536000D01*
X121831047Y-54517694D01*
X119679065Y-52365713D01*
X119661435Y-52330689D01*
X119668139Y-52292056D01*
X119715232Y-52203954D01*
X119775300Y-52005934D01*
X119795583Y-51800000D01*
X119775300Y-51594066D01*
X119715232Y-51396046D01*
X119617685Y-51213550D01*
X119566718Y-51151446D01*
X119486410Y-51053589D01*
X119326453Y-50922317D01*
X119326451Y-50922316D01*
X119326450Y-50922315D01*
X119143954Y-50824768D01*
X119053934Y-50797461D01*
X118945932Y-50764699D01*
X118740000Y-50744417D01*
X118534067Y-50764699D01*
X118336046Y-50824768D01*
X118153546Y-50922317D01*
X117993589Y-51053589D01*
X117862317Y-51213546D01*
X117764768Y-51396046D01*
X117704699Y-51594067D01*
X117684417Y-51800000D01*
X117704699Y-52005932D01*
X117704700Y-52005934D01*
X117764768Y-52203954D01*
X117862315Y-52386450D01*
X117862317Y-52386453D01*
X117993589Y-52546410D01*
X118143880Y-52669749D01*
X118153550Y-52677685D01*
X118336046Y-52775232D01*
X118534066Y-52835300D01*
X118740000Y-52855583D01*
X118945934Y-52835300D01*
X119143954Y-52775232D01*
X119232056Y-52728138D01*
X119270689Y-52721435D01*
X119305713Y-52739065D01*
X121345953Y-54779306D01*
X121364259Y-54823500D01*
X121345953Y-54867694D01*
X121301759Y-54886000D01*
X119685240Y-54886000D01*
X119641046Y-54867694D01*
X117139065Y-52365713D01*
X117121435Y-52330689D01*
X117128139Y-52292056D01*
X117175232Y-52203954D01*
X117235300Y-52005934D01*
X117255583Y-51800000D01*
X117235300Y-51594066D01*
X117175232Y-51396046D01*
X117077685Y-51213550D01*
X117026718Y-51151446D01*
X116946410Y-51053589D01*
X116786453Y-50922317D01*
X116786451Y-50922316D01*
X116786450Y-50922315D01*
X116603954Y-50824768D01*
X116513934Y-50797461D01*
X116405932Y-50764699D01*
X116200000Y-50744417D01*
X115994067Y-50764699D01*
X115796046Y-50824768D01*
X115613546Y-50922317D01*
X115453589Y-51053589D01*
X115322317Y-51213546D01*
X115224768Y-51396046D01*
X115164699Y-51594067D01*
X115144417Y-51800000D01*
X115164699Y-52005932D01*
X115164700Y-52005934D01*
X115224768Y-52203954D01*
X115322315Y-52386450D01*
X115322317Y-52386453D01*
X115453589Y-52546410D01*
X115603880Y-52669749D01*
X115613550Y-52677685D01*
X115796046Y-52775232D01*
X115994066Y-52835300D01*
X116200000Y-52855583D01*
X116405934Y-52835300D01*
X116603954Y-52775232D01*
X116692056Y-52728138D01*
X116730689Y-52721435D01*
X116765713Y-52739065D01*
X119340585Y-55313937D01*
X119348357Y-55323406D01*
X119359667Y-55340333D01*
X119446992Y-55398683D01*
X119502667Y-55409757D01*
X119530030Y-55415200D01*
X119530040Y-55415201D01*
X119550000Y-55419171D01*
X119569960Y-55415201D01*
X119582152Y-55414000D01*
X127264760Y-55414000D01*
X127308954Y-55432306D01*
X128767694Y-56891046D01*
X128786000Y-56935240D01*
X128786000Y-69000023D01*
X128778355Y-69029976D01*
X128757291Y-69052601D01*
X128751950Y-69056033D01*
X128667118Y-69153936D01*
X128613303Y-69271774D01*
X128594866Y-69400001D01*
X128596943Y-69414445D01*
X128590459Y-69452308D01*
X128563054Y-69479227D01*
X128525081Y-69485033D01*
X128490885Y-69467532D01*
X126109414Y-67086062D01*
X126101641Y-67076591D01*
X126090333Y-67059667D01*
X126084893Y-67056032D01*
X126003008Y-67001317D01*
X126003005Y-67001316D01*
X125926002Y-66986000D01*
X125926003Y-66986000D01*
X125899999Y-66980827D01*
X125880035Y-66984799D01*
X125867843Y-66986000D01*
X119426002Y-66986000D01*
X117982157Y-66986000D01*
X117969965Y-66984799D01*
X117950000Y-66980827D01*
X117923997Y-66986000D01*
X117923998Y-66986000D01*
X117846992Y-67001316D01*
X117759666Y-67059667D01*
X117748354Y-67076595D01*
X117740584Y-67086062D01*
X115252181Y-69574464D01*
X115252179Y-69574468D01*
X114886063Y-69940583D01*
X114876595Y-69948354D01*
X114859666Y-69959666D01*
X114839823Y-69989361D01*
X114839824Y-69989362D01*
X114839786Y-69989419D01*
X114801316Y-70046992D01*
X114780828Y-70150000D01*
X114784799Y-70169965D01*
X114786000Y-70182157D01*
X114786000Y-71650023D01*
X114778355Y-71679976D01*
X114757291Y-71702601D01*
X114751950Y-71706033D01*
X114667118Y-71803936D01*
X114613303Y-71921774D01*
X114594866Y-72050000D01*
X113023352Y-72050000D01*
X108466974Y-67493622D01*
X108451866Y-67469165D01*
X108449304Y-67440535D01*
X108455133Y-67400000D01*
X108436697Y-67271774D01*
X108382882Y-67153937D01*
X108298049Y-67056033D01*
X108298048Y-67056032D01*
X108189068Y-66985995D01*
X108064773Y-66949500D01*
X108064772Y-66949500D01*
X107935228Y-66949500D01*
X107935227Y-66949500D01*
X107810931Y-66985995D01*
X107701951Y-67056032D01*
X107617118Y-67153936D01*
X107563303Y-67271774D01*
X107544866Y-67400000D01*
X100200500Y-67400000D01*
X100200500Y-63540000D01*
X101944417Y-63540000D01*
X101964699Y-63745932D01*
X101964700Y-63745934D01*
X102024768Y-63943954D01*
X102122315Y-64126450D01*
X102122317Y-64126453D01*
X102253589Y-64286410D01*
X102413546Y-64417682D01*
X102413550Y-64417685D01*
X102596046Y-64515232D01*
X102794066Y-64575300D01*
X103000000Y-64595583D01*
X103205934Y-64575300D01*
X103403954Y-64515232D01*
X103586450Y-64417685D01*
X103746410Y-64286410D01*
X103877685Y-64126450D01*
X103975232Y-63943954D01*
X104035300Y-63745934D01*
X104055583Y-63540000D01*
X104035300Y-63334066D01*
X103975232Y-63136046D01*
X103877685Y-62953550D01*
X103826718Y-62891446D01*
X103746410Y-62793589D01*
X103586453Y-62662317D01*
X103586451Y-62662316D01*
X103586450Y-62662315D01*
X103403954Y-62564768D01*
X103313934Y-62537461D01*
X103205932Y-62504699D01*
X103000000Y-62484417D01*
X102794067Y-62504699D01*
X102596046Y-62564768D01*
X102413546Y-62662317D01*
X102253589Y-62793589D01*
X102122317Y-62953546D01*
X102024768Y-63136046D01*
X101964699Y-63334067D01*
X101944417Y-63540000D01*
X100200500Y-63540000D01*
X100200500Y-61869749D01*
X101949500Y-61869749D01*
X101961132Y-61928231D01*
X102005447Y-61994552D01*
X102071768Y-62038867D01*
X102130251Y-62050500D01*
X102130252Y-62050500D01*
X103869748Y-62050500D01*
X103869749Y-62050500D01*
X103928231Y-62038867D01*
X103994552Y-61994552D01*
X104038867Y-61928231D01*
X104050500Y-61869749D01*
X104050500Y-60130251D01*
X104038867Y-60071768D01*
X103994552Y-60005447D01*
X103928231Y-59961132D01*
X103869749Y-59949500D01*
X103869748Y-59949500D01*
X102130252Y-59949500D01*
X102130251Y-59949500D01*
X102071768Y-59961132D01*
X102005447Y-60005447D01*
X101961132Y-60071768D01*
X101949500Y-60130251D01*
X101949500Y-61869749D01*
X100200500Y-61869749D01*
X100200500Y-57231888D01*
X102980243Y-57231888D01*
X103200703Y-57416877D01*
X103493449Y-57609418D01*
X103806572Y-57766674D01*
X104135837Y-57886517D01*
X104476780Y-57967322D01*
X104824801Y-58008000D01*
X105175199Y-58008000D01*
X105523219Y-57967322D01*
X105864162Y-57886517D01*
X106101865Y-57800000D01*
X112794435Y-57800000D01*
X112814631Y-57979253D01*
X112874212Y-58149524D01*
X112970183Y-58302262D01*
X113097737Y-58429816D01*
X113153502Y-58464855D01*
X113250478Y-58525789D01*
X113420745Y-58585368D01*
X113600000Y-58605565D01*
X113779255Y-58585368D01*
X113949522Y-58525789D01*
X114102262Y-58429816D01*
X114229816Y-58302262D01*
X114325789Y-58149522D01*
X114366644Y-58032762D01*
X114381440Y-58009215D01*
X114871850Y-57518806D01*
X114916044Y-57500500D01*
X126642225Y-57500500D01*
X126675477Y-57510080D01*
X126700478Y-57525789D01*
X126870745Y-57585368D01*
X127050000Y-57605565D01*
X127229255Y-57585368D01*
X127399522Y-57525789D01*
X127552262Y-57429816D01*
X127679816Y-57302262D01*
X127775789Y-57149522D01*
X127835368Y-56979255D01*
X127855565Y-56800000D01*
X127835368Y-56620745D01*
X127775789Y-56450478D01*
X127714085Y-56352276D01*
X127679816Y-56297737D01*
X127552262Y-56170183D01*
X127399524Y-56074212D01*
X127399523Y-56074211D01*
X127399522Y-56074211D01*
X127274695Y-56030532D01*
X127229253Y-56014631D01*
X127072760Y-55996999D01*
X127050000Y-55994435D01*
X127049999Y-55994435D01*
X126870746Y-56014631D01*
X126700475Y-56074212D01*
X126675477Y-56089920D01*
X126642225Y-56099500D01*
X114623058Y-56099500D01*
X114619285Y-56099386D01*
X114557393Y-56095642D01*
X114557391Y-56095642D01*
X114496397Y-56106819D01*
X114492666Y-56107387D01*
X114431130Y-56114859D01*
X114416431Y-56120433D01*
X114405540Y-56123469D01*
X114390068Y-56126305D01*
X114333521Y-56151754D01*
X114330034Y-56153198D01*
X114272068Y-56175181D01*
X114259123Y-56184116D01*
X114249278Y-56189669D01*
X114234941Y-56196122D01*
X114186144Y-56234352D01*
X114183105Y-56236589D01*
X114132069Y-56271818D01*
X114090942Y-56318239D01*
X114088355Y-56320987D01*
X113390785Y-57018556D01*
X113367234Y-57033354D01*
X113250478Y-57074209D01*
X113097737Y-57170183D01*
X112970183Y-57297737D01*
X112874212Y-57450475D01*
X112814631Y-57620746D01*
X112794435Y-57800000D01*
X106101865Y-57800000D01*
X106193427Y-57766674D01*
X106506550Y-57609418D01*
X106799296Y-57416877D01*
X107019755Y-57231888D01*
X107019755Y-57231887D01*
X105000000Y-55212132D01*
X102980243Y-57231887D01*
X102980243Y-57231888D01*
X100200500Y-57231888D01*
X100200500Y-55001375D01*
X100200530Y-55000000D01*
X101986901Y-55000000D01*
X102007274Y-55349800D01*
X102068119Y-55694867D01*
X102168611Y-56030532D01*
X102307397Y-56352276D01*
X102482595Y-56655726D01*
X102691832Y-56936781D01*
X102769142Y-57018725D01*
X104787868Y-55000000D01*
X104787867Y-54999999D01*
X105212131Y-54999999D01*
X107230856Y-57018725D01*
X107308167Y-56936781D01*
X107517404Y-56655726D01*
X107692602Y-56352276D01*
X107831388Y-56030532D01*
X107931880Y-55694867D01*
X107992725Y-55349800D01*
X108013098Y-55000000D01*
X107992725Y-54650199D01*
X107931880Y-54305132D01*
X107831388Y-53969467D01*
X107692602Y-53647723D01*
X107517404Y-53344273D01*
X107308167Y-53063218D01*
X107230856Y-52981273D01*
X105212131Y-54999999D01*
X104787867Y-54999999D01*
X102769142Y-52981273D01*
X102691832Y-53063218D01*
X102482595Y-53344273D01*
X102307397Y-53647723D01*
X102168611Y-53969467D01*
X102068119Y-54305132D01*
X102007274Y-54650199D01*
X101986901Y-55000000D01*
X100200530Y-55000000D01*
X100200559Y-54998649D01*
X100218645Y-54584413D01*
X100219121Y-54578981D01*
X100224780Y-54536000D01*
X100273060Y-54169267D01*
X100273999Y-54163940D01*
X100363456Y-53760427D01*
X100364853Y-53755214D01*
X100489128Y-53361063D01*
X100490984Y-53355964D01*
X100649137Y-52974150D01*
X100651428Y-52969238D01*
X100756128Y-52768111D01*
X102980243Y-52768111D01*
X104999999Y-54787867D01*
X107019755Y-52768111D01*
X107019755Y-52768110D01*
X106902534Y-52669749D01*
X112609500Y-52669749D01*
X112621132Y-52728231D01*
X112665447Y-52794552D01*
X112731768Y-52838867D01*
X112790251Y-52850500D01*
X112790252Y-52850500D01*
X114529748Y-52850500D01*
X114529749Y-52850500D01*
X114588231Y-52838867D01*
X114654552Y-52794552D01*
X114698867Y-52728231D01*
X114710500Y-52669749D01*
X114710500Y-50930251D01*
X114698867Y-50871768D01*
X114654552Y-50805447D01*
X114588231Y-50761132D01*
X114529749Y-50749500D01*
X114529748Y-50749500D01*
X112790252Y-50749500D01*
X112790251Y-50749500D01*
X112731768Y-50761132D01*
X112665447Y-50805447D01*
X112621132Y-50871768D01*
X112609500Y-50930251D01*
X112609500Y-52669749D01*
X106902534Y-52669749D01*
X106799296Y-52583122D01*
X106506550Y-52390581D01*
X106193427Y-52233325D01*
X105864162Y-52113482D01*
X105523219Y-52032677D01*
X105175199Y-51992000D01*
X104824801Y-51992000D01*
X104476780Y-52032677D01*
X104135837Y-52113482D01*
X103806572Y-52233325D01*
X103493449Y-52390581D01*
X103200703Y-52583122D01*
X102980243Y-52768110D01*
X102980243Y-52768111D01*
X100756128Y-52768111D01*
X100842261Y-52602651D01*
X100844962Y-52597971D01*
X101067016Y-52249417D01*
X101070129Y-52244970D01*
X101321725Y-51917083D01*
X101325205Y-51912937D01*
X101604401Y-51608248D01*
X101608253Y-51604397D01*
X101912937Y-51325205D01*
X101917083Y-51321725D01*
X102244970Y-51070129D01*
X102249417Y-51067016D01*
X102597971Y-50844962D01*
X102602651Y-50842261D01*
X102969238Y-50651428D01*
X102974150Y-50649137D01*
X103355964Y-50490984D01*
X103361063Y-50489128D01*
X103755214Y-50364853D01*
X103760427Y-50363456D01*
X104163940Y-50273999D01*
X104169267Y-50273060D01*
X104578990Y-50219120D01*
X104584404Y-50218645D01*
X104998648Y-50200559D01*
X105001375Y-50200500D01*
X105039882Y-50200500D01*
X134960118Y-50200500D01*
X134998625Y-50200500D01*
X135001351Y-50200559D01*
G37*
%TD.AperFunction*%
%TD*%
M02*
