%TF.GenerationSoftware,KiCad,Pcbnew,7.0.1-3b83917a11~172~ubuntu22.04.1*%
%TF.CreationDate,2023-04-07T18:55:37-03:00*%
%TF.ProjectId,button-debouncer,62757474-6f6e-42d6-9465-626f756e6365,rev?*%
%TF.SameCoordinates,Original*%
%TF.FileFunction,Copper,L1,Top*%
%TF.FilePolarity,Positive*%
%FSLAX46Y46*%
G04 Gerber Fmt 4.6, Leading zero omitted, Abs format (unit mm)*
G04 Created by KiCad (PCBNEW 7.0.1-3b83917a11~172~ubuntu22.04.1) date 2023-04-07 18:55:37*
%MOMM*%
%LPD*%
G01*
G04 APERTURE LIST*
G04 Aperture macros list*
%AMRoundRect*
0 Rectangle with rounded corners*
0 $1 Rounding radius*
0 $2 $3 $4 $5 $6 $7 $8 $9 X,Y pos of 4 corners*
0 Add a 4 corners polygon primitive as box body*
4,1,4,$2,$3,$4,$5,$6,$7,$8,$9,$2,$3,0*
0 Add four circle primitives for the rounded corners*
1,1,$1+$1,$2,$3*
1,1,$1+$1,$4,$5*
1,1,$1+$1,$6,$7*
1,1,$1+$1,$8,$9*
0 Add four rect primitives between the rounded corners*
20,1,$1+$1,$2,$3,$4,$5,0*
20,1,$1+$1,$4,$5,$6,$7,0*
20,1,$1+$1,$6,$7,$8,$9,0*
20,1,$1+$1,$8,$9,$2,$3,0*%
G04 Aperture macros list end*
%TA.AperFunction,SMDPad,CuDef*%
%ADD10RoundRect,0.150000X-0.825000X-0.150000X0.825000X-0.150000X0.825000X0.150000X-0.825000X0.150000X0*%
%TD*%
%TA.AperFunction,SMDPad,CuDef*%
%ADD11RoundRect,0.250000X-0.250000X-0.475000X0.250000X-0.475000X0.250000X0.475000X-0.250000X0.475000X0*%
%TD*%
%TA.AperFunction,SMDPad,CuDef*%
%ADD12RoundRect,0.250000X0.250000X0.475000X-0.250000X0.475000X-0.250000X-0.475000X0.250000X-0.475000X0*%
%TD*%
%TA.AperFunction,SMDPad,CuDef*%
%ADD13RoundRect,0.250000X0.550000X-1.050000X0.550000X1.050000X-0.550000X1.050000X-0.550000X-1.050000X0*%
%TD*%
%TA.AperFunction,SMDPad,CuDef*%
%ADD14RoundRect,0.140000X-0.140000X-0.170000X0.140000X-0.170000X0.140000X0.170000X-0.140000X0.170000X0*%
%TD*%
%TA.AperFunction,SMDPad,CuDef*%
%ADD15RoundRect,0.135000X0.185000X-0.135000X0.185000X0.135000X-0.185000X0.135000X-0.185000X-0.135000X0*%
%TD*%
%TA.AperFunction,SMDPad,CuDef*%
%ADD16RoundRect,0.135000X-0.135000X-0.185000X0.135000X-0.185000X0.135000X0.185000X-0.135000X0.185000X0*%
%TD*%
%TA.AperFunction,SMDPad,CuDef*%
%ADD17RoundRect,0.135000X0.135000X0.185000X-0.135000X0.185000X-0.135000X-0.185000X0.135000X-0.185000X0*%
%TD*%
%TA.AperFunction,SMDPad,CuDef*%
%ADD18RoundRect,0.147500X-0.172500X0.147500X-0.172500X-0.147500X0.172500X-0.147500X0.172500X0.147500X0*%
%TD*%
%TA.AperFunction,SMDPad,CuDef*%
%ADD19RoundRect,0.150000X0.150000X-0.825000X0.150000X0.825000X-0.150000X0.825000X-0.150000X-0.825000X0*%
%TD*%
%TA.AperFunction,ComponentPad*%
%ADD20O,3.500000X2.200000*%
%TD*%
%TA.AperFunction,ComponentPad*%
%ADD21R,2.500000X1.500000*%
%TD*%
%TA.AperFunction,ComponentPad*%
%ADD22O,2.500000X1.500000*%
%TD*%
%TA.AperFunction,ComponentPad*%
%ADD23R,1.700000X1.700000*%
%TD*%
%TA.AperFunction,ComponentPad*%
%ADD24O,1.700000X1.700000*%
%TD*%
%TA.AperFunction,ComponentPad*%
%ADD25C,2.000000*%
%TD*%
%TA.AperFunction,ComponentPad*%
%ADD26C,5.000000*%
%TD*%
%TA.AperFunction,ViaPad*%
%ADD27C,0.500000*%
%TD*%
%TA.AperFunction,ViaPad*%
%ADD28C,1.200000*%
%TD*%
%TA.AperFunction,Conductor*%
%ADD29C,0.127000*%
%TD*%
%TA.AperFunction,Conductor*%
%ADD30C,0.600000*%
%TD*%
%TA.AperFunction,Conductor*%
%ADD31C,0.300000*%
%TD*%
%TA.AperFunction,Conductor*%
%ADD32C,1.000000*%
%TD*%
%TA.AperFunction,Conductor*%
%ADD33C,0.254000*%
%TD*%
G04 APERTURE END LIST*
D10*
%TO.P,U1,14,VDD*%
%TO.N,+5V*%
X117400000Y-66800000D03*
%TO.P,U1,13*%
%TO.N,Net-(SW6-A)*%
X117400000Y-68070000D03*
%TO.P,U1,12*%
%TO.N,Net-(SW6-C)*%
X117400000Y-69340000D03*
%TO.P,U1,11*%
%TO.N,Net-(SW5-A)*%
X117400000Y-70610000D03*
%TO.P,U1,10*%
%TO.N,Net-(SW5-C)*%
X117400000Y-71880000D03*
%TO.P,U1,9*%
%TO.N,Net-(C5-Pad1)*%
X117400000Y-73150000D03*
%TO.P,U1,8*%
%TO.N,Q1*%
X117400000Y-74420000D03*
%TO.P,U1,7,VSS*%
%TO.N,GND*%
X112450000Y-74420000D03*
%TO.P,U1,6*%
%TO.N,Q2*%
X112450000Y-73150000D03*
%TO.P,U1,5*%
%TO.N,Net-(C6-Pad1)*%
X112450000Y-71880000D03*
%TO.P,U1,4*%
%TO.N,Net-(SW5-A)*%
X112450000Y-70610000D03*
%TO.P,U1,3*%
%TO.N,Net-(C7-Pad1)*%
X112450000Y-69340000D03*
%TO.P,U1,2*%
%TO.N,Net-(SW6-A)*%
X112450000Y-68070000D03*
%TO.P,U1,1*%
%TO.N,Net-(C8-Pad1)*%
X112450000Y-66800000D03*
%TD*%
D11*
%TO.P,C4,2*%
%TO.N,GND*%
X128950000Y-59800000D03*
%TO.P,C4,1*%
%TO.N,+5V*%
X127050000Y-59800000D03*
%TD*%
D12*
%TO.P,C3,2*%
%TO.N,GND*%
X115650000Y-64800000D03*
%TO.P,C3,1*%
%TO.N,+5V*%
X117550000Y-64800000D03*
%TD*%
D13*
%TO.P,C1,1*%
%TO.N,+5V*%
X110700000Y-60800000D03*
%TO.P,C1,2*%
%TO.N,GND*%
X110700000Y-57200000D03*
%TD*%
D14*
%TO.P,C8,2*%
%TO.N,GND*%
X107000000Y-69800000D03*
%TO.P,C8,1*%
%TO.N,Net-(C8-Pad1)*%
X106040000Y-69800000D03*
%TD*%
%TO.P,C7,2*%
%TO.N,GND*%
X107000000Y-74000000D03*
%TO.P,C7,1*%
%TO.N,Net-(C7-Pad1)*%
X106040000Y-74000000D03*
%TD*%
%TO.P,C6,1*%
%TO.N,Net-(C6-Pad1)*%
X106040000Y-78200000D03*
%TO.P,C6,2*%
%TO.N,GND*%
X107000000Y-78200000D03*
%TD*%
%TO.P,C5,1*%
%TO.N,Net-(C5-Pad1)*%
X106040000Y-82430000D03*
%TO.P,C5,2*%
%TO.N,GND*%
X107000000Y-82430000D03*
%TD*%
D15*
%TO.P,R12,1*%
%TO.N,Net-(R12-Pad1)*%
X123820000Y-59585000D03*
%TO.P,R12,2*%
%TO.N,Net-(D4-A)*%
X123820000Y-58565000D03*
%TD*%
%TO.P,R11,1*%
%TO.N,Net-(R11-Pad1)*%
X121280000Y-59585000D03*
%TO.P,R11,2*%
%TO.N,Net-(D3-A)*%
X121280000Y-58565000D03*
%TD*%
%TO.P,R10,1*%
%TO.N,Net-(R10-Pad1)*%
X118740000Y-59585000D03*
%TO.P,R10,2*%
%TO.N,Net-(D2-A)*%
X118740000Y-58565000D03*
%TD*%
%TO.P,R9,2*%
%TO.N,Net-(D1-A)*%
X116200000Y-58565000D03*
%TO.P,R9,1*%
%TO.N,Net-(R9-Pad1)*%
X116200000Y-59585000D03*
%TD*%
D16*
%TO.P,R8,1*%
%TO.N,+5V*%
X103100000Y-67400000D03*
%TO.P,R8,2*%
%TO.N,Net-(C8-Pad1)*%
X104120000Y-67400000D03*
%TD*%
D17*
%TO.P,R7,1*%
%TO.N,Net-(R7-Pad1)*%
X107060000Y-67400000D03*
%TO.P,R7,2*%
%TO.N,Net-(C8-Pad1)*%
X106040000Y-67400000D03*
%TD*%
D16*
%TO.P,R6,2*%
%TO.N,Net-(C7-Pad1)*%
X104120000Y-71566668D03*
%TO.P,R6,1*%
%TO.N,+5V*%
X103100000Y-71566668D03*
%TD*%
D17*
%TO.P,R5,2*%
%TO.N,Net-(C7-Pad1)*%
X106040000Y-71566668D03*
%TO.P,R5,1*%
%TO.N,Net-(R5-Pad1)*%
X107060000Y-71566668D03*
%TD*%
D16*
%TO.P,R4,1*%
%TO.N,+5V*%
X103100000Y-75733334D03*
%TO.P,R4,2*%
%TO.N,Net-(C6-Pad1)*%
X104120000Y-75733334D03*
%TD*%
D17*
%TO.P,R3,1*%
%TO.N,Net-(R3-Pad1)*%
X107060000Y-75733334D03*
%TO.P,R3,2*%
%TO.N,Net-(C6-Pad1)*%
X106040000Y-75733334D03*
%TD*%
D16*
%TO.P,R2,1*%
%TO.N,+5V*%
X103100000Y-80030000D03*
%TO.P,R2,2*%
%TO.N,Net-(C5-Pad1)*%
X104120000Y-80030000D03*
%TD*%
D17*
%TO.P,R1,1*%
%TO.N,Net-(R1-Pad1)*%
X107060000Y-80030000D03*
%TO.P,R1,2*%
%TO.N,Net-(C5-Pad1)*%
X106040000Y-80030000D03*
%TD*%
D18*
%TO.P,D4,1,K*%
%TO.N,GND*%
X123820000Y-56000000D03*
%TO.P,D4,2,A*%
%TO.N,Net-(D4-A)*%
X123820000Y-56970000D03*
%TD*%
%TO.P,D3,1,K*%
%TO.N,GND*%
X121280000Y-56000000D03*
%TO.P,D3,2,A*%
%TO.N,Net-(D3-A)*%
X121280000Y-56970000D03*
%TD*%
%TO.P,D2,1,K*%
%TO.N,GND*%
X118740000Y-56000000D03*
%TO.P,D2,2,A*%
%TO.N,Net-(D2-A)*%
X118740000Y-56970000D03*
%TD*%
%TO.P,D1,2,A*%
%TO.N,Net-(D1-A)*%
X116200000Y-57000000D03*
%TO.P,D1,1,K*%
%TO.N,GND*%
X116200000Y-56030000D03*
%TD*%
D19*
%TO.P,U2,14,VCC*%
%TO.N,+5V*%
X126065000Y-62535000D03*
%TO.P,U2,13*%
%TO.N,Q4*%
X127335000Y-62535000D03*
%TO.P,U2,12*%
X128605000Y-62535000D03*
%TO.P,U2,11*%
%TO.N,Net-(R12-Pad1)*%
X129875000Y-62535000D03*
%TO.P,U2,10*%
%TO.N,Q3*%
X131145000Y-62535000D03*
%TO.P,U2,9*%
X132415000Y-62535000D03*
%TO.P,U2,8*%
%TO.N,Net-(R11-Pad1)*%
X133685000Y-62535000D03*
%TO.P,U2,7,GND*%
%TO.N,GND*%
X133685000Y-67485000D03*
%TO.P,U2,6*%
%TO.N,Net-(R10-Pad1)*%
X132415000Y-67485000D03*
%TO.P,U2,5*%
%TO.N,Q2*%
X131145000Y-67485000D03*
%TO.P,U2,4*%
X129875000Y-67485000D03*
%TO.P,U2,3*%
%TO.N,Net-(R9-Pad1)*%
X128605000Y-67485000D03*
%TO.P,U2,2*%
%TO.N,Q1*%
X127335000Y-67485000D03*
%TO.P,U2,1*%
X126065000Y-67485000D03*
%TD*%
D20*
%TO.P,SW6,*%
%TO.N,*%
X135200000Y-72464000D03*
X135200000Y-80664000D03*
D21*
%TO.P,SW6,1,A*%
%TO.N,Net-(SW6-A)*%
X135200000Y-74564000D03*
D22*
%TO.P,SW6,2,B*%
%TO.N,Q4*%
X135200000Y-76564000D03*
%TO.P,SW6,3,C*%
%TO.N,Net-(SW6-C)*%
X135200000Y-78564000D03*
%TD*%
D20*
%TO.P,SW5,*%
%TO.N,*%
X125000000Y-72400000D03*
X125000000Y-80600000D03*
D21*
%TO.P,SW5,1,A*%
%TO.N,Net-(SW5-A)*%
X125000000Y-74500000D03*
D22*
%TO.P,SW5,2,B*%
%TO.N,Q3*%
X125000000Y-76500000D03*
%TO.P,SW5,3,C*%
%TO.N,Net-(SW5-C)*%
X125000000Y-78500000D03*
%TD*%
D23*
%TO.P,J3,1,Pin_1*%
%TO.N,+5V*%
X113660000Y-51800000D03*
D24*
%TO.P,J3,2,Pin_2*%
%TO.N,Q1*%
X116200000Y-51800000D03*
%TO.P,J3,3,Pin_3*%
%TO.N,Q2*%
X118740000Y-51800000D03*
%TO.P,J3,4,Pin_4*%
%TO.N,Q3*%
X121280000Y-51800000D03*
%TO.P,J3,5,Pin_5*%
%TO.N,Q4*%
X123820000Y-51800000D03*
%TO.P,J3,6,Pin_6*%
%TO.N,GND*%
X126360000Y-51800000D03*
%TD*%
D25*
%TO.P,SW4,1,1*%
%TO.N,GND*%
X131750000Y-89550000D03*
X138250000Y-89550000D03*
%TO.P,SW4,2,2*%
%TO.N,Net-(R7-Pad1)*%
X131750000Y-85050000D03*
X138250000Y-85050000D03*
%TD*%
%TO.P,SW3,1,1*%
%TO.N,GND*%
X121750000Y-89550000D03*
X128250000Y-89550000D03*
%TO.P,SW3,2,2*%
%TO.N,Net-(R5-Pad1)*%
X121750000Y-85050000D03*
X128250000Y-85050000D03*
%TD*%
%TO.P,SW2,1,1*%
%TO.N,GND*%
X111750000Y-89550000D03*
X118250000Y-89550000D03*
%TO.P,SW2,2,2*%
%TO.N,Net-(R3-Pad1)*%
X111750000Y-85050000D03*
X118250000Y-85050000D03*
%TD*%
%TO.P,SW1,1,1*%
%TO.N,GND*%
X101750000Y-89550000D03*
X108250000Y-89550000D03*
%TO.P,SW1,2,2*%
%TO.N,Net-(R1-Pad1)*%
X101750000Y-85050000D03*
X108250000Y-85050000D03*
%TD*%
D24*
%TO.P,J2,2,Pin_2*%
%TO.N,GND*%
X137000000Y-63540000D03*
D23*
%TO.P,J2,1,Pin_1*%
X137000000Y-61000000D03*
%TD*%
D24*
%TO.P,J1,2,Pin_2*%
%TO.N,+5V*%
X103000000Y-63540000D03*
D23*
%TO.P,J1,1,Pin_1*%
X103000000Y-61000000D03*
%TD*%
D26*
%TO.P,H4,1,1*%
%TO.N,GND*%
X135000000Y-95000000D03*
%TD*%
%TO.P,H3,1,1*%
%TO.N,GND*%
X105000000Y-95000000D03*
%TD*%
%TO.P,H2,1,1*%
%TO.N,GND*%
X135000000Y-55000000D03*
%TD*%
%TO.P,H1,1,1*%
%TO.N,GND*%
X105000000Y-55000000D03*
%TD*%
D27*
%TO.N,GND*%
X130800000Y-64250000D03*
X131950000Y-70300000D03*
%TO.N,Q2*%
X115050000Y-72050000D03*
%TO.N,Q1*%
X129050000Y-69400000D03*
%TO.N,Q2*%
X130350000Y-69400000D03*
%TO.N,Q4*%
X132037746Y-58812254D03*
%TO.N,Q3*%
X131150000Y-60700000D03*
%TO.N,Net-(SW6-A)*%
X119850000Y-68070000D03*
%TO.N,Net-(SW6-C)*%
X119850000Y-69340000D03*
%TO.N,Net-(SW5-A)*%
X119850000Y-70600000D03*
%TO.N,Net-(SW5-C)*%
X119850000Y-71880000D03*
%TO.N,GND*%
X104200000Y-69800000D03*
X104200000Y-74000000D03*
X104200000Y-78200000D03*
%TO.N,Net-(R1-Pad1)*%
X108000000Y-80030000D03*
%TO.N,Net-(R3-Pad1)*%
X108000000Y-75733334D03*
%TO.N,Net-(R5-Pad1)*%
X108000000Y-71600000D03*
%TO.N,Net-(R7-Pad1)*%
X108000000Y-67400000D03*
D28*
%TO.N,+5V*%
X113600000Y-57800000D03*
X127050000Y-56800000D03*
%TD*%
D29*
%TO.N,Net-(R7-Pad1)*%
X131750000Y-85050000D02*
X138250000Y-85050000D01*
%TO.N,Net-(R5-Pad1)*%
X121750000Y-85050000D02*
X128250000Y-85050000D01*
%TO.N,Net-(R3-Pad1)*%
X111750000Y-85050000D02*
X118250000Y-85050000D01*
%TO.N,Net-(R1-Pad1)*%
X101750000Y-85050000D02*
X108250000Y-85050000D01*
%TO.N,Q3*%
X131150000Y-60700000D02*
X133200000Y-58650000D01*
X133200000Y-58650000D02*
X137950000Y-58650000D01*
X137950000Y-58650000D02*
X139150000Y-59850000D01*
X139150000Y-59850000D02*
X139150000Y-65400000D01*
X139150000Y-65400000D02*
X128050000Y-76500000D01*
X128050000Y-76500000D02*
X125000000Y-76500000D01*
%TO.N,Q2*%
X112450000Y-73150000D02*
X113950000Y-73150000D01*
X113950000Y-73150000D02*
X115050000Y-72050000D01*
%TO.N,Q1*%
X117400000Y-74420000D02*
X119830000Y-74420000D01*
X119830000Y-74420000D02*
X126065000Y-68185000D01*
X126065000Y-68185000D02*
X126065000Y-67485000D01*
X127335000Y-67485000D02*
X127335000Y-67774777D01*
X127335000Y-67774777D02*
X128960223Y-69400000D01*
X128960223Y-69400000D02*
X129050000Y-69400000D01*
%TO.N,Q2*%
X131145000Y-67485000D02*
X131145000Y-68605000D01*
X131145000Y-68605000D02*
X130350000Y-69400000D01*
%TO.N,Q3*%
X131145000Y-62535000D02*
X131145000Y-60705000D01*
X131145000Y-60705000D02*
X131150000Y-60700000D01*
%TO.N,Q4*%
X132037746Y-58812254D02*
X129800223Y-61049777D01*
X129800223Y-61049777D02*
X129800223Y-61050000D01*
X129800223Y-61050000D02*
X128605000Y-62245223D01*
X128605000Y-62245223D02*
X128605000Y-62535000D01*
%TO.N,Net-(SW6-C)*%
X117400000Y-69340000D02*
X119850000Y-69340000D01*
%TO.N,Net-(SW5-A)*%
X117400000Y-70610000D02*
X119840000Y-70610000D01*
%TO.N,Net-(SW5-C)*%
X117400000Y-71880000D02*
X119850000Y-71880000D01*
%TO.N,Net-(SW6-A)*%
X117400000Y-68070000D02*
X119780000Y-68070000D01*
D30*
%TO.N,+5V*%
X117550000Y-64800000D02*
X117550000Y-66650000D01*
X117550000Y-66650000D02*
X117400000Y-66800000D01*
X114065000Y-60800000D02*
X117550000Y-64285000D01*
X117550000Y-64285000D02*
X117550000Y-64800000D01*
X114065000Y-60800000D02*
X110700000Y-60800000D01*
X103100000Y-67400000D02*
X103100000Y-67201974D01*
X103100000Y-67201974D02*
X105301974Y-65000000D01*
X105301974Y-65000000D02*
X108000000Y-65000000D01*
X108000000Y-65000000D02*
X110700000Y-62300000D01*
X110700000Y-62300000D02*
X110700000Y-60800000D01*
D29*
%TO.N,Net-(R5-Pad1)*%
X108000000Y-71600000D02*
X107093332Y-71600000D01*
D31*
X107093332Y-71600000D02*
X107060000Y-71566668D01*
D32*
%TO.N,+5V*%
X113660000Y-51800000D02*
X113660000Y-57840000D01*
X113660000Y-57840000D02*
X110700000Y-60800000D01*
D29*
%TO.N,Net-(C8-Pad1)*%
X106040000Y-67400000D02*
X106840000Y-66600000D01*
X106840000Y-66600000D02*
X112250000Y-66600000D01*
X112250000Y-66600000D02*
X112450000Y-66800000D01*
%TO.N,Net-(C7-Pad1)*%
X106040000Y-71566668D02*
X106806668Y-70800000D01*
X106806668Y-70800000D02*
X110610420Y-70800000D01*
X110610420Y-70800000D02*
X112070420Y-69340000D01*
D33*
X112070420Y-69340000D02*
X112450000Y-69340000D01*
D29*
%TO.N,Net-(C6-Pad1)*%
X106040000Y-75733334D02*
X106973334Y-74800000D01*
X106973334Y-74800000D02*
X108800000Y-74800000D01*
X108800000Y-74800000D02*
X111720000Y-71880000D01*
X111720000Y-71880000D02*
X112450000Y-71880000D01*
%TO.N,Net-(C5-Pad1)*%
X106040000Y-80030000D02*
X106870000Y-79200000D01*
X106870000Y-79200000D02*
X111000000Y-79200000D01*
X111000000Y-79200000D02*
X114800000Y-75400000D01*
D33*
X117020420Y-73150000D02*
X117400000Y-73150000D01*
D29*
X114800000Y-75370420D02*
X117020420Y-73150000D01*
%TO.N,Net-(R1-Pad1)*%
X107970000Y-80030000D02*
X107060000Y-80030000D01*
%TO.N,Net-(R3-Pad1)*%
X107933334Y-75733334D02*
X107060000Y-75733334D01*
D30*
%TO.N,+5V*%
X103100000Y-71566668D02*
X103100000Y-67400000D01*
X103100000Y-75733334D02*
X103100000Y-71566668D01*
X103100000Y-80030000D02*
X103100000Y-75733334D01*
D29*
%TO.N,Net-(SW6-A)*%
X112450000Y-68070000D02*
X117400000Y-68070000D01*
%TO.N,Net-(SW5-A)*%
X112450000Y-70610000D02*
X117400000Y-70610000D01*
%TO.N,Net-(R7-Pad1)*%
X107060000Y-67400000D02*
X108000000Y-67400000D01*
%TO.N,Net-(C8-Pad1)*%
X104120000Y-67400000D02*
X106040000Y-67400000D01*
%TO.N,Net-(C7-Pad1)*%
X106040000Y-71566668D02*
X104120000Y-71566668D01*
%TO.N,Net-(C6-Pad1)*%
X104120000Y-75733334D02*
X106040000Y-75733334D01*
%TO.N,Net-(C5-Pad1)*%
X106040000Y-80030000D02*
X104120000Y-80030000D01*
%TO.N,Net-(C8-Pad1)*%
X106040000Y-69800000D02*
X106040000Y-67400000D01*
%TO.N,Net-(C7-Pad1)*%
X106040000Y-74000000D02*
X106040000Y-71566668D01*
%TO.N,Net-(C6-Pad1)*%
X106040000Y-78200000D02*
X106040000Y-75733334D01*
%TO.N,Net-(C5-Pad1)*%
X106040000Y-82430000D02*
X106040000Y-80030000D01*
D31*
%TO.N,+5V*%
X126065000Y-60785000D02*
X127050000Y-59800000D01*
D30*
X127050000Y-56800000D02*
X127050000Y-59800000D01*
D31*
X126065000Y-60785000D02*
X126065000Y-62535000D01*
D29*
%TO.N,Net-(D4-A)*%
X123820000Y-58565000D02*
X123820000Y-56970000D01*
%TO.N,Net-(D3-A)*%
X121280000Y-58565000D02*
X121280000Y-56970000D01*
%TO.N,Net-(D2-A)*%
X118740000Y-58565000D02*
X118740000Y-56970000D01*
%TO.N,Net-(D1-A)*%
X116200000Y-58565000D02*
X116200000Y-57000000D01*
D32*
%TO.N,+5V*%
X103000000Y-61000000D02*
X103000000Y-63540000D01*
X110700000Y-60800000D02*
X103200000Y-60800000D01*
X103200000Y-60800000D02*
X103000000Y-61000000D01*
D29*
%TO.N,Q2*%
X129875000Y-67485000D02*
X131145000Y-67485000D01*
%TO.N,Q1*%
X126065000Y-67485000D02*
X127335000Y-67485000D01*
%TO.N,Q3*%
X131145000Y-62535000D02*
X132415000Y-62535000D01*
%TO.N,Q4*%
X127335000Y-62535000D02*
X128605000Y-62535000D01*
%TO.N,Net-(R12-Pad1)*%
X129875000Y-62535000D02*
X129875000Y-63925000D01*
X129875000Y-63925000D02*
X129200000Y-64600000D01*
X123820000Y-63820000D02*
X123820000Y-59585000D01*
X129200000Y-64600000D02*
X124600000Y-64600000D01*
X124600000Y-64600000D02*
X123820000Y-63820000D01*
%TO.N,Net-(R11-Pad1)*%
X121280000Y-59585000D02*
X121280000Y-63080000D01*
X121280000Y-63080000D02*
X123200000Y-65000000D01*
X133685000Y-62824777D02*
X133685000Y-62535000D01*
X123200000Y-65000000D02*
X131509777Y-65000000D01*
X131509777Y-65000000D02*
X133685000Y-62824777D01*
%TO.N,Net-(R10-Pad1)*%
X118740000Y-59585000D02*
X118740000Y-61340000D01*
X118740000Y-61340000D02*
X122800000Y-65400000D01*
X122800000Y-65400000D02*
X131400000Y-65400000D01*
X131400000Y-65400000D02*
X132415000Y-66415000D01*
X132415000Y-66415000D02*
X132415000Y-67485000D01*
%TO.N,Net-(R9-Pad1)*%
X116200000Y-59585000D02*
X122415000Y-65800000D01*
X122415000Y-65800000D02*
X128000000Y-65800000D01*
X128000000Y-65800000D02*
X128605000Y-66405000D01*
X128605000Y-66405000D02*
X128605000Y-67485000D01*
%TD*%
%TA.AperFunction,Conductor*%
%TO.N,GND*%
G36*
X105565419Y-76007122D02*
G01*
X105588482Y-76033421D01*
X105625934Y-76113738D01*
X105709595Y-76197399D01*
X105739914Y-76211537D01*
X105766212Y-76234600D01*
X105776000Y-76268181D01*
X105776000Y-77672305D01*
X105766212Y-77705886D01*
X105739913Y-77728949D01*
X105701683Y-77746775D01*
X105616775Y-77831683D01*
X105566027Y-77940514D01*
X105559500Y-77990095D01*
X105559500Y-78409896D01*
X105566028Y-78459489D01*
X105616775Y-78568316D01*
X105701683Y-78653224D01*
X105756098Y-78678598D01*
X105810513Y-78703972D01*
X105860099Y-78710500D01*
X106219900Y-78710499D01*
X106219901Y-78710499D01*
X106227488Y-78709500D01*
X106261195Y-78705063D01*
X106296701Y-78710830D01*
X106323149Y-78735213D01*
X106343912Y-78770322D01*
X106459680Y-78886090D01*
X106607399Y-78973451D01*
X106606409Y-78975124D01*
X106631478Y-78993331D01*
X106642013Y-79034345D01*
X106623984Y-79072662D01*
X106205454Y-79491194D01*
X106185178Y-79504742D01*
X106161260Y-79509500D01*
X105865681Y-79509500D01*
X105816828Y-79515931D01*
X105709595Y-79565934D01*
X105625934Y-79649595D01*
X105588482Y-79729913D01*
X105565419Y-79756212D01*
X105531838Y-79766000D01*
X104628162Y-79766000D01*
X104594581Y-79756212D01*
X104571518Y-79729913D01*
X104534065Y-79649595D01*
X104450404Y-79565934D01*
X104343171Y-79515931D01*
X104294319Y-79509500D01*
X104294316Y-79509500D01*
X103945684Y-79509500D01*
X103945681Y-79509500D01*
X103896828Y-79515931D01*
X103789595Y-79565934D01*
X103707194Y-79648336D01*
X103663000Y-79666642D01*
X103618806Y-79648336D01*
X103600500Y-79604142D01*
X103600500Y-76159192D01*
X103618806Y-76114998D01*
X103663000Y-76096692D01*
X103707194Y-76114998D01*
X103789595Y-76197399D01*
X103833118Y-76217694D01*
X103896827Y-76247402D01*
X103909041Y-76249010D01*
X103945681Y-76253834D01*
X103945684Y-76253834D01*
X104294316Y-76253834D01*
X104294319Y-76253834D01*
X104323630Y-76249974D01*
X104343173Y-76247402D01*
X104450404Y-76197399D01*
X104534065Y-76113738D01*
X104571517Y-76033421D01*
X104594581Y-76007122D01*
X104628162Y-75997334D01*
X105531838Y-75997334D01*
X105565419Y-76007122D01*
G37*
%TD.AperFunction*%
%TA.AperFunction,Conductor*%
G36*
X105565419Y-71840456D02*
G01*
X105588482Y-71866755D01*
X105625934Y-71947072D01*
X105709595Y-72030733D01*
X105739914Y-72044871D01*
X105766212Y-72067934D01*
X105776000Y-72101515D01*
X105776000Y-73472305D01*
X105766212Y-73505886D01*
X105739913Y-73528949D01*
X105701683Y-73546775D01*
X105616775Y-73631683D01*
X105566027Y-73740514D01*
X105559500Y-73790095D01*
X105559500Y-74209896D01*
X105566028Y-74259489D01*
X105616775Y-74368316D01*
X105701683Y-74453224D01*
X105738003Y-74470160D01*
X105810513Y-74503972D01*
X105860099Y-74510500D01*
X106219900Y-74510499D01*
X106219901Y-74510499D01*
X106227488Y-74509500D01*
X106261195Y-74505063D01*
X106296701Y-74510830D01*
X106323149Y-74535213D01*
X106343912Y-74570322D01*
X106459680Y-74686090D01*
X106550066Y-74739544D01*
X106575078Y-74767322D01*
X106579763Y-74804408D01*
X106562445Y-74837534D01*
X106205454Y-75194528D01*
X106185178Y-75208076D01*
X106161260Y-75212834D01*
X105865681Y-75212834D01*
X105816828Y-75219265D01*
X105709595Y-75269268D01*
X105625934Y-75352929D01*
X105588482Y-75433247D01*
X105565419Y-75459546D01*
X105531838Y-75469334D01*
X104628162Y-75469334D01*
X104594581Y-75459546D01*
X104571518Y-75433247D01*
X104534065Y-75352929D01*
X104450404Y-75269268D01*
X104343171Y-75219265D01*
X104294319Y-75212834D01*
X104294316Y-75212834D01*
X103945684Y-75212834D01*
X103945681Y-75212834D01*
X103896828Y-75219265D01*
X103789595Y-75269268D01*
X103707194Y-75351670D01*
X103663000Y-75369976D01*
X103618806Y-75351670D01*
X103600500Y-75307476D01*
X103600500Y-71992526D01*
X103618806Y-71948332D01*
X103663000Y-71930026D01*
X103707194Y-71948332D01*
X103789595Y-72030733D01*
X103830914Y-72050000D01*
X103896827Y-72080736D01*
X103909041Y-72082343D01*
X103945681Y-72087168D01*
X103945684Y-72087168D01*
X104294316Y-72087168D01*
X104294319Y-72087168D01*
X104323630Y-72083308D01*
X104343173Y-72080736D01*
X104450404Y-72030733D01*
X104534065Y-71947072D01*
X104562744Y-71885571D01*
X104571518Y-71866755D01*
X104594581Y-71840456D01*
X104628162Y-71830668D01*
X105531838Y-71830668D01*
X105565419Y-71840456D01*
G37*
%TD.AperFunction*%
%TA.AperFunction,Conductor*%
G36*
X105565419Y-67673788D02*
G01*
X105588482Y-67700087D01*
X105625934Y-67780404D01*
X105709595Y-67864065D01*
X105739914Y-67878203D01*
X105766212Y-67901266D01*
X105776000Y-67934847D01*
X105776000Y-69272305D01*
X105766212Y-69305886D01*
X105739913Y-69328949D01*
X105701683Y-69346775D01*
X105616775Y-69431683D01*
X105566027Y-69540514D01*
X105559500Y-69590095D01*
X105559500Y-70009896D01*
X105566028Y-70059489D01*
X105616775Y-70168316D01*
X105701683Y-70253224D01*
X105756098Y-70278597D01*
X105810513Y-70303972D01*
X105860099Y-70310500D01*
X106219900Y-70310499D01*
X106219901Y-70310499D01*
X106227488Y-70309500D01*
X106261195Y-70305063D01*
X106296701Y-70310830D01*
X106323149Y-70335213D01*
X106343912Y-70370322D01*
X106459680Y-70486090D01*
X106571013Y-70551932D01*
X106596025Y-70579710D01*
X106600710Y-70616796D01*
X106583392Y-70649922D01*
X106205454Y-71027862D01*
X106185178Y-71041410D01*
X106161260Y-71046168D01*
X105865681Y-71046168D01*
X105816828Y-71052599D01*
X105709595Y-71102602D01*
X105625934Y-71186263D01*
X105588482Y-71266581D01*
X105565419Y-71292880D01*
X105531838Y-71302668D01*
X104628162Y-71302668D01*
X104594581Y-71292880D01*
X104571518Y-71266581D01*
X104534065Y-71186263D01*
X104450404Y-71102602D01*
X104343171Y-71052599D01*
X104294319Y-71046168D01*
X104294316Y-71046168D01*
X103945684Y-71046168D01*
X103945681Y-71046168D01*
X103896828Y-71052599D01*
X103789595Y-71102602D01*
X103707194Y-71185004D01*
X103663000Y-71203310D01*
X103618806Y-71185004D01*
X103600500Y-71140810D01*
X103600500Y-67825858D01*
X103618806Y-67781664D01*
X103663000Y-67763358D01*
X103707194Y-67781664D01*
X103789595Y-67864065D01*
X103838222Y-67886740D01*
X103896827Y-67914068D01*
X103909041Y-67915676D01*
X103945681Y-67920500D01*
X103945684Y-67920500D01*
X104294316Y-67920500D01*
X104294319Y-67920500D01*
X104323630Y-67916640D01*
X104343173Y-67914068D01*
X104450404Y-67864065D01*
X104534065Y-67780404D01*
X104571517Y-67700087D01*
X104594581Y-67673788D01*
X104628162Y-67664000D01*
X105531838Y-67664000D01*
X105565419Y-67673788D01*
G37*
%TD.AperFunction*%
%TA.AperFunction,Conductor*%
G36*
X130663054Y-60620769D02*
G01*
X130690459Y-60647688D01*
X130696943Y-60685551D01*
X130694866Y-60699997D01*
X130708128Y-60792231D01*
X130713303Y-60828226D01*
X130751505Y-60911876D01*
X130767118Y-60946063D01*
X130851951Y-61043967D01*
X130852288Y-61044184D01*
X130873354Y-61066809D01*
X130881000Y-61096763D01*
X130881000Y-61336576D01*
X130871518Y-61369672D01*
X130845950Y-61392724D01*
X130812539Y-61409058D01*
X130788516Y-61420802D01*
X130705801Y-61503517D01*
X130654427Y-61608605D01*
X130644500Y-61676740D01*
X130644500Y-63393260D01*
X130654427Y-63461394D01*
X130705801Y-63566482D01*
X130705802Y-63566483D01*
X130788517Y-63649198D01*
X130893607Y-63700573D01*
X130961740Y-63710500D01*
X131328260Y-63710500D01*
X131396393Y-63700573D01*
X131501483Y-63649198D01*
X131584198Y-63566483D01*
X131635573Y-63461393D01*
X131645500Y-63393260D01*
X131645500Y-62861500D01*
X131663806Y-62817306D01*
X131708000Y-62799000D01*
X131852000Y-62799000D01*
X131896194Y-62817306D01*
X131914500Y-62861500D01*
X131914500Y-63393260D01*
X131924427Y-63461394D01*
X131975801Y-63566482D01*
X131975802Y-63566483D01*
X132058517Y-63649198D01*
X132163607Y-63700573D01*
X132231740Y-63710500D01*
X132275037Y-63710500D01*
X132319231Y-63728806D01*
X132337537Y-63773000D01*
X132319231Y-63817194D01*
X131418731Y-64717694D01*
X131374537Y-64736000D01*
X129588240Y-64736000D01*
X129544046Y-64717694D01*
X129525740Y-64673500D01*
X129544046Y-64629306D01*
X129667444Y-64505908D01*
X130038939Y-64134411D01*
X130048401Y-64126646D01*
X130065333Y-64115333D01*
X130123683Y-64028008D01*
X130139000Y-63951002D01*
X130140201Y-63944965D01*
X130140201Y-63944960D01*
X130144171Y-63924999D01*
X130140201Y-63905040D01*
X130139000Y-63892848D01*
X130139000Y-63733424D01*
X130148482Y-63700328D01*
X130174049Y-63677275D01*
X130231483Y-63649198D01*
X130314198Y-63566483D01*
X130365573Y-63461393D01*
X130375500Y-63393260D01*
X130375500Y-61676740D01*
X130365573Y-61608607D01*
X130314198Y-61503517D01*
X130231483Y-61420802D01*
X130231482Y-61420801D01*
X130126394Y-61369427D01*
X130058260Y-61359500D01*
X130018245Y-61359500D01*
X129981014Y-61347200D01*
X129958436Y-61315143D01*
X129959398Y-61275945D01*
X129983522Y-61245033D01*
X129984168Y-61244600D01*
X129990556Y-61240333D01*
X129999354Y-61227163D01*
X129999389Y-61227128D01*
X130002304Y-61222758D01*
X130010101Y-61213249D01*
X130590887Y-60632463D01*
X130625081Y-60614964D01*
X130663054Y-60620769D01*
G37*
%TD.AperFunction*%
%TA.AperFunction,Conductor*%
G36*
X135001351Y-50200559D02*
G01*
X135415593Y-50218645D01*
X135421011Y-50219120D01*
X135830728Y-50273060D01*
X135836063Y-50274000D01*
X136239566Y-50363454D01*
X136244791Y-50364855D01*
X136638928Y-50489126D01*
X136644042Y-50490987D01*
X137025840Y-50649134D01*
X137030770Y-50651432D01*
X137397338Y-50842255D01*
X137402038Y-50844968D01*
X137689636Y-51028189D01*
X137750571Y-51067009D01*
X137755038Y-51070136D01*
X138082900Y-51321713D01*
X138087076Y-51325218D01*
X138391746Y-51604397D01*
X138395602Y-51608253D01*
X138674781Y-51912923D01*
X138678286Y-51917099D01*
X138929863Y-52244961D01*
X138932990Y-52249428D01*
X139155024Y-52597950D01*
X139157748Y-52602668D01*
X139196799Y-52677685D01*
X139348564Y-52969224D01*
X139350868Y-52974165D01*
X139509010Y-53355952D01*
X139510875Y-53361076D01*
X139635141Y-53755198D01*
X139636548Y-53760449D01*
X139725994Y-54163908D01*
X139726940Y-54169277D01*
X139780878Y-54578981D01*
X139781354Y-54584413D01*
X139799441Y-54998649D01*
X139799500Y-55001375D01*
X139799500Y-89036021D01*
X139785313Y-89075671D01*
X139749193Y-89097320D01*
X139707538Y-89091141D01*
X139679258Y-89059939D01*
X139597793Y-88863266D01*
X139473768Y-88660876D01*
X139417333Y-88594799D01*
X139417332Y-88594798D01*
X138462131Y-89549999D01*
X139417332Y-90505200D01*
X139473770Y-90439120D01*
X139597793Y-90236733D01*
X139679258Y-90040061D01*
X139707538Y-90008859D01*
X139749193Y-90002680D01*
X139785313Y-90024329D01*
X139799500Y-90063979D01*
X139799500Y-94998625D01*
X139799441Y-95001351D01*
X139781354Y-95415586D01*
X139780878Y-95421018D01*
X139726940Y-95830722D01*
X139725995Y-95836085D01*
X139636550Y-96239545D01*
X139635141Y-96244801D01*
X139510875Y-96638923D01*
X139509010Y-96644047D01*
X139350868Y-97025834D01*
X139348564Y-97030775D01*
X139157750Y-97397327D01*
X139155024Y-97402049D01*
X138932990Y-97750571D01*
X138929863Y-97755038D01*
X138678286Y-98082900D01*
X138674781Y-98087076D01*
X138395602Y-98391746D01*
X138391746Y-98395602D01*
X138087076Y-98674781D01*
X138082900Y-98678286D01*
X137755038Y-98929863D01*
X137750571Y-98932990D01*
X137402049Y-99155024D01*
X137397327Y-99157750D01*
X137030775Y-99348564D01*
X137025834Y-99350868D01*
X136644047Y-99509010D01*
X136638923Y-99510875D01*
X136244801Y-99635141D01*
X136239545Y-99636550D01*
X135836085Y-99725995D01*
X135830722Y-99726940D01*
X135421018Y-99780878D01*
X135415586Y-99781354D01*
X135001351Y-99799441D01*
X134998625Y-99799500D01*
X105001375Y-99799500D01*
X104998649Y-99799441D01*
X104584413Y-99781354D01*
X104578981Y-99780878D01*
X104169277Y-99726940D01*
X104163918Y-99725995D01*
X103760449Y-99636548D01*
X103755198Y-99635141D01*
X103361076Y-99510875D01*
X103355952Y-99509010D01*
X102974165Y-99350868D01*
X102969224Y-99348564D01*
X102768024Y-99243826D01*
X102602668Y-99157748D01*
X102597950Y-99155024D01*
X102249428Y-98932990D01*
X102244961Y-98929863D01*
X101917099Y-98678286D01*
X101912923Y-98674781D01*
X101608253Y-98395602D01*
X101604397Y-98391746D01*
X101325218Y-98087076D01*
X101321713Y-98082900D01*
X101276880Y-98024473D01*
X101070136Y-97755038D01*
X101067009Y-97750571D01*
X100854422Y-97416877D01*
X100844968Y-97402038D01*
X100842255Y-97397338D01*
X100756127Y-97231888D01*
X102980243Y-97231888D01*
X103200703Y-97416877D01*
X103493449Y-97609418D01*
X103806572Y-97766674D01*
X104135837Y-97886517D01*
X104476780Y-97967322D01*
X104824801Y-98008000D01*
X105175199Y-98008000D01*
X105523219Y-97967322D01*
X105864162Y-97886517D01*
X106193427Y-97766674D01*
X106506550Y-97609418D01*
X106799296Y-97416877D01*
X107019755Y-97231888D01*
X132980243Y-97231888D01*
X133200703Y-97416877D01*
X133493449Y-97609418D01*
X133806572Y-97766674D01*
X134135837Y-97886517D01*
X134476780Y-97967322D01*
X134824801Y-98008000D01*
X135175199Y-98008000D01*
X135523219Y-97967322D01*
X135864162Y-97886517D01*
X136193427Y-97766674D01*
X136506550Y-97609418D01*
X136799296Y-97416877D01*
X137019755Y-97231888D01*
X137019755Y-97231887D01*
X135000000Y-95212132D01*
X132980243Y-97231887D01*
X132980243Y-97231888D01*
X107019755Y-97231888D01*
X107019755Y-97231887D01*
X105000000Y-95212132D01*
X102980243Y-97231887D01*
X102980243Y-97231888D01*
X100756127Y-97231888D01*
X100651432Y-97030770D01*
X100649131Y-97025834D01*
X100646186Y-97018725D01*
X100490987Y-96644042D01*
X100489124Y-96638923D01*
X100364858Y-96244801D01*
X100363454Y-96239566D01*
X100274000Y-95836063D01*
X100273059Y-95830722D01*
X100255174Y-95694867D01*
X100219120Y-95421011D01*
X100218645Y-95415586D01*
X100200559Y-95001351D01*
X100200530Y-95000000D01*
X101986901Y-95000000D01*
X102007274Y-95349800D01*
X102068119Y-95694867D01*
X102168611Y-96030532D01*
X102307397Y-96352276D01*
X102482595Y-96655726D01*
X102691832Y-96936781D01*
X102769142Y-97018725D01*
X104787868Y-95000000D01*
X104787867Y-94999999D01*
X105212131Y-94999999D01*
X107230856Y-97018725D01*
X107308167Y-96936781D01*
X107517404Y-96655726D01*
X107692602Y-96352276D01*
X107831388Y-96030532D01*
X107931880Y-95694867D01*
X107992725Y-95349800D01*
X108013098Y-95000000D01*
X131986901Y-95000000D01*
X132007274Y-95349800D01*
X132068119Y-95694867D01*
X132168611Y-96030532D01*
X132307397Y-96352276D01*
X132482595Y-96655726D01*
X132691832Y-96936781D01*
X132769142Y-97018725D01*
X134787868Y-95000000D01*
X135212132Y-95000000D01*
X137230856Y-97018725D01*
X137308167Y-96936781D01*
X137517404Y-96655726D01*
X137692602Y-96352276D01*
X137831388Y-96030532D01*
X137931880Y-95694867D01*
X137992725Y-95349800D01*
X138013098Y-94999999D01*
X137992725Y-94650199D01*
X137931880Y-94305132D01*
X137831388Y-93969467D01*
X137692602Y-93647723D01*
X137517404Y-93344273D01*
X137308167Y-93063218D01*
X137230856Y-92981273D01*
X135212132Y-95000000D01*
X134787868Y-95000000D01*
X132769142Y-92981273D01*
X132691832Y-93063218D01*
X132482595Y-93344273D01*
X132307397Y-93647723D01*
X132168611Y-93969467D01*
X132068119Y-94305132D01*
X132007274Y-94650199D01*
X131986901Y-95000000D01*
X108013098Y-95000000D01*
X107992725Y-94650199D01*
X107931880Y-94305132D01*
X107831388Y-93969467D01*
X107692602Y-93647723D01*
X107517404Y-93344273D01*
X107308167Y-93063218D01*
X107230856Y-92981273D01*
X105212131Y-94999999D01*
X104787867Y-94999999D01*
X102769142Y-92981273D01*
X102691832Y-93063218D01*
X102482595Y-93344273D01*
X102307397Y-93647723D01*
X102168611Y-93969467D01*
X102068119Y-94305132D01*
X102007274Y-94650199D01*
X101986901Y-95000000D01*
X100200530Y-95000000D01*
X100200500Y-94998625D01*
X100200500Y-92768111D01*
X102980243Y-92768111D01*
X104999999Y-94787867D01*
X107019755Y-92768111D01*
X132980243Y-92768111D01*
X134999999Y-94787867D01*
X137019755Y-92768111D01*
X137019755Y-92768110D01*
X136799296Y-92583122D01*
X136506550Y-92390581D01*
X136193427Y-92233325D01*
X135864162Y-92113482D01*
X135523219Y-92032677D01*
X135175199Y-91992000D01*
X134824801Y-91992000D01*
X134476780Y-92032677D01*
X134135837Y-92113482D01*
X133806572Y-92233325D01*
X133493449Y-92390581D01*
X133200703Y-92583122D01*
X132980243Y-92768110D01*
X132980243Y-92768111D01*
X107019755Y-92768111D01*
X107019755Y-92768110D01*
X106799296Y-92583122D01*
X106506550Y-92390581D01*
X106193427Y-92233325D01*
X105864162Y-92113482D01*
X105523219Y-92032677D01*
X105175199Y-91992000D01*
X104824801Y-91992000D01*
X104476780Y-92032677D01*
X104135837Y-92113482D01*
X103806572Y-92233325D01*
X103493449Y-92390581D01*
X103200703Y-92583122D01*
X102980243Y-92768110D01*
X102980243Y-92768111D01*
X100200500Y-92768111D01*
X100200500Y-90717332D01*
X100794798Y-90717332D01*
X100794799Y-90717333D01*
X100860876Y-90773768D01*
X101063266Y-90897793D01*
X101282560Y-90988628D01*
X101513368Y-91044039D01*
X101750000Y-91062663D01*
X101986631Y-91044039D01*
X102217439Y-90988628D01*
X102436733Y-90897793D01*
X102639120Y-90773770D01*
X102705200Y-90717332D01*
X107294798Y-90717332D01*
X107294799Y-90717333D01*
X107360876Y-90773768D01*
X107563266Y-90897793D01*
X107782560Y-90988628D01*
X108013368Y-91044039D01*
X108250000Y-91062663D01*
X108486631Y-91044039D01*
X108717439Y-90988628D01*
X108936733Y-90897793D01*
X109139120Y-90773770D01*
X109205200Y-90717332D01*
X110794798Y-90717332D01*
X110794799Y-90717333D01*
X110860876Y-90773768D01*
X111063266Y-90897793D01*
X111282560Y-90988628D01*
X111513368Y-91044039D01*
X111750000Y-91062663D01*
X111986631Y-91044039D01*
X112217439Y-90988628D01*
X112436733Y-90897793D01*
X112639120Y-90773770D01*
X112705200Y-90717332D01*
X117294798Y-90717332D01*
X117294799Y-90717333D01*
X117360876Y-90773768D01*
X117563266Y-90897793D01*
X117782560Y-90988628D01*
X118013368Y-91044039D01*
X118250000Y-91062663D01*
X118486631Y-91044039D01*
X118717439Y-90988628D01*
X118936733Y-90897793D01*
X119139120Y-90773770D01*
X119205200Y-90717332D01*
X120794798Y-90717332D01*
X120794799Y-90717333D01*
X120860876Y-90773768D01*
X121063266Y-90897793D01*
X121282560Y-90988628D01*
X121513368Y-91044039D01*
X121750000Y-91062663D01*
X121986631Y-91044039D01*
X122217439Y-90988628D01*
X122436733Y-90897793D01*
X122639120Y-90773770D01*
X122705200Y-90717332D01*
X127294798Y-90717332D01*
X127294799Y-90717333D01*
X127360876Y-90773768D01*
X127563266Y-90897793D01*
X127782560Y-90988628D01*
X128013368Y-91044039D01*
X128250000Y-91062663D01*
X128486631Y-91044039D01*
X128717439Y-90988628D01*
X128936733Y-90897793D01*
X129139120Y-90773770D01*
X129205200Y-90717332D01*
X130794798Y-90717332D01*
X130794799Y-90717333D01*
X130860876Y-90773768D01*
X131063266Y-90897793D01*
X131282560Y-90988628D01*
X131513368Y-91044039D01*
X131750000Y-91062663D01*
X131986631Y-91044039D01*
X132217439Y-90988628D01*
X132436733Y-90897793D01*
X132639120Y-90773770D01*
X132705200Y-90717332D01*
X137294798Y-90717332D01*
X137294799Y-90717333D01*
X137360876Y-90773768D01*
X137563266Y-90897793D01*
X137782560Y-90988628D01*
X138013368Y-91044039D01*
X138250000Y-91062663D01*
X138486631Y-91044039D01*
X138717439Y-90988628D01*
X138936733Y-90897793D01*
X139139120Y-90773770D01*
X139205200Y-90717332D01*
X138250000Y-89762132D01*
X137294798Y-90717332D01*
X132705200Y-90717332D01*
X131750000Y-89762132D01*
X130794798Y-90717332D01*
X129205200Y-90717332D01*
X128250000Y-89762132D01*
X127294798Y-90717332D01*
X122705200Y-90717332D01*
X121750000Y-89762132D01*
X120794798Y-90717332D01*
X119205200Y-90717332D01*
X118250000Y-89762132D01*
X117294798Y-90717332D01*
X112705200Y-90717332D01*
X111750000Y-89762132D01*
X110794798Y-90717332D01*
X109205200Y-90717332D01*
X108250000Y-89762132D01*
X107294798Y-90717332D01*
X102705200Y-90717332D01*
X101750000Y-89762132D01*
X100794798Y-90717332D01*
X100200500Y-90717332D01*
X100200500Y-90063979D01*
X100214687Y-90024329D01*
X100250807Y-90002680D01*
X100292462Y-90008859D01*
X100320742Y-90040061D01*
X100402206Y-90236733D01*
X100526229Y-90439119D01*
X100582666Y-90505200D01*
X101537866Y-89550000D01*
X101962132Y-89550000D01*
X102917332Y-90505200D01*
X102973770Y-90439120D01*
X103097793Y-90236733D01*
X103188628Y-90017439D01*
X103244039Y-89786631D01*
X103262663Y-89550000D01*
X106737336Y-89550000D01*
X106755960Y-89786631D01*
X106811371Y-90017439D01*
X106902206Y-90236733D01*
X107026229Y-90439119D01*
X107082666Y-90505200D01*
X108037866Y-89550000D01*
X108462132Y-89550000D01*
X109417332Y-90505200D01*
X109473770Y-90439120D01*
X109597793Y-90236733D01*
X109688628Y-90017439D01*
X109744039Y-89786631D01*
X109762663Y-89550000D01*
X110237336Y-89550000D01*
X110255960Y-89786631D01*
X110311371Y-90017439D01*
X110402206Y-90236733D01*
X110526229Y-90439119D01*
X110582666Y-90505200D01*
X111537866Y-89550000D01*
X111962132Y-89550000D01*
X112917332Y-90505200D01*
X112973770Y-90439120D01*
X113097793Y-90236733D01*
X113188628Y-90017439D01*
X113244039Y-89786631D01*
X113262663Y-89550000D01*
X116737336Y-89550000D01*
X116755960Y-89786631D01*
X116811371Y-90017439D01*
X116902206Y-90236733D01*
X117026229Y-90439119D01*
X117082666Y-90505200D01*
X118037866Y-89550000D01*
X118462132Y-89550000D01*
X119417332Y-90505200D01*
X119473770Y-90439120D01*
X119597793Y-90236733D01*
X119688628Y-90017439D01*
X119744039Y-89786631D01*
X119762663Y-89550000D01*
X120237336Y-89550000D01*
X120255960Y-89786631D01*
X120311371Y-90017439D01*
X120402206Y-90236733D01*
X120526229Y-90439119D01*
X120582666Y-90505200D01*
X121537867Y-89549999D01*
X121962131Y-89549999D01*
X122917332Y-90505200D01*
X122973770Y-90439120D01*
X123097793Y-90236733D01*
X123188628Y-90017439D01*
X123244039Y-89786631D01*
X123262663Y-89550000D01*
X126737336Y-89550000D01*
X126755960Y-89786631D01*
X126811371Y-90017439D01*
X126902206Y-90236733D01*
X127026229Y-90439119D01*
X127082666Y-90505200D01*
X128037868Y-89550000D01*
X128037867Y-89549999D01*
X128462131Y-89549999D01*
X129417332Y-90505200D01*
X129473770Y-90439120D01*
X129597793Y-90236733D01*
X129688628Y-90017439D01*
X129744039Y-89786631D01*
X129762663Y-89550000D01*
X129762663Y-89549999D01*
X130237336Y-89549999D01*
X130255960Y-89786631D01*
X130311371Y-90017439D01*
X130402206Y-90236733D01*
X130526229Y-90439119D01*
X130582666Y-90505200D01*
X131537866Y-89550000D01*
X131962132Y-89550000D01*
X132917332Y-90505200D01*
X132973770Y-90439120D01*
X133097793Y-90236733D01*
X133188628Y-90017439D01*
X133244039Y-89786631D01*
X133262663Y-89550000D01*
X133262663Y-89549999D01*
X136737336Y-89549999D01*
X136755960Y-89786631D01*
X136811371Y-90017439D01*
X136902206Y-90236733D01*
X137026229Y-90439119D01*
X137082666Y-90505200D01*
X138037867Y-89549999D01*
X137082667Y-88594799D01*
X137026229Y-88660880D01*
X136902206Y-88863266D01*
X136811371Y-89082560D01*
X136755960Y-89313368D01*
X136737336Y-89549999D01*
X133262663Y-89549999D01*
X133244039Y-89313368D01*
X133188628Y-89082560D01*
X133097793Y-88863266D01*
X132973768Y-88660876D01*
X132917333Y-88594799D01*
X132917332Y-88594798D01*
X131962132Y-89550000D01*
X131537866Y-89550000D01*
X131537867Y-89549999D01*
X130582667Y-88594799D01*
X130526229Y-88660880D01*
X130402206Y-88863266D01*
X130311371Y-89082560D01*
X130255960Y-89313368D01*
X130237336Y-89549999D01*
X129762663Y-89549999D01*
X129744039Y-89313368D01*
X129688628Y-89082560D01*
X129597793Y-88863266D01*
X129473768Y-88660876D01*
X129417333Y-88594799D01*
X129417332Y-88594798D01*
X128462131Y-89549999D01*
X128037867Y-89549999D01*
X127082667Y-88594799D01*
X127026229Y-88660880D01*
X126902206Y-88863266D01*
X126811371Y-89082560D01*
X126755960Y-89313368D01*
X126737336Y-89550000D01*
X123262663Y-89550000D01*
X123244039Y-89313368D01*
X123188628Y-89082560D01*
X123097793Y-88863266D01*
X122973768Y-88660876D01*
X122917333Y-88594799D01*
X122917332Y-88594798D01*
X121962131Y-89549999D01*
X121537867Y-89549999D01*
X120582667Y-88594799D01*
X120526229Y-88660880D01*
X120402206Y-88863266D01*
X120311371Y-89082560D01*
X120255960Y-89313368D01*
X120237336Y-89550000D01*
X119762663Y-89550000D01*
X119744039Y-89313368D01*
X119688628Y-89082560D01*
X119597793Y-88863266D01*
X119473768Y-88660876D01*
X119417333Y-88594799D01*
X119417332Y-88594798D01*
X118462132Y-89550000D01*
X118037866Y-89550000D01*
X118037867Y-89549999D01*
X117082667Y-88594799D01*
X117026229Y-88660880D01*
X116902206Y-88863266D01*
X116811371Y-89082560D01*
X116755960Y-89313368D01*
X116737336Y-89550000D01*
X113262663Y-89550000D01*
X113244039Y-89313368D01*
X113188628Y-89082560D01*
X113097793Y-88863266D01*
X112973768Y-88660876D01*
X112917333Y-88594799D01*
X112917332Y-88594798D01*
X111962132Y-89550000D01*
X111537866Y-89550000D01*
X111537867Y-89549999D01*
X110582667Y-88594799D01*
X110526229Y-88660880D01*
X110402206Y-88863266D01*
X110311371Y-89082560D01*
X110255960Y-89313368D01*
X110237336Y-89550000D01*
X109762663Y-89550000D01*
X109744039Y-89313368D01*
X109688628Y-89082560D01*
X109597793Y-88863266D01*
X109473768Y-88660876D01*
X109417333Y-88594799D01*
X109417332Y-88594798D01*
X108462132Y-89550000D01*
X108037866Y-89550000D01*
X108037867Y-89549999D01*
X107082667Y-88594799D01*
X107026229Y-88660880D01*
X106902206Y-88863266D01*
X106811371Y-89082560D01*
X106755960Y-89313368D01*
X106737336Y-89550000D01*
X103262663Y-89550000D01*
X103244039Y-89313368D01*
X103188628Y-89082560D01*
X103097793Y-88863266D01*
X102973768Y-88660876D01*
X102917333Y-88594799D01*
X102917332Y-88594798D01*
X101962132Y-89550000D01*
X101537866Y-89550000D01*
X101537867Y-89549999D01*
X100582667Y-88594799D01*
X100526229Y-88660880D01*
X100402206Y-88863266D01*
X100320742Y-89059939D01*
X100292462Y-89091141D01*
X100250807Y-89097320D01*
X100214687Y-89075671D01*
X100200500Y-89036021D01*
X100200500Y-88382667D01*
X100794799Y-88382667D01*
X101749999Y-89337867D01*
X102705199Y-88382667D01*
X107294799Y-88382667D01*
X108249999Y-89337867D01*
X109205199Y-88382667D01*
X110794799Y-88382667D01*
X111749999Y-89337867D01*
X112705199Y-88382667D01*
X117294799Y-88382667D01*
X118249999Y-89337867D01*
X119205199Y-88382667D01*
X120794799Y-88382667D01*
X121749999Y-89337867D01*
X122705199Y-88382667D01*
X127294799Y-88382667D01*
X128249999Y-89337867D01*
X129205199Y-88382667D01*
X130794799Y-88382667D01*
X131749999Y-89337867D01*
X132705199Y-88382667D01*
X137294799Y-88382667D01*
X138249999Y-89337867D01*
X139205200Y-88382666D01*
X139139119Y-88326229D01*
X138936733Y-88202206D01*
X138717439Y-88111371D01*
X138486631Y-88055960D01*
X138250000Y-88037336D01*
X138013368Y-88055960D01*
X137782560Y-88111371D01*
X137563266Y-88202206D01*
X137360880Y-88326229D01*
X137294799Y-88382667D01*
X132705199Y-88382667D01*
X132705200Y-88382666D01*
X132639119Y-88326229D01*
X132436733Y-88202206D01*
X132217439Y-88111371D01*
X131986631Y-88055960D01*
X131750000Y-88037336D01*
X131513368Y-88055960D01*
X131282560Y-88111371D01*
X131063266Y-88202206D01*
X130860880Y-88326229D01*
X130794799Y-88382667D01*
X129205199Y-88382667D01*
X129205200Y-88382666D01*
X129139119Y-88326229D01*
X128936733Y-88202206D01*
X128717439Y-88111371D01*
X128486631Y-88055960D01*
X128250000Y-88037336D01*
X128013368Y-88055960D01*
X127782560Y-88111371D01*
X127563266Y-88202206D01*
X127360880Y-88326229D01*
X127294799Y-88382667D01*
X122705199Y-88382667D01*
X122705200Y-88382666D01*
X122639119Y-88326229D01*
X122436733Y-88202206D01*
X122217439Y-88111371D01*
X121986631Y-88055960D01*
X121750000Y-88037336D01*
X121513368Y-88055960D01*
X121282560Y-88111371D01*
X121063266Y-88202206D01*
X120860880Y-88326229D01*
X120794799Y-88382667D01*
X119205199Y-88382667D01*
X119205200Y-88382666D01*
X119139119Y-88326229D01*
X118936733Y-88202206D01*
X118717439Y-88111371D01*
X118486631Y-88055960D01*
X118250000Y-88037336D01*
X118013368Y-88055960D01*
X117782560Y-88111371D01*
X117563266Y-88202206D01*
X117360880Y-88326229D01*
X117294799Y-88382667D01*
X112705199Y-88382667D01*
X112705200Y-88382666D01*
X112639119Y-88326229D01*
X112436733Y-88202206D01*
X112217439Y-88111371D01*
X111986631Y-88055960D01*
X111750000Y-88037336D01*
X111513368Y-88055960D01*
X111282560Y-88111371D01*
X111063266Y-88202206D01*
X110860880Y-88326229D01*
X110794799Y-88382667D01*
X109205199Y-88382667D01*
X109205200Y-88382666D01*
X109139119Y-88326229D01*
X108936733Y-88202206D01*
X108717439Y-88111371D01*
X108486631Y-88055960D01*
X108250000Y-88037336D01*
X108013368Y-88055960D01*
X107782560Y-88111371D01*
X107563266Y-88202206D01*
X107360880Y-88326229D01*
X107294799Y-88382667D01*
X102705199Y-88382667D01*
X102705200Y-88382666D01*
X102639119Y-88326229D01*
X102436733Y-88202206D01*
X102217439Y-88111371D01*
X101986631Y-88055960D01*
X101750000Y-88037336D01*
X101513368Y-88055960D01*
X101282560Y-88111371D01*
X101063266Y-88202206D01*
X100860880Y-88326229D01*
X100794799Y-88382667D01*
X100200500Y-88382667D01*
X100200500Y-85050000D01*
X100544356Y-85050000D01*
X100564884Y-85271534D01*
X100564885Y-85271536D01*
X100625771Y-85485528D01*
X100724942Y-85684689D01*
X100859019Y-85862236D01*
X101023438Y-86012124D01*
X101212599Y-86129247D01*
X101420060Y-86209618D01*
X101638757Y-86250500D01*
X101861243Y-86250500D01*
X102079940Y-86209618D01*
X102287401Y-86129247D01*
X102476562Y-86012124D01*
X102640981Y-85862236D01*
X102775058Y-85684689D01*
X102874229Y-85485528D01*
X102910116Y-85359396D01*
X102932566Y-85326624D01*
X102970231Y-85314000D01*
X107029769Y-85314000D01*
X107067434Y-85326624D01*
X107089883Y-85359396D01*
X107125771Y-85485528D01*
X107224942Y-85684689D01*
X107359019Y-85862236D01*
X107523438Y-86012124D01*
X107712599Y-86129247D01*
X107920060Y-86209618D01*
X108138757Y-86250500D01*
X108361243Y-86250500D01*
X108579940Y-86209618D01*
X108787401Y-86129247D01*
X108976562Y-86012124D01*
X109140981Y-85862236D01*
X109275058Y-85684689D01*
X109374229Y-85485528D01*
X109435115Y-85271536D01*
X109455643Y-85050000D01*
X110544356Y-85050000D01*
X110564884Y-85271534D01*
X110564885Y-85271536D01*
X110625771Y-85485528D01*
X110724942Y-85684689D01*
X110859019Y-85862236D01*
X111023438Y-86012124D01*
X111212599Y-86129247D01*
X111420060Y-86209618D01*
X111638757Y-86250500D01*
X111861243Y-86250500D01*
X112079940Y-86209618D01*
X112287401Y-86129247D01*
X112476562Y-86012124D01*
X112640981Y-85862236D01*
X112775058Y-85684689D01*
X112874229Y-85485528D01*
X112910116Y-85359396D01*
X112932566Y-85326624D01*
X112970231Y-85314000D01*
X117029769Y-85314000D01*
X117067434Y-85326624D01*
X117089883Y-85359396D01*
X117125771Y-85485528D01*
X117224942Y-85684689D01*
X117359019Y-85862236D01*
X117523438Y-86012124D01*
X117712599Y-86129247D01*
X117920060Y-86209618D01*
X118138757Y-86250500D01*
X118361243Y-86250500D01*
X118579940Y-86209618D01*
X118787401Y-86129247D01*
X118976562Y-86012124D01*
X119140981Y-85862236D01*
X119275058Y-85684689D01*
X119374229Y-85485528D01*
X119435115Y-85271536D01*
X119455643Y-85050000D01*
X120544356Y-85050000D01*
X120564884Y-85271534D01*
X120564885Y-85271536D01*
X120625771Y-85485528D01*
X120724942Y-85684689D01*
X120859019Y-85862236D01*
X121023438Y-86012124D01*
X121212599Y-86129247D01*
X121420060Y-86209618D01*
X121638757Y-86250500D01*
X121861243Y-86250500D01*
X122079940Y-86209618D01*
X122287401Y-86129247D01*
X122476562Y-86012124D01*
X122640981Y-85862236D01*
X122775058Y-85684689D01*
X122874229Y-85485528D01*
X122910116Y-85359396D01*
X122932566Y-85326624D01*
X122970231Y-85314000D01*
X127029769Y-85314000D01*
X127067434Y-85326624D01*
X127089883Y-85359396D01*
X127125771Y-85485528D01*
X127224942Y-85684689D01*
X127359019Y-85862236D01*
X127523438Y-86012124D01*
X127712599Y-86129247D01*
X127920060Y-86209618D01*
X128138757Y-86250500D01*
X128361243Y-86250500D01*
X128579940Y-86209618D01*
X128787401Y-86129247D01*
X128976562Y-86012124D01*
X129140981Y-85862236D01*
X129275058Y-85684689D01*
X129374229Y-85485528D01*
X129435115Y-85271536D01*
X129455643Y-85050000D01*
X130544356Y-85050000D01*
X130564884Y-85271534D01*
X130564885Y-85271536D01*
X130625771Y-85485528D01*
X130724942Y-85684689D01*
X130859019Y-85862236D01*
X131023438Y-86012124D01*
X131212599Y-86129247D01*
X131420060Y-86209618D01*
X131638757Y-86250500D01*
X131861243Y-86250500D01*
X132079940Y-86209618D01*
X132287401Y-86129247D01*
X132476562Y-86012124D01*
X132640981Y-85862236D01*
X132775058Y-85684689D01*
X132874229Y-85485528D01*
X132910116Y-85359396D01*
X132932566Y-85326624D01*
X132970231Y-85314000D01*
X137029769Y-85314000D01*
X137067434Y-85326624D01*
X137089883Y-85359396D01*
X137125771Y-85485528D01*
X137224942Y-85684689D01*
X137359019Y-85862236D01*
X137523438Y-86012124D01*
X137712599Y-86129247D01*
X137920060Y-86209618D01*
X138138757Y-86250500D01*
X138361243Y-86250500D01*
X138579940Y-86209618D01*
X138787401Y-86129247D01*
X138976562Y-86012124D01*
X139140981Y-85862236D01*
X139275058Y-85684689D01*
X139374229Y-85485528D01*
X139435115Y-85271536D01*
X139455643Y-85050000D01*
X139435115Y-84828464D01*
X139374229Y-84614472D01*
X139275058Y-84415311D01*
X139140981Y-84237764D01*
X138976562Y-84087876D01*
X138787401Y-83970753D01*
X138787398Y-83970752D01*
X138787397Y-83970751D01*
X138579942Y-83890382D01*
X138361243Y-83849500D01*
X138138757Y-83849500D01*
X137920057Y-83890382D01*
X137712602Y-83970751D01*
X137523436Y-84087877D01*
X137359019Y-84237763D01*
X137224943Y-84415309D01*
X137125770Y-84614475D01*
X137089883Y-84740604D01*
X137067434Y-84773376D01*
X137029769Y-84786000D01*
X132970231Y-84786000D01*
X132932566Y-84773376D01*
X132910117Y-84740604D01*
X132900881Y-84708144D01*
X132874229Y-84614472D01*
X132775058Y-84415311D01*
X132640981Y-84237764D01*
X132476562Y-84087876D01*
X132287401Y-83970753D01*
X132287398Y-83970752D01*
X132287397Y-83970751D01*
X132079942Y-83890382D01*
X131861243Y-83849500D01*
X131638757Y-83849500D01*
X131420057Y-83890382D01*
X131212602Y-83970751D01*
X131023436Y-84087877D01*
X130859019Y-84237763D01*
X130724943Y-84415309D01*
X130625770Y-84614475D01*
X130564884Y-84828465D01*
X130544356Y-85050000D01*
X129455643Y-85050000D01*
X129435115Y-84828464D01*
X129374229Y-84614472D01*
X129275058Y-84415311D01*
X129140981Y-84237764D01*
X128976562Y-84087876D01*
X128787401Y-83970753D01*
X128787398Y-83970752D01*
X128787397Y-83970751D01*
X128579942Y-83890382D01*
X128361243Y-83849500D01*
X128138757Y-83849500D01*
X127920057Y-83890382D01*
X127712602Y-83970751D01*
X127523436Y-84087877D01*
X127359019Y-84237763D01*
X127224943Y-84415309D01*
X127125770Y-84614475D01*
X127089883Y-84740604D01*
X127067434Y-84773376D01*
X127029769Y-84786000D01*
X122970231Y-84786000D01*
X122932566Y-84773376D01*
X122910117Y-84740604D01*
X122900881Y-84708144D01*
X122874229Y-84614472D01*
X122775058Y-84415311D01*
X122640981Y-84237764D01*
X122476562Y-84087876D01*
X122287401Y-83970753D01*
X122287398Y-83970752D01*
X122287397Y-83970751D01*
X122079942Y-83890382D01*
X121861243Y-83849500D01*
X121638757Y-83849500D01*
X121420057Y-83890382D01*
X121212602Y-83970751D01*
X121023436Y-84087877D01*
X120859019Y-84237763D01*
X120724943Y-84415309D01*
X120625770Y-84614475D01*
X120564884Y-84828465D01*
X120544356Y-85050000D01*
X119455643Y-85050000D01*
X119435115Y-84828464D01*
X119374229Y-84614472D01*
X119275058Y-84415311D01*
X119140981Y-84237764D01*
X118976562Y-84087876D01*
X118787401Y-83970753D01*
X118787398Y-83970752D01*
X118787397Y-83970751D01*
X118579942Y-83890382D01*
X118361243Y-83849500D01*
X118138757Y-83849500D01*
X117920057Y-83890382D01*
X117712602Y-83970751D01*
X117523436Y-84087877D01*
X117359019Y-84237763D01*
X117224943Y-84415309D01*
X117125770Y-84614475D01*
X117089883Y-84740604D01*
X117067434Y-84773376D01*
X117029769Y-84786000D01*
X112970231Y-84786000D01*
X112932566Y-84773376D01*
X112910117Y-84740604D01*
X112900881Y-84708144D01*
X112874229Y-84614472D01*
X112775058Y-84415311D01*
X112640981Y-84237764D01*
X112476562Y-84087876D01*
X112287401Y-83970753D01*
X112287398Y-83970752D01*
X112287397Y-83970751D01*
X112079942Y-83890382D01*
X111861243Y-83849500D01*
X111638757Y-83849500D01*
X111420057Y-83890382D01*
X111212602Y-83970751D01*
X111023436Y-84087877D01*
X110859019Y-84237763D01*
X110724943Y-84415309D01*
X110625770Y-84614475D01*
X110564884Y-84828465D01*
X110544356Y-85050000D01*
X109455643Y-85050000D01*
X109435115Y-84828464D01*
X109374229Y-84614472D01*
X109275058Y-84415311D01*
X109140981Y-84237764D01*
X108976562Y-84087876D01*
X108787401Y-83970753D01*
X108787398Y-83970752D01*
X108787397Y-83970751D01*
X108579942Y-83890382D01*
X108361243Y-83849500D01*
X108138757Y-83849500D01*
X107920057Y-83890382D01*
X107712602Y-83970751D01*
X107523436Y-84087877D01*
X107359019Y-84237763D01*
X107224943Y-84415309D01*
X107125770Y-84614475D01*
X107089883Y-84740604D01*
X107067434Y-84773376D01*
X107029769Y-84786000D01*
X102970231Y-84786000D01*
X102932566Y-84773376D01*
X102910117Y-84740604D01*
X102900881Y-84708144D01*
X102874229Y-84614472D01*
X102775058Y-84415311D01*
X102640981Y-84237764D01*
X102476562Y-84087876D01*
X102287401Y-83970753D01*
X102287398Y-83970752D01*
X102287397Y-83970751D01*
X102079942Y-83890382D01*
X101861243Y-83849500D01*
X101638757Y-83849500D01*
X101420057Y-83890382D01*
X101212602Y-83970751D01*
X101023436Y-84087877D01*
X100859019Y-84237763D01*
X100724943Y-84415309D01*
X100625770Y-84614475D01*
X100564884Y-84828465D01*
X100544356Y-85050000D01*
X100200500Y-85050000D01*
X100200500Y-63540000D01*
X101944417Y-63540000D01*
X101964699Y-63745932D01*
X101964700Y-63745934D01*
X102024768Y-63943954D01*
X102116372Y-64115331D01*
X102122317Y-64126453D01*
X102253589Y-64286410D01*
X102413546Y-64417682D01*
X102413550Y-64417685D01*
X102596046Y-64515232D01*
X102794066Y-64575300D01*
X103000000Y-64595583D01*
X103205934Y-64575300D01*
X103403954Y-64515232D01*
X103586450Y-64417685D01*
X103746410Y-64286410D01*
X103877685Y-64126450D01*
X103975232Y-63943954D01*
X104035300Y-63745934D01*
X104055583Y-63540000D01*
X104035300Y-63334066D01*
X103975232Y-63136046D01*
X103877685Y-62953550D01*
X103877682Y-62953546D01*
X103746413Y-62793592D01*
X103738290Y-62786926D01*
X103723349Y-62774664D01*
X103706501Y-62753076D01*
X103700500Y-62726353D01*
X103700500Y-62113000D01*
X103718806Y-62068806D01*
X103763000Y-62050500D01*
X103869749Y-62050500D01*
X103928231Y-62038867D01*
X103994552Y-61994552D01*
X104038867Y-61928231D01*
X104050500Y-61869749D01*
X104050500Y-61563000D01*
X104068806Y-61518806D01*
X104113000Y-61500500D01*
X109637000Y-61500500D01*
X109681194Y-61518806D01*
X109699500Y-61563000D01*
X109699500Y-61904266D01*
X109702354Y-61934699D01*
X109747207Y-62062882D01*
X109827850Y-62172150D01*
X109877103Y-62208500D01*
X109937527Y-62253096D01*
X109958873Y-62281276D01*
X109961515Y-62316530D01*
X109944607Y-62347577D01*
X107810992Y-64481194D01*
X107790716Y-64494742D01*
X107766798Y-64499500D01*
X105362503Y-64499500D01*
X105349218Y-64498072D01*
X105338047Y-64495641D01*
X105286325Y-64499341D01*
X105281867Y-64499500D01*
X105266170Y-64499500D01*
X105250639Y-64501732D01*
X105246209Y-64502209D01*
X105194490Y-64505908D01*
X105183781Y-64509903D01*
X105170838Y-64513207D01*
X105159513Y-64514835D01*
X105112344Y-64536376D01*
X105108225Y-64538083D01*
X105059640Y-64556205D01*
X105050484Y-64563059D01*
X105038998Y-64569874D01*
X105028600Y-64574622D01*
X104989415Y-64608576D01*
X104985945Y-64611372D01*
X104973385Y-64620775D01*
X104973379Y-64620780D01*
X104973380Y-64620780D01*
X104962272Y-64631886D01*
X104959021Y-64634913D01*
X104919830Y-64668872D01*
X104913647Y-64678493D01*
X104905265Y-64688893D01*
X102788893Y-66805265D01*
X102778493Y-66813647D01*
X102768872Y-66819830D01*
X102734913Y-66859021D01*
X102731886Y-66862272D01*
X102720779Y-66873380D01*
X102720777Y-66873383D01*
X102711370Y-66885948D01*
X102708575Y-66889416D01*
X102674621Y-66928603D01*
X102669872Y-66939000D01*
X102663061Y-66950480D01*
X102656205Y-66959640D01*
X102638081Y-67008230D01*
X102636374Y-67012350D01*
X102614833Y-67059518D01*
X102613205Y-67070841D01*
X102609903Y-67083780D01*
X102605908Y-67094490D01*
X102602208Y-67146216D01*
X102601731Y-67150646D01*
X102599500Y-67166170D01*
X102599500Y-67181859D01*
X102599341Y-67186318D01*
X102595641Y-67238047D01*
X102598072Y-67249223D01*
X102599500Y-67262508D01*
X102599500Y-80065797D01*
X102614835Y-80172458D01*
X102623852Y-80192202D01*
X102629500Y-80218165D01*
X102629500Y-80254319D01*
X102635931Y-80303171D01*
X102685934Y-80410404D01*
X102769595Y-80494065D01*
X102823211Y-80519066D01*
X102876827Y-80544068D01*
X102889041Y-80545676D01*
X102925681Y-80550500D01*
X102925684Y-80550500D01*
X103274316Y-80550500D01*
X103274319Y-80550500D01*
X103303630Y-80546640D01*
X103323173Y-80544068D01*
X103430404Y-80494065D01*
X103514065Y-80410404D01*
X103553355Y-80326145D01*
X103586925Y-80294475D01*
X103633075Y-80294475D01*
X103666644Y-80326145D01*
X103705934Y-80410404D01*
X103789595Y-80494065D01*
X103843211Y-80519066D01*
X103896827Y-80544068D01*
X103909041Y-80545676D01*
X103945681Y-80550500D01*
X103945684Y-80550500D01*
X104294316Y-80550500D01*
X104294319Y-80550500D01*
X104323630Y-80546640D01*
X104343173Y-80544068D01*
X104450404Y-80494065D01*
X104534065Y-80410404D01*
X104571517Y-80330087D01*
X104594581Y-80303788D01*
X104628162Y-80294000D01*
X105531838Y-80294000D01*
X105565419Y-80303788D01*
X105588482Y-80330087D01*
X105625934Y-80410404D01*
X105709595Y-80494065D01*
X105739914Y-80508203D01*
X105766212Y-80531266D01*
X105776000Y-80564847D01*
X105776000Y-81902305D01*
X105766212Y-81935886D01*
X105739913Y-81958949D01*
X105701683Y-81976775D01*
X105616775Y-82061683D01*
X105566027Y-82170514D01*
X105559500Y-82220095D01*
X105559500Y-82639896D01*
X105566028Y-82689489D01*
X105616775Y-82798316D01*
X105701683Y-82883224D01*
X105756098Y-82908598D01*
X105810513Y-82933972D01*
X105860099Y-82940500D01*
X106219900Y-82940499D01*
X106219901Y-82940499D01*
X106227488Y-82939500D01*
X106261195Y-82935063D01*
X106296701Y-82940830D01*
X106323149Y-82965213D01*
X106343912Y-83000322D01*
X106459680Y-83116090D01*
X106600602Y-83199431D01*
X106757824Y-83245109D01*
X106794555Y-83248000D01*
X106850000Y-83248000D01*
X106850000Y-82580000D01*
X107150000Y-82580000D01*
X107150000Y-83248000D01*
X107205445Y-83248000D01*
X107242175Y-83245109D01*
X107399397Y-83199431D01*
X107540319Y-83116090D01*
X107656090Y-83000319D01*
X107739431Y-82859397D01*
X107785109Y-82702175D01*
X107788000Y-82665445D01*
X107788000Y-82580000D01*
X107150000Y-82580000D01*
X106850000Y-82580000D01*
X106850000Y-81612000D01*
X107150000Y-81612000D01*
X107150000Y-82280000D01*
X107788000Y-82280000D01*
X107788000Y-82194555D01*
X107785109Y-82157824D01*
X107739431Y-82000602D01*
X107656090Y-81859680D01*
X107540319Y-81743909D01*
X107399397Y-81660568D01*
X107242175Y-81614890D01*
X107205445Y-81612000D01*
X107150000Y-81612000D01*
X106850000Y-81612000D01*
X106794555Y-81612000D01*
X106757824Y-81614890D01*
X106600602Y-81660568D01*
X106459680Y-81743909D01*
X106410694Y-81792896D01*
X106366500Y-81811202D01*
X106322306Y-81792896D01*
X106304000Y-81748702D01*
X106304000Y-80564847D01*
X106313788Y-80531266D01*
X106340086Y-80508203D01*
X106370404Y-80494065D01*
X106454065Y-80410404D01*
X106493356Y-80326145D01*
X106526925Y-80294475D01*
X106573075Y-80294475D01*
X106606644Y-80326145D01*
X106645934Y-80410404D01*
X106729595Y-80494065D01*
X106783211Y-80519066D01*
X106836827Y-80544068D01*
X106849041Y-80545676D01*
X106885681Y-80550500D01*
X106885684Y-80550500D01*
X107234316Y-80550500D01*
X107234319Y-80550500D01*
X107263630Y-80546640D01*
X107283173Y-80544068D01*
X107390404Y-80494065D01*
X107474065Y-80410404D01*
X107511517Y-80330087D01*
X107534581Y-80303788D01*
X107568162Y-80294000D01*
X107604116Y-80294000D01*
X107630079Y-80299648D01*
X107651350Y-80315571D01*
X107701950Y-80373967D01*
X107810931Y-80444004D01*
X107935227Y-80480500D01*
X107935228Y-80480500D01*
X108064772Y-80480500D01*
X108064773Y-80480500D01*
X108126920Y-80462252D01*
X108189069Y-80444004D01*
X108298049Y-80373967D01*
X108382882Y-80276063D01*
X108436697Y-80158226D01*
X108455133Y-80030000D01*
X108436697Y-79901774D01*
X108382882Y-79783937D01*
X108298049Y-79686033D01*
X108298048Y-79686032D01*
X108189068Y-79615995D01*
X108088505Y-79586468D01*
X108053535Y-79560290D01*
X108044249Y-79517606D01*
X108065184Y-79479266D01*
X108106113Y-79464000D01*
X110967843Y-79464000D01*
X110980035Y-79465201D01*
X110983923Y-79465974D01*
X111000000Y-79469172D01*
X111103008Y-79448683D01*
X111168290Y-79405062D01*
X111181306Y-79396365D01*
X111181307Y-79396363D01*
X111190333Y-79390333D01*
X111201646Y-79373399D01*
X111209410Y-79363940D01*
X115005063Y-75568290D01*
X115048683Y-75503007D01*
X115048683Y-75503005D01*
X115055590Y-75492669D01*
X115056726Y-75493428D01*
X115064053Y-75479717D01*
X116117805Y-74425966D01*
X116162000Y-74407660D01*
X116206194Y-74425966D01*
X116224500Y-74470160D01*
X116224500Y-74603260D01*
X116234427Y-74671394D01*
X116285801Y-74776482D01*
X116285802Y-74776482D01*
X116285802Y-74776483D01*
X116368517Y-74859198D01*
X116473607Y-74910573D01*
X116541740Y-74920500D01*
X118258260Y-74920500D01*
X118326393Y-74910573D01*
X118431483Y-74859198D01*
X118514198Y-74776483D01*
X118542275Y-74719049D01*
X118565328Y-74693482D01*
X118598424Y-74684000D01*
X119797843Y-74684000D01*
X119810035Y-74685201D01*
X119813923Y-74685974D01*
X119830000Y-74689172D01*
X119933008Y-74668683D01*
X119998290Y-74625062D01*
X120011306Y-74616365D01*
X120011307Y-74616363D01*
X120020333Y-74610333D01*
X120031646Y-74593399D01*
X120039410Y-74583940D01*
X125944546Y-68678806D01*
X125988741Y-68660500D01*
X126248260Y-68660500D01*
X126316393Y-68650573D01*
X126421483Y-68599198D01*
X126504198Y-68516483D01*
X126555573Y-68411393D01*
X126565500Y-68343260D01*
X126565500Y-67811500D01*
X126583806Y-67767306D01*
X126628000Y-67749000D01*
X126772000Y-67749000D01*
X126816194Y-67767306D01*
X126834500Y-67811500D01*
X126834500Y-68343260D01*
X126844427Y-68411394D01*
X126895801Y-68516482D01*
X126895802Y-68516483D01*
X126978517Y-68599198D01*
X127083607Y-68650573D01*
X127151740Y-68660500D01*
X127518260Y-68660500D01*
X127586393Y-68650573D01*
X127691483Y-68599198D01*
X127694581Y-68596099D01*
X127738776Y-68577793D01*
X127782970Y-68596099D01*
X128581499Y-69394628D01*
X128599169Y-69429927D01*
X128613303Y-69528226D01*
X128667118Y-69646063D01*
X128751951Y-69743967D01*
X128860931Y-69814004D01*
X128985227Y-69850500D01*
X128985228Y-69850500D01*
X129114772Y-69850500D01*
X129114773Y-69850500D01*
X129182642Y-69830572D01*
X129239069Y-69814004D01*
X129348049Y-69743967D01*
X129432882Y-69646063D01*
X129486697Y-69528226D01*
X129505133Y-69400000D01*
X129486697Y-69271774D01*
X129432882Y-69153937D01*
X129348049Y-69056033D01*
X129348048Y-69056032D01*
X129239068Y-68985995D01*
X129114773Y-68949500D01*
X129114772Y-68949500D01*
X128985228Y-68949500D01*
X128967499Y-68954705D01*
X128941840Y-68962239D01*
X128908776Y-68962828D01*
X128880039Y-68946464D01*
X128700769Y-68767194D01*
X128682463Y-68723000D01*
X128700769Y-68678806D01*
X128744963Y-68660500D01*
X128788260Y-68660500D01*
X128856393Y-68650573D01*
X128961483Y-68599198D01*
X129044198Y-68516483D01*
X129095573Y-68411393D01*
X129105500Y-68343260D01*
X129374500Y-68343260D01*
X129384427Y-68411394D01*
X129435801Y-68516482D01*
X129435802Y-68516483D01*
X129518517Y-68599198D01*
X129623607Y-68650573D01*
X129691740Y-68660500D01*
X130058260Y-68660500D01*
X130126393Y-68650573D01*
X130231483Y-68599198D01*
X130314198Y-68516483D01*
X130365573Y-68411393D01*
X130375500Y-68343260D01*
X130375500Y-67811500D01*
X130393806Y-67767306D01*
X130438000Y-67749000D01*
X130582000Y-67749000D01*
X130626194Y-67767306D01*
X130644500Y-67811500D01*
X130644500Y-68343260D01*
X130654427Y-68411394D01*
X130705801Y-68516482D01*
X130738788Y-68549469D01*
X130757094Y-68593663D01*
X130738788Y-68637857D01*
X130445452Y-68931194D01*
X130425176Y-68944742D01*
X130401258Y-68949500D01*
X130285227Y-68949500D01*
X130160931Y-68985995D01*
X130051951Y-69056032D01*
X129967118Y-69153936D01*
X129913303Y-69271774D01*
X129894866Y-69399999D01*
X129899422Y-69431683D01*
X129913303Y-69528226D01*
X129918915Y-69540514D01*
X129967118Y-69646063D01*
X130051951Y-69743967D01*
X130160931Y-69814004D01*
X130285227Y-69850500D01*
X130285228Y-69850500D01*
X130414772Y-69850500D01*
X130414773Y-69850500D01*
X130482642Y-69830572D01*
X130539069Y-69814004D01*
X130648049Y-69743967D01*
X130732882Y-69646063D01*
X130786697Y-69528226D01*
X130805133Y-69400000D01*
X130799304Y-69359463D01*
X130801866Y-69330833D01*
X130816972Y-69306378D01*
X131308943Y-68814408D01*
X131318401Y-68806646D01*
X131335333Y-68795333D01*
X131344129Y-68782167D01*
X131344135Y-68782162D01*
X131354136Y-68767194D01*
X131393683Y-68708008D01*
X131400006Y-68676216D01*
X131411786Y-68650276D01*
X131433855Y-68632258D01*
X131501483Y-68599198D01*
X131584198Y-68516483D01*
X131635573Y-68411393D01*
X131645500Y-68343260D01*
X131645500Y-66626740D01*
X131635573Y-66558607D01*
X131584198Y-66453517D01*
X131501483Y-66370802D01*
X131501482Y-66370801D01*
X131396394Y-66319427D01*
X131328260Y-66309500D01*
X130961740Y-66309500D01*
X130893605Y-66319427D01*
X130788517Y-66370801D01*
X130705801Y-66453517D01*
X130654427Y-66558605D01*
X130644500Y-66626740D01*
X130644500Y-67158500D01*
X130626194Y-67202694D01*
X130582000Y-67221000D01*
X130438000Y-67221000D01*
X130393806Y-67202694D01*
X130375500Y-67158500D01*
X130375500Y-66626740D01*
X130370662Y-66593538D01*
X130365573Y-66558607D01*
X130314198Y-66453517D01*
X130231483Y-66370802D01*
X130231482Y-66370801D01*
X130126394Y-66319427D01*
X130058260Y-66309500D01*
X129691740Y-66309500D01*
X129623605Y-66319427D01*
X129518517Y-66370801D01*
X129435801Y-66453517D01*
X129384427Y-66558605D01*
X129374500Y-66626740D01*
X129374500Y-68343260D01*
X129105500Y-68343260D01*
X129105500Y-66626740D01*
X129095573Y-66558607D01*
X129044198Y-66453517D01*
X128961483Y-66370802D01*
X128884815Y-66333321D01*
X128860301Y-66311897D01*
X128852017Y-66299500D01*
X128795333Y-66214667D01*
X128778406Y-66203357D01*
X128768937Y-66195585D01*
X128344046Y-65770694D01*
X128325740Y-65726500D01*
X128344046Y-65682306D01*
X128388240Y-65664000D01*
X131264760Y-65664000D01*
X131308954Y-65682306D01*
X131983789Y-66357141D01*
X132002095Y-66401334D01*
X131983791Y-66445528D01*
X131975801Y-66453518D01*
X131924427Y-66558605D01*
X131914500Y-66626740D01*
X131914500Y-68343260D01*
X131924427Y-68411394D01*
X131975801Y-68516482D01*
X131975802Y-68516483D01*
X132058517Y-68599198D01*
X132163607Y-68650573D01*
X132231740Y-68660500D01*
X132598260Y-68660500D01*
X132666393Y-68650573D01*
X132771483Y-68599198D01*
X132822542Y-68548138D01*
X132860851Y-68530111D01*
X132901863Y-68540641D01*
X132921199Y-68567253D01*
X132922298Y-68566604D01*
X133010944Y-68716497D01*
X133128502Y-68834055D01*
X133271599Y-68918682D01*
X133431247Y-68965065D01*
X133468538Y-68968000D01*
X133535000Y-68968000D01*
X133535000Y-67635000D01*
X133835000Y-67635000D01*
X133835000Y-68967999D01*
X133901462Y-68967999D01*
X133938751Y-68965065D01*
X134098400Y-68918682D01*
X134241497Y-68834055D01*
X134359055Y-68716497D01*
X134443682Y-68573400D01*
X134490065Y-68413752D01*
X134493000Y-68376462D01*
X134493000Y-67635000D01*
X133835000Y-67635000D01*
X133535000Y-67635000D01*
X133535000Y-66002001D01*
X133468538Y-66002001D01*
X133431248Y-66004934D01*
X133271599Y-66051317D01*
X133128502Y-66135944D01*
X133010947Y-66253499D01*
X132922300Y-66403396D01*
X132921200Y-66402745D01*
X132901864Y-66429359D01*
X132860853Y-66439889D01*
X132822541Y-66421860D01*
X132771482Y-66370801D01*
X132684895Y-66328471D01*
X132660378Y-66307046D01*
X132643104Y-66281194D01*
X132620063Y-66246710D01*
X132620059Y-66246706D01*
X132616643Y-66241593D01*
X132616643Y-66241592D01*
X132616640Y-66241589D01*
X132613574Y-66237000D01*
X132605333Y-66224667D01*
X132588405Y-66213355D01*
X132578939Y-66205586D01*
X132375353Y-66002000D01*
X133835000Y-66002000D01*
X133835000Y-67335000D01*
X134492999Y-67335000D01*
X134492999Y-66593538D01*
X134490065Y-66556248D01*
X134443682Y-66396599D01*
X134359055Y-66253502D01*
X134241497Y-66135944D01*
X134098400Y-66051317D01*
X133938752Y-66004934D01*
X133901462Y-66002000D01*
X133835000Y-66002000D01*
X132375353Y-66002000D01*
X132144047Y-65770694D01*
X131672178Y-65298826D01*
X131655073Y-65266824D01*
X131658632Y-65230711D01*
X131681654Y-65202664D01*
X131700110Y-65190333D01*
X131711423Y-65173399D01*
X131719187Y-65163940D01*
X133237032Y-63646096D01*
X133281223Y-63627792D01*
X133325417Y-63646098D01*
X133328517Y-63649198D01*
X133433607Y-63700573D01*
X133501740Y-63710500D01*
X133868260Y-63710500D01*
X133936393Y-63700573D01*
X133958021Y-63690000D01*
X135649774Y-63690000D01*
X135655929Y-63764279D01*
X135711179Y-63982454D01*
X135801583Y-64188553D01*
X135924674Y-64376958D01*
X136077102Y-64542538D01*
X136254697Y-64680766D01*
X136452625Y-64787880D01*
X136665489Y-64860956D01*
X136850000Y-64891746D01*
X136850000Y-63690000D01*
X137150000Y-63690000D01*
X137150000Y-64891746D01*
X137334510Y-64860956D01*
X137547374Y-64787880D01*
X137745302Y-64680766D01*
X137922897Y-64542538D01*
X138075325Y-64376958D01*
X138198416Y-64188553D01*
X138288820Y-63982454D01*
X138344070Y-63764279D01*
X138350225Y-63690000D01*
X137150000Y-63690000D01*
X136850000Y-63690000D01*
X135649774Y-63690000D01*
X133958021Y-63690000D01*
X134041483Y-63649198D01*
X134124198Y-63566483D01*
X134175573Y-63461393D01*
X134185500Y-63393260D01*
X134185500Y-61676740D01*
X134175573Y-61608607D01*
X134124198Y-61503517D01*
X134041483Y-61420802D01*
X134041482Y-61420801D01*
X133936394Y-61369427D01*
X133868260Y-61359500D01*
X133501740Y-61359500D01*
X133433605Y-61369427D01*
X133328517Y-61420801D01*
X133245801Y-61503517D01*
X133194427Y-61608605D01*
X133184500Y-61676740D01*
X133184500Y-62926037D01*
X133166194Y-62970231D01*
X133022194Y-63114231D01*
X132978000Y-63132537D01*
X132933806Y-63114231D01*
X132915500Y-63070037D01*
X132915500Y-61676740D01*
X132915499Y-61676739D01*
X132905573Y-61608607D01*
X132854198Y-61503517D01*
X132771483Y-61420802D01*
X132771482Y-61420801D01*
X132666394Y-61369427D01*
X132598260Y-61359500D01*
X132231740Y-61359500D01*
X132163605Y-61369427D01*
X132058517Y-61420801D01*
X131975801Y-61503517D01*
X131924427Y-61608605D01*
X131914500Y-61676740D01*
X131914500Y-62208500D01*
X131896194Y-62252694D01*
X131852000Y-62271000D01*
X131708000Y-62271000D01*
X131663806Y-62252694D01*
X131645500Y-62208500D01*
X131645500Y-61676740D01*
X131645499Y-61676739D01*
X131635573Y-61608607D01*
X131584198Y-61503517D01*
X131501483Y-61420802D01*
X131444049Y-61392724D01*
X131418482Y-61369672D01*
X131409000Y-61336576D01*
X131409000Y-61150000D01*
X135642000Y-61150000D01*
X135642000Y-61898589D01*
X135648504Y-61959094D01*
X135699553Y-62095960D01*
X135787095Y-62212904D01*
X135904039Y-62300446D01*
X136040905Y-62351495D01*
X136101411Y-62358000D01*
X136125618Y-62358000D01*
X136161935Y-62369634D01*
X136184732Y-62400206D01*
X136185520Y-62438333D01*
X136164006Y-62469821D01*
X136077102Y-62537461D01*
X135924674Y-62703041D01*
X135801583Y-62891446D01*
X135711179Y-63097545D01*
X135655929Y-63315720D01*
X135649774Y-63389999D01*
X135649775Y-63390000D01*
X136850000Y-63390000D01*
X136850000Y-61150000D01*
X137150000Y-61150000D01*
X137150000Y-63390000D01*
X138350225Y-63390000D01*
X138350225Y-63389999D01*
X138344070Y-63315720D01*
X138288820Y-63097545D01*
X138198416Y-62891446D01*
X138075325Y-62703041D01*
X137922897Y-62537461D01*
X137835994Y-62469821D01*
X137814480Y-62438333D01*
X137815268Y-62400206D01*
X137838065Y-62369634D01*
X137874382Y-62358000D01*
X137898589Y-62358000D01*
X137959094Y-62351495D01*
X138095960Y-62300446D01*
X138212904Y-62212904D01*
X138300446Y-62095960D01*
X138351495Y-61959094D01*
X138358000Y-61898589D01*
X138358000Y-61150000D01*
X137150000Y-61150000D01*
X136850000Y-61150000D01*
X135642000Y-61150000D01*
X131409000Y-61150000D01*
X131409000Y-61103190D01*
X131416645Y-61073237D01*
X131437710Y-61050612D01*
X131442698Y-61047405D01*
X131448049Y-61043967D01*
X131532882Y-60946063D01*
X131576753Y-60850000D01*
X135642000Y-60850000D01*
X136850000Y-60850000D01*
X136850000Y-59642000D01*
X137150000Y-59642000D01*
X137150000Y-60850000D01*
X138358000Y-60850000D01*
X138358000Y-60101411D01*
X138351495Y-60040905D01*
X138300446Y-59904039D01*
X138212904Y-59787095D01*
X138095960Y-59699553D01*
X137959094Y-59648504D01*
X137898589Y-59642000D01*
X137150000Y-59642000D01*
X136850000Y-59642000D01*
X136101411Y-59642000D01*
X136040905Y-59648504D01*
X135904039Y-59699553D01*
X135787095Y-59787095D01*
X135699553Y-59904039D01*
X135648504Y-60040905D01*
X135642000Y-60101411D01*
X135642000Y-60850000D01*
X131576753Y-60850000D01*
X131586697Y-60828226D01*
X131605133Y-60700000D01*
X131599304Y-60659463D01*
X131601866Y-60630833D01*
X131616972Y-60606378D01*
X133291046Y-58932306D01*
X133335241Y-58914000D01*
X137814760Y-58914000D01*
X137858954Y-58932306D01*
X138867694Y-59941046D01*
X138886000Y-59985240D01*
X138886000Y-65264759D01*
X138867694Y-65308953D01*
X127958954Y-76217694D01*
X127938678Y-76231242D01*
X127914760Y-76236000D01*
X126459321Y-76236000D01*
X126423617Y-76224798D01*
X126400712Y-76195207D01*
X126357764Y-76079246D01*
X126281972Y-75957650D01*
X126255509Y-75915193D01*
X126122323Y-75775081D01*
X125963658Y-75664647D01*
X125874834Y-75626529D01*
X125786013Y-75588413D01*
X125761167Y-75583307D01*
X125716949Y-75574220D01*
X125679154Y-75549992D01*
X125667352Y-75506677D01*
X125687632Y-75466624D01*
X125729531Y-75450500D01*
X126269749Y-75450500D01*
X126328231Y-75438867D01*
X126394552Y-75394552D01*
X126438867Y-75328231D01*
X126450500Y-75269749D01*
X126450500Y-73730251D01*
X126438867Y-73671768D01*
X126394553Y-73605449D01*
X126394552Y-73605448D01*
X126368812Y-73588248D01*
X126344501Y-73556802D01*
X126344068Y-73517055D01*
X126367688Y-73485086D01*
X126489139Y-73400047D01*
X126650047Y-73239139D01*
X126780568Y-73052734D01*
X126876739Y-72846496D01*
X126935635Y-72626692D01*
X126955468Y-72400000D01*
X126940067Y-72223967D01*
X126935635Y-72173307D01*
X126876739Y-71953505D01*
X126873739Y-71947072D01*
X126780568Y-71747266D01*
X126780567Y-71747264D01*
X126650047Y-71560860D01*
X126489139Y-71399952D01*
X126302735Y-71269432D01*
X126096494Y-71173260D01*
X125876692Y-71114364D01*
X125706786Y-71099500D01*
X125706784Y-71099500D01*
X124293216Y-71099500D01*
X124293214Y-71099500D01*
X124123307Y-71114364D01*
X123903505Y-71173260D01*
X123697264Y-71269432D01*
X123510860Y-71399952D01*
X123349952Y-71560860D01*
X123219432Y-71747264D01*
X123123260Y-71953505D01*
X123064364Y-72173307D01*
X123044531Y-72400000D01*
X123064364Y-72626692D01*
X123123260Y-72846494D01*
X123219432Y-73052735D01*
X123349952Y-73239139D01*
X123510860Y-73400047D01*
X123632310Y-73485086D01*
X123655931Y-73517055D01*
X123655498Y-73556802D01*
X123631186Y-73588249D01*
X123605447Y-73605447D01*
X123561132Y-73671768D01*
X123549500Y-73730251D01*
X123549500Y-75269749D01*
X123561132Y-75328231D01*
X123605447Y-75394552D01*
X123671768Y-75438867D01*
X123730251Y-75450500D01*
X124261946Y-75450500D01*
X124302657Y-75465578D01*
X124323725Y-75503536D01*
X124314986Y-75546060D01*
X124280656Y-75572633D01*
X124230364Y-75588413D01*
X124123231Y-75622026D01*
X123954208Y-75715841D01*
X123807532Y-75841760D01*
X123689205Y-75994624D01*
X123604069Y-76168184D01*
X123555615Y-76355326D01*
X123545823Y-76548392D01*
X123575096Y-76739474D01*
X123642235Y-76920753D01*
X123694981Y-77005375D01*
X123744491Y-77084807D01*
X123877677Y-77224919D01*
X124036342Y-77335353D01*
X124213988Y-77411587D01*
X124342026Y-77437899D01*
X124378867Y-77460862D01*
X124391864Y-77502284D01*
X124374744Y-77542179D01*
X124335768Y-77561298D01*
X124307681Y-77564154D01*
X124123231Y-77622026D01*
X123954208Y-77715841D01*
X123807532Y-77841760D01*
X123689205Y-77994624D01*
X123604069Y-78168184D01*
X123555615Y-78355326D01*
X123545823Y-78548392D01*
X123575096Y-78739474D01*
X123642235Y-78920753D01*
X123694981Y-79005375D01*
X123744491Y-79084807D01*
X123814294Y-79158240D01*
X123877676Y-79224918D01*
X123928328Y-79260173D01*
X123953809Y-79298716D01*
X123945851Y-79344230D01*
X123908804Y-79371840D01*
X123903507Y-79373259D01*
X123697264Y-79469432D01*
X123510860Y-79599952D01*
X123349952Y-79760860D01*
X123219432Y-79947264D01*
X123123260Y-80153505D01*
X123064364Y-80373307D01*
X123044531Y-80600000D01*
X123064364Y-80826692D01*
X123123260Y-81046494D01*
X123219432Y-81252735D01*
X123349952Y-81439139D01*
X123510860Y-81600047D01*
X123697264Y-81730567D01*
X123697265Y-81730567D01*
X123697266Y-81730568D01*
X123903504Y-81826739D01*
X124013406Y-81856187D01*
X124123307Y-81885635D01*
X124293214Y-81900500D01*
X124293216Y-81900500D01*
X125706784Y-81900500D01*
X125706786Y-81900500D01*
X125876692Y-81885635D01*
X125876691Y-81885635D01*
X126096496Y-81826739D01*
X126302734Y-81730568D01*
X126489139Y-81600047D01*
X126650047Y-81439139D01*
X126780568Y-81252734D01*
X126876739Y-81046496D01*
X126935635Y-80826692D01*
X126949869Y-80664000D01*
X133244531Y-80664000D01*
X133264364Y-80890692D01*
X133323260Y-81110494D01*
X133419432Y-81316735D01*
X133549952Y-81503139D01*
X133710860Y-81664047D01*
X133897264Y-81794567D01*
X133897265Y-81794567D01*
X133897266Y-81794568D01*
X134103504Y-81890739D01*
X134213406Y-81920187D01*
X134323307Y-81949635D01*
X134493214Y-81964500D01*
X134493216Y-81964500D01*
X135906784Y-81964500D01*
X135906786Y-81964500D01*
X136076692Y-81949635D01*
X136128004Y-81935886D01*
X136296496Y-81890739D01*
X136502734Y-81794568D01*
X136689139Y-81664047D01*
X136850047Y-81503139D01*
X136980568Y-81316734D01*
X137076739Y-81110496D01*
X137135635Y-80890692D01*
X137155468Y-80664000D01*
X137135635Y-80437308D01*
X137076739Y-80217504D01*
X136980568Y-80011266D01*
X136980567Y-80011264D01*
X136850047Y-79824860D01*
X136689139Y-79663952D01*
X136502735Y-79533432D01*
X136296496Y-79437261D01*
X136293141Y-79436362D01*
X136257230Y-79410531D01*
X136247413Y-79367398D01*
X136268606Y-79328572D01*
X136392468Y-79222240D01*
X136510796Y-79069373D01*
X136595930Y-78895816D01*
X136644385Y-78708674D01*
X136654176Y-78515610D01*
X136645578Y-78459487D01*
X136624903Y-78324525D01*
X136557764Y-78143246D01*
X136462307Y-77990100D01*
X136455509Y-77979193D01*
X136322323Y-77839081D01*
X136163658Y-77728647D01*
X136074834Y-77690529D01*
X135986013Y-77652413D01*
X135857974Y-77626101D01*
X135821131Y-77603136D01*
X135808135Y-77561714D01*
X135825256Y-77521819D01*
X135864232Y-77502701D01*
X135892321Y-77499845D01*
X136076768Y-77441974D01*
X136245791Y-77348159D01*
X136392468Y-77222240D01*
X136510796Y-77069373D01*
X136595930Y-76895816D01*
X136644385Y-76708674D01*
X136654176Y-76515610D01*
X136629621Y-76355326D01*
X136624903Y-76324525D01*
X136557764Y-76143246D01*
X136486852Y-76029479D01*
X136455509Y-75979193D01*
X136322323Y-75839081D01*
X136163658Y-75728647D01*
X136074835Y-75690530D01*
X135986013Y-75652413D01*
X135961167Y-75647307D01*
X135916949Y-75638220D01*
X135879154Y-75613992D01*
X135867352Y-75570677D01*
X135887632Y-75530624D01*
X135929531Y-75514500D01*
X136469749Y-75514500D01*
X136528231Y-75502867D01*
X136594552Y-75458552D01*
X136638867Y-75392231D01*
X136650500Y-75333749D01*
X136650500Y-73794251D01*
X136638867Y-73735768D01*
X136594553Y-73669449D01*
X136594552Y-73669448D01*
X136568812Y-73652248D01*
X136544501Y-73620802D01*
X136544068Y-73581055D01*
X136567688Y-73549086D01*
X136689139Y-73464047D01*
X136850047Y-73303139D01*
X136980568Y-73116734D01*
X137076739Y-72910496D01*
X137135635Y-72690692D01*
X137155468Y-72464000D01*
X137143788Y-72330500D01*
X137135635Y-72237307D01*
X137105827Y-72126063D01*
X137076739Y-72017504D01*
X136980568Y-71811266D01*
X136980567Y-71811264D01*
X136850047Y-71624860D01*
X136689139Y-71463952D01*
X136502735Y-71333432D01*
X136296494Y-71237260D01*
X136076692Y-71178364D01*
X135906786Y-71163500D01*
X135906784Y-71163500D01*
X134493216Y-71163500D01*
X134493214Y-71163500D01*
X134323307Y-71178364D01*
X134103505Y-71237260D01*
X133897264Y-71333432D01*
X133710860Y-71463952D01*
X133549952Y-71624860D01*
X133419432Y-71811264D01*
X133323260Y-72017505D01*
X133264364Y-72237307D01*
X133244531Y-72464000D01*
X133264364Y-72690692D01*
X133323260Y-72910494D01*
X133419432Y-73116735D01*
X133549952Y-73303139D01*
X133710860Y-73464047D01*
X133832310Y-73549086D01*
X133855931Y-73581055D01*
X133855498Y-73620802D01*
X133831186Y-73652249D01*
X133805447Y-73669447D01*
X133761132Y-73735768D01*
X133749500Y-73794251D01*
X133749500Y-75333749D01*
X133761132Y-75392231D01*
X133805447Y-75458552D01*
X133871768Y-75502867D01*
X133930251Y-75514500D01*
X134461946Y-75514500D01*
X134502657Y-75529578D01*
X134523725Y-75567536D01*
X134514986Y-75610060D01*
X134480656Y-75636633D01*
X134430364Y-75652413D01*
X134323231Y-75686026D01*
X134154208Y-75779841D01*
X134007532Y-75905760D01*
X133889205Y-76058624D01*
X133804069Y-76232184D01*
X133755615Y-76419326D01*
X133745823Y-76612392D01*
X133775096Y-76803474D01*
X133842235Y-76984753D01*
X133894981Y-77069375D01*
X133944491Y-77148807D01*
X134077677Y-77288919D01*
X134236342Y-77399353D01*
X134413988Y-77475587D01*
X134542026Y-77501899D01*
X134578867Y-77524862D01*
X134591864Y-77566284D01*
X134574744Y-77606179D01*
X134535768Y-77625298D01*
X134507681Y-77628154D01*
X134323231Y-77686026D01*
X134154208Y-77779841D01*
X134007532Y-77905760D01*
X133889205Y-78058624D01*
X133804069Y-78232184D01*
X133755615Y-78419326D01*
X133745823Y-78612392D01*
X133775096Y-78803474D01*
X133842235Y-78984753D01*
X133904598Y-79084805D01*
X133944491Y-79148807D01*
X134014294Y-79222240D01*
X134077676Y-79288918D01*
X134128328Y-79324173D01*
X134153809Y-79362716D01*
X134145851Y-79408230D01*
X134108804Y-79435840D01*
X134103507Y-79437259D01*
X133897264Y-79533432D01*
X133710860Y-79663952D01*
X133549952Y-79824860D01*
X133419432Y-80011264D01*
X133323260Y-80217505D01*
X133264364Y-80437307D01*
X133244531Y-80664000D01*
X126949869Y-80664000D01*
X126955468Y-80600000D01*
X126941234Y-80437307D01*
X126935635Y-80373307D01*
X126887108Y-80192202D01*
X126876739Y-80153504D01*
X126780568Y-79947266D01*
X126780567Y-79947264D01*
X126650047Y-79760860D01*
X126489139Y-79599952D01*
X126302735Y-79469432D01*
X126096496Y-79373261D01*
X126093141Y-79372362D01*
X126057230Y-79346531D01*
X126047413Y-79303398D01*
X126068606Y-79264572D01*
X126192468Y-79158240D01*
X126310796Y-79005373D01*
X126395930Y-78831816D01*
X126444385Y-78644674D01*
X126454176Y-78451610D01*
X126449230Y-78419326D01*
X126424903Y-78260525D01*
X126357764Y-78079246D01*
X126286276Y-77964555D01*
X126255509Y-77915193D01*
X126122323Y-77775081D01*
X125963658Y-77664647D01*
X125871964Y-77625298D01*
X125786013Y-77588413D01*
X125657974Y-77562101D01*
X125621131Y-77539136D01*
X125608135Y-77497714D01*
X125625256Y-77457819D01*
X125664232Y-77438701D01*
X125692321Y-77435845D01*
X125876768Y-77377974D01*
X126045791Y-77284159D01*
X126192468Y-77158240D01*
X126310796Y-77005373D01*
X126395930Y-76831816D01*
X126401362Y-76810834D01*
X126423612Y-76777076D01*
X126461868Y-76764000D01*
X128017843Y-76764000D01*
X128030035Y-76765201D01*
X128033923Y-76765974D01*
X128050000Y-76769172D01*
X128153008Y-76748683D01*
X128218290Y-76705062D01*
X128231306Y-76696365D01*
X128231307Y-76696363D01*
X128240333Y-76690333D01*
X128251646Y-76673399D01*
X128259410Y-76663940D01*
X139313943Y-65609408D01*
X139323402Y-65601644D01*
X139340333Y-65590333D01*
X139349129Y-65577167D01*
X139349135Y-65577162D01*
X139397775Y-65504367D01*
X139397780Y-65504360D01*
X139398683Y-65503008D01*
X139414000Y-65426003D01*
X139419172Y-65399999D01*
X139415201Y-65380035D01*
X139414000Y-65367843D01*
X139414000Y-59882152D01*
X139415201Y-59869960D01*
X139419171Y-59850000D01*
X139415201Y-59830040D01*
X139415201Y-59830035D01*
X139401134Y-59759316D01*
X139398683Y-59746992D01*
X139340333Y-59659667D01*
X139323406Y-59648357D01*
X139313937Y-59640585D01*
X138159414Y-58486062D01*
X138151641Y-58476591D01*
X138140333Y-58459667D01*
X138118288Y-58444937D01*
X138053008Y-58401316D01*
X137949999Y-58380827D01*
X137930035Y-58384799D01*
X137917843Y-58386000D01*
X133232157Y-58386000D01*
X133219965Y-58384799D01*
X133200000Y-58380828D01*
X133096992Y-58401316D01*
X133031704Y-58444941D01*
X133009667Y-58459666D01*
X132998359Y-58476590D01*
X132990587Y-58486059D01*
X132596860Y-58879785D01*
X132562663Y-58897286D01*
X132524689Y-58891480D01*
X132497285Y-58864559D01*
X132490802Y-58826697D01*
X132492879Y-58812254D01*
X132474443Y-58684028D01*
X132420628Y-58566191D01*
X132335795Y-58468287D01*
X132335794Y-58468286D01*
X132226814Y-58398249D01*
X132102519Y-58361754D01*
X132102518Y-58361754D01*
X131972974Y-58361754D01*
X131972973Y-58361754D01*
X131848677Y-58398249D01*
X131739697Y-58468286D01*
X131654864Y-58566190D01*
X131601049Y-58684028D01*
X131582612Y-58812254D01*
X131588440Y-58852788D01*
X131585877Y-58881420D01*
X131570770Y-58905876D01*
X130060248Y-60416397D01*
X130026683Y-60433793D01*
X129989229Y-60428653D01*
X129961589Y-60402860D01*
X129953878Y-60365850D01*
X129958000Y-60325510D01*
X129958000Y-59950000D01*
X129100000Y-59950000D01*
X129100000Y-61033000D01*
X129250510Y-61033000D01*
X129291097Y-61028853D01*
X129328107Y-61036564D01*
X129353901Y-61064204D01*
X129359040Y-61101658D01*
X129341644Y-61135223D01*
X129052968Y-61423899D01*
X129008774Y-61442205D01*
X128964580Y-61423899D01*
X128961482Y-61420801D01*
X128856394Y-61369427D01*
X128788260Y-61359500D01*
X128421740Y-61359500D01*
X128353605Y-61369427D01*
X128248517Y-61420801D01*
X128165801Y-61503517D01*
X128114427Y-61608605D01*
X128104500Y-61676740D01*
X128104500Y-62208500D01*
X128086194Y-62252694D01*
X128042000Y-62271000D01*
X127898000Y-62271000D01*
X127853806Y-62252694D01*
X127835500Y-62208500D01*
X127835500Y-61676740D01*
X127835499Y-61676739D01*
X127825573Y-61608607D01*
X127774198Y-61503517D01*
X127691483Y-61420802D01*
X127691482Y-61420801D01*
X127586394Y-61369427D01*
X127518260Y-61359500D01*
X127151740Y-61359500D01*
X127083605Y-61369427D01*
X126978517Y-61420801D01*
X126895801Y-61503517D01*
X126844427Y-61608605D01*
X126834500Y-61676740D01*
X126834500Y-63393260D01*
X126844427Y-63461394D01*
X126895801Y-63566482D01*
X126895802Y-63566483D01*
X126978517Y-63649198D01*
X127083607Y-63700573D01*
X127151740Y-63710500D01*
X127518260Y-63710500D01*
X127586393Y-63700573D01*
X127691483Y-63649198D01*
X127774198Y-63566483D01*
X127825573Y-63461393D01*
X127835500Y-63393260D01*
X127835500Y-62861500D01*
X127853806Y-62817306D01*
X127898000Y-62799000D01*
X128042000Y-62799000D01*
X128086194Y-62817306D01*
X128104500Y-62861500D01*
X128104500Y-63393260D01*
X128114427Y-63461394D01*
X128165801Y-63566482D01*
X128165802Y-63566483D01*
X128248517Y-63649198D01*
X128353607Y-63700573D01*
X128421740Y-63710500D01*
X128788260Y-63710500D01*
X128856393Y-63700573D01*
X128961483Y-63649198D01*
X129044198Y-63566483D01*
X129095573Y-63461393D01*
X129105500Y-63393260D01*
X129105500Y-62143963D01*
X129123806Y-62099769D01*
X129267806Y-61955769D01*
X129312000Y-61937463D01*
X129356194Y-61955769D01*
X129374500Y-61999963D01*
X129374500Y-63393260D01*
X129384427Y-63461394D01*
X129435801Y-63566482D01*
X129435802Y-63566483D01*
X129518517Y-63649198D01*
X129575950Y-63677275D01*
X129601518Y-63700328D01*
X129611000Y-63733424D01*
X129611000Y-63789760D01*
X129592694Y-63833954D01*
X129108954Y-64317694D01*
X129064760Y-64336000D01*
X124735241Y-64336000D01*
X124691047Y-64317694D01*
X124102306Y-63728954D01*
X124088758Y-63708678D01*
X124084000Y-63684760D01*
X124084000Y-63393260D01*
X125564500Y-63393260D01*
X125574427Y-63461394D01*
X125625801Y-63566482D01*
X125625802Y-63566483D01*
X125708517Y-63649198D01*
X125813607Y-63700573D01*
X125881740Y-63710500D01*
X126248260Y-63710500D01*
X126316393Y-63700573D01*
X126421483Y-63649198D01*
X126504198Y-63566483D01*
X126555573Y-63461393D01*
X126565500Y-63393260D01*
X126565500Y-61676740D01*
X126555573Y-61608607D01*
X126504198Y-61503517D01*
X126501181Y-61500500D01*
X126433806Y-61433124D01*
X126415500Y-61388930D01*
X126415500Y-60956070D01*
X126433806Y-60911876D01*
X126472048Y-60873634D01*
X126619184Y-60726496D01*
X126649469Y-60709759D01*
X126684019Y-60711700D01*
X126715298Y-60722645D01*
X126715301Y-60722646D01*
X126745734Y-60725500D01*
X127354265Y-60725500D01*
X127354266Y-60725500D01*
X127384699Y-60722646D01*
X127512882Y-60677793D01*
X127622150Y-60597150D01*
X127702793Y-60487882D01*
X127747646Y-60359699D01*
X127750500Y-60329266D01*
X127750500Y-59950000D01*
X127942000Y-59950000D01*
X127942000Y-60325512D01*
X127952605Y-60429321D01*
X128008342Y-60597525D01*
X128101365Y-60748340D01*
X128226659Y-60873634D01*
X128377474Y-60966657D01*
X128545678Y-61022394D01*
X128649488Y-61033000D01*
X128800000Y-61033000D01*
X128800000Y-59950000D01*
X127942000Y-59950000D01*
X127750500Y-59950000D01*
X127750500Y-59650000D01*
X127942000Y-59650000D01*
X128800000Y-59650000D01*
X128800000Y-58567000D01*
X129100000Y-58567000D01*
X129100000Y-59650000D01*
X129958000Y-59650000D01*
X129958000Y-59274488D01*
X129947394Y-59170678D01*
X129891657Y-59002474D01*
X129798634Y-58851659D01*
X129673340Y-58726365D01*
X129522525Y-58633342D01*
X129354321Y-58577605D01*
X129250512Y-58567000D01*
X129100000Y-58567000D01*
X128800000Y-58567000D01*
X128649488Y-58567000D01*
X128545678Y-58577605D01*
X128377474Y-58633342D01*
X128226659Y-58726365D01*
X128101365Y-58851659D01*
X128008342Y-59002474D01*
X127952605Y-59170678D01*
X127942000Y-59274488D01*
X127942000Y-59650000D01*
X127750500Y-59650000D01*
X127750500Y-59270734D01*
X127747646Y-59240301D01*
X127702793Y-59112118D01*
X127622150Y-59002850D01*
X127575885Y-58968705D01*
X127557206Y-58946585D01*
X127550500Y-58918419D01*
X127550500Y-57457466D01*
X127555258Y-57433548D01*
X127568806Y-57413272D01*
X127679816Y-57302262D01*
X127724035Y-57231888D01*
X132980243Y-57231888D01*
X133200703Y-57416877D01*
X133493449Y-57609418D01*
X133806572Y-57766674D01*
X134135837Y-57886517D01*
X134476780Y-57967322D01*
X134824801Y-58008000D01*
X135175199Y-58008000D01*
X135523219Y-57967322D01*
X135864162Y-57886517D01*
X136193427Y-57766674D01*
X136506550Y-57609418D01*
X136799296Y-57416877D01*
X137019755Y-57231888D01*
X137019755Y-57231887D01*
X135000000Y-55212132D01*
X132980243Y-57231887D01*
X132980243Y-57231888D01*
X127724035Y-57231888D01*
X127775789Y-57149522D01*
X127835368Y-56979255D01*
X127855565Y-56800000D01*
X127835368Y-56620745D01*
X127775789Y-56450478D01*
X127714085Y-56352276D01*
X127679816Y-56297737D01*
X127552262Y-56170183D01*
X127399524Y-56074212D01*
X127399523Y-56074211D01*
X127399522Y-56074211D01*
X127274695Y-56030532D01*
X127229253Y-56014631D01*
X127061032Y-55995678D01*
X127050000Y-55994435D01*
X127049999Y-55994435D01*
X126870746Y-56014631D01*
X126700475Y-56074212D01*
X126547737Y-56170183D01*
X126420183Y-56297737D01*
X126324212Y-56450475D01*
X126264631Y-56620746D01*
X126244435Y-56800000D01*
X126264631Y-56979253D01*
X126324212Y-57149524D01*
X126420183Y-57302262D01*
X126531194Y-57413272D01*
X126544742Y-57433548D01*
X126549500Y-57457466D01*
X126549500Y-58918419D01*
X126542794Y-58946585D01*
X126524114Y-58968706D01*
X126477850Y-59002850D01*
X126399233Y-59109373D01*
X126397207Y-59112118D01*
X126352354Y-59240301D01*
X126351013Y-59254596D01*
X126349500Y-59270735D01*
X126349500Y-59978930D01*
X126344742Y-60002848D01*
X126331194Y-60023124D01*
X125847445Y-60506871D01*
X125837438Y-60514998D01*
X125824330Y-60523562D01*
X125804153Y-60549485D01*
X125799034Y-60555282D01*
X125796625Y-60557691D01*
X125784709Y-60574380D01*
X125783168Y-60576447D01*
X125751681Y-60616904D01*
X125746132Y-60627681D01*
X125731509Y-60676798D01*
X125730722Y-60679255D01*
X125714073Y-60727752D01*
X125712328Y-60739729D01*
X125714447Y-60790950D01*
X125714500Y-60793533D01*
X125714500Y-61388930D01*
X125696194Y-61433124D01*
X125625801Y-61503517D01*
X125574427Y-61608605D01*
X125564500Y-61676740D01*
X125564500Y-63393260D01*
X124084000Y-63393260D01*
X124084000Y-60093162D01*
X124093788Y-60059581D01*
X124120087Y-60036518D01*
X124200404Y-59999065D01*
X124284065Y-59915404D01*
X124289365Y-59904039D01*
X124334068Y-59808173D01*
X124340500Y-59759316D01*
X124340500Y-59410684D01*
X124334068Y-59361827D01*
X124296468Y-59281194D01*
X124284065Y-59254595D01*
X124200404Y-59170934D01*
X124116145Y-59131644D01*
X124084475Y-59098075D01*
X124084475Y-59051925D01*
X124116145Y-59018356D01*
X124200404Y-58979065D01*
X124284065Y-58895404D01*
X124285895Y-58891480D01*
X124334068Y-58788173D01*
X124340500Y-58739316D01*
X124340500Y-58390684D01*
X124339883Y-58386000D01*
X124334068Y-58341828D01*
X124284065Y-58234595D01*
X124200404Y-58150934D01*
X124120087Y-58113482D01*
X124093788Y-58090419D01*
X124084000Y-58056838D01*
X124084000Y-57499142D01*
X124093482Y-57466046D01*
X124119047Y-57442994D01*
X124197511Y-57404636D01*
X124279636Y-57322511D01*
X124330645Y-57218170D01*
X124340500Y-57150528D01*
X124340500Y-56789472D01*
X124334976Y-56751557D01*
X124340438Y-56715585D01*
X124365009Y-56688750D01*
X124397454Y-56669562D01*
X124514563Y-56552453D01*
X124598870Y-56409900D01*
X124645076Y-56250857D01*
X124648000Y-56213707D01*
X124648000Y-56150000D01*
X122992001Y-56150000D01*
X122992001Y-56213708D01*
X122994923Y-56250857D01*
X123041129Y-56409900D01*
X123125436Y-56552453D01*
X123242546Y-56669563D01*
X123274991Y-56688751D01*
X123299561Y-56715585D01*
X123305023Y-56751557D01*
X123299500Y-56789470D01*
X123299500Y-57150528D01*
X123309355Y-57218170D01*
X123360363Y-57322510D01*
X123360364Y-57322511D01*
X123442489Y-57404636D01*
X123520952Y-57442994D01*
X123546518Y-57466046D01*
X123556000Y-57499142D01*
X123556000Y-58056838D01*
X123546212Y-58090419D01*
X123519913Y-58113482D01*
X123439595Y-58150934D01*
X123355934Y-58234595D01*
X123305931Y-58341828D01*
X123299500Y-58390681D01*
X123299500Y-58739319D01*
X123305931Y-58788171D01*
X123355934Y-58895404D01*
X123439595Y-58979065D01*
X123523854Y-59018356D01*
X123555524Y-59051925D01*
X123555524Y-59098075D01*
X123523854Y-59131644D01*
X123439595Y-59170934D01*
X123355934Y-59254595D01*
X123305931Y-59361828D01*
X123299500Y-59410681D01*
X123299500Y-59759319D01*
X123305931Y-59808171D01*
X123355934Y-59915404D01*
X123439595Y-59999065D01*
X123519913Y-60036518D01*
X123546212Y-60059581D01*
X123556000Y-60093162D01*
X123556000Y-63787843D01*
X123554799Y-63800035D01*
X123550827Y-63819999D01*
X123556000Y-63846003D01*
X123571157Y-63922208D01*
X123571317Y-63923008D01*
X123624416Y-64002474D01*
X123629667Y-64010333D01*
X123646591Y-64021641D01*
X123656062Y-64029414D01*
X124255953Y-64629306D01*
X124274259Y-64673500D01*
X124255953Y-64717694D01*
X124211759Y-64736000D01*
X123335240Y-64736000D01*
X123291046Y-64717694D01*
X121562306Y-62988954D01*
X121544000Y-62944760D01*
X121544000Y-60093162D01*
X121553788Y-60059581D01*
X121580087Y-60036518D01*
X121660404Y-59999065D01*
X121744065Y-59915404D01*
X121749365Y-59904039D01*
X121794068Y-59808173D01*
X121800500Y-59759316D01*
X121800500Y-59410684D01*
X121794068Y-59361827D01*
X121756468Y-59281194D01*
X121744065Y-59254595D01*
X121660404Y-59170934D01*
X121576145Y-59131644D01*
X121544475Y-59098075D01*
X121544475Y-59051925D01*
X121576145Y-59018356D01*
X121660404Y-58979065D01*
X121744065Y-58895404D01*
X121745895Y-58891480D01*
X121794068Y-58788173D01*
X121800500Y-58739316D01*
X121800500Y-58390684D01*
X121799883Y-58386000D01*
X121794068Y-58341828D01*
X121744065Y-58234595D01*
X121660404Y-58150934D01*
X121580087Y-58113482D01*
X121553788Y-58090419D01*
X121544000Y-58056838D01*
X121544000Y-57499142D01*
X121553482Y-57466046D01*
X121579047Y-57442994D01*
X121657511Y-57404636D01*
X121739636Y-57322511D01*
X121790645Y-57218170D01*
X121800500Y-57150528D01*
X121800500Y-56789472D01*
X121794976Y-56751557D01*
X121800438Y-56715585D01*
X121825009Y-56688750D01*
X121857454Y-56669562D01*
X121974563Y-56552453D01*
X122058870Y-56409900D01*
X122105076Y-56250857D01*
X122108000Y-56213707D01*
X122108000Y-56150000D01*
X120452001Y-56150000D01*
X120452001Y-56213708D01*
X120454923Y-56250857D01*
X120501129Y-56409900D01*
X120585436Y-56552453D01*
X120702546Y-56669563D01*
X120734991Y-56688751D01*
X120759561Y-56715585D01*
X120765023Y-56751557D01*
X120759500Y-56789470D01*
X120759500Y-57150528D01*
X120769355Y-57218170D01*
X120820363Y-57322510D01*
X120820364Y-57322511D01*
X120902489Y-57404636D01*
X120980952Y-57442994D01*
X121006518Y-57466046D01*
X121016000Y-57499142D01*
X121016000Y-58056838D01*
X121006212Y-58090419D01*
X120979913Y-58113482D01*
X120899595Y-58150934D01*
X120815934Y-58234595D01*
X120765931Y-58341828D01*
X120759500Y-58390681D01*
X120759500Y-58739319D01*
X120765931Y-58788171D01*
X120815934Y-58895404D01*
X120899595Y-58979065D01*
X120983854Y-59018356D01*
X121015524Y-59051925D01*
X121015524Y-59098075D01*
X120983854Y-59131644D01*
X120899595Y-59170934D01*
X120815934Y-59254595D01*
X120765931Y-59361828D01*
X120759500Y-59410681D01*
X120759500Y-59759319D01*
X120765931Y-59808171D01*
X120815934Y-59915404D01*
X120899595Y-59999065D01*
X120979913Y-60036518D01*
X121006212Y-60059581D01*
X121016000Y-60093162D01*
X121016000Y-63047843D01*
X121014799Y-63060035D01*
X121008403Y-63092192D01*
X121007572Y-63092026D01*
X121004932Y-63113422D01*
X120977894Y-63141817D01*
X120939263Y-63148518D01*
X120904241Y-63130889D01*
X119022306Y-61248954D01*
X119004000Y-61204760D01*
X119004000Y-60093162D01*
X119013788Y-60059581D01*
X119040087Y-60036518D01*
X119120404Y-59999065D01*
X119204065Y-59915404D01*
X119209365Y-59904039D01*
X119254068Y-59808173D01*
X119260500Y-59759316D01*
X119260500Y-59410684D01*
X119254068Y-59361827D01*
X119216468Y-59281194D01*
X119204065Y-59254595D01*
X119120404Y-59170934D01*
X119036145Y-59131644D01*
X119004475Y-59098075D01*
X119004475Y-59051925D01*
X119036145Y-59018356D01*
X119120404Y-58979065D01*
X119204065Y-58895404D01*
X119205895Y-58891480D01*
X119254068Y-58788173D01*
X119260500Y-58739316D01*
X119260500Y-58390684D01*
X119259883Y-58386000D01*
X119254068Y-58341828D01*
X119204065Y-58234595D01*
X119120404Y-58150934D01*
X119040087Y-58113482D01*
X119013788Y-58090419D01*
X119004000Y-58056838D01*
X119004000Y-57499142D01*
X119013482Y-57466046D01*
X119039047Y-57442994D01*
X119117511Y-57404636D01*
X119199636Y-57322511D01*
X119250645Y-57218170D01*
X119260500Y-57150528D01*
X119260500Y-56789472D01*
X119254976Y-56751557D01*
X119260438Y-56715585D01*
X119285009Y-56688750D01*
X119317454Y-56669562D01*
X119434563Y-56552453D01*
X119518870Y-56409900D01*
X119565076Y-56250857D01*
X119568000Y-56213707D01*
X119568000Y-56150000D01*
X117912001Y-56150000D01*
X117912001Y-56213708D01*
X117914923Y-56250857D01*
X117961129Y-56409900D01*
X118045436Y-56552453D01*
X118162546Y-56669563D01*
X118194991Y-56688751D01*
X118219561Y-56715585D01*
X118225023Y-56751557D01*
X118219500Y-56789470D01*
X118219500Y-57150528D01*
X118229355Y-57218170D01*
X118280363Y-57322510D01*
X118280364Y-57322511D01*
X118362489Y-57404636D01*
X118440952Y-57442994D01*
X118466518Y-57466046D01*
X118476000Y-57499142D01*
X118476000Y-58056838D01*
X118466212Y-58090419D01*
X118439913Y-58113482D01*
X118359595Y-58150934D01*
X118275934Y-58234595D01*
X118225931Y-58341828D01*
X118219500Y-58390681D01*
X118219500Y-58739319D01*
X118225931Y-58788171D01*
X118275934Y-58895404D01*
X118359595Y-58979065D01*
X118443854Y-59018356D01*
X118475524Y-59051925D01*
X118475524Y-59098075D01*
X118443854Y-59131644D01*
X118359595Y-59170934D01*
X118275934Y-59254595D01*
X118225931Y-59361828D01*
X118219500Y-59410681D01*
X118219500Y-59759319D01*
X118225931Y-59808171D01*
X118275934Y-59915404D01*
X118359595Y-59999065D01*
X118439913Y-60036518D01*
X118466212Y-60059581D01*
X118476000Y-60093162D01*
X118476000Y-61307843D01*
X118474799Y-61320037D01*
X118470001Y-61344156D01*
X118446749Y-61381547D01*
X118404614Y-61394328D01*
X118364508Y-61376156D01*
X116738806Y-59750454D01*
X116720500Y-59706260D01*
X116720500Y-59410681D01*
X116714068Y-59361828D01*
X116707250Y-59347207D01*
X116676468Y-59281194D01*
X116664065Y-59254595D01*
X116580404Y-59170934D01*
X116496145Y-59131644D01*
X116464475Y-59098075D01*
X116464475Y-59051925D01*
X116496145Y-59018356D01*
X116580404Y-58979065D01*
X116664065Y-58895404D01*
X116665895Y-58891480D01*
X116714068Y-58788173D01*
X116720500Y-58739316D01*
X116720500Y-58390684D01*
X116719883Y-58386000D01*
X116714068Y-58341828D01*
X116664065Y-58234595D01*
X116580404Y-58150934D01*
X116500087Y-58113482D01*
X116473788Y-58090419D01*
X116464000Y-58056838D01*
X116464000Y-57529142D01*
X116473482Y-57496046D01*
X116499047Y-57472994D01*
X116577511Y-57434636D01*
X116659636Y-57352511D01*
X116710645Y-57248170D01*
X116720500Y-57180528D01*
X116720500Y-56819472D01*
X116714976Y-56781557D01*
X116720438Y-56745585D01*
X116745009Y-56718750D01*
X116777454Y-56699562D01*
X116894563Y-56582453D01*
X116978870Y-56439900D01*
X117025076Y-56280857D01*
X117028000Y-56243707D01*
X117028000Y-56180000D01*
X115372001Y-56180000D01*
X115372001Y-56243708D01*
X115374923Y-56280857D01*
X115421129Y-56439900D01*
X115505436Y-56582453D01*
X115622546Y-56699563D01*
X115654991Y-56718751D01*
X115679561Y-56745585D01*
X115685023Y-56781557D01*
X115679500Y-56819470D01*
X115679500Y-57180528D01*
X115689355Y-57248170D01*
X115740363Y-57352510D01*
X115740364Y-57352511D01*
X115822489Y-57434636D01*
X115900952Y-57472994D01*
X115926518Y-57496046D01*
X115936000Y-57529142D01*
X115936000Y-58056838D01*
X115926212Y-58090419D01*
X115899913Y-58113482D01*
X115819595Y-58150934D01*
X115735934Y-58234595D01*
X115685931Y-58341828D01*
X115679500Y-58390681D01*
X115679500Y-58739319D01*
X115685931Y-58788171D01*
X115735934Y-58895404D01*
X115819595Y-58979065D01*
X115903854Y-59018356D01*
X115935524Y-59051925D01*
X115935524Y-59098075D01*
X115903854Y-59131644D01*
X115819595Y-59170934D01*
X115735934Y-59254595D01*
X115685931Y-59361828D01*
X115679500Y-59410681D01*
X115679500Y-59759319D01*
X115685931Y-59808171D01*
X115735934Y-59915404D01*
X115819595Y-59999065D01*
X115833284Y-60005448D01*
X115926827Y-60049068D01*
X115936003Y-60050276D01*
X115975681Y-60055500D01*
X115975684Y-60055500D01*
X116271260Y-60055500D01*
X116315454Y-60073806D01*
X122205585Y-65963937D01*
X122213357Y-65973406D01*
X122224667Y-65990333D01*
X122311992Y-66048683D01*
X122367667Y-66059757D01*
X122395030Y-66065200D01*
X122395040Y-66065201D01*
X122415000Y-66069171D01*
X122434960Y-66065201D01*
X122447152Y-66064000D01*
X127864760Y-66064000D01*
X127908954Y-66082306D01*
X128178789Y-66352141D01*
X128197095Y-66396334D01*
X128178790Y-66440528D01*
X128165801Y-66453516D01*
X128114427Y-66558605D01*
X128104500Y-66626740D01*
X128104500Y-68020037D01*
X128086194Y-68064231D01*
X128042000Y-68082537D01*
X127997806Y-68064231D01*
X127853806Y-67920231D01*
X127835500Y-67876037D01*
X127835500Y-66626740D01*
X127830662Y-66593538D01*
X127825573Y-66558607D01*
X127774198Y-66453517D01*
X127691483Y-66370802D01*
X127691482Y-66370801D01*
X127586394Y-66319427D01*
X127518260Y-66309500D01*
X127151740Y-66309500D01*
X127083605Y-66319427D01*
X126978517Y-66370801D01*
X126895801Y-66453517D01*
X126844427Y-66558605D01*
X126834500Y-66626740D01*
X126834500Y-67158500D01*
X126816194Y-67202694D01*
X126772000Y-67221000D01*
X126628000Y-67221000D01*
X126583806Y-67202694D01*
X126565500Y-67158500D01*
X126565500Y-66626740D01*
X126560662Y-66593538D01*
X126555573Y-66558607D01*
X126504198Y-66453517D01*
X126421483Y-66370802D01*
X126421482Y-66370801D01*
X126316394Y-66319427D01*
X126248260Y-66309500D01*
X125881740Y-66309500D01*
X125813605Y-66319427D01*
X125708517Y-66370801D01*
X125625801Y-66453517D01*
X125574427Y-66558605D01*
X125564500Y-66626740D01*
X125564500Y-68286259D01*
X125546194Y-68330453D01*
X119738954Y-74137694D01*
X119718678Y-74151242D01*
X119694760Y-74156000D01*
X118598424Y-74156000D01*
X118565328Y-74146518D01*
X118542275Y-74120950D01*
X118514198Y-74063517D01*
X118431483Y-73980802D01*
X118431482Y-73980801D01*
X118326394Y-73929427D01*
X118258260Y-73919500D01*
X116775160Y-73919500D01*
X116730966Y-73901194D01*
X116712660Y-73857000D01*
X116730966Y-73812806D01*
X116874966Y-73668806D01*
X116919160Y-73650500D01*
X118258260Y-73650500D01*
X118326393Y-73640573D01*
X118431483Y-73589198D01*
X118514198Y-73506483D01*
X118565573Y-73401393D01*
X118575500Y-73333260D01*
X118575500Y-72966740D01*
X118565573Y-72898607D01*
X118514198Y-72793517D01*
X118431483Y-72710802D01*
X118431482Y-72710801D01*
X118326394Y-72659427D01*
X118258260Y-72649500D01*
X116541740Y-72649500D01*
X116473605Y-72659427D01*
X116368517Y-72710801D01*
X116285801Y-72793517D01*
X116234427Y-72898605D01*
X116224500Y-72966740D01*
X116224500Y-73333260D01*
X116234427Y-73401394D01*
X116267773Y-73469604D01*
X116273272Y-73507341D01*
X116255818Y-73541248D01*
X114594938Y-75202128D01*
X114544410Y-75277749D01*
X114543274Y-75276990D01*
X114535944Y-75290702D01*
X110908954Y-78917694D01*
X110888678Y-78931242D01*
X110864760Y-78936000D01*
X107641298Y-78936000D01*
X107597104Y-78917694D01*
X107578798Y-78873500D01*
X107597104Y-78829306D01*
X107656090Y-78770319D01*
X107739431Y-78629397D01*
X107785109Y-78472175D01*
X107788000Y-78435445D01*
X107788000Y-78350000D01*
X106912500Y-78350000D01*
X106868306Y-78331694D01*
X106850000Y-78287500D01*
X106850000Y-77382000D01*
X107150000Y-77382000D01*
X107150000Y-78050000D01*
X107788000Y-78050000D01*
X107788000Y-77964555D01*
X107785109Y-77927824D01*
X107739431Y-77770602D01*
X107656090Y-77629680D01*
X107540319Y-77513909D01*
X107399397Y-77430568D01*
X107242175Y-77384890D01*
X107205445Y-77382000D01*
X107150000Y-77382000D01*
X106850000Y-77382000D01*
X106794555Y-77382000D01*
X106757824Y-77384890D01*
X106600602Y-77430568D01*
X106459680Y-77513909D01*
X106410694Y-77562896D01*
X106366500Y-77581202D01*
X106322306Y-77562896D01*
X106304000Y-77518702D01*
X106304000Y-76268181D01*
X106313788Y-76234600D01*
X106340086Y-76211537D01*
X106370404Y-76197399D01*
X106454065Y-76113738D01*
X106493356Y-76029479D01*
X106526925Y-75997809D01*
X106573075Y-75997809D01*
X106606644Y-76029479D01*
X106645934Y-76113738D01*
X106729595Y-76197399D01*
X106773118Y-76217694D01*
X106836827Y-76247402D01*
X106849041Y-76249010D01*
X106885681Y-76253834D01*
X106885684Y-76253834D01*
X107234316Y-76253834D01*
X107234319Y-76253834D01*
X107263630Y-76249974D01*
X107283173Y-76247402D01*
X107390404Y-76197399D01*
X107474065Y-76113738D01*
X107511517Y-76033421D01*
X107534581Y-76007122D01*
X107568162Y-75997334D01*
X107604116Y-75997334D01*
X107630079Y-76002982D01*
X107651350Y-76018905D01*
X107701950Y-76077301D01*
X107810931Y-76147338D01*
X107935227Y-76183834D01*
X107935228Y-76183834D01*
X108064772Y-76183834D01*
X108064773Y-76183834D01*
X108148697Y-76159192D01*
X108189069Y-76147338D01*
X108298049Y-76077301D01*
X108382882Y-75979397D01*
X108436697Y-75861560D01*
X108455133Y-75733334D01*
X108436697Y-75605108D01*
X108382882Y-75487271D01*
X108298049Y-75389367D01*
X108298048Y-75389366D01*
X108189068Y-75319329D01*
X108064773Y-75282834D01*
X108064772Y-75282834D01*
X107935228Y-75282834D01*
X107935227Y-75282834D01*
X107810931Y-75319329D01*
X107701950Y-75389366D01*
X107651350Y-75447763D01*
X107630079Y-75463686D01*
X107604116Y-75469334D01*
X107568162Y-75469334D01*
X107534581Y-75459546D01*
X107511518Y-75433247D01*
X107474065Y-75352929D01*
X107390404Y-75269268D01*
X107283171Y-75219265D01*
X107234319Y-75212834D01*
X107234316Y-75212834D01*
X107084741Y-75212834D01*
X107040547Y-75194528D01*
X107022241Y-75150334D01*
X107040547Y-75106140D01*
X107064381Y-75082306D01*
X107108575Y-75064000D01*
X108767843Y-75064000D01*
X108780035Y-75065201D01*
X108783923Y-75065974D01*
X108800000Y-75069172D01*
X108903008Y-75048683D01*
X108968290Y-75005062D01*
X108981306Y-74996365D01*
X108981307Y-74996363D01*
X108990333Y-74990333D01*
X109001646Y-74973399D01*
X109009410Y-74963940D01*
X109403350Y-74570000D01*
X110967001Y-74570000D01*
X110967001Y-74636462D01*
X110969934Y-74673751D01*
X111016317Y-74833400D01*
X111100944Y-74976497D01*
X111218502Y-75094055D01*
X111361599Y-75178682D01*
X111521247Y-75225065D01*
X111558538Y-75228000D01*
X112300000Y-75228000D01*
X112300000Y-74570000D01*
X112600000Y-74570000D01*
X112600000Y-75227999D01*
X113341462Y-75227999D01*
X113378751Y-75225065D01*
X113538400Y-75178682D01*
X113681497Y-75094055D01*
X113799055Y-74976497D01*
X113883682Y-74833400D01*
X113930065Y-74673752D01*
X113933000Y-74636462D01*
X113933000Y-74570000D01*
X112600000Y-74570000D01*
X112300000Y-74570000D01*
X110967001Y-74570000D01*
X109403350Y-74570000D01*
X111220136Y-72753216D01*
X111259168Y-72735124D01*
X111300646Y-72746545D01*
X111324916Y-72782068D01*
X111320479Y-72824860D01*
X111284426Y-72898606D01*
X111274500Y-72966740D01*
X111274500Y-73333260D01*
X111284427Y-73401394D01*
X111335801Y-73506482D01*
X111386860Y-73557541D01*
X111404889Y-73595853D01*
X111394359Y-73636864D01*
X111367745Y-73656200D01*
X111368396Y-73657300D01*
X111218499Y-73745947D01*
X111100944Y-73863502D01*
X111016317Y-74006599D01*
X110969934Y-74166247D01*
X110967000Y-74203538D01*
X110967000Y-74270000D01*
X113932999Y-74270000D01*
X113932999Y-74203538D01*
X113930065Y-74166248D01*
X113883682Y-74006599D01*
X113799055Y-73863502D01*
X113681497Y-73745944D01*
X113531604Y-73657298D01*
X113532253Y-73656199D01*
X113505641Y-73636863D01*
X113495111Y-73595851D01*
X113513138Y-73557542D01*
X113564198Y-73506483D01*
X113592275Y-73449049D01*
X113615328Y-73423482D01*
X113648424Y-73414000D01*
X113917843Y-73414000D01*
X113930035Y-73415201D01*
X113933923Y-73415974D01*
X113950000Y-73419172D01*
X114053008Y-73398683D01*
X114118290Y-73355062D01*
X114131306Y-73346365D01*
X114131307Y-73346363D01*
X114140333Y-73340333D01*
X114151646Y-73323399D01*
X114159410Y-73313940D01*
X114954544Y-72518806D01*
X114998739Y-72500500D01*
X115114773Y-72500500D01*
X115176920Y-72482251D01*
X115239069Y-72464004D01*
X115348049Y-72393967D01*
X115432882Y-72296063D01*
X115486697Y-72178226D01*
X115503227Y-72063260D01*
X116224500Y-72063260D01*
X116234427Y-72131394D01*
X116285801Y-72236482D01*
X116285802Y-72236483D01*
X116368517Y-72319198D01*
X116473607Y-72370573D01*
X116541740Y-72380500D01*
X118258260Y-72380500D01*
X118326393Y-72370573D01*
X118431483Y-72319198D01*
X118514198Y-72236483D01*
X118542275Y-72179049D01*
X118565328Y-72153482D01*
X118598424Y-72144000D01*
X119454116Y-72144000D01*
X119480079Y-72149648D01*
X119501350Y-72165571D01*
X119551950Y-72223967D01*
X119660931Y-72294004D01*
X119785227Y-72330500D01*
X119785228Y-72330500D01*
X119914772Y-72330500D01*
X119914773Y-72330500D01*
X119976920Y-72312251D01*
X120039069Y-72294004D01*
X120148049Y-72223967D01*
X120232882Y-72126063D01*
X120286697Y-72008226D01*
X120305133Y-71880000D01*
X120286697Y-71751774D01*
X120232882Y-71633937D01*
X120148049Y-71536033D01*
X120148048Y-71536032D01*
X120039068Y-71465995D01*
X119914773Y-71429500D01*
X119914772Y-71429500D01*
X119785228Y-71429500D01*
X119785227Y-71429500D01*
X119660931Y-71465995D01*
X119551950Y-71536032D01*
X119501350Y-71594429D01*
X119480079Y-71610352D01*
X119454116Y-71616000D01*
X118598424Y-71616000D01*
X118565328Y-71606518D01*
X118542275Y-71580950D01*
X118514198Y-71523517D01*
X118431483Y-71440802D01*
X118431482Y-71440801D01*
X118326394Y-71389427D01*
X118258260Y-71379500D01*
X116541740Y-71379500D01*
X116473605Y-71389427D01*
X116368517Y-71440801D01*
X116285801Y-71523517D01*
X116234427Y-71628605D01*
X116224500Y-71696740D01*
X116224500Y-72063260D01*
X115503227Y-72063260D01*
X115505133Y-72050000D01*
X115486697Y-71921774D01*
X115432882Y-71803937D01*
X115348049Y-71706033D01*
X115348048Y-71706032D01*
X115239068Y-71635995D01*
X115114773Y-71599500D01*
X115114772Y-71599500D01*
X114985228Y-71599500D01*
X114985227Y-71599500D01*
X114860931Y-71635995D01*
X114751951Y-71706032D01*
X114667118Y-71803936D01*
X114613303Y-71921774D01*
X114594866Y-72050000D01*
X114600694Y-72090534D01*
X114598132Y-72119166D01*
X114583024Y-72143622D01*
X113858954Y-72867694D01*
X113838678Y-72881242D01*
X113814760Y-72886000D01*
X113648424Y-72886000D01*
X113615328Y-72876518D01*
X113592275Y-72850950D01*
X113564198Y-72793517D01*
X113481483Y-72710802D01*
X113481482Y-72710801D01*
X113376394Y-72659427D01*
X113308260Y-72649500D01*
X111591740Y-72649500D01*
X111523606Y-72659426D01*
X111449860Y-72695479D01*
X111407068Y-72699916D01*
X111371545Y-72675646D01*
X111360124Y-72634168D01*
X111378216Y-72595136D01*
X111574546Y-72398806D01*
X111618741Y-72380500D01*
X113308260Y-72380500D01*
X113376393Y-72370573D01*
X113481483Y-72319198D01*
X113564198Y-72236483D01*
X113615573Y-72131393D01*
X113625500Y-72063260D01*
X113625500Y-71696740D01*
X113615573Y-71628607D01*
X113564198Y-71523517D01*
X113481483Y-71440802D01*
X113481482Y-71440801D01*
X113376394Y-71389427D01*
X113308260Y-71379500D01*
X111591740Y-71379500D01*
X111523605Y-71389427D01*
X111418517Y-71440801D01*
X111335801Y-71523517D01*
X111284427Y-71628605D01*
X111274500Y-71696740D01*
X111274500Y-71926259D01*
X111256194Y-71970453D01*
X108708954Y-74517694D01*
X108688678Y-74531242D01*
X108664760Y-74536000D01*
X107785961Y-74536000D01*
X107745620Y-74521237D01*
X107724336Y-74483923D01*
X107732164Y-74441685D01*
X107739432Y-74429394D01*
X107785109Y-74272175D01*
X107788000Y-74235445D01*
X107788000Y-74150000D01*
X106912500Y-74150000D01*
X106868306Y-74131694D01*
X106850000Y-74087500D01*
X106850000Y-73182000D01*
X107150000Y-73182000D01*
X107150000Y-73850000D01*
X107788000Y-73850000D01*
X107788000Y-73764555D01*
X107785109Y-73727824D01*
X107739431Y-73570602D01*
X107656090Y-73429680D01*
X107540319Y-73313909D01*
X107399397Y-73230568D01*
X107242175Y-73184890D01*
X107205445Y-73182000D01*
X107150000Y-73182000D01*
X106850000Y-73182000D01*
X106794555Y-73182000D01*
X106757824Y-73184890D01*
X106600602Y-73230568D01*
X106459680Y-73313909D01*
X106410694Y-73362896D01*
X106366500Y-73381202D01*
X106322306Y-73362896D01*
X106304000Y-73318702D01*
X106304000Y-72101515D01*
X106313788Y-72067934D01*
X106340086Y-72044871D01*
X106370404Y-72030733D01*
X106454065Y-71947072D01*
X106493356Y-71862813D01*
X106526925Y-71831143D01*
X106573075Y-71831143D01*
X106606644Y-71862813D01*
X106645934Y-71947072D01*
X106729595Y-72030733D01*
X106770914Y-72050000D01*
X106836827Y-72080736D01*
X106849041Y-72082343D01*
X106885681Y-72087168D01*
X106885684Y-72087168D01*
X107234316Y-72087168D01*
X107234319Y-72087168D01*
X107263630Y-72083308D01*
X107283173Y-72080736D01*
X107390404Y-72030733D01*
X107474065Y-71947072D01*
X107485862Y-71921774D01*
X107495975Y-71900087D01*
X107519038Y-71873788D01*
X107552619Y-71864000D01*
X107604116Y-71864000D01*
X107630079Y-71869648D01*
X107651350Y-71885571D01*
X107701950Y-71943967D01*
X107810931Y-72014004D01*
X107935227Y-72050500D01*
X107935228Y-72050500D01*
X108064772Y-72050500D01*
X108064773Y-72050500D01*
X108177145Y-72017505D01*
X108189069Y-72014004D01*
X108298049Y-71943967D01*
X108382882Y-71846063D01*
X108436697Y-71728226D01*
X108455133Y-71600000D01*
X108436697Y-71471774D01*
X108382882Y-71353937D01*
X108298049Y-71256033D01*
X108298048Y-71256032D01*
X108181509Y-71181137D01*
X108182173Y-71180102D01*
X108155708Y-71160291D01*
X108146422Y-71117606D01*
X108167357Y-71079266D01*
X108208286Y-71064000D01*
X110578263Y-71064000D01*
X110590455Y-71065201D01*
X110594343Y-71065974D01*
X110610420Y-71069172D01*
X110713428Y-71048683D01*
X110778710Y-71005062D01*
X110791726Y-70996365D01*
X110791727Y-70996363D01*
X110800753Y-70990333D01*
X110812066Y-70973399D01*
X110819830Y-70963940D01*
X111167805Y-70615966D01*
X111212000Y-70597660D01*
X111256194Y-70615966D01*
X111274500Y-70660160D01*
X111274500Y-70793260D01*
X111284427Y-70861394D01*
X111335801Y-70966482D01*
X111335802Y-70966482D01*
X111335802Y-70966483D01*
X111418517Y-71049198D01*
X111523607Y-71100573D01*
X111591740Y-71110500D01*
X113308260Y-71110500D01*
X113376393Y-71100573D01*
X113481483Y-71049198D01*
X113564198Y-70966483D01*
X113592275Y-70909049D01*
X113615328Y-70883482D01*
X113648424Y-70874000D01*
X116201576Y-70874000D01*
X116234672Y-70883482D01*
X116257724Y-70909049D01*
X116285802Y-70966483D01*
X116368517Y-71049198D01*
X116473607Y-71100573D01*
X116541740Y-71110500D01*
X118258260Y-71110500D01*
X118326393Y-71100573D01*
X118431483Y-71049198D01*
X118514198Y-70966483D01*
X118542275Y-70909049D01*
X118565328Y-70883482D01*
X118598424Y-70874000D01*
X119462781Y-70874000D01*
X119488744Y-70879648D01*
X119510015Y-70895571D01*
X119551950Y-70943967D01*
X119660931Y-71014004D01*
X119785227Y-71050500D01*
X119785228Y-71050500D01*
X119914772Y-71050500D01*
X119914773Y-71050500D01*
X119991872Y-71027862D01*
X120039069Y-71014004D01*
X120148049Y-70943967D01*
X120232882Y-70846063D01*
X120286697Y-70728226D01*
X120305133Y-70600000D01*
X120286697Y-70471774D01*
X120232882Y-70353937D01*
X120148049Y-70256033D01*
X120148048Y-70256032D01*
X120039068Y-70185995D01*
X119914773Y-70149500D01*
X119914772Y-70149500D01*
X119785228Y-70149500D01*
X119785227Y-70149500D01*
X119660931Y-70185995D01*
X119551950Y-70256032D01*
X119492685Y-70324429D01*
X119471414Y-70340352D01*
X119445451Y-70346000D01*
X118598424Y-70346000D01*
X118565328Y-70336518D01*
X118542275Y-70310950D01*
X118514198Y-70253517D01*
X118431483Y-70170802D01*
X118431482Y-70170801D01*
X118326394Y-70119427D01*
X118258260Y-70109500D01*
X116541740Y-70109500D01*
X116473605Y-70119427D01*
X116368517Y-70170801D01*
X116285802Y-70253516D01*
X116285801Y-70253517D01*
X116285802Y-70253517D01*
X116257724Y-70310950D01*
X116234672Y-70336518D01*
X116201576Y-70346000D01*
X113648424Y-70346000D01*
X113615328Y-70336518D01*
X113592275Y-70310950D01*
X113564198Y-70253517D01*
X113481483Y-70170802D01*
X113481482Y-70170801D01*
X113376394Y-70119427D01*
X113308260Y-70109500D01*
X111825161Y-70109500D01*
X111780967Y-70091194D01*
X111762661Y-70047000D01*
X111780967Y-70002806D01*
X111924967Y-69858806D01*
X111969161Y-69840500D01*
X113308260Y-69840500D01*
X113376393Y-69830573D01*
X113481483Y-69779198D01*
X113564198Y-69696483D01*
X113615573Y-69591393D01*
X113625500Y-69523260D01*
X116224500Y-69523260D01*
X116234427Y-69591394D01*
X116285801Y-69696482D01*
X116285802Y-69696482D01*
X116285802Y-69696483D01*
X116368517Y-69779198D01*
X116473607Y-69830573D01*
X116541740Y-69840500D01*
X118258260Y-69840500D01*
X118326393Y-69830573D01*
X118431483Y-69779198D01*
X118514198Y-69696483D01*
X118542275Y-69639049D01*
X118565328Y-69613482D01*
X118598424Y-69604000D01*
X119454116Y-69604000D01*
X119480079Y-69609648D01*
X119501350Y-69625571D01*
X119551950Y-69683967D01*
X119660931Y-69754004D01*
X119785227Y-69790500D01*
X119785228Y-69790500D01*
X119914772Y-69790500D01*
X119914773Y-69790500D01*
X119976920Y-69772251D01*
X120039069Y-69754004D01*
X120148049Y-69683967D01*
X120232882Y-69586063D01*
X120286697Y-69468226D01*
X120305133Y-69340000D01*
X120286697Y-69211774D01*
X120232882Y-69093937D01*
X120148049Y-68996033D01*
X120148048Y-68996032D01*
X120039068Y-68925995D01*
X119914773Y-68889500D01*
X119914772Y-68889500D01*
X119785228Y-68889500D01*
X119785227Y-68889500D01*
X119660931Y-68925995D01*
X119551950Y-68996032D01*
X119501350Y-69054429D01*
X119480079Y-69070352D01*
X119454116Y-69076000D01*
X118598424Y-69076000D01*
X118565328Y-69066518D01*
X118542275Y-69040950D01*
X118514198Y-68983517D01*
X118431483Y-68900802D01*
X118431482Y-68900801D01*
X118326394Y-68849427D01*
X118258260Y-68839500D01*
X116541740Y-68839500D01*
X116473605Y-68849427D01*
X116368517Y-68900801D01*
X116285801Y-68983517D01*
X116234427Y-69088605D01*
X116224500Y-69156740D01*
X116224500Y-69523260D01*
X113625500Y-69523260D01*
X113625500Y-69156740D01*
X113615573Y-69088607D01*
X113564198Y-68983517D01*
X113481483Y-68900802D01*
X113481482Y-68900801D01*
X113376394Y-68849427D01*
X113308260Y-68839500D01*
X111591740Y-68839500D01*
X111523605Y-68849427D01*
X111418517Y-68900801D01*
X111335801Y-68983517D01*
X111284427Y-69088605D01*
X111274500Y-69156740D01*
X111274500Y-69523260D01*
X111284427Y-69591394D01*
X111317773Y-69659604D01*
X111323272Y-69697341D01*
X111305818Y-69731248D01*
X110519374Y-70517694D01*
X110499098Y-70531242D01*
X110475180Y-70536000D01*
X107641298Y-70536000D01*
X107597104Y-70517694D01*
X107578798Y-70473500D01*
X107597104Y-70429306D01*
X107656090Y-70370319D01*
X107739431Y-70229397D01*
X107785109Y-70072175D01*
X107788000Y-70035445D01*
X107788000Y-69950000D01*
X106912500Y-69950000D01*
X106868306Y-69931694D01*
X106850000Y-69887500D01*
X106850000Y-68982000D01*
X107150000Y-68982000D01*
X107150000Y-69650000D01*
X107788000Y-69650000D01*
X107788000Y-69564555D01*
X107785109Y-69527824D01*
X107739431Y-69370602D01*
X107656090Y-69229680D01*
X107540319Y-69113909D01*
X107399397Y-69030568D01*
X107242175Y-68984890D01*
X107205445Y-68982000D01*
X107150000Y-68982000D01*
X106850000Y-68982000D01*
X106794555Y-68982000D01*
X106757824Y-68984890D01*
X106600602Y-69030568D01*
X106459680Y-69113909D01*
X106410694Y-69162896D01*
X106366500Y-69181202D01*
X106322306Y-69162896D01*
X106304000Y-69118702D01*
X106304000Y-68253260D01*
X111274500Y-68253260D01*
X111284427Y-68321394D01*
X111335801Y-68426482D01*
X111335802Y-68426483D01*
X111418517Y-68509198D01*
X111523607Y-68560573D01*
X111591740Y-68570500D01*
X113308260Y-68570500D01*
X113376393Y-68560573D01*
X113481483Y-68509198D01*
X113564198Y-68426483D01*
X113592275Y-68369049D01*
X113615328Y-68343482D01*
X113648424Y-68334000D01*
X116201576Y-68334000D01*
X116234672Y-68343482D01*
X116257724Y-68369049D01*
X116285802Y-68426483D01*
X116368517Y-68509198D01*
X116473607Y-68560573D01*
X116541740Y-68570500D01*
X118258260Y-68570500D01*
X118326393Y-68560573D01*
X118431483Y-68509198D01*
X118514198Y-68426483D01*
X118542275Y-68369049D01*
X118565328Y-68343482D01*
X118598424Y-68334000D01*
X119454116Y-68334000D01*
X119480079Y-68339648D01*
X119501350Y-68355571D01*
X119551950Y-68413967D01*
X119660931Y-68484004D01*
X119785227Y-68520500D01*
X119785228Y-68520500D01*
X119914772Y-68520500D01*
X119914773Y-68520500D01*
X119976920Y-68502252D01*
X120039069Y-68484004D01*
X120148049Y-68413967D01*
X120232882Y-68316063D01*
X120286697Y-68198226D01*
X120305133Y-68070000D01*
X120286697Y-67941774D01*
X120232882Y-67823937D01*
X120148049Y-67726033D01*
X120148048Y-67726032D01*
X120039068Y-67655995D01*
X119914773Y-67619500D01*
X119914772Y-67619500D01*
X119785228Y-67619500D01*
X119785227Y-67619500D01*
X119660931Y-67655995D01*
X119551950Y-67726032D01*
X119501350Y-67784429D01*
X119480079Y-67800352D01*
X119454116Y-67806000D01*
X118598424Y-67806000D01*
X118565328Y-67796518D01*
X118542275Y-67770950D01*
X118514198Y-67713517D01*
X118431483Y-67630802D01*
X118431482Y-67630801D01*
X118326394Y-67579427D01*
X118258260Y-67569500D01*
X116541740Y-67569500D01*
X116473605Y-67579427D01*
X116368517Y-67630801D01*
X116285802Y-67713516D01*
X116285801Y-67713517D01*
X116285802Y-67713517D01*
X116257724Y-67770950D01*
X116234672Y-67796518D01*
X116201576Y-67806000D01*
X113648424Y-67806000D01*
X113615328Y-67796518D01*
X113592275Y-67770950D01*
X113564198Y-67713517D01*
X113481483Y-67630802D01*
X113481482Y-67630801D01*
X113376394Y-67579427D01*
X113308260Y-67569500D01*
X111591740Y-67569500D01*
X111523605Y-67579427D01*
X111418517Y-67630801D01*
X111335801Y-67713517D01*
X111284427Y-67818605D01*
X111274500Y-67886740D01*
X111274500Y-68253260D01*
X106304000Y-68253260D01*
X106304000Y-67934847D01*
X106313788Y-67901266D01*
X106340086Y-67878203D01*
X106370404Y-67864065D01*
X106454065Y-67780404D01*
X106493356Y-67696145D01*
X106526925Y-67664475D01*
X106573075Y-67664475D01*
X106606644Y-67696145D01*
X106645934Y-67780404D01*
X106729595Y-67864065D01*
X106778222Y-67886740D01*
X106836827Y-67914068D01*
X106849041Y-67915676D01*
X106885681Y-67920500D01*
X106885684Y-67920500D01*
X107234316Y-67920500D01*
X107234319Y-67920500D01*
X107263630Y-67916640D01*
X107283173Y-67914068D01*
X107390404Y-67864065D01*
X107474065Y-67780404D01*
X107511517Y-67700087D01*
X107534581Y-67673788D01*
X107568162Y-67664000D01*
X107604116Y-67664000D01*
X107630079Y-67669648D01*
X107651350Y-67685571D01*
X107701950Y-67743967D01*
X107810931Y-67814004D01*
X107935227Y-67850500D01*
X107935228Y-67850500D01*
X108064772Y-67850500D01*
X108064773Y-67850500D01*
X108155239Y-67823937D01*
X108189069Y-67814004D01*
X108298049Y-67743967D01*
X108382882Y-67646063D01*
X108436697Y-67528226D01*
X108455133Y-67400000D01*
X108436697Y-67271774D01*
X108382882Y-67153937D01*
X108298049Y-67056033D01*
X108298048Y-67056032D01*
X108181509Y-66981137D01*
X108182173Y-66980102D01*
X108155708Y-66960291D01*
X108146422Y-66917606D01*
X108167357Y-66879266D01*
X108208286Y-66864000D01*
X111212000Y-66864000D01*
X111256194Y-66882306D01*
X111274500Y-66926500D01*
X111274500Y-66983260D01*
X111284427Y-67051394D01*
X111335801Y-67156482D01*
X111335802Y-67156483D01*
X111418517Y-67239198D01*
X111523607Y-67290573D01*
X111591740Y-67300500D01*
X113308260Y-67300500D01*
X113376393Y-67290573D01*
X113481483Y-67239198D01*
X113564198Y-67156483D01*
X113615573Y-67051393D01*
X113625500Y-66983260D01*
X113625500Y-66616740D01*
X113615573Y-66548607D01*
X113564198Y-66443517D01*
X113481483Y-66360802D01*
X113481482Y-66360801D01*
X113376394Y-66309427D01*
X113308260Y-66299500D01*
X111591740Y-66299500D01*
X111523605Y-66309426D01*
X111482242Y-66329649D01*
X111454792Y-66336000D01*
X106872157Y-66336000D01*
X106859965Y-66334799D01*
X106840000Y-66330827D01*
X106813997Y-66336000D01*
X106813998Y-66336000D01*
X106736992Y-66351316D01*
X106649666Y-66409667D01*
X106638354Y-66426595D01*
X106630584Y-66436062D01*
X106205454Y-66861194D01*
X106185178Y-66874742D01*
X106161260Y-66879500D01*
X105865681Y-66879500D01*
X105816828Y-66885931D01*
X105709595Y-66935934D01*
X105625934Y-67019595D01*
X105588482Y-67099913D01*
X105565419Y-67126212D01*
X105531838Y-67136000D01*
X104628162Y-67136000D01*
X104594581Y-67126212D01*
X104571518Y-67099913D01*
X104534065Y-67019595D01*
X104450404Y-66935934D01*
X104343171Y-66885931D01*
X104294319Y-66879500D01*
X104294316Y-66879500D01*
X104281176Y-66879500D01*
X104236982Y-66861194D01*
X104218676Y-66817000D01*
X104236982Y-66772806D01*
X105490982Y-65518806D01*
X105535176Y-65500500D01*
X107939466Y-65500500D01*
X107952751Y-65501928D01*
X107955566Y-65502540D01*
X107963927Y-65504359D01*
X108015656Y-65500658D01*
X108020115Y-65500500D01*
X108035802Y-65500500D01*
X108051328Y-65498267D01*
X108055750Y-65497790D01*
X108107483Y-65494091D01*
X108118191Y-65490096D01*
X108131139Y-65486791D01*
X108142457Y-65485165D01*
X108189627Y-65463622D01*
X108193730Y-65461922D01*
X108242331Y-65443796D01*
X108251488Y-65436940D01*
X108262970Y-65430127D01*
X108273373Y-65425377D01*
X108312569Y-65391412D01*
X108316007Y-65388641D01*
X108328593Y-65379221D01*
X108339699Y-65368113D01*
X108342935Y-65365100D01*
X108382143Y-65331128D01*
X108388328Y-65321502D01*
X108396703Y-65311109D01*
X108757812Y-64950000D01*
X114642000Y-64950000D01*
X114642000Y-65325512D01*
X114652605Y-65429321D01*
X114708342Y-65597525D01*
X114801365Y-65748340D01*
X114926659Y-65873634D01*
X115077474Y-65966657D01*
X115245678Y-66022394D01*
X115349488Y-66033000D01*
X115500000Y-66033000D01*
X115500000Y-64950000D01*
X115800000Y-64950000D01*
X115800000Y-66033000D01*
X115950512Y-66033000D01*
X116054321Y-66022394D01*
X116222525Y-65966657D01*
X116373340Y-65873634D01*
X116498634Y-65748340D01*
X116591657Y-65597525D01*
X116647394Y-65429321D01*
X116658000Y-65325512D01*
X116658000Y-64950000D01*
X115800000Y-64950000D01*
X115500000Y-64950000D01*
X114642000Y-64950000D01*
X108757812Y-64950000D01*
X109057812Y-64650000D01*
X114642000Y-64650000D01*
X115500000Y-64650000D01*
X115500000Y-63567000D01*
X115349488Y-63567000D01*
X115245678Y-63577605D01*
X115077474Y-63633342D01*
X114926659Y-63726365D01*
X114801365Y-63851659D01*
X114708342Y-64002474D01*
X114652605Y-64170678D01*
X114642000Y-64274488D01*
X114642000Y-64650000D01*
X109057812Y-64650000D01*
X111011109Y-62696703D01*
X111021502Y-62688328D01*
X111031128Y-62682143D01*
X111065100Y-62642935D01*
X111068113Y-62639699D01*
X111079221Y-62628593D01*
X111088641Y-62616007D01*
X111091412Y-62612569D01*
X111125377Y-62573373D01*
X111130127Y-62562970D01*
X111136940Y-62551488D01*
X111143796Y-62542331D01*
X111161922Y-62493730D01*
X111163626Y-62489618D01*
X111185165Y-62442457D01*
X111186791Y-62431139D01*
X111190097Y-62418190D01*
X111194091Y-62407483D01*
X111197591Y-62358542D01*
X111217343Y-62317257D01*
X111259932Y-62300500D01*
X111304265Y-62300500D01*
X111304266Y-62300500D01*
X111334699Y-62297646D01*
X111462882Y-62252793D01*
X111572150Y-62172150D01*
X111652793Y-62062882D01*
X111697646Y-61934699D01*
X111700500Y-61904266D01*
X111700500Y-61363000D01*
X111718806Y-61318806D01*
X111763000Y-61300500D01*
X113831798Y-61300500D01*
X113875992Y-61318806D01*
X116019722Y-63462536D01*
X116037117Y-63496100D01*
X116031979Y-63533554D01*
X116006187Y-63561193D01*
X115969178Y-63568907D01*
X115950505Y-63567000D01*
X115800000Y-63567000D01*
X115800000Y-64650000D01*
X116658000Y-64650000D01*
X116658000Y-64274489D01*
X116656093Y-64255822D01*
X116663805Y-64218812D01*
X116691444Y-64193019D01*
X116728898Y-64187880D01*
X116762463Y-64205276D01*
X116831194Y-64274007D01*
X116849500Y-64318201D01*
X116849500Y-65329266D01*
X116852354Y-65359699D01*
X116897207Y-65487882D01*
X116977850Y-65597150D01*
X117024114Y-65631294D01*
X117042794Y-65653415D01*
X117049500Y-65681581D01*
X117049500Y-66237000D01*
X117031194Y-66281194D01*
X116987000Y-66299500D01*
X116541740Y-66299500D01*
X116473605Y-66309427D01*
X116368517Y-66360801D01*
X116285801Y-66443517D01*
X116234427Y-66548605D01*
X116224500Y-66616740D01*
X116224500Y-66983260D01*
X116234427Y-67051394D01*
X116285801Y-67156482D01*
X116285802Y-67156483D01*
X116368517Y-67239198D01*
X116473607Y-67290573D01*
X116541740Y-67300500D01*
X117339466Y-67300500D01*
X117352751Y-67301928D01*
X117355566Y-67302540D01*
X117363927Y-67304359D01*
X117415656Y-67300658D01*
X117420115Y-67300500D01*
X118258260Y-67300500D01*
X118326393Y-67290573D01*
X118431483Y-67239198D01*
X118514198Y-67156483D01*
X118565573Y-67051393D01*
X118575500Y-66983260D01*
X118575500Y-66616740D01*
X118565573Y-66548607D01*
X118514198Y-66443517D01*
X118431483Y-66360802D01*
X118431482Y-66360801D01*
X118326394Y-66309427D01*
X118258260Y-66299500D01*
X118113000Y-66299500D01*
X118068806Y-66281194D01*
X118050500Y-66237000D01*
X118050500Y-65681581D01*
X118057206Y-65653415D01*
X118075886Y-65631294D01*
X118122150Y-65597150D01*
X118202793Y-65487882D01*
X118247646Y-65359699D01*
X118250500Y-65329266D01*
X118250500Y-64270734D01*
X118247646Y-64240301D01*
X118202793Y-64112118D01*
X118122150Y-64002850D01*
X118012882Y-63922207D01*
X117925189Y-63891522D01*
X117884697Y-63877353D01*
X117869019Y-63875883D01*
X117830663Y-63857850D01*
X114461708Y-60488894D01*
X114453323Y-60478489D01*
X114447142Y-60468871D01*
X114407953Y-60434914D01*
X114404687Y-60431873D01*
X114393592Y-60420778D01*
X114381023Y-60411368D01*
X114377552Y-60408571D01*
X114338373Y-60374623D01*
X114338372Y-60374622D01*
X114327970Y-60369872D01*
X114316488Y-60363059D01*
X114307331Y-60356204D01*
X114307329Y-60356203D01*
X114258743Y-60338081D01*
X114254622Y-60336374D01*
X114207458Y-60314835D01*
X114196136Y-60313207D01*
X114183194Y-60309903D01*
X114176288Y-60307328D01*
X114172481Y-60305908D01*
X114120757Y-60302208D01*
X114116326Y-60301731D01*
X114100802Y-60299500D01*
X114100799Y-60299500D01*
X114085115Y-60299500D01*
X114080656Y-60299341D01*
X114062914Y-60298072D01*
X114028927Y-60295641D01*
X114028926Y-60295641D01*
X114017751Y-60298072D01*
X114004466Y-60299500D01*
X112342045Y-60299500D01*
X112297851Y-60281194D01*
X112279545Y-60237000D01*
X112297851Y-60192806D01*
X112703562Y-59787095D01*
X113985836Y-58504819D01*
X113996767Y-58496101D01*
X114102262Y-58429816D01*
X114229816Y-58302262D01*
X114325789Y-58149522D01*
X114385368Y-57979255D01*
X114405565Y-57800000D01*
X114385368Y-57620745D01*
X114364007Y-57559698D01*
X114360500Y-57539056D01*
X114360500Y-55880000D01*
X115372000Y-55880000D01*
X116050000Y-55880000D01*
X116050000Y-55227001D01*
X115961292Y-55227001D01*
X115924142Y-55229923D01*
X115765099Y-55276129D01*
X115622546Y-55360436D01*
X115505436Y-55477546D01*
X115421129Y-55620099D01*
X115374923Y-55779142D01*
X115372000Y-55816293D01*
X115372000Y-55880000D01*
X114360500Y-55880000D01*
X114360500Y-55227000D01*
X116350000Y-55227000D01*
X116350000Y-55880000D01*
X117027999Y-55880000D01*
X117027999Y-55850000D01*
X117912000Y-55850000D01*
X118590000Y-55850000D01*
X118590000Y-55197001D01*
X118501292Y-55197001D01*
X118464142Y-55199923D01*
X118305099Y-55246129D01*
X118162546Y-55330436D01*
X118045436Y-55447546D01*
X117961129Y-55590099D01*
X117914923Y-55749142D01*
X117912000Y-55786293D01*
X117912000Y-55850000D01*
X117027999Y-55850000D01*
X117027999Y-55816292D01*
X117025076Y-55779142D01*
X116978870Y-55620099D01*
X116894563Y-55477546D01*
X116777453Y-55360436D01*
X116634900Y-55276129D01*
X116475857Y-55229923D01*
X116438707Y-55227000D01*
X116350000Y-55227000D01*
X114360500Y-55227000D01*
X114360500Y-55197000D01*
X118890000Y-55197000D01*
X118890000Y-55850000D01*
X119567999Y-55850000D01*
X120452000Y-55850000D01*
X121130000Y-55850000D01*
X121130000Y-55197001D01*
X121041292Y-55197001D01*
X121004142Y-55199923D01*
X120845099Y-55246129D01*
X120702546Y-55330436D01*
X120585436Y-55447546D01*
X120501129Y-55590099D01*
X120454923Y-55749142D01*
X120452000Y-55786293D01*
X120452000Y-55850000D01*
X119567999Y-55850000D01*
X119567999Y-55786292D01*
X119565076Y-55749142D01*
X119518870Y-55590099D01*
X119434563Y-55447546D01*
X119317453Y-55330436D01*
X119174900Y-55246129D01*
X119015857Y-55199923D01*
X118978707Y-55197000D01*
X121430000Y-55197000D01*
X121430000Y-55850000D01*
X122107999Y-55850000D01*
X122992000Y-55850000D01*
X123670000Y-55850000D01*
X123670000Y-55197001D01*
X123581292Y-55197001D01*
X123544142Y-55199923D01*
X123385099Y-55246129D01*
X123242546Y-55330436D01*
X123125436Y-55447546D01*
X123041129Y-55590099D01*
X122994923Y-55749142D01*
X122992000Y-55786293D01*
X122992000Y-55850000D01*
X122107999Y-55850000D01*
X122107999Y-55786292D01*
X122105076Y-55749142D01*
X122058870Y-55590099D01*
X121974563Y-55447546D01*
X121857453Y-55330436D01*
X121714900Y-55246129D01*
X121555857Y-55199923D01*
X121518707Y-55197000D01*
X123970000Y-55197000D01*
X123970000Y-55850000D01*
X124647999Y-55850000D01*
X124647999Y-55786292D01*
X124645076Y-55749142D01*
X124598870Y-55590099D01*
X124514563Y-55447546D01*
X124397453Y-55330436D01*
X124254900Y-55246129D01*
X124095857Y-55199923D01*
X124058707Y-55197000D01*
X123970000Y-55197000D01*
X121518707Y-55197000D01*
X121430000Y-55197000D01*
X118978707Y-55197000D01*
X118890000Y-55197000D01*
X114360500Y-55197000D01*
X114360500Y-55000000D01*
X131986901Y-55000000D01*
X132007274Y-55349800D01*
X132068119Y-55694867D01*
X132168611Y-56030532D01*
X132307397Y-56352276D01*
X132482595Y-56655726D01*
X132691832Y-56936781D01*
X132769142Y-57018725D01*
X134787868Y-55000000D01*
X135212132Y-55000000D01*
X137230856Y-57018725D01*
X137308167Y-56936781D01*
X137517404Y-56655726D01*
X137692602Y-56352276D01*
X137831388Y-56030532D01*
X137931880Y-55694867D01*
X137992725Y-55349800D01*
X138013098Y-55000000D01*
X137992725Y-54650199D01*
X137931880Y-54305132D01*
X137831388Y-53969467D01*
X137692602Y-53647723D01*
X137517404Y-53344273D01*
X137308167Y-53063218D01*
X137230856Y-52981273D01*
X135212132Y-55000000D01*
X134787868Y-55000000D01*
X132769142Y-52981273D01*
X132691832Y-53063218D01*
X132482595Y-53344273D01*
X132307397Y-53647723D01*
X132168611Y-53969467D01*
X132068119Y-54305132D01*
X132007274Y-54650199D01*
X131986901Y-55000000D01*
X114360500Y-55000000D01*
X114360500Y-52913000D01*
X114378806Y-52868806D01*
X114423000Y-52850500D01*
X114529749Y-52850500D01*
X114588231Y-52838867D01*
X114654552Y-52794552D01*
X114698867Y-52728231D01*
X114710500Y-52669749D01*
X114710500Y-51800000D01*
X115144417Y-51800000D01*
X115164699Y-52005932D01*
X115164700Y-52005934D01*
X115224768Y-52203954D01*
X115322315Y-52386450D01*
X115322317Y-52386453D01*
X115453589Y-52546410D01*
X115603880Y-52669749D01*
X115613550Y-52677685D01*
X115796046Y-52775232D01*
X115994066Y-52835300D01*
X116200000Y-52855583D01*
X116405934Y-52835300D01*
X116603954Y-52775232D01*
X116786450Y-52677685D01*
X116946410Y-52546410D01*
X117077685Y-52386450D01*
X117175232Y-52203954D01*
X117235300Y-52005934D01*
X117255583Y-51800000D01*
X117684417Y-51800000D01*
X117704699Y-52005932D01*
X117704700Y-52005934D01*
X117764768Y-52203954D01*
X117862315Y-52386450D01*
X117862317Y-52386453D01*
X117993589Y-52546410D01*
X118143880Y-52669749D01*
X118153550Y-52677685D01*
X118336046Y-52775232D01*
X118534066Y-52835300D01*
X118740000Y-52855583D01*
X118945934Y-52835300D01*
X119143954Y-52775232D01*
X119326450Y-52677685D01*
X119486410Y-52546410D01*
X119617685Y-52386450D01*
X119715232Y-52203954D01*
X119775300Y-52005934D01*
X119795583Y-51800000D01*
X120224417Y-51800000D01*
X120244699Y-52005932D01*
X120244700Y-52005934D01*
X120304768Y-52203954D01*
X120402315Y-52386450D01*
X120402317Y-52386453D01*
X120533589Y-52546410D01*
X120683880Y-52669749D01*
X120693550Y-52677685D01*
X120876046Y-52775232D01*
X121074066Y-52835300D01*
X121280000Y-52855583D01*
X121485934Y-52835300D01*
X121683954Y-52775232D01*
X121866450Y-52677685D01*
X122026410Y-52546410D01*
X122157685Y-52386450D01*
X122255232Y-52203954D01*
X122315300Y-52005934D01*
X122335583Y-51800000D01*
X122764417Y-51800000D01*
X122784699Y-52005932D01*
X122784700Y-52005934D01*
X122844768Y-52203954D01*
X122942315Y-52386450D01*
X122942317Y-52386453D01*
X123073589Y-52546410D01*
X123223880Y-52669749D01*
X123233550Y-52677685D01*
X123416046Y-52775232D01*
X123614066Y-52835300D01*
X123820000Y-52855583D01*
X124025934Y-52835300D01*
X124223954Y-52775232D01*
X124406450Y-52677685D01*
X124566410Y-52546410D01*
X124697685Y-52386450D01*
X124795232Y-52203954D01*
X124855300Y-52005934D01*
X124860809Y-51950000D01*
X125009774Y-51950000D01*
X125015929Y-52024279D01*
X125071179Y-52242454D01*
X125161583Y-52448553D01*
X125284674Y-52636958D01*
X125437102Y-52802538D01*
X125614697Y-52940766D01*
X125812625Y-53047880D01*
X126025489Y-53120956D01*
X126210000Y-53151746D01*
X126210000Y-51950000D01*
X126510000Y-51950000D01*
X126510000Y-53151746D01*
X126694510Y-53120956D01*
X126907374Y-53047880D01*
X127105302Y-52940766D01*
X127282897Y-52802538D01*
X127314589Y-52768111D01*
X132980243Y-52768111D01*
X134999999Y-54787867D01*
X137019755Y-52768111D01*
X137019755Y-52768110D01*
X136799296Y-52583122D01*
X136506550Y-52390581D01*
X136193427Y-52233325D01*
X135864162Y-52113482D01*
X135523219Y-52032677D01*
X135175199Y-51992000D01*
X134824801Y-51992000D01*
X134476780Y-52032677D01*
X134135837Y-52113482D01*
X133806572Y-52233325D01*
X133493449Y-52390581D01*
X133200703Y-52583122D01*
X132980243Y-52768110D01*
X132980243Y-52768111D01*
X127314589Y-52768111D01*
X127435325Y-52636958D01*
X127558416Y-52448553D01*
X127648820Y-52242454D01*
X127704070Y-52024279D01*
X127710225Y-51950000D01*
X126510000Y-51950000D01*
X126210000Y-51950000D01*
X125009774Y-51950000D01*
X124860809Y-51950000D01*
X124875583Y-51800000D01*
X124860809Y-51649999D01*
X125009774Y-51649999D01*
X125009775Y-51650000D01*
X126210000Y-51650000D01*
X126210000Y-50448253D01*
X126510000Y-50448253D01*
X126510000Y-51650000D01*
X127710225Y-51650000D01*
X127710225Y-51649999D01*
X127704070Y-51575720D01*
X127648820Y-51357545D01*
X127558416Y-51151446D01*
X127435325Y-50963041D01*
X127282897Y-50797461D01*
X127105302Y-50659233D01*
X126907374Y-50552119D01*
X126694510Y-50479043D01*
X126510000Y-50448253D01*
X126210000Y-50448253D01*
X126025489Y-50479043D01*
X125812625Y-50552119D01*
X125614697Y-50659233D01*
X125437102Y-50797461D01*
X125284674Y-50963041D01*
X125161583Y-51151446D01*
X125071179Y-51357545D01*
X125015929Y-51575720D01*
X125009774Y-51649999D01*
X124860809Y-51649999D01*
X124855300Y-51594066D01*
X124795232Y-51396046D01*
X124697685Y-51213550D01*
X124646718Y-51151446D01*
X124566410Y-51053589D01*
X124406453Y-50922317D01*
X124406451Y-50922316D01*
X124406450Y-50922315D01*
X124223954Y-50824768D01*
X124133934Y-50797461D01*
X124025932Y-50764699D01*
X123820000Y-50744417D01*
X123614067Y-50764699D01*
X123416046Y-50824768D01*
X123233546Y-50922317D01*
X123073589Y-51053589D01*
X122942317Y-51213546D01*
X122844768Y-51396046D01*
X122784699Y-51594067D01*
X122764417Y-51800000D01*
X122335583Y-51800000D01*
X122315300Y-51594066D01*
X122255232Y-51396046D01*
X122157685Y-51213550D01*
X122106718Y-51151446D01*
X122026410Y-51053589D01*
X121866453Y-50922317D01*
X121866451Y-50922316D01*
X121866450Y-50922315D01*
X121683954Y-50824768D01*
X121593934Y-50797461D01*
X121485932Y-50764699D01*
X121280000Y-50744417D01*
X121074067Y-50764699D01*
X120876046Y-50824768D01*
X120693546Y-50922317D01*
X120533589Y-51053589D01*
X120402317Y-51213546D01*
X120304768Y-51396046D01*
X120244699Y-51594067D01*
X120224417Y-51800000D01*
X119795583Y-51800000D01*
X119775300Y-51594066D01*
X119715232Y-51396046D01*
X119617685Y-51213550D01*
X119566718Y-51151446D01*
X119486410Y-51053589D01*
X119326453Y-50922317D01*
X119326451Y-50922316D01*
X119326450Y-50922315D01*
X119143954Y-50824768D01*
X119053934Y-50797461D01*
X118945932Y-50764699D01*
X118740000Y-50744417D01*
X118534067Y-50764699D01*
X118336046Y-50824768D01*
X118153546Y-50922317D01*
X117993589Y-51053589D01*
X117862317Y-51213546D01*
X117764768Y-51396046D01*
X117704699Y-51594067D01*
X117684417Y-51800000D01*
X117255583Y-51800000D01*
X117235300Y-51594066D01*
X117175232Y-51396046D01*
X117077685Y-51213550D01*
X117026718Y-51151446D01*
X116946410Y-51053589D01*
X116786453Y-50922317D01*
X116786451Y-50922316D01*
X116786450Y-50922315D01*
X116603954Y-50824768D01*
X116513934Y-50797461D01*
X116405932Y-50764699D01*
X116200000Y-50744417D01*
X115994067Y-50764699D01*
X115796046Y-50824768D01*
X115613546Y-50922317D01*
X115453589Y-51053589D01*
X115322317Y-51213546D01*
X115224768Y-51396046D01*
X115164699Y-51594067D01*
X115144417Y-51800000D01*
X114710500Y-51800000D01*
X114710500Y-50930251D01*
X114698867Y-50871768D01*
X114654552Y-50805447D01*
X114588231Y-50761132D01*
X114529749Y-50749500D01*
X114529748Y-50749500D01*
X112790252Y-50749500D01*
X112790251Y-50749500D01*
X112731768Y-50761132D01*
X112665447Y-50805447D01*
X112621132Y-50871768D01*
X112609500Y-50930251D01*
X112609500Y-52669749D01*
X112621132Y-52728231D01*
X112665447Y-52794552D01*
X112731768Y-52838867D01*
X112790251Y-52850500D01*
X112790252Y-52850500D01*
X112897000Y-52850500D01*
X112941194Y-52868806D01*
X112959500Y-52913000D01*
X112959500Y-57296735D01*
X112949920Y-57329987D01*
X112874211Y-57450476D01*
X112814632Y-57620744D01*
X112807687Y-57682373D01*
X112789774Y-57719567D01*
X112109373Y-58399967D01*
X112075808Y-58417363D01*
X112038354Y-58412224D01*
X112010715Y-58386431D01*
X112003003Y-58349421D01*
X112008000Y-58300511D01*
X112008000Y-57350000D01*
X110850000Y-57350000D01*
X110850000Y-59008000D01*
X111300511Y-59008000D01*
X111349423Y-59003003D01*
X111386433Y-59010715D01*
X111412226Y-59038354D01*
X111417365Y-59075808D01*
X111399969Y-59109373D01*
X111228149Y-59281194D01*
X111207873Y-59294742D01*
X111183955Y-59299500D01*
X110095734Y-59299500D01*
X110065301Y-59302354D01*
X109937118Y-59347207D01*
X109937117Y-59347207D01*
X109937116Y-59347208D01*
X109917308Y-59361827D01*
X109827850Y-59427850D01*
X109747207Y-59537118D01*
X109704326Y-59659667D01*
X109702354Y-59665302D01*
X109699500Y-59695735D01*
X109699500Y-60037000D01*
X109681194Y-60081194D01*
X109637000Y-60099500D01*
X104090803Y-60099500D01*
X104061341Y-60092120D01*
X104038836Y-60071723D01*
X104027996Y-60055500D01*
X103994552Y-60005448D01*
X103994551Y-60005447D01*
X103928231Y-59961132D01*
X103869749Y-59949500D01*
X103869748Y-59949500D01*
X102130252Y-59949500D01*
X102130251Y-59949500D01*
X102071768Y-59961132D01*
X102005447Y-60005447D01*
X101961132Y-60071768D01*
X101949500Y-60130251D01*
X101949500Y-61869749D01*
X101961132Y-61928231D01*
X102005447Y-61994552D01*
X102071768Y-62038867D01*
X102130251Y-62050500D01*
X102130252Y-62050500D01*
X102237000Y-62050500D01*
X102281194Y-62068806D01*
X102299500Y-62113000D01*
X102299500Y-62726353D01*
X102293499Y-62753076D01*
X102276650Y-62774664D01*
X102267458Y-62782208D01*
X102253586Y-62793592D01*
X102122317Y-62953546D01*
X102024768Y-63136046D01*
X101964699Y-63334067D01*
X101944417Y-63540000D01*
X100200500Y-63540000D01*
X100200500Y-57231888D01*
X102980243Y-57231888D01*
X103200703Y-57416877D01*
X103493449Y-57609418D01*
X103806572Y-57766674D01*
X104135837Y-57886517D01*
X104476780Y-57967322D01*
X104824801Y-58008000D01*
X105175199Y-58008000D01*
X105523219Y-57967322D01*
X105864162Y-57886517D01*
X106193427Y-57766674D01*
X106506550Y-57609418D01*
X106799296Y-57416877D01*
X106878996Y-57350000D01*
X109392000Y-57350000D01*
X109392000Y-58300512D01*
X109402605Y-58404321D01*
X109458342Y-58572525D01*
X109551365Y-58723340D01*
X109676659Y-58848634D01*
X109827474Y-58941657D01*
X109995678Y-58997394D01*
X110099488Y-59008000D01*
X110550000Y-59008000D01*
X110550000Y-57350000D01*
X109392000Y-57350000D01*
X106878996Y-57350000D01*
X107019755Y-57231888D01*
X107019755Y-57231887D01*
X106837868Y-57050000D01*
X109392000Y-57050000D01*
X110550000Y-57050000D01*
X110550000Y-55392000D01*
X110850000Y-55392000D01*
X110850000Y-57050000D01*
X112008000Y-57050000D01*
X112008000Y-56099488D01*
X111997394Y-55995678D01*
X111941657Y-55827474D01*
X111848634Y-55676659D01*
X111723340Y-55551365D01*
X111572525Y-55458342D01*
X111404321Y-55402605D01*
X111300512Y-55392000D01*
X110850000Y-55392000D01*
X110550000Y-55392000D01*
X110099488Y-55392000D01*
X109995678Y-55402605D01*
X109827474Y-55458342D01*
X109676659Y-55551365D01*
X109551365Y-55676659D01*
X109458342Y-55827474D01*
X109402605Y-55995678D01*
X109392000Y-56099488D01*
X109392000Y-57050000D01*
X106837868Y-57050000D01*
X105000000Y-55212132D01*
X102980243Y-57231887D01*
X102980243Y-57231888D01*
X100200500Y-57231888D01*
X100200500Y-55001375D01*
X100200530Y-55000000D01*
X101986901Y-55000000D01*
X102007274Y-55349800D01*
X102068119Y-55694867D01*
X102168611Y-56030532D01*
X102307397Y-56352276D01*
X102482595Y-56655726D01*
X102691832Y-56936781D01*
X102769142Y-57018725D01*
X104787868Y-55000000D01*
X104787867Y-54999999D01*
X105212131Y-54999999D01*
X107230856Y-57018725D01*
X107308167Y-56936781D01*
X107517404Y-56655726D01*
X107692602Y-56352276D01*
X107831388Y-56030532D01*
X107931880Y-55694867D01*
X107992725Y-55349800D01*
X108013098Y-55000000D01*
X107992725Y-54650199D01*
X107931880Y-54305132D01*
X107831388Y-53969467D01*
X107692602Y-53647723D01*
X107517404Y-53344273D01*
X107308167Y-53063218D01*
X107230856Y-52981273D01*
X105212131Y-54999999D01*
X104787867Y-54999999D01*
X102769142Y-52981273D01*
X102691832Y-53063218D01*
X102482595Y-53344273D01*
X102307397Y-53647723D01*
X102168611Y-53969467D01*
X102068119Y-54305132D01*
X102007274Y-54650199D01*
X101986901Y-55000000D01*
X100200530Y-55000000D01*
X100200559Y-54998649D01*
X100218645Y-54584413D01*
X100219121Y-54578981D01*
X100248453Y-54356187D01*
X100273060Y-54169267D01*
X100273999Y-54163940D01*
X100363456Y-53760427D01*
X100364853Y-53755214D01*
X100489128Y-53361063D01*
X100490984Y-53355964D01*
X100649137Y-52974150D01*
X100651428Y-52969238D01*
X100756128Y-52768111D01*
X102980243Y-52768111D01*
X104999999Y-54787867D01*
X107019755Y-52768111D01*
X107019755Y-52768110D01*
X106799296Y-52583122D01*
X106506550Y-52390581D01*
X106193427Y-52233325D01*
X105864162Y-52113482D01*
X105523219Y-52032677D01*
X105175199Y-51992000D01*
X104824801Y-51992000D01*
X104476780Y-52032677D01*
X104135837Y-52113482D01*
X103806572Y-52233325D01*
X103493449Y-52390581D01*
X103200703Y-52583122D01*
X102980243Y-52768110D01*
X102980243Y-52768111D01*
X100756128Y-52768111D01*
X100842261Y-52602651D01*
X100844962Y-52597971D01*
X101067016Y-52249417D01*
X101070129Y-52244970D01*
X101321725Y-51917083D01*
X101325205Y-51912937D01*
X101604401Y-51608248D01*
X101608253Y-51604397D01*
X101912937Y-51325205D01*
X101917083Y-51321725D01*
X102244970Y-51070129D01*
X102249417Y-51067016D01*
X102597971Y-50844962D01*
X102602651Y-50842261D01*
X102969238Y-50651428D01*
X102974150Y-50649137D01*
X103355964Y-50490984D01*
X103361063Y-50489128D01*
X103755214Y-50364853D01*
X103760427Y-50363456D01*
X104163940Y-50273999D01*
X104169267Y-50273060D01*
X104578990Y-50219120D01*
X104584404Y-50218645D01*
X104998648Y-50200559D01*
X105001375Y-50200500D01*
X105039882Y-50200500D01*
X134960118Y-50200500D01*
X134998625Y-50200500D01*
X135001351Y-50200559D01*
G37*
%TD.AperFunction*%
%TD*%
M02*
