M48
; DRILL file {KiCad 7.0.1-3b83917a11~172~ubuntu22.04.1} date Sat 08 Apr 2023 08:08:08 AM -03
; FORMAT={-:-/ absolute / inch / decimal}
; #@! TF.CreationDate,2023-04-08T08:08:08-03:00
; #@! TF.GenerationSoftware,Kicad,Pcbnew,7.0.1-3b83917a11~172~ubuntu22.04.1
; #@! TF.FileFunction,Plated,1,2,PTH
FMAT,2
INCH
; #@! TA.AperFunction,Plated,PTH,ViaDrill
T1C0.0118
; #@! TA.AperFunction,Plated,PTH,ViaDrill
T2C0.0315
; #@! TA.AperFunction,Plated,PTH,ComponentDrill
T3C0.0315
; #@! TA.AperFunction,Plated,PTH,ComponentDrill
T4C0.0394
; #@! TA.AperFunction,Plated,PTH,ComponentDrill
T5C0.0433
; #@! TA.AperFunction,Plated,PTH,ComponentDrill
T6C0.0591
; #@! TA.AperFunction,Plated,PTH,ComponentDrill
T7C0.0984
%
G90
G05
T1
X4.1024Y-2.748
X4.1024Y-2.9134
X4.1024Y-3.0787
X4.252Y-2.6535
X4.252Y-2.8189
X4.252Y-2.9816
X4.252Y-3.1508
X4.5295Y-2.8366
X4.7185Y-2.6799
X4.7185Y-2.7299
X4.7185Y-2.7795
X4.7185Y-2.8299
X5.0807Y-2.7323
X5.1319Y-2.7323
X5.1496Y-2.5295
X5.1634Y-2.3898
X5.1949Y-2.7677
X5.1983Y-2.3154
T2
X4.4724Y-2.2756
X5.002Y-2.2362
T3
X4.9213Y-2.9331
X4.9213Y-3.0118
X4.9213Y-3.0906
X5.3228Y-2.9356
X5.3228Y-3.0143
X5.3228Y-3.0931
T4
X4.0551Y-2.4016
X4.0551Y-2.5016
X4.4748Y-2.0394
X4.5748Y-2.0394
X4.6748Y-2.0394
X4.7748Y-2.0394
X4.8748Y-2.0394
X4.9748Y-2.0394
X5.3937Y-2.4016
X5.3937Y-2.5016
T5
X4.0059Y-3.3484
X4.0059Y-3.5256
X4.2618Y-3.3484
X4.2618Y-3.5256
X4.3996Y-3.3484
X4.3996Y-3.5256
X4.6555Y-3.3484
X4.6555Y-3.5256
X4.7933Y-3.3484
X4.7933Y-3.5256
X5.0492Y-3.3484
X5.0492Y-3.5256
X5.187Y-3.3484
X5.187Y-3.5256
X5.4429Y-3.3484
X5.4429Y-3.5256
T6
X4.9213Y-2.8504
X4.9213Y-3.1732
X5.3228Y-2.8529
X5.3228Y-3.1757
T7
X4.1339Y-2.1654
X4.1339Y-3.7402
X5.315Y-2.1654
X5.315Y-3.7402
T0
M30
