%TF.GenerationSoftware,KiCad,Pcbnew,7.0.1-3b83917a11~172~ubuntu22.04.1*%
%TF.CreationDate,2023-04-07T18:55:38-03:00*%
%TF.ProjectId,button-debouncer,62757474-6f6e-42d6-9465-626f756e6365,rev?*%
%TF.SameCoordinates,Original*%
%TF.FileFunction,Legend,Top*%
%TF.FilePolarity,Positive*%
%FSLAX46Y46*%
G04 Gerber Fmt 4.6, Leading zero omitted, Abs format (unit mm)*
G04 Created by KiCad (PCBNEW 7.0.1-3b83917a11~172~ubuntu22.04.1) date 2023-04-07 18:55:38*
%MOMM*%
%LPD*%
G01*
G04 APERTURE LIST*
%ADD10C,0.150000*%
%ADD11C,0.200000*%
%ADD12C,0.120000*%
%ADD13C,0.100000*%
G04 APERTURE END LIST*
D10*
X136411904Y-58125238D02*
X136316666Y-58077619D01*
X136316666Y-58077619D02*
X136173809Y-58077619D01*
X136173809Y-58077619D02*
X136030952Y-58125238D01*
X136030952Y-58125238D02*
X135935714Y-58220476D01*
X135935714Y-58220476D02*
X135888095Y-58315714D01*
X135888095Y-58315714D02*
X135840476Y-58506190D01*
X135840476Y-58506190D02*
X135840476Y-58649047D01*
X135840476Y-58649047D02*
X135888095Y-58839523D01*
X135888095Y-58839523D02*
X135935714Y-58934761D01*
X135935714Y-58934761D02*
X136030952Y-59030000D01*
X136030952Y-59030000D02*
X136173809Y-59077619D01*
X136173809Y-59077619D02*
X136269047Y-59077619D01*
X136269047Y-59077619D02*
X136411904Y-59030000D01*
X136411904Y-59030000D02*
X136459523Y-58982380D01*
X136459523Y-58982380D02*
X136459523Y-58649047D01*
X136459523Y-58649047D02*
X136269047Y-58649047D01*
X136888095Y-59077619D02*
X136888095Y-58077619D01*
X136888095Y-58077619D02*
X137459523Y-59077619D01*
X137459523Y-59077619D02*
X137459523Y-58077619D01*
X137935714Y-59077619D02*
X137935714Y-58077619D01*
X137935714Y-58077619D02*
X138173809Y-58077619D01*
X138173809Y-58077619D02*
X138316666Y-58125238D01*
X138316666Y-58125238D02*
X138411904Y-58220476D01*
X138411904Y-58220476D02*
X138459523Y-58315714D01*
X138459523Y-58315714D02*
X138507142Y-58506190D01*
X138507142Y-58506190D02*
X138507142Y-58649047D01*
X138507142Y-58649047D02*
X138459523Y-58839523D01*
X138459523Y-58839523D02*
X138411904Y-58934761D01*
X138411904Y-58934761D02*
X138316666Y-59030000D01*
X138316666Y-59030000D02*
X138173809Y-59077619D01*
X138173809Y-59077619D02*
X137935714Y-59077619D01*
X101745238Y-58077619D02*
X102078571Y-59077619D01*
X102078571Y-59077619D02*
X102411904Y-58077619D01*
X103316666Y-58982380D02*
X103269047Y-59030000D01*
X103269047Y-59030000D02*
X103126190Y-59077619D01*
X103126190Y-59077619D02*
X103030952Y-59077619D01*
X103030952Y-59077619D02*
X102888095Y-59030000D01*
X102888095Y-59030000D02*
X102792857Y-58934761D01*
X102792857Y-58934761D02*
X102745238Y-58839523D01*
X102745238Y-58839523D02*
X102697619Y-58649047D01*
X102697619Y-58649047D02*
X102697619Y-58506190D01*
X102697619Y-58506190D02*
X102745238Y-58315714D01*
X102745238Y-58315714D02*
X102792857Y-58220476D01*
X102792857Y-58220476D02*
X102888095Y-58125238D01*
X102888095Y-58125238D02*
X103030952Y-58077619D01*
X103030952Y-58077619D02*
X103126190Y-58077619D01*
X103126190Y-58077619D02*
X103269047Y-58125238D01*
X103269047Y-58125238D02*
X103316666Y-58172857D01*
X104316666Y-58982380D02*
X104269047Y-59030000D01*
X104269047Y-59030000D02*
X104126190Y-59077619D01*
X104126190Y-59077619D02*
X104030952Y-59077619D01*
X104030952Y-59077619D02*
X103888095Y-59030000D01*
X103888095Y-59030000D02*
X103792857Y-58934761D01*
X103792857Y-58934761D02*
X103745238Y-58839523D01*
X103745238Y-58839523D02*
X103697619Y-58649047D01*
X103697619Y-58649047D02*
X103697619Y-58506190D01*
X103697619Y-58506190D02*
X103745238Y-58315714D01*
X103745238Y-58315714D02*
X103792857Y-58220476D01*
X103792857Y-58220476D02*
X103888095Y-58125238D01*
X103888095Y-58125238D02*
X104030952Y-58077619D01*
X104030952Y-58077619D02*
X104126190Y-58077619D01*
X104126190Y-58077619D02*
X104269047Y-58125238D01*
X104269047Y-58125238D02*
X104316666Y-58172857D01*
X114433334Y-97206095D02*
X114433334Y-96406095D01*
X114433334Y-96406095D02*
X114700000Y-96977523D01*
X114700000Y-96977523D02*
X114966667Y-96406095D01*
X114966667Y-96406095D02*
X114966667Y-97206095D01*
X115309524Y-96977523D02*
X115690477Y-96977523D01*
X115233334Y-97206095D02*
X115500001Y-96406095D01*
X115500001Y-96406095D02*
X115766667Y-97206095D01*
X116490477Y-97206095D02*
X116223810Y-96825142D01*
X116033334Y-97206095D02*
X116033334Y-96406095D01*
X116033334Y-96406095D02*
X116338096Y-96406095D01*
X116338096Y-96406095D02*
X116414286Y-96444190D01*
X116414286Y-96444190D02*
X116452381Y-96482285D01*
X116452381Y-96482285D02*
X116490477Y-96558476D01*
X116490477Y-96558476D02*
X116490477Y-96672761D01*
X116490477Y-96672761D02*
X116452381Y-96748952D01*
X116452381Y-96748952D02*
X116414286Y-96787047D01*
X116414286Y-96787047D02*
X116338096Y-96825142D01*
X116338096Y-96825142D02*
X116033334Y-96825142D01*
X117290477Y-97129904D02*
X117252381Y-97168000D01*
X117252381Y-97168000D02*
X117138096Y-97206095D01*
X117138096Y-97206095D02*
X117061905Y-97206095D01*
X117061905Y-97206095D02*
X116947619Y-97168000D01*
X116947619Y-97168000D02*
X116871429Y-97091809D01*
X116871429Y-97091809D02*
X116833334Y-97015619D01*
X116833334Y-97015619D02*
X116795238Y-96863238D01*
X116795238Y-96863238D02*
X116795238Y-96748952D01*
X116795238Y-96748952D02*
X116833334Y-96596571D01*
X116833334Y-96596571D02*
X116871429Y-96520380D01*
X116871429Y-96520380D02*
X116947619Y-96444190D01*
X116947619Y-96444190D02*
X117061905Y-96406095D01*
X117061905Y-96406095D02*
X117138096Y-96406095D01*
X117138096Y-96406095D02*
X117252381Y-96444190D01*
X117252381Y-96444190D02*
X117290477Y-96482285D01*
X117785715Y-96406095D02*
X117938096Y-96406095D01*
X117938096Y-96406095D02*
X118014286Y-96444190D01*
X118014286Y-96444190D02*
X118090477Y-96520380D01*
X118090477Y-96520380D02*
X118128572Y-96672761D01*
X118128572Y-96672761D02*
X118128572Y-96939428D01*
X118128572Y-96939428D02*
X118090477Y-97091809D01*
X118090477Y-97091809D02*
X118014286Y-97168000D01*
X118014286Y-97168000D02*
X117938096Y-97206095D01*
X117938096Y-97206095D02*
X117785715Y-97206095D01*
X117785715Y-97206095D02*
X117709524Y-97168000D01*
X117709524Y-97168000D02*
X117633334Y-97091809D01*
X117633334Y-97091809D02*
X117595238Y-96939428D01*
X117595238Y-96939428D02*
X117595238Y-96672761D01*
X117595238Y-96672761D02*
X117633334Y-96520380D01*
X117633334Y-96520380D02*
X117709524Y-96444190D01*
X117709524Y-96444190D02*
X117785715Y-96406095D01*
X118433333Y-97168000D02*
X118547619Y-97206095D01*
X118547619Y-97206095D02*
X118738095Y-97206095D01*
X118738095Y-97206095D02*
X118814286Y-97168000D01*
X118814286Y-97168000D02*
X118852381Y-97129904D01*
X118852381Y-97129904D02*
X118890476Y-97053714D01*
X118890476Y-97053714D02*
X118890476Y-96977523D01*
X118890476Y-96977523D02*
X118852381Y-96901333D01*
X118852381Y-96901333D02*
X118814286Y-96863238D01*
X118814286Y-96863238D02*
X118738095Y-96825142D01*
X118738095Y-96825142D02*
X118585714Y-96787047D01*
X118585714Y-96787047D02*
X118509524Y-96748952D01*
X118509524Y-96748952D02*
X118471429Y-96710857D01*
X118471429Y-96710857D02*
X118433333Y-96634666D01*
X118433333Y-96634666D02*
X118433333Y-96558476D01*
X118433333Y-96558476D02*
X118471429Y-96482285D01*
X118471429Y-96482285D02*
X118509524Y-96444190D01*
X118509524Y-96444190D02*
X118585714Y-96406095D01*
X118585714Y-96406095D02*
X118776191Y-96406095D01*
X118776191Y-96406095D02*
X118890476Y-96444190D01*
X119995239Y-96825142D02*
X119995239Y-97206095D01*
X119728572Y-96406095D02*
X119995239Y-96825142D01*
X119995239Y-96825142D02*
X120261905Y-96406095D01*
X120680953Y-96406095D02*
X120833334Y-96406095D01*
X120833334Y-96406095D02*
X120909524Y-96444190D01*
X120909524Y-96444190D02*
X120985715Y-96520380D01*
X120985715Y-96520380D02*
X121023810Y-96672761D01*
X121023810Y-96672761D02*
X121023810Y-96939428D01*
X121023810Y-96939428D02*
X120985715Y-97091809D01*
X120985715Y-97091809D02*
X120909524Y-97168000D01*
X120909524Y-97168000D02*
X120833334Y-97206095D01*
X120833334Y-97206095D02*
X120680953Y-97206095D01*
X120680953Y-97206095D02*
X120604762Y-97168000D01*
X120604762Y-97168000D02*
X120528572Y-97091809D01*
X120528572Y-97091809D02*
X120490476Y-96939428D01*
X120490476Y-96939428D02*
X120490476Y-96672761D01*
X120490476Y-96672761D02*
X120528572Y-96520380D01*
X120528572Y-96520380D02*
X120604762Y-96444190D01*
X120604762Y-96444190D02*
X120680953Y-96406095D01*
X121366667Y-97206095D02*
X121366667Y-96406095D01*
X121366667Y-96406095D02*
X121823810Y-97206095D01*
X121823810Y-97206095D02*
X121823810Y-96406095D01*
X122166666Y-96977523D02*
X122547619Y-96977523D01*
X122090476Y-97206095D02*
X122357143Y-96406095D01*
X122357143Y-96406095D02*
X122623809Y-97206095D01*
X122890476Y-97206095D02*
X122890476Y-96406095D01*
X122890476Y-96406095D02*
X123157142Y-96977523D01*
X123157142Y-96977523D02*
X123423809Y-96406095D01*
X123423809Y-96406095D02*
X123423809Y-97206095D01*
X123804762Y-97206095D02*
X123804762Y-96406095D01*
X124185714Y-97206095D02*
X124185714Y-96406095D01*
X124185714Y-96406095D02*
X124642857Y-97206095D01*
X124642857Y-97206095D02*
X124642857Y-96406095D01*
X125023809Y-96787047D02*
X125290475Y-96787047D01*
X125404761Y-97206095D02*
X125023809Y-97206095D01*
X125023809Y-97206095D02*
X125023809Y-96406095D01*
X125023809Y-96406095D02*
X125404761Y-96406095D01*
X117538095Y-97702095D02*
X117614285Y-97702095D01*
X117614285Y-97702095D02*
X117690476Y-97740190D01*
X117690476Y-97740190D02*
X117728571Y-97778285D01*
X117728571Y-97778285D02*
X117766666Y-97854476D01*
X117766666Y-97854476D02*
X117804761Y-98006857D01*
X117804761Y-98006857D02*
X117804761Y-98197333D01*
X117804761Y-98197333D02*
X117766666Y-98349714D01*
X117766666Y-98349714D02*
X117728571Y-98425904D01*
X117728571Y-98425904D02*
X117690476Y-98464000D01*
X117690476Y-98464000D02*
X117614285Y-98502095D01*
X117614285Y-98502095D02*
X117538095Y-98502095D01*
X117538095Y-98502095D02*
X117461904Y-98464000D01*
X117461904Y-98464000D02*
X117423809Y-98425904D01*
X117423809Y-98425904D02*
X117385714Y-98349714D01*
X117385714Y-98349714D02*
X117347618Y-98197333D01*
X117347618Y-98197333D02*
X117347618Y-98006857D01*
X117347618Y-98006857D02*
X117385714Y-97854476D01*
X117385714Y-97854476D02*
X117423809Y-97778285D01*
X117423809Y-97778285D02*
X117461904Y-97740190D01*
X117461904Y-97740190D02*
X117538095Y-97702095D01*
X118490476Y-97968761D02*
X118490476Y-98502095D01*
X118300000Y-97664000D02*
X118109523Y-98235428D01*
X118109523Y-98235428D02*
X118604762Y-98235428D01*
X119480952Y-97664000D02*
X118795238Y-98692571D01*
X119709523Y-97778285D02*
X119747619Y-97740190D01*
X119747619Y-97740190D02*
X119823809Y-97702095D01*
X119823809Y-97702095D02*
X120014285Y-97702095D01*
X120014285Y-97702095D02*
X120090476Y-97740190D01*
X120090476Y-97740190D02*
X120128571Y-97778285D01*
X120128571Y-97778285D02*
X120166666Y-97854476D01*
X120166666Y-97854476D02*
X120166666Y-97930666D01*
X120166666Y-97930666D02*
X120128571Y-98044952D01*
X120128571Y-98044952D02*
X119671428Y-98502095D01*
X119671428Y-98502095D02*
X120166666Y-98502095D01*
X120661905Y-97702095D02*
X120738095Y-97702095D01*
X120738095Y-97702095D02*
X120814286Y-97740190D01*
X120814286Y-97740190D02*
X120852381Y-97778285D01*
X120852381Y-97778285D02*
X120890476Y-97854476D01*
X120890476Y-97854476D02*
X120928571Y-98006857D01*
X120928571Y-98006857D02*
X120928571Y-98197333D01*
X120928571Y-98197333D02*
X120890476Y-98349714D01*
X120890476Y-98349714D02*
X120852381Y-98425904D01*
X120852381Y-98425904D02*
X120814286Y-98464000D01*
X120814286Y-98464000D02*
X120738095Y-98502095D01*
X120738095Y-98502095D02*
X120661905Y-98502095D01*
X120661905Y-98502095D02*
X120585714Y-98464000D01*
X120585714Y-98464000D02*
X120547619Y-98425904D01*
X120547619Y-98425904D02*
X120509524Y-98349714D01*
X120509524Y-98349714D02*
X120471428Y-98197333D01*
X120471428Y-98197333D02*
X120471428Y-98006857D01*
X120471428Y-98006857D02*
X120509524Y-97854476D01*
X120509524Y-97854476D02*
X120547619Y-97778285D01*
X120547619Y-97778285D02*
X120585714Y-97740190D01*
X120585714Y-97740190D02*
X120661905Y-97702095D01*
X121233333Y-97778285D02*
X121271429Y-97740190D01*
X121271429Y-97740190D02*
X121347619Y-97702095D01*
X121347619Y-97702095D02*
X121538095Y-97702095D01*
X121538095Y-97702095D02*
X121614286Y-97740190D01*
X121614286Y-97740190D02*
X121652381Y-97778285D01*
X121652381Y-97778285D02*
X121690476Y-97854476D01*
X121690476Y-97854476D02*
X121690476Y-97930666D01*
X121690476Y-97930666D02*
X121652381Y-98044952D01*
X121652381Y-98044952D02*
X121195238Y-98502095D01*
X121195238Y-98502095D02*
X121690476Y-98502095D01*
X121957143Y-97702095D02*
X122452381Y-97702095D01*
X122452381Y-97702095D02*
X122185715Y-98006857D01*
X122185715Y-98006857D02*
X122300000Y-98006857D01*
X122300000Y-98006857D02*
X122376191Y-98044952D01*
X122376191Y-98044952D02*
X122414286Y-98083047D01*
X122414286Y-98083047D02*
X122452381Y-98159238D01*
X122452381Y-98159238D02*
X122452381Y-98349714D01*
X122452381Y-98349714D02*
X122414286Y-98425904D01*
X122414286Y-98425904D02*
X122376191Y-98464000D01*
X122376191Y-98464000D02*
X122300000Y-98502095D01*
X122300000Y-98502095D02*
X122071429Y-98502095D01*
X122071429Y-98502095D02*
X121995238Y-98464000D01*
X121995238Y-98464000D02*
X121957143Y-98425904D01*
D11*
X108999998Y-95316428D02*
X108999998Y-93816428D01*
X108999998Y-93816428D02*
X109333331Y-93816428D01*
X109333331Y-93816428D02*
X109533331Y-93887857D01*
X109533331Y-93887857D02*
X109666665Y-94030714D01*
X109666665Y-94030714D02*
X109733331Y-94173571D01*
X109733331Y-94173571D02*
X109799998Y-94459285D01*
X109799998Y-94459285D02*
X109799998Y-94673571D01*
X109799998Y-94673571D02*
X109733331Y-94959285D01*
X109733331Y-94959285D02*
X109666665Y-95102142D01*
X109666665Y-95102142D02*
X109533331Y-95245000D01*
X109533331Y-95245000D02*
X109333331Y-95316428D01*
X109333331Y-95316428D02*
X108999998Y-95316428D01*
X110399998Y-94530714D02*
X110866665Y-94530714D01*
X111066665Y-95316428D02*
X110399998Y-95316428D01*
X110399998Y-95316428D02*
X110399998Y-93816428D01*
X110399998Y-93816428D02*
X111066665Y-93816428D01*
X112133332Y-94530714D02*
X112333332Y-94602142D01*
X112333332Y-94602142D02*
X112399998Y-94673571D01*
X112399998Y-94673571D02*
X112466665Y-94816428D01*
X112466665Y-94816428D02*
X112466665Y-95030714D01*
X112466665Y-95030714D02*
X112399998Y-95173571D01*
X112399998Y-95173571D02*
X112333332Y-95245000D01*
X112333332Y-95245000D02*
X112199998Y-95316428D01*
X112199998Y-95316428D02*
X111666665Y-95316428D01*
X111666665Y-95316428D02*
X111666665Y-93816428D01*
X111666665Y-93816428D02*
X112133332Y-93816428D01*
X112133332Y-93816428D02*
X112266665Y-93887857D01*
X112266665Y-93887857D02*
X112333332Y-93959285D01*
X112333332Y-93959285D02*
X112399998Y-94102142D01*
X112399998Y-94102142D02*
X112399998Y-94245000D01*
X112399998Y-94245000D02*
X112333332Y-94387857D01*
X112333332Y-94387857D02*
X112266665Y-94459285D01*
X112266665Y-94459285D02*
X112133332Y-94530714D01*
X112133332Y-94530714D02*
X111666665Y-94530714D01*
X113333332Y-93816428D02*
X113599998Y-93816428D01*
X113599998Y-93816428D02*
X113733332Y-93887857D01*
X113733332Y-93887857D02*
X113866665Y-94030714D01*
X113866665Y-94030714D02*
X113933332Y-94316428D01*
X113933332Y-94316428D02*
X113933332Y-94816428D01*
X113933332Y-94816428D02*
X113866665Y-95102142D01*
X113866665Y-95102142D02*
X113733332Y-95245000D01*
X113733332Y-95245000D02*
X113599998Y-95316428D01*
X113599998Y-95316428D02*
X113333332Y-95316428D01*
X113333332Y-95316428D02*
X113199998Y-95245000D01*
X113199998Y-95245000D02*
X113066665Y-95102142D01*
X113066665Y-95102142D02*
X112999998Y-94816428D01*
X112999998Y-94816428D02*
X112999998Y-94316428D01*
X112999998Y-94316428D02*
X113066665Y-94030714D01*
X113066665Y-94030714D02*
X113199998Y-93887857D01*
X113199998Y-93887857D02*
X113333332Y-93816428D01*
X114533332Y-93816428D02*
X114533332Y-95030714D01*
X114533332Y-95030714D02*
X114599999Y-95173571D01*
X114599999Y-95173571D02*
X114666665Y-95245000D01*
X114666665Y-95245000D02*
X114799999Y-95316428D01*
X114799999Y-95316428D02*
X115066665Y-95316428D01*
X115066665Y-95316428D02*
X115199999Y-95245000D01*
X115199999Y-95245000D02*
X115266665Y-95173571D01*
X115266665Y-95173571D02*
X115333332Y-95030714D01*
X115333332Y-95030714D02*
X115333332Y-93816428D01*
X115999999Y-95316428D02*
X115999999Y-93816428D01*
X115999999Y-93816428D02*
X116799999Y-95316428D01*
X116799999Y-95316428D02*
X116799999Y-93816428D01*
X118266666Y-95173571D02*
X118199999Y-95245000D01*
X118199999Y-95245000D02*
X117999999Y-95316428D01*
X117999999Y-95316428D02*
X117866666Y-95316428D01*
X117866666Y-95316428D02*
X117666666Y-95245000D01*
X117666666Y-95245000D02*
X117533333Y-95102142D01*
X117533333Y-95102142D02*
X117466666Y-94959285D01*
X117466666Y-94959285D02*
X117399999Y-94673571D01*
X117399999Y-94673571D02*
X117399999Y-94459285D01*
X117399999Y-94459285D02*
X117466666Y-94173571D01*
X117466666Y-94173571D02*
X117533333Y-94030714D01*
X117533333Y-94030714D02*
X117666666Y-93887857D01*
X117666666Y-93887857D02*
X117866666Y-93816428D01*
X117866666Y-93816428D02*
X117999999Y-93816428D01*
X117999999Y-93816428D02*
X118199999Y-93887857D01*
X118199999Y-93887857D02*
X118266666Y-93959285D01*
X118866666Y-94530714D02*
X119333333Y-94530714D01*
X119533333Y-95316428D02*
X118866666Y-95316428D01*
X118866666Y-95316428D02*
X118866666Y-93816428D01*
X118866666Y-93816428D02*
X119533333Y-93816428D01*
X120133333Y-95316428D02*
X120133333Y-93816428D01*
X120133333Y-93816428D02*
X120466666Y-93816428D01*
X120466666Y-93816428D02*
X120666666Y-93887857D01*
X120666666Y-93887857D02*
X120800000Y-94030714D01*
X120800000Y-94030714D02*
X120866666Y-94173571D01*
X120866666Y-94173571D02*
X120933333Y-94459285D01*
X120933333Y-94459285D02*
X120933333Y-94673571D01*
X120933333Y-94673571D02*
X120866666Y-94959285D01*
X120866666Y-94959285D02*
X120800000Y-95102142D01*
X120800000Y-95102142D02*
X120666666Y-95245000D01*
X120666666Y-95245000D02*
X120466666Y-95316428D01*
X120466666Y-95316428D02*
X120133333Y-95316428D01*
X123066667Y-94530714D02*
X123266667Y-94602142D01*
X123266667Y-94602142D02*
X123333333Y-94673571D01*
X123333333Y-94673571D02*
X123400000Y-94816428D01*
X123400000Y-94816428D02*
X123400000Y-95030714D01*
X123400000Y-95030714D02*
X123333333Y-95173571D01*
X123333333Y-95173571D02*
X123266667Y-95245000D01*
X123266667Y-95245000D02*
X123133333Y-95316428D01*
X123133333Y-95316428D02*
X122600000Y-95316428D01*
X122600000Y-95316428D02*
X122600000Y-93816428D01*
X122600000Y-93816428D02*
X123066667Y-93816428D01*
X123066667Y-93816428D02*
X123200000Y-93887857D01*
X123200000Y-93887857D02*
X123266667Y-93959285D01*
X123266667Y-93959285D02*
X123333333Y-94102142D01*
X123333333Y-94102142D02*
X123333333Y-94245000D01*
X123333333Y-94245000D02*
X123266667Y-94387857D01*
X123266667Y-94387857D02*
X123200000Y-94459285D01*
X123200000Y-94459285D02*
X123066667Y-94530714D01*
X123066667Y-94530714D02*
X122600000Y-94530714D01*
X124000000Y-93816428D02*
X124000000Y-95030714D01*
X124000000Y-95030714D02*
X124066667Y-95173571D01*
X124066667Y-95173571D02*
X124133333Y-95245000D01*
X124133333Y-95245000D02*
X124266667Y-95316428D01*
X124266667Y-95316428D02*
X124533333Y-95316428D01*
X124533333Y-95316428D02*
X124666667Y-95245000D01*
X124666667Y-95245000D02*
X124733333Y-95173571D01*
X124733333Y-95173571D02*
X124800000Y-95030714D01*
X124800000Y-95030714D02*
X124800000Y-93816428D01*
X125266667Y-93816428D02*
X126066667Y-93816428D01*
X125666667Y-95316428D02*
X125666667Y-93816428D01*
X126333334Y-93816428D02*
X127133334Y-93816428D01*
X126733334Y-95316428D02*
X126733334Y-93816428D01*
X127866668Y-93816428D02*
X128133334Y-93816428D01*
X128133334Y-93816428D02*
X128266668Y-93887857D01*
X128266668Y-93887857D02*
X128400001Y-94030714D01*
X128400001Y-94030714D02*
X128466668Y-94316428D01*
X128466668Y-94316428D02*
X128466668Y-94816428D01*
X128466668Y-94816428D02*
X128400001Y-95102142D01*
X128400001Y-95102142D02*
X128266668Y-95245000D01*
X128266668Y-95245000D02*
X128133334Y-95316428D01*
X128133334Y-95316428D02*
X127866668Y-95316428D01*
X127866668Y-95316428D02*
X127733334Y-95245000D01*
X127733334Y-95245000D02*
X127600001Y-95102142D01*
X127600001Y-95102142D02*
X127533334Y-94816428D01*
X127533334Y-94816428D02*
X127533334Y-94316428D01*
X127533334Y-94316428D02*
X127600001Y-94030714D01*
X127600001Y-94030714D02*
X127733334Y-93887857D01*
X127733334Y-93887857D02*
X127866668Y-93816428D01*
X129066668Y-95316428D02*
X129066668Y-93816428D01*
X129066668Y-93816428D02*
X129866668Y-95316428D01*
X129866668Y-95316428D02*
X129866668Y-93816428D01*
X130466668Y-95245000D02*
X130666668Y-95316428D01*
X130666668Y-95316428D02*
X131000002Y-95316428D01*
X131000002Y-95316428D02*
X131133335Y-95245000D01*
X131133335Y-95245000D02*
X131200002Y-95173571D01*
X131200002Y-95173571D02*
X131266668Y-95030714D01*
X131266668Y-95030714D02*
X131266668Y-94887857D01*
X131266668Y-94887857D02*
X131200002Y-94745000D01*
X131200002Y-94745000D02*
X131133335Y-94673571D01*
X131133335Y-94673571D02*
X131000002Y-94602142D01*
X131000002Y-94602142D02*
X130733335Y-94530714D01*
X130733335Y-94530714D02*
X130600002Y-94459285D01*
X130600002Y-94459285D02*
X130533335Y-94387857D01*
X130533335Y-94387857D02*
X130466668Y-94245000D01*
X130466668Y-94245000D02*
X130466668Y-94102142D01*
X130466668Y-94102142D02*
X130533335Y-93959285D01*
X130533335Y-93959285D02*
X130600002Y-93887857D01*
X130600002Y-93887857D02*
X130733335Y-93816428D01*
X130733335Y-93816428D02*
X131066668Y-93816428D01*
X131066668Y-93816428D02*
X131266668Y-93887857D01*
D10*
X112495238Y-53477619D02*
X112828571Y-54477619D01*
X112828571Y-54477619D02*
X113161904Y-53477619D01*
X114066666Y-54382380D02*
X114019047Y-54430000D01*
X114019047Y-54430000D02*
X113876190Y-54477619D01*
X113876190Y-54477619D02*
X113780952Y-54477619D01*
X113780952Y-54477619D02*
X113638095Y-54430000D01*
X113638095Y-54430000D02*
X113542857Y-54334761D01*
X113542857Y-54334761D02*
X113495238Y-54239523D01*
X113495238Y-54239523D02*
X113447619Y-54049047D01*
X113447619Y-54049047D02*
X113447619Y-53906190D01*
X113447619Y-53906190D02*
X113495238Y-53715714D01*
X113495238Y-53715714D02*
X113542857Y-53620476D01*
X113542857Y-53620476D02*
X113638095Y-53525238D01*
X113638095Y-53525238D02*
X113780952Y-53477619D01*
X113780952Y-53477619D02*
X113876190Y-53477619D01*
X113876190Y-53477619D02*
X114019047Y-53525238D01*
X114019047Y-53525238D02*
X114066666Y-53572857D01*
X115066666Y-54382380D02*
X115019047Y-54430000D01*
X115019047Y-54430000D02*
X114876190Y-54477619D01*
X114876190Y-54477619D02*
X114780952Y-54477619D01*
X114780952Y-54477619D02*
X114638095Y-54430000D01*
X114638095Y-54430000D02*
X114542857Y-54334761D01*
X114542857Y-54334761D02*
X114495238Y-54239523D01*
X114495238Y-54239523D02*
X114447619Y-54049047D01*
X114447619Y-54049047D02*
X114447619Y-53906190D01*
X114447619Y-53906190D02*
X114495238Y-53715714D01*
X114495238Y-53715714D02*
X114542857Y-53620476D01*
X114542857Y-53620476D02*
X114638095Y-53525238D01*
X114638095Y-53525238D02*
X114780952Y-53477619D01*
X114780952Y-53477619D02*
X114876190Y-53477619D01*
X114876190Y-53477619D02*
X115019047Y-53525238D01*
X115019047Y-53525238D02*
X115066666Y-53572857D01*
X125961904Y-53525238D02*
X125866666Y-53477619D01*
X125866666Y-53477619D02*
X125723809Y-53477619D01*
X125723809Y-53477619D02*
X125580952Y-53525238D01*
X125580952Y-53525238D02*
X125485714Y-53620476D01*
X125485714Y-53620476D02*
X125438095Y-53715714D01*
X125438095Y-53715714D02*
X125390476Y-53906190D01*
X125390476Y-53906190D02*
X125390476Y-54049047D01*
X125390476Y-54049047D02*
X125438095Y-54239523D01*
X125438095Y-54239523D02*
X125485714Y-54334761D01*
X125485714Y-54334761D02*
X125580952Y-54430000D01*
X125580952Y-54430000D02*
X125723809Y-54477619D01*
X125723809Y-54477619D02*
X125819047Y-54477619D01*
X125819047Y-54477619D02*
X125961904Y-54430000D01*
X125961904Y-54430000D02*
X126009523Y-54382380D01*
X126009523Y-54382380D02*
X126009523Y-54049047D01*
X126009523Y-54049047D02*
X125819047Y-54049047D01*
X126438095Y-54477619D02*
X126438095Y-53477619D01*
X126438095Y-53477619D02*
X127009523Y-54477619D01*
X127009523Y-54477619D02*
X127009523Y-53477619D01*
X127485714Y-54477619D02*
X127485714Y-53477619D01*
X127485714Y-53477619D02*
X127723809Y-53477619D01*
X127723809Y-53477619D02*
X127866666Y-53525238D01*
X127866666Y-53525238D02*
X127961904Y-53620476D01*
X127961904Y-53620476D02*
X128009523Y-53715714D01*
X128009523Y-53715714D02*
X128057142Y-53906190D01*
X128057142Y-53906190D02*
X128057142Y-54049047D01*
X128057142Y-54049047D02*
X128009523Y-54239523D01*
X128009523Y-54239523D02*
X127961904Y-54334761D01*
X127961904Y-54334761D02*
X127866666Y-54430000D01*
X127866666Y-54430000D02*
X127723809Y-54477619D01*
X127723809Y-54477619D02*
X127485714Y-54477619D01*
X123904761Y-54572857D02*
X123809523Y-54525238D01*
X123809523Y-54525238D02*
X123714285Y-54430000D01*
X123714285Y-54430000D02*
X123571428Y-54287142D01*
X123571428Y-54287142D02*
X123476190Y-54239523D01*
X123476190Y-54239523D02*
X123380952Y-54239523D01*
X123428571Y-54477619D02*
X123333333Y-54430000D01*
X123333333Y-54430000D02*
X123238095Y-54334761D01*
X123238095Y-54334761D02*
X123190476Y-54144285D01*
X123190476Y-54144285D02*
X123190476Y-53810952D01*
X123190476Y-53810952D02*
X123238095Y-53620476D01*
X123238095Y-53620476D02*
X123333333Y-53525238D01*
X123333333Y-53525238D02*
X123428571Y-53477619D01*
X123428571Y-53477619D02*
X123619047Y-53477619D01*
X123619047Y-53477619D02*
X123714285Y-53525238D01*
X123714285Y-53525238D02*
X123809523Y-53620476D01*
X123809523Y-53620476D02*
X123857142Y-53810952D01*
X123857142Y-53810952D02*
X123857142Y-54144285D01*
X123857142Y-54144285D02*
X123809523Y-54334761D01*
X123809523Y-54334761D02*
X123714285Y-54430000D01*
X123714285Y-54430000D02*
X123619047Y-54477619D01*
X123619047Y-54477619D02*
X123428571Y-54477619D01*
X124714285Y-53810952D02*
X124714285Y-54477619D01*
X124476190Y-53430000D02*
X124238095Y-54144285D01*
X124238095Y-54144285D02*
X124857142Y-54144285D01*
X121104761Y-54572857D02*
X121009523Y-54525238D01*
X121009523Y-54525238D02*
X120914285Y-54430000D01*
X120914285Y-54430000D02*
X120771428Y-54287142D01*
X120771428Y-54287142D02*
X120676190Y-54239523D01*
X120676190Y-54239523D02*
X120580952Y-54239523D01*
X120628571Y-54477619D02*
X120533333Y-54430000D01*
X120533333Y-54430000D02*
X120438095Y-54334761D01*
X120438095Y-54334761D02*
X120390476Y-54144285D01*
X120390476Y-54144285D02*
X120390476Y-53810952D01*
X120390476Y-53810952D02*
X120438095Y-53620476D01*
X120438095Y-53620476D02*
X120533333Y-53525238D01*
X120533333Y-53525238D02*
X120628571Y-53477619D01*
X120628571Y-53477619D02*
X120819047Y-53477619D01*
X120819047Y-53477619D02*
X120914285Y-53525238D01*
X120914285Y-53525238D02*
X121009523Y-53620476D01*
X121009523Y-53620476D02*
X121057142Y-53810952D01*
X121057142Y-53810952D02*
X121057142Y-54144285D01*
X121057142Y-54144285D02*
X121009523Y-54334761D01*
X121009523Y-54334761D02*
X120914285Y-54430000D01*
X120914285Y-54430000D02*
X120819047Y-54477619D01*
X120819047Y-54477619D02*
X120628571Y-54477619D01*
X121390476Y-53477619D02*
X122009523Y-53477619D01*
X122009523Y-53477619D02*
X121676190Y-53858571D01*
X121676190Y-53858571D02*
X121819047Y-53858571D01*
X121819047Y-53858571D02*
X121914285Y-53906190D01*
X121914285Y-53906190D02*
X121961904Y-53953809D01*
X121961904Y-53953809D02*
X122009523Y-54049047D01*
X122009523Y-54049047D02*
X122009523Y-54287142D01*
X122009523Y-54287142D02*
X121961904Y-54382380D01*
X121961904Y-54382380D02*
X121914285Y-54430000D01*
X121914285Y-54430000D02*
X121819047Y-54477619D01*
X121819047Y-54477619D02*
X121533333Y-54477619D01*
X121533333Y-54477619D02*
X121438095Y-54430000D01*
X121438095Y-54430000D02*
X121390476Y-54382380D01*
X118704761Y-54572857D02*
X118609523Y-54525238D01*
X118609523Y-54525238D02*
X118514285Y-54430000D01*
X118514285Y-54430000D02*
X118371428Y-54287142D01*
X118371428Y-54287142D02*
X118276190Y-54239523D01*
X118276190Y-54239523D02*
X118180952Y-54239523D01*
X118228571Y-54477619D02*
X118133333Y-54430000D01*
X118133333Y-54430000D02*
X118038095Y-54334761D01*
X118038095Y-54334761D02*
X117990476Y-54144285D01*
X117990476Y-54144285D02*
X117990476Y-53810952D01*
X117990476Y-53810952D02*
X118038095Y-53620476D01*
X118038095Y-53620476D02*
X118133333Y-53525238D01*
X118133333Y-53525238D02*
X118228571Y-53477619D01*
X118228571Y-53477619D02*
X118419047Y-53477619D01*
X118419047Y-53477619D02*
X118514285Y-53525238D01*
X118514285Y-53525238D02*
X118609523Y-53620476D01*
X118609523Y-53620476D02*
X118657142Y-53810952D01*
X118657142Y-53810952D02*
X118657142Y-54144285D01*
X118657142Y-54144285D02*
X118609523Y-54334761D01*
X118609523Y-54334761D02*
X118514285Y-54430000D01*
X118514285Y-54430000D02*
X118419047Y-54477619D01*
X118419047Y-54477619D02*
X118228571Y-54477619D01*
X119038095Y-53572857D02*
X119085714Y-53525238D01*
X119085714Y-53525238D02*
X119180952Y-53477619D01*
X119180952Y-53477619D02*
X119419047Y-53477619D01*
X119419047Y-53477619D02*
X119514285Y-53525238D01*
X119514285Y-53525238D02*
X119561904Y-53572857D01*
X119561904Y-53572857D02*
X119609523Y-53668095D01*
X119609523Y-53668095D02*
X119609523Y-53763333D01*
X119609523Y-53763333D02*
X119561904Y-53906190D01*
X119561904Y-53906190D02*
X118990476Y-54477619D01*
X118990476Y-54477619D02*
X119609523Y-54477619D01*
X116304761Y-54572857D02*
X116209523Y-54525238D01*
X116209523Y-54525238D02*
X116114285Y-54430000D01*
X116114285Y-54430000D02*
X115971428Y-54287142D01*
X115971428Y-54287142D02*
X115876190Y-54239523D01*
X115876190Y-54239523D02*
X115780952Y-54239523D01*
X115828571Y-54477619D02*
X115733333Y-54430000D01*
X115733333Y-54430000D02*
X115638095Y-54334761D01*
X115638095Y-54334761D02*
X115590476Y-54144285D01*
X115590476Y-54144285D02*
X115590476Y-53810952D01*
X115590476Y-53810952D02*
X115638095Y-53620476D01*
X115638095Y-53620476D02*
X115733333Y-53525238D01*
X115733333Y-53525238D02*
X115828571Y-53477619D01*
X115828571Y-53477619D02*
X116019047Y-53477619D01*
X116019047Y-53477619D02*
X116114285Y-53525238D01*
X116114285Y-53525238D02*
X116209523Y-53620476D01*
X116209523Y-53620476D02*
X116257142Y-53810952D01*
X116257142Y-53810952D02*
X116257142Y-54144285D01*
X116257142Y-54144285D02*
X116209523Y-54334761D01*
X116209523Y-54334761D02*
X116114285Y-54430000D01*
X116114285Y-54430000D02*
X116019047Y-54477619D01*
X116019047Y-54477619D02*
X115828571Y-54477619D01*
X117209523Y-54477619D02*
X116638095Y-54477619D01*
X116923809Y-54477619D02*
X116923809Y-53477619D01*
X116923809Y-53477619D02*
X116828571Y-53620476D01*
X116828571Y-53620476D02*
X116733333Y-53715714D01*
X116733333Y-53715714D02*
X116638095Y-53763333D01*
%TO.C,U1*%
X111838095Y-64792619D02*
X111838095Y-65602142D01*
X111838095Y-65602142D02*
X111885714Y-65697380D01*
X111885714Y-65697380D02*
X111933333Y-65745000D01*
X111933333Y-65745000D02*
X112028571Y-65792619D01*
X112028571Y-65792619D02*
X112219047Y-65792619D01*
X112219047Y-65792619D02*
X112314285Y-65745000D01*
X112314285Y-65745000D02*
X112361904Y-65697380D01*
X112361904Y-65697380D02*
X112409523Y-65602142D01*
X112409523Y-65602142D02*
X112409523Y-64792619D01*
X113409523Y-65792619D02*
X112838095Y-65792619D01*
X113123809Y-65792619D02*
X113123809Y-64792619D01*
X113123809Y-64792619D02*
X113028571Y-64935476D01*
X113028571Y-64935476D02*
X112933333Y-65030714D01*
X112933333Y-65030714D02*
X112838095Y-65078333D01*
%TO.C,C4*%
X127833333Y-58567380D02*
X127785714Y-58615000D01*
X127785714Y-58615000D02*
X127642857Y-58662619D01*
X127642857Y-58662619D02*
X127547619Y-58662619D01*
X127547619Y-58662619D02*
X127404762Y-58615000D01*
X127404762Y-58615000D02*
X127309524Y-58519761D01*
X127309524Y-58519761D02*
X127261905Y-58424523D01*
X127261905Y-58424523D02*
X127214286Y-58234047D01*
X127214286Y-58234047D02*
X127214286Y-58091190D01*
X127214286Y-58091190D02*
X127261905Y-57900714D01*
X127261905Y-57900714D02*
X127309524Y-57805476D01*
X127309524Y-57805476D02*
X127404762Y-57710238D01*
X127404762Y-57710238D02*
X127547619Y-57662619D01*
X127547619Y-57662619D02*
X127642857Y-57662619D01*
X127642857Y-57662619D02*
X127785714Y-57710238D01*
X127785714Y-57710238D02*
X127833333Y-57757857D01*
X128690476Y-57995952D02*
X128690476Y-58662619D01*
X128452381Y-57615000D02*
X128214286Y-58329285D01*
X128214286Y-58329285D02*
X128833333Y-58329285D01*
%TO.C,C3*%
X119467380Y-64866666D02*
X119515000Y-64914285D01*
X119515000Y-64914285D02*
X119562619Y-65057142D01*
X119562619Y-65057142D02*
X119562619Y-65152380D01*
X119562619Y-65152380D02*
X119515000Y-65295237D01*
X119515000Y-65295237D02*
X119419761Y-65390475D01*
X119419761Y-65390475D02*
X119324523Y-65438094D01*
X119324523Y-65438094D02*
X119134047Y-65485713D01*
X119134047Y-65485713D02*
X118991190Y-65485713D01*
X118991190Y-65485713D02*
X118800714Y-65438094D01*
X118800714Y-65438094D02*
X118705476Y-65390475D01*
X118705476Y-65390475D02*
X118610238Y-65295237D01*
X118610238Y-65295237D02*
X118562619Y-65152380D01*
X118562619Y-65152380D02*
X118562619Y-65057142D01*
X118562619Y-65057142D02*
X118610238Y-64914285D01*
X118610238Y-64914285D02*
X118657857Y-64866666D01*
X118562619Y-64533332D02*
X118562619Y-63914285D01*
X118562619Y-63914285D02*
X118943571Y-64247618D01*
X118943571Y-64247618D02*
X118943571Y-64104761D01*
X118943571Y-64104761D02*
X118991190Y-64009523D01*
X118991190Y-64009523D02*
X119038809Y-63961904D01*
X119038809Y-63961904D02*
X119134047Y-63914285D01*
X119134047Y-63914285D02*
X119372142Y-63914285D01*
X119372142Y-63914285D02*
X119467380Y-63961904D01*
X119467380Y-63961904D02*
X119515000Y-64009523D01*
X119515000Y-64009523D02*
X119562619Y-64104761D01*
X119562619Y-64104761D02*
X119562619Y-64390475D01*
X119562619Y-64390475D02*
X119515000Y-64485713D01*
X119515000Y-64485713D02*
X119467380Y-64533332D01*
%TO.C,C1*%
X107867380Y-59166666D02*
X107915000Y-59214285D01*
X107915000Y-59214285D02*
X107962619Y-59357142D01*
X107962619Y-59357142D02*
X107962619Y-59452380D01*
X107962619Y-59452380D02*
X107915000Y-59595237D01*
X107915000Y-59595237D02*
X107819761Y-59690475D01*
X107819761Y-59690475D02*
X107724523Y-59738094D01*
X107724523Y-59738094D02*
X107534047Y-59785713D01*
X107534047Y-59785713D02*
X107391190Y-59785713D01*
X107391190Y-59785713D02*
X107200714Y-59738094D01*
X107200714Y-59738094D02*
X107105476Y-59690475D01*
X107105476Y-59690475D02*
X107010238Y-59595237D01*
X107010238Y-59595237D02*
X106962619Y-59452380D01*
X106962619Y-59452380D02*
X106962619Y-59357142D01*
X106962619Y-59357142D02*
X107010238Y-59214285D01*
X107010238Y-59214285D02*
X107057857Y-59166666D01*
X107962619Y-58214285D02*
X107962619Y-58785713D01*
X107962619Y-58499999D02*
X106962619Y-58499999D01*
X106962619Y-58499999D02*
X107105476Y-58595237D01*
X107105476Y-58595237D02*
X107200714Y-58690475D01*
X107200714Y-58690475D02*
X107248333Y-58785713D01*
%TO.C,C8*%
X105307380Y-69966666D02*
X105355000Y-70014285D01*
X105355000Y-70014285D02*
X105402619Y-70157142D01*
X105402619Y-70157142D02*
X105402619Y-70252380D01*
X105402619Y-70252380D02*
X105355000Y-70395237D01*
X105355000Y-70395237D02*
X105259761Y-70490475D01*
X105259761Y-70490475D02*
X105164523Y-70538094D01*
X105164523Y-70538094D02*
X104974047Y-70585713D01*
X104974047Y-70585713D02*
X104831190Y-70585713D01*
X104831190Y-70585713D02*
X104640714Y-70538094D01*
X104640714Y-70538094D02*
X104545476Y-70490475D01*
X104545476Y-70490475D02*
X104450238Y-70395237D01*
X104450238Y-70395237D02*
X104402619Y-70252380D01*
X104402619Y-70252380D02*
X104402619Y-70157142D01*
X104402619Y-70157142D02*
X104450238Y-70014285D01*
X104450238Y-70014285D02*
X104497857Y-69966666D01*
X104831190Y-69395237D02*
X104783571Y-69490475D01*
X104783571Y-69490475D02*
X104735952Y-69538094D01*
X104735952Y-69538094D02*
X104640714Y-69585713D01*
X104640714Y-69585713D02*
X104593095Y-69585713D01*
X104593095Y-69585713D02*
X104497857Y-69538094D01*
X104497857Y-69538094D02*
X104450238Y-69490475D01*
X104450238Y-69490475D02*
X104402619Y-69395237D01*
X104402619Y-69395237D02*
X104402619Y-69204761D01*
X104402619Y-69204761D02*
X104450238Y-69109523D01*
X104450238Y-69109523D02*
X104497857Y-69061904D01*
X104497857Y-69061904D02*
X104593095Y-69014285D01*
X104593095Y-69014285D02*
X104640714Y-69014285D01*
X104640714Y-69014285D02*
X104735952Y-69061904D01*
X104735952Y-69061904D02*
X104783571Y-69109523D01*
X104783571Y-69109523D02*
X104831190Y-69204761D01*
X104831190Y-69204761D02*
X104831190Y-69395237D01*
X104831190Y-69395237D02*
X104878809Y-69490475D01*
X104878809Y-69490475D02*
X104926428Y-69538094D01*
X104926428Y-69538094D02*
X105021666Y-69585713D01*
X105021666Y-69585713D02*
X105212142Y-69585713D01*
X105212142Y-69585713D02*
X105307380Y-69538094D01*
X105307380Y-69538094D02*
X105355000Y-69490475D01*
X105355000Y-69490475D02*
X105402619Y-69395237D01*
X105402619Y-69395237D02*
X105402619Y-69204761D01*
X105402619Y-69204761D02*
X105355000Y-69109523D01*
X105355000Y-69109523D02*
X105307380Y-69061904D01*
X105307380Y-69061904D02*
X105212142Y-69014285D01*
X105212142Y-69014285D02*
X105021666Y-69014285D01*
X105021666Y-69014285D02*
X104926428Y-69061904D01*
X104926428Y-69061904D02*
X104878809Y-69109523D01*
X104878809Y-69109523D02*
X104831190Y-69204761D01*
%TO.C,C7*%
X105557380Y-73766666D02*
X105605000Y-73814285D01*
X105605000Y-73814285D02*
X105652619Y-73957142D01*
X105652619Y-73957142D02*
X105652619Y-74052380D01*
X105652619Y-74052380D02*
X105605000Y-74195237D01*
X105605000Y-74195237D02*
X105509761Y-74290475D01*
X105509761Y-74290475D02*
X105414523Y-74338094D01*
X105414523Y-74338094D02*
X105224047Y-74385713D01*
X105224047Y-74385713D02*
X105081190Y-74385713D01*
X105081190Y-74385713D02*
X104890714Y-74338094D01*
X104890714Y-74338094D02*
X104795476Y-74290475D01*
X104795476Y-74290475D02*
X104700238Y-74195237D01*
X104700238Y-74195237D02*
X104652619Y-74052380D01*
X104652619Y-74052380D02*
X104652619Y-73957142D01*
X104652619Y-73957142D02*
X104700238Y-73814285D01*
X104700238Y-73814285D02*
X104747857Y-73766666D01*
X104652619Y-73433332D02*
X104652619Y-72766666D01*
X104652619Y-72766666D02*
X105652619Y-73195237D01*
%TO.C,C6*%
X105557380Y-78366666D02*
X105605000Y-78414285D01*
X105605000Y-78414285D02*
X105652619Y-78557142D01*
X105652619Y-78557142D02*
X105652619Y-78652380D01*
X105652619Y-78652380D02*
X105605000Y-78795237D01*
X105605000Y-78795237D02*
X105509761Y-78890475D01*
X105509761Y-78890475D02*
X105414523Y-78938094D01*
X105414523Y-78938094D02*
X105224047Y-78985713D01*
X105224047Y-78985713D02*
X105081190Y-78985713D01*
X105081190Y-78985713D02*
X104890714Y-78938094D01*
X104890714Y-78938094D02*
X104795476Y-78890475D01*
X104795476Y-78890475D02*
X104700238Y-78795237D01*
X104700238Y-78795237D02*
X104652619Y-78652380D01*
X104652619Y-78652380D02*
X104652619Y-78557142D01*
X104652619Y-78557142D02*
X104700238Y-78414285D01*
X104700238Y-78414285D02*
X104747857Y-78366666D01*
X104652619Y-77509523D02*
X104652619Y-77699999D01*
X104652619Y-77699999D02*
X104700238Y-77795237D01*
X104700238Y-77795237D02*
X104747857Y-77842856D01*
X104747857Y-77842856D02*
X104890714Y-77938094D01*
X104890714Y-77938094D02*
X105081190Y-77985713D01*
X105081190Y-77985713D02*
X105462142Y-77985713D01*
X105462142Y-77985713D02*
X105557380Y-77938094D01*
X105557380Y-77938094D02*
X105605000Y-77890475D01*
X105605000Y-77890475D02*
X105652619Y-77795237D01*
X105652619Y-77795237D02*
X105652619Y-77604761D01*
X105652619Y-77604761D02*
X105605000Y-77509523D01*
X105605000Y-77509523D02*
X105557380Y-77461904D01*
X105557380Y-77461904D02*
X105462142Y-77414285D01*
X105462142Y-77414285D02*
X105224047Y-77414285D01*
X105224047Y-77414285D02*
X105128809Y-77461904D01*
X105128809Y-77461904D02*
X105081190Y-77509523D01*
X105081190Y-77509523D02*
X105033571Y-77604761D01*
X105033571Y-77604761D02*
X105033571Y-77795237D01*
X105033571Y-77795237D02*
X105081190Y-77890475D01*
X105081190Y-77890475D02*
X105128809Y-77938094D01*
X105128809Y-77938094D02*
X105224047Y-77985713D01*
%TO.C,C5*%
X105387380Y-82596666D02*
X105435000Y-82644285D01*
X105435000Y-82644285D02*
X105482619Y-82787142D01*
X105482619Y-82787142D02*
X105482619Y-82882380D01*
X105482619Y-82882380D02*
X105435000Y-83025237D01*
X105435000Y-83025237D02*
X105339761Y-83120475D01*
X105339761Y-83120475D02*
X105244523Y-83168094D01*
X105244523Y-83168094D02*
X105054047Y-83215713D01*
X105054047Y-83215713D02*
X104911190Y-83215713D01*
X104911190Y-83215713D02*
X104720714Y-83168094D01*
X104720714Y-83168094D02*
X104625476Y-83120475D01*
X104625476Y-83120475D02*
X104530238Y-83025237D01*
X104530238Y-83025237D02*
X104482619Y-82882380D01*
X104482619Y-82882380D02*
X104482619Y-82787142D01*
X104482619Y-82787142D02*
X104530238Y-82644285D01*
X104530238Y-82644285D02*
X104577857Y-82596666D01*
X104482619Y-81691904D02*
X104482619Y-82168094D01*
X104482619Y-82168094D02*
X104958809Y-82215713D01*
X104958809Y-82215713D02*
X104911190Y-82168094D01*
X104911190Y-82168094D02*
X104863571Y-82072856D01*
X104863571Y-82072856D02*
X104863571Y-81834761D01*
X104863571Y-81834761D02*
X104911190Y-81739523D01*
X104911190Y-81739523D02*
X104958809Y-81691904D01*
X104958809Y-81691904D02*
X105054047Y-81644285D01*
X105054047Y-81644285D02*
X105292142Y-81644285D01*
X105292142Y-81644285D02*
X105387380Y-81691904D01*
X105387380Y-81691904D02*
X105435000Y-81739523D01*
X105435000Y-81739523D02*
X105482619Y-81834761D01*
X105482619Y-81834761D02*
X105482619Y-82072856D01*
X105482619Y-82072856D02*
X105435000Y-82168094D01*
X105435000Y-82168094D02*
X105387380Y-82215713D01*
%TO.C,R12*%
X125467619Y-59727857D02*
X124991428Y-60061190D01*
X125467619Y-60299285D02*
X124467619Y-60299285D01*
X124467619Y-60299285D02*
X124467619Y-59918333D01*
X124467619Y-59918333D02*
X124515238Y-59823095D01*
X124515238Y-59823095D02*
X124562857Y-59775476D01*
X124562857Y-59775476D02*
X124658095Y-59727857D01*
X124658095Y-59727857D02*
X124800952Y-59727857D01*
X124800952Y-59727857D02*
X124896190Y-59775476D01*
X124896190Y-59775476D02*
X124943809Y-59823095D01*
X124943809Y-59823095D02*
X124991428Y-59918333D01*
X124991428Y-59918333D02*
X124991428Y-60299285D01*
X125467619Y-58775476D02*
X125467619Y-59346904D01*
X125467619Y-59061190D02*
X124467619Y-59061190D01*
X124467619Y-59061190D02*
X124610476Y-59156428D01*
X124610476Y-59156428D02*
X124705714Y-59251666D01*
X124705714Y-59251666D02*
X124753333Y-59346904D01*
X124562857Y-58394523D02*
X124515238Y-58346904D01*
X124515238Y-58346904D02*
X124467619Y-58251666D01*
X124467619Y-58251666D02*
X124467619Y-58013571D01*
X124467619Y-58013571D02*
X124515238Y-57918333D01*
X124515238Y-57918333D02*
X124562857Y-57870714D01*
X124562857Y-57870714D02*
X124658095Y-57823095D01*
X124658095Y-57823095D02*
X124753333Y-57823095D01*
X124753333Y-57823095D02*
X124896190Y-57870714D01*
X124896190Y-57870714D02*
X125467619Y-58442142D01*
X125467619Y-58442142D02*
X125467619Y-57823095D01*
%TO.C,R11*%
X122927619Y-59717857D02*
X122451428Y-60051190D01*
X122927619Y-60289285D02*
X121927619Y-60289285D01*
X121927619Y-60289285D02*
X121927619Y-59908333D01*
X121927619Y-59908333D02*
X121975238Y-59813095D01*
X121975238Y-59813095D02*
X122022857Y-59765476D01*
X122022857Y-59765476D02*
X122118095Y-59717857D01*
X122118095Y-59717857D02*
X122260952Y-59717857D01*
X122260952Y-59717857D02*
X122356190Y-59765476D01*
X122356190Y-59765476D02*
X122403809Y-59813095D01*
X122403809Y-59813095D02*
X122451428Y-59908333D01*
X122451428Y-59908333D02*
X122451428Y-60289285D01*
X122927619Y-58765476D02*
X122927619Y-59336904D01*
X122927619Y-59051190D02*
X121927619Y-59051190D01*
X121927619Y-59051190D02*
X122070476Y-59146428D01*
X122070476Y-59146428D02*
X122165714Y-59241666D01*
X122165714Y-59241666D02*
X122213333Y-59336904D01*
X122927619Y-57813095D02*
X122927619Y-58384523D01*
X122927619Y-58098809D02*
X121927619Y-58098809D01*
X121927619Y-58098809D02*
X122070476Y-58194047D01*
X122070476Y-58194047D02*
X122165714Y-58289285D01*
X122165714Y-58289285D02*
X122213333Y-58384523D01*
%TO.C,R10*%
X120387619Y-59727857D02*
X119911428Y-60061190D01*
X120387619Y-60299285D02*
X119387619Y-60299285D01*
X119387619Y-60299285D02*
X119387619Y-59918333D01*
X119387619Y-59918333D02*
X119435238Y-59823095D01*
X119435238Y-59823095D02*
X119482857Y-59775476D01*
X119482857Y-59775476D02*
X119578095Y-59727857D01*
X119578095Y-59727857D02*
X119720952Y-59727857D01*
X119720952Y-59727857D02*
X119816190Y-59775476D01*
X119816190Y-59775476D02*
X119863809Y-59823095D01*
X119863809Y-59823095D02*
X119911428Y-59918333D01*
X119911428Y-59918333D02*
X119911428Y-60299285D01*
X120387619Y-58775476D02*
X120387619Y-59346904D01*
X120387619Y-59061190D02*
X119387619Y-59061190D01*
X119387619Y-59061190D02*
X119530476Y-59156428D01*
X119530476Y-59156428D02*
X119625714Y-59251666D01*
X119625714Y-59251666D02*
X119673333Y-59346904D01*
X119387619Y-58156428D02*
X119387619Y-58061190D01*
X119387619Y-58061190D02*
X119435238Y-57965952D01*
X119435238Y-57965952D02*
X119482857Y-57918333D01*
X119482857Y-57918333D02*
X119578095Y-57870714D01*
X119578095Y-57870714D02*
X119768571Y-57823095D01*
X119768571Y-57823095D02*
X120006666Y-57823095D01*
X120006666Y-57823095D02*
X120197142Y-57870714D01*
X120197142Y-57870714D02*
X120292380Y-57918333D01*
X120292380Y-57918333D02*
X120340000Y-57965952D01*
X120340000Y-57965952D02*
X120387619Y-58061190D01*
X120387619Y-58061190D02*
X120387619Y-58156428D01*
X120387619Y-58156428D02*
X120340000Y-58251666D01*
X120340000Y-58251666D02*
X120292380Y-58299285D01*
X120292380Y-58299285D02*
X120197142Y-58346904D01*
X120197142Y-58346904D02*
X120006666Y-58394523D01*
X120006666Y-58394523D02*
X119768571Y-58394523D01*
X119768571Y-58394523D02*
X119578095Y-58346904D01*
X119578095Y-58346904D02*
X119482857Y-58299285D01*
X119482857Y-58299285D02*
X119435238Y-58251666D01*
X119435238Y-58251666D02*
X119387619Y-58156428D01*
%TO.C,R9*%
X117847619Y-59231666D02*
X117371428Y-59564999D01*
X117847619Y-59803094D02*
X116847619Y-59803094D01*
X116847619Y-59803094D02*
X116847619Y-59422142D01*
X116847619Y-59422142D02*
X116895238Y-59326904D01*
X116895238Y-59326904D02*
X116942857Y-59279285D01*
X116942857Y-59279285D02*
X117038095Y-59231666D01*
X117038095Y-59231666D02*
X117180952Y-59231666D01*
X117180952Y-59231666D02*
X117276190Y-59279285D01*
X117276190Y-59279285D02*
X117323809Y-59326904D01*
X117323809Y-59326904D02*
X117371428Y-59422142D01*
X117371428Y-59422142D02*
X117371428Y-59803094D01*
X117847619Y-58755475D02*
X117847619Y-58564999D01*
X117847619Y-58564999D02*
X117800000Y-58469761D01*
X117800000Y-58469761D02*
X117752380Y-58422142D01*
X117752380Y-58422142D02*
X117609523Y-58326904D01*
X117609523Y-58326904D02*
X117419047Y-58279285D01*
X117419047Y-58279285D02*
X117038095Y-58279285D01*
X117038095Y-58279285D02*
X116942857Y-58326904D01*
X116942857Y-58326904D02*
X116895238Y-58374523D01*
X116895238Y-58374523D02*
X116847619Y-58469761D01*
X116847619Y-58469761D02*
X116847619Y-58660237D01*
X116847619Y-58660237D02*
X116895238Y-58755475D01*
X116895238Y-58755475D02*
X116942857Y-58803094D01*
X116942857Y-58803094D02*
X117038095Y-58850713D01*
X117038095Y-58850713D02*
X117276190Y-58850713D01*
X117276190Y-58850713D02*
X117371428Y-58803094D01*
X117371428Y-58803094D02*
X117419047Y-58755475D01*
X117419047Y-58755475D02*
X117466666Y-58660237D01*
X117466666Y-58660237D02*
X117466666Y-58469761D01*
X117466666Y-58469761D02*
X117419047Y-58374523D01*
X117419047Y-58374523D02*
X117371428Y-58326904D01*
X117371428Y-58326904D02*
X117276190Y-58279285D01*
%TO.C,R8*%
X102472619Y-67566666D02*
X101996428Y-67899999D01*
X102472619Y-68138094D02*
X101472619Y-68138094D01*
X101472619Y-68138094D02*
X101472619Y-67757142D01*
X101472619Y-67757142D02*
X101520238Y-67661904D01*
X101520238Y-67661904D02*
X101567857Y-67614285D01*
X101567857Y-67614285D02*
X101663095Y-67566666D01*
X101663095Y-67566666D02*
X101805952Y-67566666D01*
X101805952Y-67566666D02*
X101901190Y-67614285D01*
X101901190Y-67614285D02*
X101948809Y-67661904D01*
X101948809Y-67661904D02*
X101996428Y-67757142D01*
X101996428Y-67757142D02*
X101996428Y-68138094D01*
X101901190Y-66995237D02*
X101853571Y-67090475D01*
X101853571Y-67090475D02*
X101805952Y-67138094D01*
X101805952Y-67138094D02*
X101710714Y-67185713D01*
X101710714Y-67185713D02*
X101663095Y-67185713D01*
X101663095Y-67185713D02*
X101567857Y-67138094D01*
X101567857Y-67138094D02*
X101520238Y-67090475D01*
X101520238Y-67090475D02*
X101472619Y-66995237D01*
X101472619Y-66995237D02*
X101472619Y-66804761D01*
X101472619Y-66804761D02*
X101520238Y-66709523D01*
X101520238Y-66709523D02*
X101567857Y-66661904D01*
X101567857Y-66661904D02*
X101663095Y-66614285D01*
X101663095Y-66614285D02*
X101710714Y-66614285D01*
X101710714Y-66614285D02*
X101805952Y-66661904D01*
X101805952Y-66661904D02*
X101853571Y-66709523D01*
X101853571Y-66709523D02*
X101901190Y-66804761D01*
X101901190Y-66804761D02*
X101901190Y-66995237D01*
X101901190Y-66995237D02*
X101948809Y-67090475D01*
X101948809Y-67090475D02*
X101996428Y-67138094D01*
X101996428Y-67138094D02*
X102091666Y-67185713D01*
X102091666Y-67185713D02*
X102282142Y-67185713D01*
X102282142Y-67185713D02*
X102377380Y-67138094D01*
X102377380Y-67138094D02*
X102425000Y-67090475D01*
X102425000Y-67090475D02*
X102472619Y-66995237D01*
X102472619Y-66995237D02*
X102472619Y-66804761D01*
X102472619Y-66804761D02*
X102425000Y-66709523D01*
X102425000Y-66709523D02*
X102377380Y-66661904D01*
X102377380Y-66661904D02*
X102282142Y-66614285D01*
X102282142Y-66614285D02*
X102091666Y-66614285D01*
X102091666Y-66614285D02*
X101996428Y-66661904D01*
X101996428Y-66661904D02*
X101948809Y-66709523D01*
X101948809Y-66709523D02*
X101901190Y-66804761D01*
%TO.C,R7*%
X108602619Y-67566666D02*
X108126428Y-67899999D01*
X108602619Y-68138094D02*
X107602619Y-68138094D01*
X107602619Y-68138094D02*
X107602619Y-67757142D01*
X107602619Y-67757142D02*
X107650238Y-67661904D01*
X107650238Y-67661904D02*
X107697857Y-67614285D01*
X107697857Y-67614285D02*
X107793095Y-67566666D01*
X107793095Y-67566666D02*
X107935952Y-67566666D01*
X107935952Y-67566666D02*
X108031190Y-67614285D01*
X108031190Y-67614285D02*
X108078809Y-67661904D01*
X108078809Y-67661904D02*
X108126428Y-67757142D01*
X108126428Y-67757142D02*
X108126428Y-68138094D01*
X107602619Y-67233332D02*
X107602619Y-66566666D01*
X107602619Y-66566666D02*
X108602619Y-66995237D01*
%TO.C,R6*%
X102472619Y-71733334D02*
X101996428Y-72066667D01*
X102472619Y-72304762D02*
X101472619Y-72304762D01*
X101472619Y-72304762D02*
X101472619Y-71923810D01*
X101472619Y-71923810D02*
X101520238Y-71828572D01*
X101520238Y-71828572D02*
X101567857Y-71780953D01*
X101567857Y-71780953D02*
X101663095Y-71733334D01*
X101663095Y-71733334D02*
X101805952Y-71733334D01*
X101805952Y-71733334D02*
X101901190Y-71780953D01*
X101901190Y-71780953D02*
X101948809Y-71828572D01*
X101948809Y-71828572D02*
X101996428Y-71923810D01*
X101996428Y-71923810D02*
X101996428Y-72304762D01*
X101472619Y-70876191D02*
X101472619Y-71066667D01*
X101472619Y-71066667D02*
X101520238Y-71161905D01*
X101520238Y-71161905D02*
X101567857Y-71209524D01*
X101567857Y-71209524D02*
X101710714Y-71304762D01*
X101710714Y-71304762D02*
X101901190Y-71352381D01*
X101901190Y-71352381D02*
X102282142Y-71352381D01*
X102282142Y-71352381D02*
X102377380Y-71304762D01*
X102377380Y-71304762D02*
X102425000Y-71257143D01*
X102425000Y-71257143D02*
X102472619Y-71161905D01*
X102472619Y-71161905D02*
X102472619Y-70971429D01*
X102472619Y-70971429D02*
X102425000Y-70876191D01*
X102425000Y-70876191D02*
X102377380Y-70828572D01*
X102377380Y-70828572D02*
X102282142Y-70780953D01*
X102282142Y-70780953D02*
X102044047Y-70780953D01*
X102044047Y-70780953D02*
X101948809Y-70828572D01*
X101948809Y-70828572D02*
X101901190Y-70876191D01*
X101901190Y-70876191D02*
X101853571Y-70971429D01*
X101853571Y-70971429D02*
X101853571Y-71161905D01*
X101853571Y-71161905D02*
X101901190Y-71257143D01*
X101901190Y-71257143D02*
X101948809Y-71304762D01*
X101948809Y-71304762D02*
X102044047Y-71352381D01*
%TO.C,R5*%
X108602619Y-71733334D02*
X108126428Y-72066667D01*
X108602619Y-72304762D02*
X107602619Y-72304762D01*
X107602619Y-72304762D02*
X107602619Y-71923810D01*
X107602619Y-71923810D02*
X107650238Y-71828572D01*
X107650238Y-71828572D02*
X107697857Y-71780953D01*
X107697857Y-71780953D02*
X107793095Y-71733334D01*
X107793095Y-71733334D02*
X107935952Y-71733334D01*
X107935952Y-71733334D02*
X108031190Y-71780953D01*
X108031190Y-71780953D02*
X108078809Y-71828572D01*
X108078809Y-71828572D02*
X108126428Y-71923810D01*
X108126428Y-71923810D02*
X108126428Y-72304762D01*
X107602619Y-70828572D02*
X107602619Y-71304762D01*
X107602619Y-71304762D02*
X108078809Y-71352381D01*
X108078809Y-71352381D02*
X108031190Y-71304762D01*
X108031190Y-71304762D02*
X107983571Y-71209524D01*
X107983571Y-71209524D02*
X107983571Y-70971429D01*
X107983571Y-70971429D02*
X108031190Y-70876191D01*
X108031190Y-70876191D02*
X108078809Y-70828572D01*
X108078809Y-70828572D02*
X108174047Y-70780953D01*
X108174047Y-70780953D02*
X108412142Y-70780953D01*
X108412142Y-70780953D02*
X108507380Y-70828572D01*
X108507380Y-70828572D02*
X108555000Y-70876191D01*
X108555000Y-70876191D02*
X108602619Y-70971429D01*
X108602619Y-70971429D02*
X108602619Y-71209524D01*
X108602619Y-71209524D02*
X108555000Y-71304762D01*
X108555000Y-71304762D02*
X108507380Y-71352381D01*
%TO.C,R4*%
X102472619Y-75900000D02*
X101996428Y-76233333D01*
X102472619Y-76471428D02*
X101472619Y-76471428D01*
X101472619Y-76471428D02*
X101472619Y-76090476D01*
X101472619Y-76090476D02*
X101520238Y-75995238D01*
X101520238Y-75995238D02*
X101567857Y-75947619D01*
X101567857Y-75947619D02*
X101663095Y-75900000D01*
X101663095Y-75900000D02*
X101805952Y-75900000D01*
X101805952Y-75900000D02*
X101901190Y-75947619D01*
X101901190Y-75947619D02*
X101948809Y-75995238D01*
X101948809Y-75995238D02*
X101996428Y-76090476D01*
X101996428Y-76090476D02*
X101996428Y-76471428D01*
X101805952Y-75042857D02*
X102472619Y-75042857D01*
X101425000Y-75280952D02*
X102139285Y-75519047D01*
X102139285Y-75519047D02*
X102139285Y-74900000D01*
%TO.C,R3*%
X108602619Y-75900000D02*
X108126428Y-76233333D01*
X108602619Y-76471428D02*
X107602619Y-76471428D01*
X107602619Y-76471428D02*
X107602619Y-76090476D01*
X107602619Y-76090476D02*
X107650238Y-75995238D01*
X107650238Y-75995238D02*
X107697857Y-75947619D01*
X107697857Y-75947619D02*
X107793095Y-75900000D01*
X107793095Y-75900000D02*
X107935952Y-75900000D01*
X107935952Y-75900000D02*
X108031190Y-75947619D01*
X108031190Y-75947619D02*
X108078809Y-75995238D01*
X108078809Y-75995238D02*
X108126428Y-76090476D01*
X108126428Y-76090476D02*
X108126428Y-76471428D01*
X107602619Y-75566666D02*
X107602619Y-74947619D01*
X107602619Y-74947619D02*
X107983571Y-75280952D01*
X107983571Y-75280952D02*
X107983571Y-75138095D01*
X107983571Y-75138095D02*
X108031190Y-75042857D01*
X108031190Y-75042857D02*
X108078809Y-74995238D01*
X108078809Y-74995238D02*
X108174047Y-74947619D01*
X108174047Y-74947619D02*
X108412142Y-74947619D01*
X108412142Y-74947619D02*
X108507380Y-74995238D01*
X108507380Y-74995238D02*
X108555000Y-75042857D01*
X108555000Y-75042857D02*
X108602619Y-75138095D01*
X108602619Y-75138095D02*
X108602619Y-75423809D01*
X108602619Y-75423809D02*
X108555000Y-75519047D01*
X108555000Y-75519047D02*
X108507380Y-75566666D01*
%TO.C,R2*%
X102472619Y-80196666D02*
X101996428Y-80529999D01*
X102472619Y-80768094D02*
X101472619Y-80768094D01*
X101472619Y-80768094D02*
X101472619Y-80387142D01*
X101472619Y-80387142D02*
X101520238Y-80291904D01*
X101520238Y-80291904D02*
X101567857Y-80244285D01*
X101567857Y-80244285D02*
X101663095Y-80196666D01*
X101663095Y-80196666D02*
X101805952Y-80196666D01*
X101805952Y-80196666D02*
X101901190Y-80244285D01*
X101901190Y-80244285D02*
X101948809Y-80291904D01*
X101948809Y-80291904D02*
X101996428Y-80387142D01*
X101996428Y-80387142D02*
X101996428Y-80768094D01*
X101567857Y-79815713D02*
X101520238Y-79768094D01*
X101520238Y-79768094D02*
X101472619Y-79672856D01*
X101472619Y-79672856D02*
X101472619Y-79434761D01*
X101472619Y-79434761D02*
X101520238Y-79339523D01*
X101520238Y-79339523D02*
X101567857Y-79291904D01*
X101567857Y-79291904D02*
X101663095Y-79244285D01*
X101663095Y-79244285D02*
X101758333Y-79244285D01*
X101758333Y-79244285D02*
X101901190Y-79291904D01*
X101901190Y-79291904D02*
X102472619Y-79863332D01*
X102472619Y-79863332D02*
X102472619Y-79244285D01*
%TO.C,R1*%
X108612619Y-80096666D02*
X108136428Y-80429999D01*
X108612619Y-80668094D02*
X107612619Y-80668094D01*
X107612619Y-80668094D02*
X107612619Y-80287142D01*
X107612619Y-80287142D02*
X107660238Y-80191904D01*
X107660238Y-80191904D02*
X107707857Y-80144285D01*
X107707857Y-80144285D02*
X107803095Y-80096666D01*
X107803095Y-80096666D02*
X107945952Y-80096666D01*
X107945952Y-80096666D02*
X108041190Y-80144285D01*
X108041190Y-80144285D02*
X108088809Y-80191904D01*
X108088809Y-80191904D02*
X108136428Y-80287142D01*
X108136428Y-80287142D02*
X108136428Y-80668094D01*
X108612619Y-79144285D02*
X108612619Y-79715713D01*
X108612619Y-79429999D02*
X107612619Y-79429999D01*
X107612619Y-79429999D02*
X107755476Y-79525237D01*
X107755476Y-79525237D02*
X107850714Y-79620475D01*
X107850714Y-79620475D02*
X107898333Y-79715713D01*
%TO.C,D4*%
X125452619Y-57223094D02*
X124452619Y-57223094D01*
X124452619Y-57223094D02*
X124452619Y-56984999D01*
X124452619Y-56984999D02*
X124500238Y-56842142D01*
X124500238Y-56842142D02*
X124595476Y-56746904D01*
X124595476Y-56746904D02*
X124690714Y-56699285D01*
X124690714Y-56699285D02*
X124881190Y-56651666D01*
X124881190Y-56651666D02*
X125024047Y-56651666D01*
X125024047Y-56651666D02*
X125214523Y-56699285D01*
X125214523Y-56699285D02*
X125309761Y-56746904D01*
X125309761Y-56746904D02*
X125405000Y-56842142D01*
X125405000Y-56842142D02*
X125452619Y-56984999D01*
X125452619Y-56984999D02*
X125452619Y-57223094D01*
X124785952Y-55794523D02*
X125452619Y-55794523D01*
X124405000Y-56032618D02*
X125119285Y-56270713D01*
X125119285Y-56270713D02*
X125119285Y-55651666D01*
%TO.C,D3*%
X122912619Y-57223094D02*
X121912619Y-57223094D01*
X121912619Y-57223094D02*
X121912619Y-56984999D01*
X121912619Y-56984999D02*
X121960238Y-56842142D01*
X121960238Y-56842142D02*
X122055476Y-56746904D01*
X122055476Y-56746904D02*
X122150714Y-56699285D01*
X122150714Y-56699285D02*
X122341190Y-56651666D01*
X122341190Y-56651666D02*
X122484047Y-56651666D01*
X122484047Y-56651666D02*
X122674523Y-56699285D01*
X122674523Y-56699285D02*
X122769761Y-56746904D01*
X122769761Y-56746904D02*
X122865000Y-56842142D01*
X122865000Y-56842142D02*
X122912619Y-56984999D01*
X122912619Y-56984999D02*
X122912619Y-57223094D01*
X121912619Y-56318332D02*
X121912619Y-55699285D01*
X121912619Y-55699285D02*
X122293571Y-56032618D01*
X122293571Y-56032618D02*
X122293571Y-55889761D01*
X122293571Y-55889761D02*
X122341190Y-55794523D01*
X122341190Y-55794523D02*
X122388809Y-55746904D01*
X122388809Y-55746904D02*
X122484047Y-55699285D01*
X122484047Y-55699285D02*
X122722142Y-55699285D01*
X122722142Y-55699285D02*
X122817380Y-55746904D01*
X122817380Y-55746904D02*
X122865000Y-55794523D01*
X122865000Y-55794523D02*
X122912619Y-55889761D01*
X122912619Y-55889761D02*
X122912619Y-56175475D01*
X122912619Y-56175475D02*
X122865000Y-56270713D01*
X122865000Y-56270713D02*
X122817380Y-56318332D01*
%TO.C,D2*%
X120372619Y-57223094D02*
X119372619Y-57223094D01*
X119372619Y-57223094D02*
X119372619Y-56984999D01*
X119372619Y-56984999D02*
X119420238Y-56842142D01*
X119420238Y-56842142D02*
X119515476Y-56746904D01*
X119515476Y-56746904D02*
X119610714Y-56699285D01*
X119610714Y-56699285D02*
X119801190Y-56651666D01*
X119801190Y-56651666D02*
X119944047Y-56651666D01*
X119944047Y-56651666D02*
X120134523Y-56699285D01*
X120134523Y-56699285D02*
X120229761Y-56746904D01*
X120229761Y-56746904D02*
X120325000Y-56842142D01*
X120325000Y-56842142D02*
X120372619Y-56984999D01*
X120372619Y-56984999D02*
X120372619Y-57223094D01*
X119467857Y-56270713D02*
X119420238Y-56223094D01*
X119420238Y-56223094D02*
X119372619Y-56127856D01*
X119372619Y-56127856D02*
X119372619Y-55889761D01*
X119372619Y-55889761D02*
X119420238Y-55794523D01*
X119420238Y-55794523D02*
X119467857Y-55746904D01*
X119467857Y-55746904D02*
X119563095Y-55699285D01*
X119563095Y-55699285D02*
X119658333Y-55699285D01*
X119658333Y-55699285D02*
X119801190Y-55746904D01*
X119801190Y-55746904D02*
X120372619Y-56318332D01*
X120372619Y-56318332D02*
X120372619Y-55699285D01*
%TO.C,D1*%
X117832619Y-57253094D02*
X116832619Y-57253094D01*
X116832619Y-57253094D02*
X116832619Y-57014999D01*
X116832619Y-57014999D02*
X116880238Y-56872142D01*
X116880238Y-56872142D02*
X116975476Y-56776904D01*
X116975476Y-56776904D02*
X117070714Y-56729285D01*
X117070714Y-56729285D02*
X117261190Y-56681666D01*
X117261190Y-56681666D02*
X117404047Y-56681666D01*
X117404047Y-56681666D02*
X117594523Y-56729285D01*
X117594523Y-56729285D02*
X117689761Y-56776904D01*
X117689761Y-56776904D02*
X117785000Y-56872142D01*
X117785000Y-56872142D02*
X117832619Y-57014999D01*
X117832619Y-57014999D02*
X117832619Y-57253094D01*
X117832619Y-55729285D02*
X117832619Y-56300713D01*
X117832619Y-56014999D02*
X116832619Y-56014999D01*
X116832619Y-56014999D02*
X116975476Y-56110237D01*
X116975476Y-56110237D02*
X117070714Y-56205475D01*
X117070714Y-56205475D02*
X117118333Y-56300713D01*
%TO.C,U2*%
X124112619Y-65711904D02*
X124922142Y-65711904D01*
X124922142Y-65711904D02*
X125017380Y-65664285D01*
X125017380Y-65664285D02*
X125065000Y-65616666D01*
X125065000Y-65616666D02*
X125112619Y-65521428D01*
X125112619Y-65521428D02*
X125112619Y-65330952D01*
X125112619Y-65330952D02*
X125065000Y-65235714D01*
X125065000Y-65235714D02*
X125017380Y-65188095D01*
X125017380Y-65188095D02*
X124922142Y-65140476D01*
X124922142Y-65140476D02*
X124112619Y-65140476D01*
X124207857Y-64711904D02*
X124160238Y-64664285D01*
X124160238Y-64664285D02*
X124112619Y-64569047D01*
X124112619Y-64569047D02*
X124112619Y-64330952D01*
X124112619Y-64330952D02*
X124160238Y-64235714D01*
X124160238Y-64235714D02*
X124207857Y-64188095D01*
X124207857Y-64188095D02*
X124303095Y-64140476D01*
X124303095Y-64140476D02*
X124398333Y-64140476D01*
X124398333Y-64140476D02*
X124541190Y-64188095D01*
X124541190Y-64188095D02*
X125112619Y-64759523D01*
X125112619Y-64759523D02*
X125112619Y-64140476D01*
%TO.C,SW6*%
X133888667Y-70949000D02*
X134031524Y-70996619D01*
X134031524Y-70996619D02*
X134269619Y-70996619D01*
X134269619Y-70996619D02*
X134364857Y-70949000D01*
X134364857Y-70949000D02*
X134412476Y-70901380D01*
X134412476Y-70901380D02*
X134460095Y-70806142D01*
X134460095Y-70806142D02*
X134460095Y-70710904D01*
X134460095Y-70710904D02*
X134412476Y-70615666D01*
X134412476Y-70615666D02*
X134364857Y-70568047D01*
X134364857Y-70568047D02*
X134269619Y-70520428D01*
X134269619Y-70520428D02*
X134079143Y-70472809D01*
X134079143Y-70472809D02*
X133983905Y-70425190D01*
X133983905Y-70425190D02*
X133936286Y-70377571D01*
X133936286Y-70377571D02*
X133888667Y-70282333D01*
X133888667Y-70282333D02*
X133888667Y-70187095D01*
X133888667Y-70187095D02*
X133936286Y-70091857D01*
X133936286Y-70091857D02*
X133983905Y-70044238D01*
X133983905Y-70044238D02*
X134079143Y-69996619D01*
X134079143Y-69996619D02*
X134317238Y-69996619D01*
X134317238Y-69996619D02*
X134460095Y-70044238D01*
X134793429Y-69996619D02*
X135031524Y-70996619D01*
X135031524Y-70996619D02*
X135222000Y-70282333D01*
X135222000Y-70282333D02*
X135412476Y-70996619D01*
X135412476Y-70996619D02*
X135650572Y-69996619D01*
X136460095Y-69996619D02*
X136269619Y-69996619D01*
X136269619Y-69996619D02*
X136174381Y-70044238D01*
X136174381Y-70044238D02*
X136126762Y-70091857D01*
X136126762Y-70091857D02*
X136031524Y-70234714D01*
X136031524Y-70234714D02*
X135983905Y-70425190D01*
X135983905Y-70425190D02*
X135983905Y-70806142D01*
X135983905Y-70806142D02*
X136031524Y-70901380D01*
X136031524Y-70901380D02*
X136079143Y-70949000D01*
X136079143Y-70949000D02*
X136174381Y-70996619D01*
X136174381Y-70996619D02*
X136364857Y-70996619D01*
X136364857Y-70996619D02*
X136460095Y-70949000D01*
X136460095Y-70949000D02*
X136507714Y-70901380D01*
X136507714Y-70901380D02*
X136555333Y-70806142D01*
X136555333Y-70806142D02*
X136555333Y-70568047D01*
X136555333Y-70568047D02*
X136507714Y-70472809D01*
X136507714Y-70472809D02*
X136460095Y-70425190D01*
X136460095Y-70425190D02*
X136364857Y-70377571D01*
X136364857Y-70377571D02*
X136174381Y-70377571D01*
X136174381Y-70377571D02*
X136079143Y-70425190D01*
X136079143Y-70425190D02*
X136031524Y-70472809D01*
X136031524Y-70472809D02*
X135983905Y-70568047D01*
%TO.C,SW5*%
X123666667Y-70949000D02*
X123809524Y-70996619D01*
X123809524Y-70996619D02*
X124047619Y-70996619D01*
X124047619Y-70996619D02*
X124142857Y-70949000D01*
X124142857Y-70949000D02*
X124190476Y-70901380D01*
X124190476Y-70901380D02*
X124238095Y-70806142D01*
X124238095Y-70806142D02*
X124238095Y-70710904D01*
X124238095Y-70710904D02*
X124190476Y-70615666D01*
X124190476Y-70615666D02*
X124142857Y-70568047D01*
X124142857Y-70568047D02*
X124047619Y-70520428D01*
X124047619Y-70520428D02*
X123857143Y-70472809D01*
X123857143Y-70472809D02*
X123761905Y-70425190D01*
X123761905Y-70425190D02*
X123714286Y-70377571D01*
X123714286Y-70377571D02*
X123666667Y-70282333D01*
X123666667Y-70282333D02*
X123666667Y-70187095D01*
X123666667Y-70187095D02*
X123714286Y-70091857D01*
X123714286Y-70091857D02*
X123761905Y-70044238D01*
X123761905Y-70044238D02*
X123857143Y-69996619D01*
X123857143Y-69996619D02*
X124095238Y-69996619D01*
X124095238Y-69996619D02*
X124238095Y-70044238D01*
X124571429Y-69996619D02*
X124809524Y-70996619D01*
X124809524Y-70996619D02*
X125000000Y-70282333D01*
X125000000Y-70282333D02*
X125190476Y-70996619D01*
X125190476Y-70996619D02*
X125428572Y-69996619D01*
X126285714Y-69996619D02*
X125809524Y-69996619D01*
X125809524Y-69996619D02*
X125761905Y-70472809D01*
X125761905Y-70472809D02*
X125809524Y-70425190D01*
X125809524Y-70425190D02*
X125904762Y-70377571D01*
X125904762Y-70377571D02*
X126142857Y-70377571D01*
X126142857Y-70377571D02*
X126238095Y-70425190D01*
X126238095Y-70425190D02*
X126285714Y-70472809D01*
X126285714Y-70472809D02*
X126333333Y-70568047D01*
X126333333Y-70568047D02*
X126333333Y-70806142D01*
X126333333Y-70806142D02*
X126285714Y-70901380D01*
X126285714Y-70901380D02*
X126238095Y-70949000D01*
X126238095Y-70949000D02*
X126142857Y-70996619D01*
X126142857Y-70996619D02*
X125904762Y-70996619D01*
X125904762Y-70996619D02*
X125809524Y-70949000D01*
X125809524Y-70949000D02*
X125761905Y-70901380D01*
%TO.C,SW4*%
X133666667Y-91965000D02*
X133809524Y-92012619D01*
X133809524Y-92012619D02*
X134047619Y-92012619D01*
X134047619Y-92012619D02*
X134142857Y-91965000D01*
X134142857Y-91965000D02*
X134190476Y-91917380D01*
X134190476Y-91917380D02*
X134238095Y-91822142D01*
X134238095Y-91822142D02*
X134238095Y-91726904D01*
X134238095Y-91726904D02*
X134190476Y-91631666D01*
X134190476Y-91631666D02*
X134142857Y-91584047D01*
X134142857Y-91584047D02*
X134047619Y-91536428D01*
X134047619Y-91536428D02*
X133857143Y-91488809D01*
X133857143Y-91488809D02*
X133761905Y-91441190D01*
X133761905Y-91441190D02*
X133714286Y-91393571D01*
X133714286Y-91393571D02*
X133666667Y-91298333D01*
X133666667Y-91298333D02*
X133666667Y-91203095D01*
X133666667Y-91203095D02*
X133714286Y-91107857D01*
X133714286Y-91107857D02*
X133761905Y-91060238D01*
X133761905Y-91060238D02*
X133857143Y-91012619D01*
X133857143Y-91012619D02*
X134095238Y-91012619D01*
X134095238Y-91012619D02*
X134238095Y-91060238D01*
X134571429Y-91012619D02*
X134809524Y-92012619D01*
X134809524Y-92012619D02*
X135000000Y-91298333D01*
X135000000Y-91298333D02*
X135190476Y-92012619D01*
X135190476Y-92012619D02*
X135428572Y-91012619D01*
X136238095Y-91345952D02*
X136238095Y-92012619D01*
X136000000Y-90965000D02*
X135761905Y-91679285D01*
X135761905Y-91679285D02*
X136380952Y-91679285D01*
%TO.C,SW3*%
X123666667Y-91965000D02*
X123809524Y-92012619D01*
X123809524Y-92012619D02*
X124047619Y-92012619D01*
X124047619Y-92012619D02*
X124142857Y-91965000D01*
X124142857Y-91965000D02*
X124190476Y-91917380D01*
X124190476Y-91917380D02*
X124238095Y-91822142D01*
X124238095Y-91822142D02*
X124238095Y-91726904D01*
X124238095Y-91726904D02*
X124190476Y-91631666D01*
X124190476Y-91631666D02*
X124142857Y-91584047D01*
X124142857Y-91584047D02*
X124047619Y-91536428D01*
X124047619Y-91536428D02*
X123857143Y-91488809D01*
X123857143Y-91488809D02*
X123761905Y-91441190D01*
X123761905Y-91441190D02*
X123714286Y-91393571D01*
X123714286Y-91393571D02*
X123666667Y-91298333D01*
X123666667Y-91298333D02*
X123666667Y-91203095D01*
X123666667Y-91203095D02*
X123714286Y-91107857D01*
X123714286Y-91107857D02*
X123761905Y-91060238D01*
X123761905Y-91060238D02*
X123857143Y-91012619D01*
X123857143Y-91012619D02*
X124095238Y-91012619D01*
X124095238Y-91012619D02*
X124238095Y-91060238D01*
X124571429Y-91012619D02*
X124809524Y-92012619D01*
X124809524Y-92012619D02*
X125000000Y-91298333D01*
X125000000Y-91298333D02*
X125190476Y-92012619D01*
X125190476Y-92012619D02*
X125428572Y-91012619D01*
X125714286Y-91012619D02*
X126333333Y-91012619D01*
X126333333Y-91012619D02*
X126000000Y-91393571D01*
X126000000Y-91393571D02*
X126142857Y-91393571D01*
X126142857Y-91393571D02*
X126238095Y-91441190D01*
X126238095Y-91441190D02*
X126285714Y-91488809D01*
X126285714Y-91488809D02*
X126333333Y-91584047D01*
X126333333Y-91584047D02*
X126333333Y-91822142D01*
X126333333Y-91822142D02*
X126285714Y-91917380D01*
X126285714Y-91917380D02*
X126238095Y-91965000D01*
X126238095Y-91965000D02*
X126142857Y-92012619D01*
X126142857Y-92012619D02*
X125857143Y-92012619D01*
X125857143Y-92012619D02*
X125761905Y-91965000D01*
X125761905Y-91965000D02*
X125714286Y-91917380D01*
%TO.C,SW2*%
X113666667Y-91965000D02*
X113809524Y-92012619D01*
X113809524Y-92012619D02*
X114047619Y-92012619D01*
X114047619Y-92012619D02*
X114142857Y-91965000D01*
X114142857Y-91965000D02*
X114190476Y-91917380D01*
X114190476Y-91917380D02*
X114238095Y-91822142D01*
X114238095Y-91822142D02*
X114238095Y-91726904D01*
X114238095Y-91726904D02*
X114190476Y-91631666D01*
X114190476Y-91631666D02*
X114142857Y-91584047D01*
X114142857Y-91584047D02*
X114047619Y-91536428D01*
X114047619Y-91536428D02*
X113857143Y-91488809D01*
X113857143Y-91488809D02*
X113761905Y-91441190D01*
X113761905Y-91441190D02*
X113714286Y-91393571D01*
X113714286Y-91393571D02*
X113666667Y-91298333D01*
X113666667Y-91298333D02*
X113666667Y-91203095D01*
X113666667Y-91203095D02*
X113714286Y-91107857D01*
X113714286Y-91107857D02*
X113761905Y-91060238D01*
X113761905Y-91060238D02*
X113857143Y-91012619D01*
X113857143Y-91012619D02*
X114095238Y-91012619D01*
X114095238Y-91012619D02*
X114238095Y-91060238D01*
X114571429Y-91012619D02*
X114809524Y-92012619D01*
X114809524Y-92012619D02*
X115000000Y-91298333D01*
X115000000Y-91298333D02*
X115190476Y-92012619D01*
X115190476Y-92012619D02*
X115428572Y-91012619D01*
X115761905Y-91107857D02*
X115809524Y-91060238D01*
X115809524Y-91060238D02*
X115904762Y-91012619D01*
X115904762Y-91012619D02*
X116142857Y-91012619D01*
X116142857Y-91012619D02*
X116238095Y-91060238D01*
X116238095Y-91060238D02*
X116285714Y-91107857D01*
X116285714Y-91107857D02*
X116333333Y-91203095D01*
X116333333Y-91203095D02*
X116333333Y-91298333D01*
X116333333Y-91298333D02*
X116285714Y-91441190D01*
X116285714Y-91441190D02*
X115714286Y-92012619D01*
X115714286Y-92012619D02*
X116333333Y-92012619D01*
%TO.C,SW1*%
X103666667Y-91965000D02*
X103809524Y-92012619D01*
X103809524Y-92012619D02*
X104047619Y-92012619D01*
X104047619Y-92012619D02*
X104142857Y-91965000D01*
X104142857Y-91965000D02*
X104190476Y-91917380D01*
X104190476Y-91917380D02*
X104238095Y-91822142D01*
X104238095Y-91822142D02*
X104238095Y-91726904D01*
X104238095Y-91726904D02*
X104190476Y-91631666D01*
X104190476Y-91631666D02*
X104142857Y-91584047D01*
X104142857Y-91584047D02*
X104047619Y-91536428D01*
X104047619Y-91536428D02*
X103857143Y-91488809D01*
X103857143Y-91488809D02*
X103761905Y-91441190D01*
X103761905Y-91441190D02*
X103714286Y-91393571D01*
X103714286Y-91393571D02*
X103666667Y-91298333D01*
X103666667Y-91298333D02*
X103666667Y-91203095D01*
X103666667Y-91203095D02*
X103714286Y-91107857D01*
X103714286Y-91107857D02*
X103761905Y-91060238D01*
X103761905Y-91060238D02*
X103857143Y-91012619D01*
X103857143Y-91012619D02*
X104095238Y-91012619D01*
X104095238Y-91012619D02*
X104238095Y-91060238D01*
X104571429Y-91012619D02*
X104809524Y-92012619D01*
X104809524Y-92012619D02*
X105000000Y-91298333D01*
X105000000Y-91298333D02*
X105190476Y-92012619D01*
X105190476Y-92012619D02*
X105428572Y-91012619D01*
X106333333Y-92012619D02*
X105761905Y-92012619D01*
X106047619Y-92012619D02*
X106047619Y-91012619D01*
X106047619Y-91012619D02*
X105952381Y-91155476D01*
X105952381Y-91155476D02*
X105857143Y-91250714D01*
X105857143Y-91250714D02*
X105761905Y-91298333D01*
D12*
%TO.C,U1*%
X114925000Y-75045000D02*
X112975000Y-75045000D01*
X114925000Y-66175000D02*
X111475000Y-66175000D01*
X114925000Y-75045000D02*
X116875000Y-75045000D01*
X114925000Y-66175000D02*
X116875000Y-66175000D01*
%TO.C,C4*%
X127738748Y-59065000D02*
X128261252Y-59065000D01*
X127738748Y-60535000D02*
X128261252Y-60535000D01*
%TO.C,C3*%
X116861252Y-65535000D02*
X116338748Y-65535000D01*
X116861252Y-64065000D02*
X116338748Y-64065000D01*
%TO.C,C1*%
X109140000Y-62000000D02*
X109140000Y-61500000D01*
X108440000Y-60195563D02*
X108440000Y-56740000D01*
X112960000Y-60195563D02*
X112960000Y-56740000D01*
X111895563Y-61260000D02*
X112960000Y-60195563D01*
X108890000Y-61750000D02*
X109390000Y-61750000D01*
X112960000Y-56740000D02*
X111760000Y-56740000D01*
X108440000Y-56740000D02*
X109640000Y-56740000D01*
X109504437Y-61260000D02*
X109640000Y-61260000D01*
X111895563Y-61260000D02*
X111760000Y-61260000D01*
X109504437Y-61260000D02*
X108440000Y-60195563D01*
%TO.C,C8*%
X106412164Y-69440000D02*
X106627836Y-69440000D01*
X106412164Y-70160000D02*
X106627836Y-70160000D01*
%TO.C,C7*%
X106412164Y-73640000D02*
X106627836Y-73640000D01*
X106412164Y-74360000D02*
X106627836Y-74360000D01*
%TO.C,C6*%
X106412164Y-78560000D02*
X106627836Y-78560000D01*
X106412164Y-77840000D02*
X106627836Y-77840000D01*
%TO.C,C5*%
X106412164Y-82790000D02*
X106627836Y-82790000D01*
X106412164Y-82070000D02*
X106627836Y-82070000D01*
%TO.C,R12*%
X123440000Y-59228641D02*
X123440000Y-58921359D01*
X124200000Y-59228641D02*
X124200000Y-58921359D01*
%TO.C,R11*%
X120900000Y-59228641D02*
X120900000Y-58921359D01*
X121660000Y-59228641D02*
X121660000Y-58921359D01*
%TO.C,R10*%
X118360000Y-59228641D02*
X118360000Y-58921359D01*
X119120000Y-59228641D02*
X119120000Y-58921359D01*
%TO.C,R9*%
X116580000Y-59228641D02*
X116580000Y-58921359D01*
X115820000Y-59228641D02*
X115820000Y-58921359D01*
%TO.C,R8*%
X103456359Y-67020000D02*
X103763641Y-67020000D01*
X103456359Y-67780000D02*
X103763641Y-67780000D01*
%TO.C,R7*%
X106703641Y-67780000D02*
X106396359Y-67780000D01*
X106703641Y-67020000D02*
X106396359Y-67020000D01*
%TO.C,R6*%
X103456359Y-71946668D02*
X103763641Y-71946668D01*
X103456359Y-71186668D02*
X103763641Y-71186668D01*
%TO.C,R5*%
X106703641Y-71186668D02*
X106396359Y-71186668D01*
X106703641Y-71946668D02*
X106396359Y-71946668D01*
%TO.C,R4*%
X103456359Y-75353334D02*
X103763641Y-75353334D01*
X103456359Y-76113334D02*
X103763641Y-76113334D01*
%TO.C,R3*%
X106703641Y-76113334D02*
X106396359Y-76113334D01*
X106703641Y-75353334D02*
X106396359Y-75353334D01*
%TO.C,R2*%
X103456359Y-79650000D02*
X103763641Y-79650000D01*
X103456359Y-80410000D02*
X103763641Y-80410000D01*
%TO.C,R1*%
X106703641Y-80410000D02*
X106396359Y-80410000D01*
X106703641Y-79650000D02*
X106396359Y-79650000D01*
D13*
%TO.C,D4*%
X123870000Y-55395000D02*
G75*
G03*
X123870000Y-55395000I-50000J0D01*
G01*
%TO.C,D3*%
X121330000Y-55395000D02*
G75*
G03*
X121330000Y-55395000I-50000J0D01*
G01*
%TO.C,D2*%
X118790000Y-55395000D02*
G75*
G03*
X118790000Y-55395000I-50000J0D01*
G01*
%TO.C,D1*%
X116250000Y-55425000D02*
G75*
G03*
X116250000Y-55425000I-50000J0D01*
G01*
D12*
%TO.C,U2*%
X134310000Y-65010000D02*
X134310000Y-66960000D01*
X125440000Y-65010000D02*
X125440000Y-68460000D01*
X134310000Y-65010000D02*
X134310000Y-63060000D01*
X125440000Y-65010000D02*
X125440000Y-63060000D01*
%TO.C,SW6*%
X137150000Y-72154000D02*
X137460000Y-72154000D01*
X137660000Y-74564000D02*
X138160000Y-75064000D01*
X138160000Y-75064000D02*
X138160000Y-74064000D01*
X132940000Y-72154000D02*
X133250000Y-72154000D01*
X138160000Y-74064000D02*
X137660000Y-74564000D01*
X132940000Y-80974000D02*
X133250000Y-80974000D01*
X137460000Y-80974000D02*
X137150000Y-80974000D01*
X132940000Y-80974000D02*
X132940000Y-72154000D01*
X137460000Y-72154000D02*
X137460000Y-80974000D01*
%TO.C,SW5*%
X126950000Y-72090000D02*
X127260000Y-72090000D01*
X127460000Y-74500000D02*
X127960000Y-75000000D01*
X127960000Y-75000000D02*
X127960000Y-74000000D01*
X122740000Y-72090000D02*
X123050000Y-72090000D01*
X127960000Y-74000000D02*
X127460000Y-74500000D01*
X122740000Y-80910000D02*
X123050000Y-80910000D01*
X127260000Y-80910000D02*
X126950000Y-80910000D01*
X122740000Y-80910000D02*
X122740000Y-72090000D01*
X127260000Y-72090000D02*
X127260000Y-80910000D01*
%TO.C,J3*%
X127690000Y-53130000D02*
X127690000Y-50470000D01*
X114930000Y-53130000D02*
X127690000Y-53130000D01*
X112330000Y-50470000D02*
X113660000Y-50470000D01*
X114930000Y-50470000D02*
X127690000Y-50470000D01*
X114930000Y-53130000D02*
X114930000Y-50470000D01*
X112330000Y-51800000D02*
X112330000Y-50470000D01*
%TO.C,SW4*%
X131500000Y-86550000D02*
X131500000Y-88050000D01*
X132750000Y-90550000D02*
X137250000Y-90550000D01*
X138500000Y-88050000D02*
X138500000Y-86550000D01*
X137250000Y-84050000D02*
X132750000Y-84050000D01*
%TO.C,SW3*%
X121500000Y-86550000D02*
X121500000Y-88050000D01*
X122750000Y-90550000D02*
X127250000Y-90550000D01*
X128500000Y-88050000D02*
X128500000Y-86550000D01*
X127250000Y-84050000D02*
X122750000Y-84050000D01*
%TO.C,SW2*%
X111500000Y-86550000D02*
X111500000Y-88050000D01*
X112750000Y-90550000D02*
X117250000Y-90550000D01*
X118500000Y-88050000D02*
X118500000Y-86550000D01*
X117250000Y-84050000D02*
X112750000Y-84050000D01*
%TO.C,SW1*%
X101500000Y-86550000D02*
X101500000Y-88050000D01*
X102750000Y-90550000D02*
X107250000Y-90550000D01*
X108500000Y-88050000D02*
X108500000Y-86550000D01*
X107250000Y-84050000D02*
X102750000Y-84050000D01*
%TO.C,J2*%
X138330000Y-62270000D02*
X138330000Y-64870000D01*
X135670000Y-59670000D02*
X137000000Y-59670000D01*
X135670000Y-62270000D02*
X138330000Y-62270000D01*
X135670000Y-62270000D02*
X135670000Y-64870000D01*
X135670000Y-64870000D02*
X138330000Y-64870000D01*
X135670000Y-61000000D02*
X135670000Y-59670000D01*
%TO.C,J1*%
X104330000Y-62270000D02*
X104330000Y-64870000D01*
X101670000Y-59670000D02*
X103000000Y-59670000D01*
X101670000Y-62270000D02*
X104330000Y-62270000D01*
X101670000Y-62270000D02*
X101670000Y-64870000D01*
X101670000Y-64870000D02*
X104330000Y-64870000D01*
X101670000Y-61000000D02*
X101670000Y-59670000D01*
%TD*%
M02*
